<svg width="420" height="700" viewBox="0 0 420 700" fill="none" xmlns="http://www.w3.org/2000/svg">
<rect x="1.5" y="1.5" width="417" height="697" rx="18.5" fill="#312B2B"/>
<path d="M48.7727 64.3636C48.7727 66.8485 48.3182 68.9848 47.4091 70.7727C46.5 72.553 45.2538 73.9242 43.6705 74.8864C42.0947 75.8409 40.303 76.3182 38.2955 76.3182C36.2803 76.3182 34.4811 75.8409 32.8977 74.8864C31.322 73.9242 30.0795 72.5492 29.1705 70.7614C28.2614 68.9735 27.8068 66.8409 27.8068 64.3636C27.8068 61.8788 28.2614 59.7462 29.1705 57.9659C30.0795 56.178 31.322 54.8068 32.8977 53.8523C34.4811 52.8902 36.2803 52.4091 38.2955 52.4091C40.303 52.4091 42.0947 52.8902 43.6705 53.8523C45.2538 54.8068 46.5 56.178 47.4091 57.9659C48.3182 59.7462 48.7727 61.8788 48.7727 64.3636ZM45.2955 64.3636C45.2955 62.4697 44.9886 60.875 44.375 59.5795C43.7689 58.2765 42.9356 57.2917 41.875 56.625C40.822 55.9508 39.6288 55.6136 38.2955 55.6136C36.9545 55.6136 35.7576 55.9508 34.7045 56.625C33.6515 57.2917 32.8182 58.2765 32.2045 59.5795C31.5985 60.875 31.2955 62.4697 31.2955 64.3636C31.2955 66.2576 31.5985 67.8561 32.2045 69.1591C32.8182 70.4545 33.6515 71.4394 34.7045 72.1136C35.7576 72.7803 36.9545 73.1136 38.2955 73.1136C39.6288 73.1136 40.822 72.7803 41.875 72.1136C42.9356 71.4394 43.7689 70.4545 44.375 69.1591C44.9886 67.8561 45.2955 66.2576 45.2955 64.3636ZM53.1506 76V52.7273H61.6733C63.3248 52.7273 64.6922 53 65.7756 53.5455C66.8589 54.0833 67.6695 54.8144 68.2074 55.7386C68.7453 56.6553 69.0142 57.6894 69.0142 58.8409C69.0142 59.8106 68.8362 60.6288 68.4801 61.2955C68.1241 61.9545 67.6468 62.4848 67.0483 62.8864C66.4574 63.2803 65.8059 63.5682 65.0938 63.75V63.9773C65.8665 64.0152 66.6203 64.2652 67.3551 64.7273C68.0975 65.1818 68.7112 65.8295 69.196 66.6705C69.6809 67.5114 69.9233 68.5341 69.9233 69.7386C69.9233 70.928 69.643 71.9962 69.0824 72.9432C68.5294 73.8826 67.6733 74.6288 66.5142 75.1818C65.3551 75.7273 63.8741 76 62.071 76H53.1506ZM56.6619 72.9886H61.7301C63.4119 72.9886 64.6165 72.6629 65.3438 72.0114C66.071 71.3598 66.4347 70.5455 66.4347 69.5682C66.4347 68.8333 66.2491 68.1591 65.8778 67.5455C65.5066 66.9318 64.9763 66.4432 64.2869 66.0795C63.6051 65.7159 62.7945 65.5341 61.8551 65.5341H56.6619V72.9886ZM56.6619 62.7955H61.3665C62.1544 62.7955 62.8627 62.6439 63.4915 62.3409C64.1278 62.0379 64.6316 61.6136 65.0028 61.0682C65.3816 60.5152 65.571 59.8636 65.571 59.1136C65.571 58.1515 65.2339 57.3447 64.5597 56.6932C63.8854 56.0417 62.8513 55.7159 61.4574 55.7159H56.6619V62.7955ZM83.1335 52.7273H86.6335V69.2273C86.6335 70.7197 86.3381 71.9962 85.7472 73.0568C85.1638 74.1174 84.3419 74.928 83.2812 75.4886C82.2206 76.0417 80.9782 76.3182 79.554 76.3182C78.2434 76.3182 77.0653 76.0795 76.0199 75.6023C74.982 75.125 74.16 74.4318 73.554 73.5227C72.9555 72.6061 72.6562 71.4924 72.6562 70.1818H76.1449C76.1449 70.8258 76.2926 71.3826 76.5881 71.8523C76.8911 72.322 77.304 72.6894 77.8267 72.9545C78.357 73.2121 78.9631 73.3409 79.6449 73.3409C80.3873 73.3409 81.0161 73.1856 81.5312 72.875C82.054 72.5568 82.4517 72.0909 82.7244 71.4773C82.9972 70.8636 83.1335 70.1136 83.1335 69.2273V52.7273ZM91.7443 76V52.7273H106.335V55.75H95.2557V62.8409H105.574V65.8523H95.2557V72.9773H106.472V76H91.7443ZM130.355 60.2955H126.81C126.673 59.5379 126.42 58.8712 126.048 58.2955C125.677 57.7197 125.223 57.2311 124.685 56.8295C124.147 56.428 123.545 56.125 122.878 55.9205C122.219 55.7159 121.518 55.6136 120.776 55.6136C119.435 55.6136 118.234 55.9508 117.173 56.625C116.12 57.2992 115.287 58.2879 114.673 59.5909C114.067 60.8939 113.764 62.4848 113.764 64.3636C113.764 66.2576 114.067 67.8561 114.673 69.1591C115.287 70.4621 116.124 71.447 117.185 72.1136C118.245 72.7803 119.438 73.1136 120.764 73.1136C121.499 73.1136 122.196 73.0152 122.855 72.8182C123.522 72.6136 124.124 72.3144 124.662 71.9205C125.2 71.5265 125.654 71.0455 126.026 70.4773C126.404 69.9015 126.666 69.2424 126.81 68.5L130.355 68.5114C130.166 69.6553 129.798 70.7083 129.253 71.6705C128.715 72.625 128.022 73.4508 127.173 74.1477C126.332 74.8371 125.37 75.3712 124.287 75.75C123.204 76.1288 122.022 76.3182 120.741 76.3182C118.726 76.3182 116.931 75.8409 115.355 74.8864C113.779 73.9242 112.537 72.5492 111.628 70.7614C110.726 68.9735 110.276 66.8409 110.276 64.3636C110.276 61.8788 110.73 59.7462 111.639 57.9659C112.548 56.178 113.791 54.8068 115.366 53.8523C116.942 52.8902 118.734 52.4091 120.741 52.4091C121.976 52.4091 123.128 52.5871 124.196 52.9432C125.272 53.2917 126.238 53.8068 127.094 54.4886C127.95 55.1629 128.658 55.9886 129.219 56.9659C129.779 57.9356 130.158 59.0455 130.355 60.2955ZM133.409 55.75V52.7273H151.42V55.75H144.159V76H140.659V55.75H133.409Z" fill="#FAF0F0"/>
<path d="M166.591 52.7273L173.068 71.6818H173.33L179.807 52.7273H183.602L175.227 76H171.17L162.795 52.7273H166.591ZM186.963 76V52.7273H201.554V55.75H190.474V62.8409H200.793V65.8523H190.474V72.9773H201.69V76H186.963ZM206.244 76V52.7273H209.756V62.8409H221.358V52.7273H224.881V76H221.358V65.8523H209.756V76H206.244ZM233.506 52.7273V76H229.994V52.7273H233.506ZM257.949 60.2955H254.403C254.267 59.5379 254.013 58.8712 253.642 58.2955C253.271 57.7197 252.816 57.2311 252.278 56.8295C251.741 56.428 251.138 56.125 250.472 55.9205C249.813 55.7159 249.112 55.6136 248.369 55.6136C247.028 55.6136 245.828 55.9508 244.767 56.625C243.714 57.2992 242.881 58.2879 242.267 59.5909C241.661 60.8939 241.358 62.4848 241.358 64.3636C241.358 66.2576 241.661 67.8561 242.267 69.1591C242.881 70.4621 243.718 71.447 244.778 72.1136C245.839 72.7803 247.032 73.1136 248.358 73.1136C249.093 73.1136 249.79 73.0152 250.449 72.8182C251.116 72.6136 251.718 72.3144 252.256 71.9205C252.794 71.5265 253.248 71.0455 253.619 70.4773C253.998 69.9015 254.259 69.2424 254.403 68.5L257.949 68.5114C257.759 69.6553 257.392 70.7083 256.847 71.6705C256.309 72.625 255.616 73.4508 254.767 74.1477C253.926 74.8371 252.964 75.3712 251.881 75.75C250.797 76.1288 249.616 76.3182 248.335 76.3182C246.32 76.3182 244.525 75.8409 242.949 74.8864C241.373 73.9242 240.131 72.5492 239.222 70.7614C238.32 68.9735 237.869 66.8409 237.869 64.3636C237.869 61.8788 238.324 59.7462 239.233 57.9659C240.142 56.178 241.384 54.8068 242.96 53.8523C244.536 52.8902 246.328 52.4091 248.335 52.4091C249.57 52.4091 250.722 52.5871 251.79 52.9432C252.866 53.2917 253.831 53.8068 254.688 54.4886C255.544 55.1629 256.252 55.9886 256.812 56.9659C257.373 57.9356 257.752 59.0455 257.949 60.2955ZM262.151 76V52.7273H265.662V72.9773H276.207V76H262.151ZM280.213 76V52.7273H294.804V55.75H283.724V62.8409H294.043V65.8523H283.724V72.9773H294.94V76H280.213Z" fill="#E9BA12"/>
<path d="M50.4148 138H49.3068L52.5114 129.273H53.6023L56.8068 138H55.6989L53.0909 130.653H53.0227L50.4148 138ZM50.8239 134.591H55.2898V135.528H50.8239V134.591ZM56.6694 130.21V129.273H63.2148V130.21H60.4705V138H59.4137V130.21H56.6694ZM64.8459 138V129.273H67.7947C68.4766 129.273 69.0362 129.389 69.4737 129.622C69.9112 129.852 70.2351 130.169 70.4453 130.572C70.6555 130.976 70.7607 131.435 70.7607 131.949C70.7607 132.463 70.6555 132.919 70.4453 133.317C70.2351 133.714 69.9126 134.027 69.478 134.254C69.0433 134.479 68.4879 134.591 67.8118 134.591H65.4254V133.636H67.7777C68.2436 133.636 68.6186 133.568 68.9027 133.432C69.1896 133.295 69.397 133.102 69.5249 132.852C69.6555 132.599 69.7209 132.298 69.7209 131.949C69.7209 131.599 69.6555 131.294 69.5249 131.033C69.3942 130.771 69.1854 130.57 68.8984 130.428C68.6115 130.283 68.2322 130.21 67.7607 130.21H65.9027V138H64.8459ZM68.9538 134.08L71.1016 138H69.8743L67.7607 134.08H68.9538ZM73.5785 129.273V138H72.5217V129.273H73.5785ZM75.6974 138V129.273H78.7486C79.3565 129.273 79.858 129.378 80.2528 129.588C80.6477 129.795 80.9418 130.075 81.1349 130.428C81.3281 130.777 81.4247 131.165 81.4247 131.591C81.4247 131.966 81.358 132.276 81.2244 132.52C81.0938 132.764 80.9205 132.957 80.7045 133.099C80.4915 133.241 80.2599 133.347 80.0099 133.415V133.5C80.277 133.517 80.5455 133.611 80.8153 133.781C81.0852 133.952 81.3111 134.196 81.4929 134.514C81.6747 134.832 81.7656 135.222 81.7656 135.682C81.7656 136.119 81.6662 136.513 81.4673 136.862C81.2685 137.212 80.9545 137.489 80.5256 137.693C80.0966 137.898 79.5384 138 78.8509 138H75.6974ZM76.7543 137.062H78.8509C79.5412 137.062 80.0313 136.929 80.321 136.662C80.6136 136.392 80.7599 136.065 80.7599 135.682C80.7599 135.386 80.6847 135.114 80.5341 134.864C80.3835 134.611 80.169 134.409 79.8906 134.259C79.6122 134.105 79.2827 134.028 78.902 134.028H76.7543V137.062ZM76.7543 133.108H78.7145C79.0327 133.108 79.3196 133.045 79.5753 132.92C79.8338 132.795 80.0384 132.619 80.1889 132.392C80.3423 132.165 80.419 131.898 80.419 131.591C80.419 131.207 80.2855 130.882 80.0185 130.615C79.7514 130.345 79.3281 130.21 78.7486 130.21H76.7543V133.108ZM89.2294 129.273H90.2862V135.051C90.2862 135.648 90.1456 136.18 89.8643 136.649C89.5859 137.115 89.1925 137.483 88.6839 137.753C88.1754 138.02 87.5788 138.153 86.8942 138.153C86.2095 138.153 85.6129 138.02 85.1044 137.753C84.5959 137.483 84.201 137.115 83.9197 136.649C83.6413 136.18 83.5021 135.648 83.5021 135.051V129.273H84.5589V134.966C84.5589 135.392 84.6527 135.771 84.8402 136.104C85.0277 136.433 85.2947 136.693 85.6413 136.884C85.9908 137.071 86.4084 137.165 86.8942 137.165C87.38 137.165 87.7976 137.071 88.147 136.884C88.4964 136.693 88.7635 136.433 88.9482 136.104C89.1357 135.771 89.2294 135.392 89.2294 134.966V129.273ZM91.9194 130.21V129.273H98.4648V130.21H95.7205V138H94.6637V130.21H91.9194ZM100.096 138V129.273H105.363V130.21H101.153V133.159H105.09V134.097H101.153V137.062H105.431V138H100.096ZM112.04 131.455C111.989 131.023 111.782 130.688 111.418 130.449C111.055 130.21 110.609 130.091 110.08 130.091C109.694 130.091 109.356 130.153 109.066 130.278C108.779 130.403 108.555 130.575 108.393 130.794C108.234 131.013 108.154 131.261 108.154 131.54C108.154 131.773 108.21 131.973 108.32 132.141C108.434 132.305 108.579 132.443 108.755 132.554C108.931 132.662 109.116 132.751 109.309 132.822C109.502 132.891 109.68 132.946 109.842 132.989L110.728 133.227C110.955 133.287 111.208 133.369 111.487 133.474C111.768 133.58 112.036 133.723 112.292 133.905C112.55 134.084 112.763 134.314 112.931 134.595C113.099 134.876 113.183 135.222 113.183 135.631C113.183 136.102 113.059 136.528 112.812 136.909C112.567 137.29 112.21 137.592 111.738 137.817C111.269 138.041 110.7 138.153 110.029 138.153C109.404 138.153 108.863 138.053 108.406 137.851C107.951 137.649 107.593 137.368 107.332 137.007C107.073 136.646 106.927 136.227 106.893 135.75H107.984C108.012 136.08 108.123 136.352 108.316 136.568C108.512 136.781 108.759 136.94 109.058 137.045C109.359 137.148 109.683 137.199 110.029 137.199C110.433 137.199 110.795 137.134 111.116 137.003C111.437 136.869 111.691 136.685 111.879 136.449C112.066 136.21 112.16 135.932 112.16 135.614C112.16 135.324 112.079 135.088 111.917 134.906C111.755 134.724 111.542 134.577 111.278 134.463C111.013 134.349 110.728 134.25 110.421 134.165L109.347 133.858C108.665 133.662 108.126 133.382 107.728 133.018C107.33 132.655 107.131 132.179 107.131 131.591C107.131 131.102 107.263 130.676 107.528 130.312C107.795 129.946 108.153 129.662 108.602 129.46C109.053 129.256 109.558 129.153 110.114 129.153C110.677 129.153 111.177 129.254 111.614 129.456C112.052 129.655 112.398 129.928 112.654 130.274C112.913 130.621 113.049 131.014 113.063 131.455H112.04ZM115.517 136.884C115.306 136.884 115.126 136.808 114.975 136.658C114.825 136.507 114.75 136.327 114.75 136.116C114.75 135.906 114.825 135.726 114.975 135.575C115.126 135.425 115.306 135.349 115.517 135.349C115.727 135.349 115.907 135.425 116.058 135.575C116.208 135.726 116.284 135.906 116.284 136.116C116.284 136.256 116.248 136.384 116.177 136.5C116.109 136.616 116.017 136.71 115.9 136.781C115.787 136.849 115.659 136.884 115.517 136.884ZM115.517 132.469C115.306 132.469 115.126 132.393 114.975 132.243C114.825 132.092 114.75 131.912 114.75 131.702C114.75 131.491 114.825 131.311 114.975 131.161C115.126 131.01 115.306 130.935 115.517 130.935C115.727 130.935 115.907 131.01 116.058 131.161C116.208 131.311 116.284 131.491 116.284 131.702C116.284 131.841 116.248 131.969 116.177 132.085C116.109 132.202 116.017 132.295 115.9 132.366C115.787 132.435 115.659 132.469 115.517 132.469Z" fill="#FFF8F8"/>
<circle cx="367" cy="58" r="23.5" fill="#FCEFEF" stroke="#E9BA12" stroke-width="3"/>
<rect x="25" y="124" width="20" height="19" fill="#7E7272"/>
<rect x="25" y="563" width="20" height="19" fill="#7E7272"/>
<rect x="26.5" y="151.5" width="176" height="57" rx="16.5" fill="#7E7272"/>
<rect x="26.5" y="151.5" width="176" height="57" rx="16.5" fill="black" fill-opacity="0.2"/>
<rect x="26.5" y="151.5" width="176" height="57" rx="16.5" stroke="#E9BA12" stroke-width="3"/>
<rect x="26.5" y="219.5" width="176" height="57" rx="16.5" fill="#7E7272"/>
<rect x="26.5" y="219.5" width="176" height="57" rx="16.5" fill="black" fill-opacity="0.2"/>
<rect x="26.5" y="219.5" width="176" height="57" rx="16.5" stroke="#E9BA12" stroke-width="3"/>
<rect x="211.5" y="151.5" width="176" height="57" rx="16.5" fill="#7E7272"/>
<rect x="211.5" y="151.5" width="176" height="57" rx="16.5" fill="black" fill-opacity="0.2"/>
<rect x="211.5" y="151.5" width="176" height="57" rx="16.5" stroke="#E9BA12" stroke-width="3"/>
<g filter="url(#filter0_d_7_20)">
<rect x="210" y="218" width="179" height="60" rx="18" fill="#7E7272"/>
<rect x="210" y="218" width="179" height="60" rx="18" fill="black" fill-opacity="0.2"/>
<rect x="211.5" y="219.5" width="176" height="57" rx="16.5" stroke="#E9BA12" stroke-width="3"/>
</g>
<rect x="28.5" y="293.5" width="366" height="255" stroke="#E9BA12" stroke-width="5"/>
<path d="M37.0568 168V159.273H40.108C40.7159 159.273 41.2173 159.378 41.6122 159.588C42.0071 159.795 42.3011 160.075 42.4943 160.428C42.6875 160.777 42.7841 161.165 42.7841 161.591C42.7841 161.966 42.7173 162.276 42.5838 162.52C42.4531 162.764 42.2798 162.957 42.0639 163.099C41.8509 163.241 41.6193 163.347 41.3693 163.415V163.5C41.6364 163.517 41.9048 163.611 42.1747 163.781C42.4446 163.952 42.6705 164.196 42.8523 164.514C43.0341 164.832 43.125 165.222 43.125 165.682C43.125 166.119 43.0256 166.513 42.8267 166.862C42.6278 167.212 42.3139 167.489 41.8849 167.693C41.456 167.898 40.8977 168 40.2102 168H37.0568ZM38.1136 167.062H40.2102C40.9006 167.062 41.3906 166.929 41.6804 166.662C41.973 166.392 42.1193 166.065 42.1193 165.682C42.1193 165.386 42.044 165.114 41.8935 164.864C41.7429 164.611 41.5284 164.409 41.25 164.259C40.9716 164.105 40.642 164.028 40.2614 164.028H38.1136V167.062ZM38.1136 163.108H40.0739C40.392 163.108 40.679 163.045 40.9347 162.92C41.1932 162.795 41.3977 162.619 41.5483 162.392C41.7017 162.165 41.7784 161.898 41.7784 161.591C41.7784 161.207 41.6449 160.882 41.3778 160.615C41.1108 160.345 40.6875 160.21 40.108 160.21H38.1136V163.108ZM44.8615 168V159.273H47.8104C48.4922 159.273 49.0518 159.389 49.4893 159.622C49.9268 159.852 50.2507 160.169 50.4609 160.572C50.6712 160.976 50.7763 161.435 50.7763 161.949C50.7763 162.463 50.6712 162.919 50.4609 163.317C50.2507 163.714 49.9283 164.027 49.4936 164.254C49.0589 164.479 48.5036 164.591 47.8274 164.591H45.4411V163.636H47.7933C48.2592 163.636 48.6342 163.568 48.9183 163.432C49.2053 163.295 49.4126 163.102 49.5405 162.852C49.6712 162.599 49.7365 162.298 49.7365 161.949C49.7365 161.599 49.6712 161.294 49.5405 161.033C49.4098 160.771 49.201 160.57 48.9141 160.428C48.6271 160.283 48.2479 160.21 47.7763 160.21H45.9183V168H44.8615ZM48.9695 164.08L51.1172 168H49.8899L47.7763 164.08H48.9695ZM52.8952 168H51.7873L54.9918 159.273H56.0827L59.2873 168H58.1793L55.5714 160.653H55.5032L52.8952 168ZM53.3043 164.591H57.7702V165.528H53.3043V164.591ZM67.5671 159.273V168H66.5444L61.7887 161.148H61.7035V168H60.6467V159.273H61.6694L66.4421 166.142H66.5273V159.273H67.5671ZM72.375 168H69.6818V159.273H72.4943C73.3409 159.273 74.0653 159.447 74.6676 159.797C75.2699 160.143 75.7315 160.642 76.0526 161.293C76.3736 161.94 76.5341 162.716 76.5341 163.619C76.5341 164.528 76.3722 165.311 76.0483 165.967C75.7244 166.621 75.2528 167.124 74.6335 167.476C74.0142 167.825 73.2614 168 72.375 168ZM70.7386 167.062H72.3068C73.0284 167.062 73.6264 166.923 74.1009 166.645C74.5753 166.366 74.929 165.97 75.1619 165.456C75.3949 164.942 75.5114 164.33 75.5114 163.619C75.5114 162.915 75.3963 162.308 75.1662 161.8C74.9361 161.288 74.5923 160.896 74.1349 160.624C73.6776 160.348 73.108 160.21 72.4261 160.21H70.7386V167.062ZM78.9034 166.884C78.6932 166.884 78.5128 166.808 78.3622 166.658C78.2116 166.507 78.1364 166.327 78.1364 166.116C78.1364 165.906 78.2116 165.726 78.3622 165.575C78.5128 165.425 78.6932 165.349 78.9034 165.349C79.1136 165.349 79.294 165.425 79.4446 165.575C79.5952 165.726 79.6705 165.906 79.6705 166.116C79.6705 166.256 79.6349 166.384 79.5639 166.5C79.4957 166.616 79.4034 166.71 79.2869 166.781C79.1733 166.849 79.0455 166.884 78.9034 166.884ZM78.9034 162.469C78.6932 162.469 78.5128 162.393 78.3622 162.243C78.2116 162.092 78.1364 161.912 78.1364 161.702C78.1364 161.491 78.2116 161.311 78.3622 161.161C78.5128 161.01 78.6932 160.935 78.9034 160.935C79.1136 160.935 79.294 161.01 79.4446 161.161C79.5952 161.311 79.6705 161.491 79.6705 161.702C79.6705 161.841 79.6349 161.969 79.5639 162.085C79.4957 162.202 79.4034 162.295 79.2869 162.366C79.1733 162.435 79.0455 162.469 78.9034 162.469Z" fill="white"/>
<path d="M232.08 229H231.023C230.96 228.696 230.851 228.429 230.695 228.199C230.541 227.969 230.354 227.776 230.132 227.619C229.913 227.46 229.67 227.341 229.403 227.261C229.136 227.182 228.858 227.142 228.568 227.142C228.04 227.142 227.561 227.276 227.132 227.543C226.706 227.81 226.366 228.203 226.114 228.723C225.864 229.243 225.739 229.881 225.739 230.636C225.739 231.392 225.864 232.03 226.114 232.55C226.366 233.07 226.706 233.463 227.132 233.73C227.561 233.997 228.04 234.131 228.568 234.131C228.858 234.131 229.136 234.091 229.403 234.011C229.67 233.932 229.913 233.814 230.132 233.658C230.354 233.499 230.541 233.304 230.695 233.074C230.851 232.841 230.96 232.574 231.023 232.273H232.08C232 232.719 231.855 233.118 231.645 233.47C231.435 233.822 231.173 234.122 230.861 234.369C230.548 234.614 230.197 234.8 229.808 234.928C229.422 235.055 229.009 235.119 228.568 235.119C227.824 235.119 227.162 234.938 226.582 234.574C226.003 234.21 225.547 233.693 225.214 233.023C224.882 232.352 224.716 231.557 224.716 230.636C224.716 229.716 224.882 228.92 225.214 228.25C225.547 227.58 226.003 227.062 226.582 226.699C227.162 226.335 227.824 226.153 228.568 226.153C229.009 226.153 229.422 226.217 229.808 226.345C230.197 226.473 230.548 226.661 230.861 226.908C231.173 227.152 231.435 227.45 231.645 227.803C231.855 228.152 232 228.551 232.08 229ZM241.151 230.636C241.151 231.557 240.985 232.352 240.652 233.023C240.32 233.693 239.864 234.21 239.284 234.574C238.705 234.938 238.043 235.119 237.299 235.119C236.554 235.119 235.892 234.938 235.313 234.574C234.733 234.21 234.277 233.693 233.945 233.023C233.613 232.352 233.446 231.557 233.446 230.636C233.446 229.716 233.613 228.92 233.945 228.25C234.277 227.58 234.733 227.062 235.313 226.699C235.892 226.335 236.554 226.153 237.299 226.153C238.043 226.153 238.705 226.335 239.284 226.699C239.864 227.062 240.32 227.58 240.652 228.25C240.985 228.92 241.151 229.716 241.151 230.636ZM240.128 230.636C240.128 229.881 240.002 229.243 239.749 228.723C239.499 228.203 239.159 227.81 238.73 227.543C238.304 227.276 237.827 227.142 237.299 227.142C236.77 227.142 236.292 227.276 235.863 227.543C235.436 227.81 235.097 228.203 234.844 228.723C234.594 229.243 234.469 229.881 234.469 230.636C234.469 231.392 234.594 232.03 234.844 232.55C235.097 233.07 235.436 233.463 235.863 233.73C236.292 233.997 236.77 234.131 237.299 234.131C237.827 234.131 238.304 233.997 238.73 233.73C239.159 233.463 239.499 233.07 239.749 232.55C240.002 232.03 240.128 231.392 240.128 230.636ZM242.928 235V226.273H243.985V234.062H248.042V235H242.928ZM256.702 230.636C256.702 231.557 256.536 232.352 256.203 233.023C255.871 233.693 255.415 234.21 254.835 234.574C254.256 234.938 253.594 235.119 252.849 235.119C252.105 235.119 251.443 234.938 250.864 234.574C250.284 234.21 249.828 233.693 249.496 233.023C249.163 232.352 248.997 231.557 248.997 230.636C248.997 229.716 249.163 228.92 249.496 228.25C249.828 227.58 250.284 227.062 250.864 226.699C251.443 226.335 252.105 226.153 252.849 226.153C253.594 226.153 254.256 226.335 254.835 226.699C255.415 227.062 255.871 227.58 256.203 228.25C256.536 228.92 256.702 229.716 256.702 230.636ZM255.679 230.636C255.679 229.881 255.553 229.243 255.3 228.723C255.05 228.203 254.71 227.81 254.281 227.543C253.855 227.276 253.378 227.142 252.849 227.142C252.321 227.142 251.842 227.276 251.413 227.543C250.987 227.81 250.648 228.203 250.395 228.723C250.145 229.243 250.02 229.881 250.02 230.636C250.02 231.392 250.145 232.03 250.395 232.55C250.648 233.07 250.987 233.463 251.413 233.73C251.842 233.997 252.321 234.131 252.849 234.131C253.378 234.131 253.855 233.997 254.281 233.73C254.71 233.463 255.05 233.07 255.3 232.55C255.553 232.03 255.679 231.392 255.679 230.636ZM258.479 235V226.273H261.428C262.109 226.273 262.669 226.389 263.107 226.622C263.544 226.852 263.868 227.169 264.078 227.572C264.288 227.976 264.393 228.435 264.393 228.949C264.393 229.463 264.288 229.919 264.078 230.317C263.868 230.714 263.545 231.027 263.111 231.254C262.676 231.479 262.121 231.591 261.445 231.591H259.058V230.636H261.411C261.876 230.636 262.251 230.568 262.536 230.432C262.822 230.295 263.03 230.102 263.158 229.852C263.288 229.599 263.354 229.298 263.354 228.949C263.354 228.599 263.288 228.294 263.158 228.033C263.027 227.771 262.818 227.57 262.531 227.428C262.244 227.283 261.865 227.21 261.393 227.21H259.536V235H258.479ZM262.587 231.08L264.734 235H263.507L261.393 231.08H262.587ZM266.751 233.884C266.541 233.884 266.36 233.808 266.21 233.658C266.059 233.507 265.984 233.327 265.984 233.116C265.984 232.906 266.059 232.726 266.21 232.575C266.36 232.425 266.541 232.349 266.751 232.349C266.961 232.349 267.142 232.425 267.292 232.575C267.443 232.726 267.518 232.906 267.518 233.116C267.518 233.256 267.483 233.384 267.412 233.5C267.343 233.616 267.251 233.71 267.135 233.781C267.021 233.849 266.893 233.884 266.751 233.884ZM266.751 229.469C266.541 229.469 266.36 229.393 266.21 229.243C266.059 229.092 265.984 228.912 265.984 228.702C265.984 228.491 266.059 228.311 266.21 228.161C266.36 228.01 266.541 227.935 266.751 227.935C266.961 227.935 267.142 228.01 267.292 228.161C267.443 228.311 267.518 228.491 267.518 228.702C267.518 228.841 267.483 228.969 267.412 229.085C267.343 229.202 267.251 229.295 267.135 229.366C267.021 229.435 266.893 229.469 266.751 229.469Z" fill="white"/>
<path d="M40.0568 226.273H41.3182L44.2841 233.517H44.3864L47.3523 226.273H48.6136V235H47.625V228.369H47.5398L44.8125 235H43.858L41.1307 228.369H41.0455V235H40.0568V226.273ZM58.0962 230.636C58.0962 231.557 57.93 232.352 57.5977 233.023C57.2653 233.693 56.8093 234.21 56.2298 234.574C55.6502 234.938 54.9883 235.119 54.244 235.119C53.4996 235.119 52.8377 234.938 52.2582 234.574C51.6786 234.21 51.2227 233.693 50.8903 233.023C50.5579 232.352 50.3917 231.557 50.3917 230.636C50.3917 229.716 50.5579 228.92 50.8903 228.25C51.2227 227.58 51.6786 227.062 52.2582 226.699C52.8377 226.335 53.4996 226.153 54.244 226.153C54.9883 226.153 55.6502 226.335 56.2298 226.699C56.8093 227.062 57.2653 227.58 57.5977 228.25C57.93 228.92 58.0962 229.716 58.0962 230.636ZM57.0735 230.636C57.0735 229.881 56.9471 229.243 56.6942 228.723C56.4442 228.203 56.1048 227.81 55.6758 227.543C55.2496 227.276 54.7724 227.142 54.244 227.142C53.7156 227.142 53.2369 227.276 52.8079 227.543C52.3817 227.81 52.0423 228.203 51.7894 228.723C51.5394 229.243 51.4144 229.881 51.4144 230.636C51.4144 231.392 51.5394 232.03 51.7894 232.55C52.0423 233.07 52.3817 233.463 52.8079 233.73C53.2369 233.997 53.7156 234.131 54.244 234.131C54.7724 234.131 55.2496 233.997 55.6758 233.73C56.1048 233.463 56.4442 233.07 56.6942 232.55C56.9471 232.03 57.0735 231.392 57.0735 230.636ZM62.5664 235H59.8732V226.273H62.6857C63.5323 226.273 64.2567 226.447 64.859 226.797C65.4613 227.143 65.9229 227.642 66.244 228.293C66.565 228.94 66.7255 229.716 66.7255 230.619C66.7255 231.528 66.5636 232.311 66.2397 232.967C65.9158 233.621 65.4442 234.124 64.8249 234.476C64.2056 234.825 63.4528 235 62.5664 235ZM60.93 234.062H62.4982C63.2198 234.062 63.8178 233.923 64.2923 233.645C64.7667 233.366 65.1204 232.97 65.3533 232.456C65.5863 231.942 65.7028 231.33 65.7028 230.619C65.7028 229.915 65.5877 229.308 65.3576 228.8C65.1275 228.288 64.7837 227.896 64.3263 227.624C63.869 227.348 63.2994 227.21 62.6175 227.21H60.93V234.062ZM68.4982 235V226.273H73.7653V227.21H69.555V230.159H73.4925V231.097H69.555V234.062H73.8335V235H68.4982ZM75.6701 235V226.273H76.7269V234.062H80.7837V235H75.6701ZM83.0167 233.884C82.8065 233.884 82.6261 233.808 82.4755 233.658C82.3249 233.507 82.2496 233.327 82.2496 233.116C82.2496 232.906 82.3249 232.726 82.4755 232.575C82.6261 232.425 82.8065 232.349 83.0167 232.349C83.2269 232.349 83.4073 232.425 83.5579 232.575C83.7085 232.726 83.7837 232.906 83.7837 233.116C83.7837 233.256 83.7482 233.384 83.6772 233.5C83.609 233.616 83.5167 233.71 83.4002 233.781C83.2866 233.849 83.1587 233.884 83.0167 233.884ZM83.0167 229.469C82.8065 229.469 82.6261 229.393 82.4755 229.243C82.3249 229.092 82.2496 228.912 82.2496 228.702C82.2496 228.491 82.3249 228.311 82.4755 228.161C82.6261 228.01 82.8065 227.935 83.0167 227.935C83.2269 227.935 83.4073 228.01 83.5579 228.161C83.7085 228.311 83.7837 228.491 83.7837 228.702C83.7837 228.841 83.7482 228.969 83.6772 229.085C83.609 229.202 83.5167 229.295 83.4002 229.366C83.2866 229.435 83.1587 229.469 83.0167 229.469Z" fill="white"/>
<path d="M225.057 168V159.273H228.006C228.688 159.273 229.247 159.389 229.685 159.622C230.122 159.852 230.446 160.169 230.656 160.572C230.866 160.976 230.972 161.435 230.972 161.949C230.972 162.463 230.866 162.919 230.656 163.317C230.446 163.714 230.124 164.027 229.689 164.254C229.254 164.479 228.699 164.591 228.023 164.591H225.636V163.636H227.989C228.455 163.636 228.83 163.568 229.114 163.432C229.401 163.295 229.608 163.102 229.736 162.852C229.866 162.599 229.932 162.298 229.932 161.949C229.932 161.599 229.866 161.294 229.736 161.033C229.605 160.771 229.396 160.57 229.109 160.428C228.822 160.283 228.443 160.21 227.972 160.21H226.114V168H225.057ZM229.165 164.08L231.312 168H230.085L227.972 164.08H229.165ZM232.733 168V159.273H238V160.21H233.789V163.159H237.727V164.097H233.789V167.062H238.068V168H232.733ZM239.904 168V159.273H245.137V160.21H240.961V163.159H244.745V164.097H240.961V168H239.904ZM246.947 168V159.273H252.214V160.21H248.004V163.159H251.942V164.097H248.004V167.062H252.283V168H246.947ZM254.119 168V159.273H257.068C257.75 159.273 258.31 159.389 258.747 159.622C259.185 159.852 259.509 160.169 259.719 160.572C259.929 160.976 260.034 161.435 260.034 161.949C260.034 162.463 259.929 162.919 259.719 163.317C259.509 163.714 259.186 164.027 258.751 164.254C258.317 164.479 257.761 164.591 257.085 164.591H254.699V163.636H257.051C257.517 163.636 257.892 163.568 258.176 163.432C258.463 163.295 258.67 163.102 258.798 162.852C258.929 162.599 258.994 162.298 258.994 161.949C258.994 161.599 258.929 161.294 258.798 161.033C258.668 160.771 258.459 160.57 258.172 160.428C257.885 160.283 257.506 160.21 257.034 160.21H255.176V168H254.119ZM258.227 164.08L260.375 168H259.148L257.034 164.08H258.227ZM261.795 168V159.273H267.062V160.21H262.852V163.159H266.789V164.097H262.852V167.062H267.13V168H261.795ZM275.887 159.273V168H274.865L270.109 161.148H270.024V168H268.967V159.273H269.99L274.762 166.142H274.848V159.273H275.887ZM285.025 162H283.968C283.906 161.696 283.796 161.429 283.64 161.199C283.487 160.969 283.299 160.776 283.077 160.619C282.859 160.46 282.616 160.341 282.349 160.261C282.082 160.182 281.803 160.142 281.513 160.142C280.985 160.142 280.506 160.276 280.077 160.543C279.651 160.81 279.312 161.203 279.059 161.723C278.809 162.243 278.684 162.881 278.684 163.636C278.684 164.392 278.809 165.03 279.059 165.55C279.312 166.07 279.651 166.463 280.077 166.73C280.506 166.997 280.985 167.131 281.513 167.131C281.803 167.131 282.082 167.091 282.349 167.011C282.616 166.932 282.859 166.814 283.077 166.658C283.299 166.499 283.487 166.304 283.64 166.074C283.796 165.841 283.906 165.574 283.968 165.273H285.025C284.945 165.719 284.8 166.118 284.59 166.47C284.38 166.822 284.119 167.122 283.806 167.369C283.494 167.614 283.143 167.8 282.754 167.928C282.367 168.055 281.954 168.119 281.513 168.119C280.769 168.119 280.107 167.938 279.528 167.574C278.948 167.21 278.492 166.693 278.16 166.023C277.827 165.352 277.661 164.557 277.661 163.636C277.661 162.716 277.827 161.92 278.16 161.25C278.492 160.58 278.948 160.062 279.528 159.699C280.107 159.335 280.769 159.153 281.513 159.153C281.954 159.153 282.367 159.217 282.754 159.345C283.143 159.473 283.494 159.661 283.806 159.908C284.119 160.152 284.38 160.45 284.59 160.803C284.8 161.152 284.945 161.551 285.025 162ZM286.733 168V159.273H292V160.21H287.789V163.159H291.727V164.097H287.789V167.062H292.068V168H286.733ZM294.501 168.068C294.291 168.068 294.11 167.993 293.96 167.842C293.809 167.692 293.734 167.511 293.734 167.301C293.734 167.091 293.809 166.911 293.96 166.76C294.11 166.609 294.291 166.534 294.501 166.534C294.711 166.534 294.892 166.609 295.042 166.76C295.193 166.911 295.268 167.091 295.268 167.301C295.268 167.44 295.233 167.568 295.162 167.685C295.093 167.801 295.001 167.895 294.885 167.966C294.771 168.034 294.643 168.068 294.501 168.068Z" fill="white"/>
<path d="M52.0568 570.273H53.3182L56.2841 577.517H56.3864L59.3523 570.273H60.6136V579H59.625V572.369H59.5398L56.8125 579H55.858L53.1307 572.369H53.0455V579H52.0568V570.273ZM62.7326 579V570.273H67.9996V571.21H63.7894V574.159H67.7269V575.097H63.7894V578.062H68.0678V579H62.7326ZM69.4272 571.21V570.273H75.9727V571.21H73.2283V579H72.1715V571.21H69.4272ZM77.6037 579V570.273H78.6605V574.159H83.3139V570.273H84.3707V579H83.3139V575.097H78.6605V579H77.6037ZM93.8501 574.636C93.8501 575.557 93.6839 576.352 93.3516 577.023C93.0192 577.693 92.5632 578.21 91.9837 578.574C91.4041 578.938 90.7422 579.119 89.9979 579.119C89.2536 579.119 88.5916 578.938 88.0121 578.574C87.4325 578.21 86.9766 577.693 86.6442 577.023C86.3118 576.352 86.1456 575.557 86.1456 574.636C86.1456 573.716 86.3118 572.92 86.6442 572.25C86.9766 571.58 87.4325 571.062 88.0121 570.699C88.5916 570.335 89.2536 570.153 89.9979 570.153C90.7422 570.153 91.4041 570.335 91.9837 570.699C92.5632 571.062 93.0192 571.58 93.3516 572.25C93.6839 572.92 93.8501 573.716 93.8501 574.636ZM92.8274 574.636C92.8274 573.881 92.701 573.243 92.4482 572.723C92.1982 572.203 91.8587 571.81 91.4297 571.543C91.0036 571.276 90.5263 571.142 89.9979 571.142C89.4695 571.142 88.9908 571.276 88.5618 571.543C88.1357 571.81 87.7962 572.203 87.5433 572.723C87.2933 573.243 87.1683 573.881 87.1683 574.636C87.1683 575.392 87.2933 576.03 87.5433 576.55C87.7962 577.07 88.1357 577.463 88.5618 577.73C88.9908 577.997 89.4695 578.131 89.9979 578.131C90.5263 578.131 91.0036 577.997 91.4297 577.73C91.8587 577.463 92.1982 577.07 92.4482 576.55C92.701 576.03 92.8274 575.392 92.8274 574.636ZM98.3203 579H95.6271V570.273H98.4396C99.2862 570.273 100.011 570.447 100.613 570.797C101.215 571.143 101.677 571.642 101.998 572.293C102.319 572.94 102.479 573.716 102.479 574.619C102.479 575.528 102.317 576.311 101.994 576.967C101.67 577.621 101.198 578.124 100.579 578.476C99.9595 578.825 99.2067 579 98.3203 579ZM96.6839 578.062H98.2521C98.9737 578.062 99.5717 577.923 100.046 577.645C100.521 577.366 100.874 576.97 101.107 576.456C101.34 575.942 101.457 575.33 101.457 574.619C101.457 573.915 101.342 573.308 101.112 572.8C100.881 572.288 100.538 571.896 100.08 571.624C99.6229 571.348 99.0533 571.21 98.3714 571.21H96.6839V578.062ZM109.025 572.455C108.974 572.023 108.766 571.688 108.403 571.449C108.039 571.21 107.593 571.091 107.065 571.091C106.678 571.091 106.34 571.153 106.05 571.278C105.763 571.403 105.539 571.575 105.377 571.794C105.218 572.013 105.138 572.261 105.138 572.54C105.138 572.773 105.194 572.973 105.305 573.141C105.418 573.305 105.563 573.443 105.739 573.554C105.915 573.662 106.1 573.751 106.293 573.822C106.487 573.891 106.664 573.946 106.826 573.989L107.712 574.227C107.94 574.287 108.192 574.369 108.471 574.474C108.752 574.58 109.021 574.723 109.276 574.905C109.535 575.084 109.748 575.314 109.915 575.595C110.083 575.876 110.167 576.222 110.167 576.631C110.167 577.102 110.043 577.528 109.796 577.909C109.552 578.29 109.194 578.592 108.722 578.817C108.254 579.041 107.684 579.153 107.013 579.153C106.388 579.153 105.847 579.053 105.39 578.851C104.935 578.649 104.577 578.368 104.316 578.007C104.058 577.646 103.911 577.227 103.877 576.75H104.968C104.996 577.08 105.107 577.352 105.3 577.568C105.496 577.781 105.744 577.94 106.042 578.045C106.343 578.148 106.667 578.199 107.013 578.199C107.417 578.199 107.779 578.134 108.1 578.003C108.421 577.869 108.675 577.685 108.863 577.449C109.05 577.21 109.144 576.932 109.144 576.614C109.144 576.324 109.063 576.088 108.901 575.906C108.739 575.724 108.526 575.577 108.262 575.463C107.998 575.349 107.712 575.25 107.406 575.165L106.332 574.858C105.65 574.662 105.11 574.382 104.712 574.018C104.315 573.655 104.116 573.179 104.116 572.591C104.116 572.102 104.248 571.676 104.512 571.312C104.779 570.946 105.137 570.662 105.586 570.46C106.038 570.256 106.542 570.153 107.099 570.153C107.661 570.153 108.161 570.254 108.599 570.456C109.036 570.655 109.383 570.928 109.638 571.274C109.897 571.621 110.033 572.014 110.048 572.455H109.025ZM112.501 577.884C112.291 577.884 112.11 577.808 111.96 577.658C111.809 577.507 111.734 577.327 111.734 577.116C111.734 576.906 111.809 576.726 111.96 576.575C112.11 576.425 112.291 576.349 112.501 576.349C112.711 576.349 112.892 576.425 113.042 576.575C113.193 576.726 113.268 576.906 113.268 577.116C113.268 577.256 113.233 577.384 113.162 577.5C113.093 577.616 113.001 577.71 112.885 577.781C112.771 577.849 112.643 577.884 112.501 577.884ZM112.501 573.469C112.291 573.469 112.11 573.393 111.96 573.243C111.809 573.092 111.734 572.912 111.734 572.702C111.734 572.491 111.809 572.311 111.96 572.161C112.11 572.01 112.291 571.935 112.501 571.935C112.711 571.935 112.892 572.01 113.042 572.161C113.193 572.311 113.268 572.491 113.268 572.702C113.268 572.841 113.233 572.969 113.162 573.085C113.093 573.202 113.001 573.295 112.885 573.366C112.771 573.435 112.643 573.469 112.501 573.469Z" fill="#FAF1F1"/>
<path fill-rule="evenodd" clip-rule="evenodd" d="M367 39C367.597 39 368.169 39.2436 368.591 39.6773C369.013 40.111 369.25 40.6992 369.25 41.3125V43.625C369.25 44.2383 369.013 44.8265 368.591 45.2602C368.169 45.6939 367.597 45.9375 367 45.9375C366.403 45.9375 365.831 45.6939 365.409 45.2602C364.987 44.8265 364.75 44.2383 364.75 43.625V41.3125C364.75 40.6992 364.987 40.111 365.409 39.6773C365.831 39.2436 366.403 39 367 39ZM376 57.5C376 59.9533 375.052 62.306 373.364 64.0407C371.676 65.7754 369.387 66.75 367 66.75C364.613 66.75 362.324 65.7754 360.636 64.0407C358.948 62.306 358 59.9533 358 57.5C358 55.0467 358.948 52.694 360.636 50.9593C362.324 49.2246 364.613 48.25 367 48.25C369.387 48.25 371.676 49.2246 373.364 50.9593C375.052 52.694 376 55.0467 376 57.5ZM374.956 68.9469L376.547 70.5818C376.971 71.0031 377.539 71.2361 378.129 71.2309C378.719 71.2256 379.284 70.9824 379.701 70.5536C380.118 70.1249 380.355 69.5449 380.36 68.9386C380.365 68.3322 380.138 67.7481 379.728 67.3119L378.137 65.677C377.713 65.2558 377.145 65.0227 376.555 65.0279C375.965 65.0332 375.401 65.2764 374.983 65.7052C374.566 66.1339 374.33 66.7139 374.324 67.3203C374.319 67.9266 374.546 68.5107 374.956 68.9469ZM379.726 44.4182C380.148 44.8518 380.385 45.4399 380.385 46.0531C380.385 46.6663 380.148 47.2544 379.726 47.6881L378.137 49.323C377.93 49.5439 377.682 49.72 377.407 49.8412C377.133 49.9624 376.837 50.0262 376.539 50.0289C376.24 50.0316 375.944 49.9731 375.667 49.8568C375.391 49.7405 375.139 49.5688 374.928 49.3517C374.717 49.1345 374.55 48.8763 374.437 48.5921C374.324 48.3079 374.267 48.0034 374.269 47.6964C374.272 47.3893 374.334 47.0859 374.452 46.8038C374.57 46.5216 374.741 46.2664 374.956 46.0531L376.547 44.4182C376.969 43.9847 377.541 43.7411 378.137 43.7411C378.734 43.7411 379.306 43.9847 379.728 44.4182H379.726ZM382.75 59.8125C383.347 59.8125 383.919 59.5689 384.341 59.1352C384.763 58.7015 385 58.1133 385 57.5C385 56.8867 384.763 56.2985 384.341 55.8648C383.919 55.4311 383.347 55.1875 382.75 55.1875H380.5C379.903 55.1875 379.331 55.4311 378.909 55.8648C378.487 56.2985 378.25 56.8867 378.25 57.5C378.25 58.1133 378.487 58.7015 378.909 59.1352C379.331 59.5689 379.903 59.8125 380.5 59.8125H382.75ZM367 69.0625C367.597 69.0625 368.169 69.3061 368.591 69.7398C369.013 70.1735 369.25 70.7617 369.25 71.375V73.6875C369.25 74.3008 369.013 74.889 368.591 75.3227C368.169 75.7564 367.597 76 367 76C366.403 76 365.831 75.7564 365.409 75.3227C364.987 74.889 364.75 74.3008 364.75 73.6875V71.375C364.75 70.7617 364.987 70.1735 365.409 69.7398C365.831 69.3061 366.403 69.0625 367 69.0625ZM355.863 49.323C356.071 49.5379 356.319 49.7083 356.592 49.8247C356.865 49.941 357.158 50.0009 357.454 50.001C357.749 50.0011 358.042 49.9414 358.315 49.8253C358.588 49.7091 358.836 49.5389 359.045 49.3242C359.254 49.1095 359.42 48.8545 359.533 48.574C359.646 48.2934 359.705 47.9926 359.705 47.6889C359.705 47.3851 359.647 47.0843 359.534 46.8037C359.421 46.523 359.255 46.268 359.046 46.0531L357.453 44.4182C357.029 43.9969 356.461 43.7639 355.871 43.7691C355.281 43.7744 354.716 44.0176 354.299 44.4464C353.882 44.8751 353.645 45.4551 353.64 46.0614C353.635 46.6678 353.862 47.2519 354.272 47.6881L355.863 49.323ZM359.044 68.9469L357.453 70.5818C357.029 71.0031 356.461 71.2361 355.871 71.2309C355.281 71.2256 354.716 70.9824 354.299 70.5536C353.882 70.1249 353.645 69.5449 353.64 68.9386C353.635 68.3322 353.862 67.7481 354.272 67.3119L355.863 65.677C356.287 65.2558 356.855 65.0227 357.445 65.0279C358.035 65.0332 358.599 65.2764 359.017 65.7052C359.434 66.1339 359.67 66.7139 359.676 67.3203C359.681 67.9266 359.454 68.5107 359.044 68.9469ZM353.5 59.8125C354.097 59.8125 354.669 59.5689 355.091 59.1352C355.513 58.7015 355.75 58.1133 355.75 57.5C355.75 56.8867 355.513 56.2985 355.091 55.8648C354.669 55.4311 354.097 55.1875 353.5 55.1875H351.25C350.653 55.1875 350.081 55.4311 349.659 55.8648C349.237 56.2985 349 56.8867 349 57.5C349 58.1133 349.237 58.7015 349.659 59.1352C350.081 59.5689 350.653 59.8125 351.25 59.8125H353.5Z" fill="black"/>
<rect x="1.5" y="1.5" width="417" height="697" rx="18.5" stroke="#FEF9F9" stroke-width="3"/>
<defs>
<filter id="filter0_d_7_20" x="206" y="218" width="187" height="68" filterUnits="userSpaceOnUse" color-interpolation-filters="sRGB">
<feFlood flood-opacity="0" result="BackgroundImageFix"/>
<feColorMatrix in="SourceAlpha" type="matrix" values="0 0 0 0 0 0 0 0 0 0 0 0 0 0 0 0 0 0 127 0" result="hardAlpha"/>
<feOffset dy="4"/>
<feGaussianBlur stdDeviation="2"/>
<feComposite in2="hardAlpha" operator="out"/>
<feColorMatrix type="matrix" values="0 0 0 0 0 0 0 0 0 0 0 0 0 0 0 0 0 0 0.25 0"/>
<feBlend mode="normal" in2="BackgroundImageFix" result="effect1_dropShadow_7_20"/>
<feBlend mode="normal" in="SourceGraphic" in2="effect1_dropShadow_7_20" result="shape"/>
</filter>
</defs>
</svg>
