<svg width="65" height="66" viewBox="0 0 65 66" fill="none" xmlns="http://www.w3.org/2000/svg">
<path fill-rule="evenodd" clip-rule="evenodd" d="M32.5 59.4C39.3956 59.4 46.0088 56.6186 50.8848 51.6676C55.7607 46.7167 58.5 40.0017 58.5 33C58.5 25.9983 55.7607 19.2833 50.8848 14.3324C46.0088 9.38143 39.3956 6.60001 32.5 6.60001C25.6044 6.60001 18.9912 9.38143 14.1152 14.3324C9.23928 19.2833 6.5 25.9983 6.5 33C6.5 40.0017 9.23928 46.7167 14.1152 51.6676C18.9912 56.6186 25.6044 59.4 32.5 59.4ZM44.5477 30.6669L34.7977 20.7669C34.1848 20.1658 33.3638 19.8332 32.5117 19.8407C31.6596 19.8482 30.8444 20.1953 30.2418 20.8071C29.6393 21.419 29.2975 22.2466 29.2901 23.1119C29.2827 23.9771 29.6102 24.8107 30.2023 25.4331L34.4045 29.7H22.75C21.888 29.7 21.0614 30.0477 20.4519 30.6666C19.8424 31.2854 19.5 32.1248 19.5 33C19.5 33.8752 19.8424 34.7146 20.4519 35.3335C21.0614 35.9523 21.888 36.3 22.75 36.3H34.4045L30.2023 40.5669C29.8918 40.8713 29.6442 41.2355 29.4739 41.6381C29.3036 42.0407 29.2139 42.4737 29.2102 42.9119C29.2064 43.3501 29.2887 43.7846 29.4521 44.1902C29.6155 44.5957 29.8568 44.9642 30.162 45.274C30.4671 45.5839 30.83 45.8289 31.2294 45.9948C31.6288 46.1607 32.0568 46.2442 32.4883 46.2404C32.9198 46.2366 33.3463 46.1456 33.7428 45.9726C34.1393 45.7997 34.4979 45.5483 34.7977 45.2331L44.5477 35.3331C45.157 34.7143 45.4993 33.875 45.4993 33C45.4993 32.125 45.157 31.2857 44.5477 30.6669Z" fill="black"/>
</svg>
