<svg width="45" height="45" viewBox="0 0 45 45" fill="none" xmlns="http://www.w3.org/2000/svg">
<path d="M45 22.5C45 34.9264 34.9264 45 22.5 45C10.0736 45 0 34.9264 0 22.5C0 10.0736 10.0736 0 22.5 0C34.9264 0 45 10.0736 45 22.5Z" fill="#E9BA12" fill-opacity="0.95"/>
<path fill-rule="evenodd" clip-rule="evenodd" d="M38.1818 22.1691C38.1818 26.1181 36.5655 29.9054 33.6886 32.6977C30.8116 35.4901 26.9096 37.0588 22.8409 37.0588C18.7722 37.0588 14.8702 35.4901 11.9932 32.6977C9.11627 29.9054 7.5 26.1181 7.5 22.1691C7.5 18.2201 9.11627 14.4329 11.9932 11.6405C14.8702 8.84815 18.7722 7.27942 22.8409 7.27942C26.9096 7.27942 30.8116 8.84815 33.6886 11.6405C36.5655 14.4329 38.1818 18.2201 38.1818 22.1691V22.1691ZM17.0881 18.4467C17.0881 17.9531 17.2901 17.4797 17.6497 17.1306C18.0093 16.7816 18.4971 16.5855 19.0057 16.5855C19.5143 16.5855 20.002 16.7816 20.3616 17.1306C20.7213 17.4797 20.9233 17.9531 20.9233 18.4467V25.8916C20.9233 26.3852 20.7213 26.8586 20.3616 27.2076C20.002 27.5567 19.5143 27.7528 19.0057 27.7528C18.4971 27.7528 18.0093 27.5567 17.6497 27.2076C17.2901 26.8586 17.0881 26.3852 17.0881 25.8916V18.4467ZM26.6761 16.5855C26.1676 16.5855 25.6798 16.7816 25.3202 17.1306C24.9606 17.4797 24.7585 17.9531 24.7585 18.4467V25.8916C24.7585 26.3852 24.9606 26.8586 25.3202 27.2076C25.6798 27.5567 26.1676 27.7528 26.6761 27.7528C27.1847 27.7528 27.6725 27.5567 28.0321 27.2076C28.3917 26.8586 28.5937 26.3852 28.5937 25.8916V18.4467C28.5937 17.9531 28.3917 17.4797 28.0321 17.1306C27.6725 16.7816 27.1847 16.5855 26.6761 16.5855Z" fill="black"/>
</svg>
