<svg width="65" height="66" viewBox="0 0 65 66" fill="none" xmlns="http://www.w3.org/2000/svg">
<g clip-path="url(#clip0_3_83)">
<path d="M64 32C64 50.7777 49.2254 66 31 66C12.7746 66 -2 50.7777 -2 32C-2 13.2223 12.7746 -2 31 -2C49.2254 -2 64 13.2223 64 32Z" fill="#E9BA12" fill-opacity="0.95"/>
<path fill-rule="evenodd" clip-rule="evenodd" d="M43.8003 49.137C40.0444 51.8478 35.4644 53.1204 30.8726 52.7292C26.2807 52.3381 21.9736 50.3084 18.715 47.0001C15.4565 43.6918 13.457 39.3187 13.0713 34.6562C12.6855 29.9937 13.9383 25.3432 16.6075 21.5292L43.8003 49.1436V49.137ZM48.3957 44.4708L21.203 16.863C24.9591 14.1504 29.54 12.8765 34.1331 13.2672C38.7262 13.6579 43.0345 15.6881 46.2937 18.9974C49.5529 22.3067 51.5522 26.6813 51.937 31.3451C52.3218 36.0089 51.0672 40.6603 48.3957 44.4741V44.4708ZM58.5 33C58.5 40.0017 55.7607 46.7167 50.8848 51.6676C46.0088 56.6186 39.3956 59.4 32.5 59.4C25.6044 59.4 18.9912 56.6186 14.1152 51.6676C9.23928 46.7167 6.5 40.0017 6.5 33C6.5 25.9983 9.23928 19.2833 14.1152 14.3324C18.9912 9.38143 25.6044 6.60001 32.5 6.60001C39.3956 6.60001 46.0088 9.38143 50.8848 14.3324C55.7607 19.2833 58.5 25.9983 58.5 33Z" fill="black"/>
</g>
<defs>
<clipPath id="clip0_3_83">
<rect width="65" height="66" fill="white"/>
</clipPath>
</defs>
</svg>
