<svg width="45" height="45" viewBox="0 0 45 45" fill="none" xmlns="http://www.w3.org/2000/svg">
<g clip-path="url(#clip0_3_79)">
<path d="M65 32C65 50.7777 50.0015 66 31.5 66C12.9985 66 -2 50.7777 -2 32C-2 13.2223 12.9985 -2 31.5 -2C50.0015 -2 65 13.2223 65 32Z" fill="#E9BA12" fill-opacity="0.95"/>
<path fill-rule="evenodd" clip-rule="evenodd" d="M22.5 40.5C27.2739 40.5 31.8523 38.6036 35.2279 35.2279C38.6036 31.8523 40.5 27.2739 40.5 22.5C40.5 17.7261 38.6036 13.1477 35.2279 9.77208C31.8523 6.39642 27.2739 4.5 22.5 4.5C17.7261 4.5 13.1477 6.39642 9.77208 9.77208C6.39642 13.1477 4.5 17.7261 4.5 22.5C4.5 27.2739 6.39642 31.8523 9.77208 35.2279C13.1477 38.6036 17.7261 40.5 22.5 40.5V40.5ZM24.0907 17.3407C24.5006 16.9164 24.7274 16.348 24.7223 15.7581C24.7171 15.1682 24.4805 14.6038 24.0633 14.1867C23.6462 13.7695 23.0818 13.5329 22.4919 13.5277C21.902 13.5226 21.3336 13.7494 20.9093 14.1593L14.1593 20.9093C13.7374 21.3312 13.5005 21.9034 13.5005 22.5C13.5005 23.0966 13.7374 23.6688 14.1593 24.0907L20.9093 30.8407C21.3336 31.2506 21.902 31.4774 22.4919 31.4723C23.0818 31.4671 23.6462 31.2305 24.0633 30.8133C24.4805 30.3962 24.7171 29.8318 24.7223 29.2419C24.7274 28.652 24.5006 28.0836 24.0907 27.6593L21.1815 24.75H29.25C29.8467 24.75 30.419 24.5129 30.841 24.091C31.2629 23.669 31.5 23.0967 31.5 22.5C31.5 21.9033 31.2629 21.331 30.841 20.909C30.419 20.4871 29.8467 20.25 29.25 20.25H21.1815L24.0907 17.3407V17.3407Z" fill="black"/>
</g>
<defs>
<clipPath id="clip0_3_79">
<rect width="45" height="45" rx="20" fill="white"/>
</clipPath>
</defs>
</svg>
