<svg width="65" height="66" viewBox="0 0 65 66" fill="none" xmlns="http://www.w3.org/2000/svg">
<g clip-path="url(#clip0_3_79)">
<path d="M65 32C65 50.7777 50.0015 66 31.5 66C12.9985 66 -2 50.7777 -2 32C-2 13.2223 12.9985 -2 31.5 -2C50.0015 -2 65 13.2223 65 32Z" fill="#E9BA12" fill-opacity="0.95"/>
<path fill-rule="evenodd" clip-rule="evenodd" d="M32.5 59.4C39.3956 59.4 46.0088 56.6186 50.8848 51.6676C55.7607 46.7167 58.5 40.0017 58.5 33C58.5 25.9983 55.7607 19.2833 50.8848 14.3324C46.0088 9.38143 39.3956 6.60001 32.5 6.60001C25.6044 6.60001 18.9912 9.38143 14.1152 14.3324C9.23928 19.2833 6.5 25.9983 6.5 33C6.5 40.0017 9.23928 46.7167 14.1152 51.6676C18.9912 56.6186 25.6044 59.4 32.5 59.4ZM34.7977 25.4331C35.3898 24.8107 35.7173 23.9771 35.7099 23.1119C35.7025 22.2466 35.3607 21.419 34.7582 20.8071C34.1556 20.1953 33.3404 19.8482 32.4883 19.8407C31.6362 19.8332 30.8152 20.1658 30.2023 20.7669L20.4523 30.6669C19.843 31.2857 19.5007 32.125 19.5007 33C19.5007 33.875 19.843 34.7143 20.4523 35.3331L30.2023 45.2331C30.8152 45.8342 31.6362 46.1668 32.4883 46.1593C33.3404 46.1518 34.1556 45.8048 34.7582 45.1929C35.3607 44.5811 35.7025 43.7534 35.7099 42.8881C35.7173 42.0229 35.3898 41.1893 34.7977 40.5669L30.5955 36.3H42.25C43.112 36.3 43.9386 35.9523 44.5481 35.3335C45.1576 34.7146 45.5 33.8752 45.5 33C45.5 32.1248 45.1576 31.2854 44.5481 30.6666C43.9386 30.0477 43.112 29.7 42.25 29.7H30.5955L34.7977 25.4331Z" fill="black"/>
</g>
<defs>
<clipPath id="clip0_3_79">
<rect width="65" height="66" fill="white"/>
</clipPath>
</defs>
</svg>
