<svg width="65" height="66" viewBox="0 0 65 66" fill="none" xmlns="http://www.w3.org/2000/svg">
<path fill-rule="evenodd" clip-rule="evenodd" d="M32.5 59.4C39.3956 59.4 46.0088 56.6186 50.8848 51.6676C55.7607 46.7167 58.5 40.0017 58.5 33C58.5 25.9983 55.7607 19.2833 50.8848 14.3324C46.0088 9.38143 39.3956 6.60001 32.5 6.60001C25.6044 6.60001 18.9912 9.38143 14.1152 14.3324C9.23928 19.2833 6.5 25.9983 6.5 33C6.5 40.0017 9.23928 46.7167 14.1152 51.6676C18.9912 56.6186 25.6044 59.4 32.5 59.4ZM31.0538 23.6544C30.5643 23.3228 29.9954 23.1324 29.4077 23.1034C28.82 23.0744 28.2356 23.208 27.7168 23.4898C27.198 23.7717 26.7643 24.1912 26.4619 24.7038C26.1596 25.2163 25.9999 25.8026 26 26.4V39.6C25.9999 40.1974 26.1596 40.7837 26.4619 41.2962C26.7643 41.8088 27.198 42.2283 27.7168 42.5102C28.2356 42.792 28.82 42.9256 29.4077 42.8966C29.9954 42.8676 30.5643 42.6772 31.0538 42.3456L40.8037 35.7456C41.2489 35.4442 41.6138 35.036 41.8662 34.557C42.1187 34.078 42.2507 33.5432 42.2507 33C42.2507 32.4568 42.1187 31.922 41.8662 31.443C41.6138 30.9641 41.2489 30.5558 40.8037 30.2544L31.0538 23.6544Z" fill="black"/>
</svg>
