<svg width="53" height="53" viewBox="0 0 53 53" fill="none" xmlns="http://www.w3.org/2000/svg">
<g filter="url(#filter0_d_3_77)">
<g clip-path="url(#clip0_3_77)">
<path d="M69 32C69 50.7777 53.7777 66 35 66C16.2223 66 1 50.7777 1 32C1 13.2223 16.2223 -2 35 -2C53.7777 -2 69 13.2223 69 32Z" fill="#E9BA12" fill-opacity="0.95"/>
<path fill-rule="evenodd" clip-rule="evenodd" d="M26.5 40.5C31.2739 40.5 35.8523 38.6036 39.2279 35.2279C42.6036 31.8523 44.5 27.2739 44.5 22.5C44.5 17.7261 42.6036 13.1477 39.2279 9.77208C35.8523 6.39642 31.2739 4.5 26.5 4.5C21.7261 4.5 17.1477 6.39642 13.7721 9.77208C10.3964 13.1477 8.5 17.7261 8.5 22.5C8.5 27.2739 10.3964 31.8523 13.7721 35.2279C17.1477 38.6036 21.7261 40.5 26.5 40.5V40.5ZM25.4988 16.128C25.1599 15.9019 24.766 15.7721 24.3592 15.7523C23.9523 15.7326 23.5477 15.8236 23.1885 16.0158C22.8294 16.208 22.5291 16.494 22.3198 16.8435C22.1105 17.1929 21.9999 17.5927 22 18V27C21.9999 27.4073 22.1105 27.8071 22.3198 28.1565C22.5291 28.506 22.8294 28.792 23.1885 28.9842C23.5477 29.1764 23.9523 29.2674 24.3592 29.2477C24.766 29.2279 25.1599 29.0981 25.4988 28.872L32.2488 24.372C32.5569 24.1665 32.8096 23.8882 32.9843 23.5616C33.1591 23.235 33.2505 22.8704 33.2505 22.5C33.2505 22.1296 33.1591 21.765 32.9843 21.4384C32.8096 21.1118 32.5569 20.8335 32.2488 20.628L25.4988 16.128V16.128Z" fill="black"/>
</g>
</g>
<defs>
<filter id="filter0_d_3_77" x="0" y="0" width="53" height="53" filterUnits="userSpaceOnUse" color-interpolation-filters="sRGB">
<feFlood flood-opacity="0" result="BackgroundImageFix"/>
<feColorMatrix in="SourceAlpha" type="matrix" values="0 0 0 0 0 0 0 0 0 0 0 0 0 0 0 0 0 0 127 0" result="hardAlpha"/>
<feOffset dy="4"/>
<feGaussianBlur stdDeviation="2"/>
<feComposite in2="hardAlpha" operator="out"/>
<feColorMatrix type="matrix" values="0 0 0 0 0 0 0 0 0 0 0 0 0 0 0 0 0 0 0.25 0"/>
<feBlend mode="normal" in2="BackgroundImageFix" result="effect1_dropShadow_3_77"/>
<feBlend mode="normal" in="SourceGraphic" in2="effect1_dropShadow_3_77" result="shape"/>
</filter>
<clipPath id="clip0_3_77">
<rect x="4" width="45" height="45" rx="20" fill="white"/>
</clipPath>
</defs>
</svg>
