<svg width="66" height="68" viewBox="0 0 66 68" fill="none" xmlns="http://www.w3.org/2000/svg">
<path d="M66 34C66 52.7777 51.2254 68 33 68C14.7746 68 0 52.7777 0 34C0 15.2223 14.7746 0 33 0C51.2254 0 66 15.2223 66 34Z" fill="#E9BA12" fill-opacity="0.95"/>
<path fill-rule="evenodd" clip-rule="evenodd" d="M33.5 61.4C40.3956 61.4 47.0088 58.6186 51.8848 53.6676C56.7607 48.7167 59.5 42.0017 59.5 35C59.5 27.9983 56.7607 21.2833 51.8848 16.3324C47.0088 11.3814 40.3956 8.60001 33.5 8.60001C26.6044 8.60001 19.9912 11.3814 15.1152 16.3324C10.2393 21.2833 7.5 27.9983 7.5 35C7.5 42.0017 10.2393 48.7167 15.1152 53.6676C19.9912 58.6186 26.6044 61.4 33.5 61.4ZM27 25.1C26.138 25.1 25.3114 25.4477 24.7019 26.0666C24.0924 26.6854 23.75 27.5248 23.75 28.4V41.6C23.75 42.4752 24.0924 43.3146 24.7019 43.9335C25.3114 44.5523 26.138 44.9 27 44.9H40C40.862 44.9 41.6886 44.5523 42.2981 43.9335C42.9076 43.3146 43.25 42.4752 43.25 41.6V28.4C43.25 27.5248 42.9076 26.6854 42.2981 26.0666C41.6886 25.4477 40.862 25.1 40 25.1H27Z" fill="black"/>
</svg>
