<svg width="735" height="260" viewBox="0 0 735 260" fill="none" xmlns="http://www.w3.org/2000/svg">
<rect width="371" height="260" fill="#5CDFFC"/>
<ellipse cx="35.5" cy="73" rx="11.5" ry="10" fill="#F5E9E9"/>
<ellipse cx="35.5" cy="73" rx="11.5" ry="10" fill="#DFF6FD"/>
<ellipse cx="69.5" cy="54" rx="11.5" ry="10" fill="#F5E9E9"/>
<ellipse cx="69.5" cy="54" rx="11.5" ry="10" fill="#DFF6FD"/>
<ellipse cx="52.5" cy="67" rx="11.5" ry="10" fill="#F5E9E9"/>
<ellipse cx="52.5" cy="67" rx="11.5" ry="10" fill="#DFF6FD"/>
<ellipse cx="46.5" cy="87" rx="11.5" ry="10" fill="#F5E9E9"/>
<ellipse cx="46.5" cy="87" rx="11.5" ry="10" fill="#DFF6FD"/>
<ellipse cx="61.5" cy="87" rx="11.5" ry="10" fill="#F5E9E9"/>
<ellipse cx="61.5" cy="87" rx="11.5" ry="10" fill="#DFF6FD"/>
<ellipse cx="79.5" cy="80" rx="11.5" ry="10" fill="#F5E9E9"/>
<ellipse cx="79.5" cy="80" rx="11.5" ry="10" fill="#DFF6FD"/>
<ellipse cx="75.5" cy="70" rx="11.5" ry="10" fill="#F5E9E9"/>
<ellipse cx="75.5" cy="70" rx="11.5" ry="10" fill="#DFF6FD"/>
<ellipse cx="59.5" cy="73" rx="20.5" ry="10" fill="#F5E9E9"/>
<ellipse cx="59.5" cy="73" rx="20.5" ry="10" fill="#DFF6FD"/>
<ellipse cx="288.499" cy="116.461" rx="8.77919" ry="11.5405" transform="rotate(-59.7436 288.499 116.461)" fill="#F5E9E9"/>
<ellipse cx="288.499" cy="116.461" rx="8.77919" ry="11.5405" transform="rotate(-59.7436 288.499 116.461)" fill="#DFF6FD"/>
<ellipse cx="282.638" cy="82.9924" rx="8.77919" ry="11.5405" transform="rotate(-59.7436 282.638 82.9924)" fill="#F5E9E9"/>
<ellipse cx="282.638" cy="82.9924" rx="8.77919" ry="11.5405" transform="rotate(-59.7436 282.638 82.9924)" fill="#DFF6FD"/>
<ellipse cx="289.057" cy="101.762" rx="8.77919" ry="11.5405" transform="rotate(-59.7436 289.057 101.762)" fill="#F5E9E9"/>
<ellipse cx="289.057" cy="101.762" rx="8.77919" ry="11.5405" transform="rotate(-59.7436 289.057 101.762)" fill="#DFF6FD"/>
<ellipse cx="306.686" cy="117.348" rx="8.77919" ry="11.5405" transform="rotate(-59.7436 306.686 117.348)" fill="#F5E9E9"/>
<ellipse cx="306.686" cy="117.348" rx="8.77919" ry="11.5405" transform="rotate(-59.7436 306.686 117.348)" fill="#DFF6FD"/>
<ellipse cx="312.456" cy="107.457" rx="8.77919" ry="11.5405" transform="rotate(-59.7436 312.456 107.457)" fill="#F5E9E9"/>
<ellipse cx="312.456" cy="107.457" rx="8.77919" ry="11.5405" transform="rotate(-59.7436 312.456 107.457)" fill="#DFF6FD"/>
<ellipse cx="312.402" cy="91.517" rx="8.77919" ry="11.5405" transform="rotate(-59.7436 312.402 91.517)" fill="#F5E9E9"/>
<ellipse cx="312.402" cy="91.517" rx="8.77919" ry="11.5405" transform="rotate(-59.7436 312.402 91.517)" fill="#DFF6FD"/>
<ellipse cx="300.895" cy="88.3398" rx="8.77919" ry="11.5405" transform="rotate(-59.7436 300.895 88.3398)" fill="#F5E9E9"/>
<ellipse cx="300.895" cy="88.3398" rx="8.77919" ry="11.5405" transform="rotate(-59.7436 300.895 88.3398)" fill="#DFF6FD"/>
<ellipse cx="297.731" cy="100.635" rx="15.6499" ry="11.5405" transform="rotate(-59.7436 297.731 100.635)" fill="#F5E9E9"/>
<ellipse cx="297.731" cy="100.635" rx="15.6499" ry="11.5405" transform="rotate(-59.7436 297.731 100.635)" fill="#DFF6FD"/>
<path d="M224 103C226.561 99.2269 232.745 93.9445 237 103" stroke="black"/>
<path d="M237 103C239.561 99.2269 245.745 93.9445 250 103" stroke="black"/>
<path d="M117 60C119.364 54.7176 125.073 47.3223 129 60" stroke="black"/>
<path d="M129 60C131.364 54.7176 137.073 47.3223 141 60" stroke="black"/>
<rect x="364" width="371" height="260" fill="#5CDFFC"/>
<ellipse cx="412.5" cy="63" rx="11.5" ry="10" fill="#F5E9E9"/>
<ellipse cx="412.5" cy="63" rx="11.5" ry="10" fill="#DFF6FD"/>
<ellipse cx="446.5" cy="44" rx="11.5" ry="10" fill="#F5E9E9"/>
<ellipse cx="446.5" cy="44" rx="11.5" ry="10" fill="#DFF6FD"/>
<ellipse cx="429.5" cy="57" rx="11.5" ry="10" fill="#F5E9E9"/>
<ellipse cx="429.5" cy="57" rx="11.5" ry="10" fill="#DFF6FD"/>
<ellipse cx="423.5" cy="77" rx="11.5" ry="10" fill="#F5E9E9"/>
<ellipse cx="423.5" cy="77" rx="11.5" ry="10" fill="#DFF6FD"/>
<ellipse cx="438.5" cy="77" rx="11.5" ry="10" fill="#F5E9E9"/>
<ellipse cx="438.5" cy="77" rx="11.5" ry="10" fill="#DFF6FD"/>
<ellipse cx="456.5" cy="70" rx="11.5" ry="10" fill="#F5E9E9"/>
<ellipse cx="456.5" cy="70" rx="11.5" ry="10" fill="#DFF6FD"/>
<ellipse cx="452.5" cy="60" rx="11.5" ry="10" fill="#F5E9E9"/>
<ellipse cx="452.5" cy="60" rx="11.5" ry="10" fill="#DFF6FD"/>
<ellipse cx="436.5" cy="63" rx="20.5" ry="10" fill="#F5E9E9"/>
<ellipse cx="436.5" cy="63" rx="20.5" ry="10" fill="#DFF6FD"/>
<ellipse cx="665.499" cy="106.461" rx="8.77919" ry="11.5405" transform="rotate(-59.7436 665.499 106.461)" fill="#F5E9E9"/>
<ellipse cx="665.499" cy="106.461" rx="8.77919" ry="11.5405" transform="rotate(-59.7436 665.499 106.461)" fill="#DFF6FD"/>
<ellipse cx="659.638" cy="72.9924" rx="8.77919" ry="11.5405" transform="rotate(-59.7436 659.638 72.9924)" fill="#F5E9E9"/>
<ellipse cx="659.638" cy="72.9924" rx="8.77919" ry="11.5405" transform="rotate(-59.7436 659.638 72.9924)" fill="#DFF6FD"/>
<ellipse cx="666.057" cy="91.7618" rx="8.77919" ry="11.5405" transform="rotate(-59.7436 666.057 91.7618)" fill="#F5E9E9"/>
<ellipse cx="666.057" cy="91.7618" rx="8.77919" ry="11.5405" transform="rotate(-59.7436 666.057 91.7618)" fill="#DFF6FD"/>
<ellipse cx="683.686" cy="107.348" rx="8.77919" ry="11.5405" transform="rotate(-59.7436 683.686 107.348)" fill="#F5E9E9"/>
<ellipse cx="683.686" cy="107.348" rx="8.77919" ry="11.5405" transform="rotate(-59.7436 683.686 107.348)" fill="#DFF6FD"/>
<ellipse cx="689.456" cy="97.4569" rx="8.77919" ry="11.5405" transform="rotate(-59.7436 689.456 97.4569)" fill="#F5E9E9"/>
<ellipse cx="689.456" cy="97.4569" rx="8.77919" ry="11.5405" transform="rotate(-59.7436 689.456 97.4569)" fill="#DFF6FD"/>
<ellipse cx="689.402" cy="81.517" rx="8.77919" ry="11.5405" transform="rotate(-59.7436 689.402 81.517)" fill="#F5E9E9"/>
<ellipse cx="689.402" cy="81.517" rx="8.77919" ry="11.5405" transform="rotate(-59.7436 689.402 81.517)" fill="#DFF6FD"/>
<ellipse cx="677.895" cy="78.3398" rx="8.77919" ry="11.5405" transform="rotate(-59.7436 677.895 78.3398)" fill="#F5E9E9"/>
<ellipse cx="677.895" cy="78.3398" rx="8.77919" ry="11.5405" transform="rotate(-59.7436 677.895 78.3398)" fill="#DFF6FD"/>
<ellipse cx="674.731" cy="90.6349" rx="15.6499" ry="11.5405" transform="rotate(-59.7436 674.731 90.6349)" fill="#F5E9E9"/>
<ellipse cx="674.731" cy="90.6349" rx="15.6499" ry="11.5405" transform="rotate(-59.7436 674.731 90.6349)" fill="#DFF6FD"/>
<path d="M500.973 54.1059C504.119 51.0075 511.718 46.6697 516.945 54.1059" stroke="black"/>
<path d="M485 54.1059C488.146 51.0075 495.745 46.6697 500.973 54.1059" stroke="black"/>
<path d="M604 78C605.767 74.2269 610.036 68.9445 612.973 78" stroke="black"/>
<path d="M612.973 78C614.74 74.2269 619.009 68.9445 621.945 78" stroke="black"/>
</svg>
