<svg width="29" height="44" viewBox="0 0 29 44" fill="none" xmlns="http://www.w3.org/2000/svg">
<path d="M28.5 22C28.5 27.8849 25.3569 33.2488 20.2039 37.158C15.1594 40.9849 8.20979 43.3966 0.500004 43.4968L0.500003 42.2711L0.500002 37.5564L0.5 22L0.500002 6.44365L0.500003 1.72887L0.500004 0.503245C8.20979 0.603394 15.1594 3.01512 20.2039 6.842C25.3569 10.7512 28.5 16.1151 28.5 22Z" fill="#E9BA12" stroke="black"/>
<path fill-rule="evenodd" clip-rule="evenodd" d="M20.5308 33.4638C20.2425 33.8071 19.8516 34 19.4441 34C19.0365 34 18.6456 33.8071 18.3574 33.4638L10.6722 24.3063C10.3841 23.9629 10.2222 23.4971 10.2222 23.0114C10.2222 22.5258 10.3841 22.06 10.6722 21.7166L18.3574 12.5591C18.4992 12.3842 18.6688 12.2447 18.8563 12.1487C19.0438 12.0527 19.2455 12.0022 19.4496 12.0001C19.6537 11.998 19.8561 12.0443 20.045 12.1364C20.2339 12.2285 20.4055 12.3645 20.5498 12.5364C20.6941 12.7084 20.8083 12.9129 20.8855 13.138C20.9628 13.3631 21.0017 13.6042 20.9999 13.8474C20.9982 14.0906 20.9558 14.3309 20.8752 14.5544C20.7947 14.7778 20.6776 14.9799 20.5308 15.1489L13.9323 23.0114L20.5308 30.874C20.8189 31.2175 20.9808 31.6833 20.9808 32.1689C20.9808 32.6545 20.8189 33.1203 20.5308 33.4638V33.4638ZM11.3086 33.4638C11.0203 33.8071 10.6294 34 10.2219 34C9.81431 34 9.42343 33.8071 9.13519 33.4638L1.45002 24.3063C1.16187 23.9629 1 23.4971 1 23.0114C1 22.5258 1.16187 22.06 1.45002 21.7166L9.13519 12.5591C9.42508 12.2255 9.81334 12.0409 10.2163 12.0451C10.6193 12.0493 11.0049 12.2419 11.2898 12.5814C11.5748 12.921 11.7365 13.3804 11.74 13.8606C11.7435 14.3408 11.5885 14.8034 11.3086 15.1489L4.71007 23.0114L11.3086 30.874C11.5967 31.2175 11.7586 31.6833 11.7586 32.1689C11.7586 32.6545 11.5967 33.1203 11.3086 33.4638V33.4638Z" fill="black"/>
</svg>
