<svg width="65" height="66" viewBox="0 0 65 66" fill="none" xmlns="http://www.w3.org/2000/svg">
<path fill-rule="evenodd" clip-rule="evenodd" d="M32.5 59.4C39.3956 59.4 46.0088 56.6186 50.8848 51.6676C55.7607 46.7167 58.5 40.0017 58.5 33C58.5 25.9983 55.7607 19.2833 50.8848 14.3324C46.0088 9.38143 39.3956 6.60001 32.5 6.60001C25.6044 6.60001 18.9912 9.38143 14.1152 14.3324C9.23928 19.2833 6.5 25.9983 6.5 33C6.5 40.0017 9.23928 46.7167 14.1152 51.6676C18.9912 56.6186 25.6044 59.4 32.5 59.4V59.4ZM26 23.1C25.138 23.1 24.3114 23.4477 23.7019 24.0666C23.0924 24.6854 22.75 25.5248 22.75 26.4V39.6C22.75 40.4752 23.0924 41.3146 23.7019 41.9335C24.3114 42.5523 25.138 42.9 26 42.9H39C39.862 42.9 40.6886 42.5523 41.2981 41.9335C41.9076 41.3146 42.25 40.4752 42.25 39.6V26.4C42.25 25.5248 41.9076 24.6854 41.2981 24.0666C40.6886 23.4477 39.862 23.1 39 23.1H26Z" fill="black"/>
</svg>
