<svg width="308" height="54" viewBox="0 0 308 54" fill="none" xmlns="http://www.w3.org/2000/svg">
<path d="M27 1.5H281C295.083 1.5 306.5 12.9167 306.5 27C306.5 41.0833 295.083 52.5 281 52.5H27C12.9167 52.5 1.5 41.0833 1.5 27C1.5 12.9167 12.9167 1.5 27 1.5Z" fill="#672044" stroke="#CC617D" stroke-width="3"/>
<path d="M134.654 23.025C134.654 24.7583 133.904 26.075 132.404 26.975C133.221 27.275 133.904 27.7917 134.454 28.525C135.004 29.2583 135.279 30.3 135.279 31.65C135.279 32.9833 134.779 34.0417 133.779 34.825C132.796 35.6083 131.379 36 129.529 36H123.629C123.346 36 123.112 35.9083 122.929 35.725C122.746 35.525 122.654 35.2667 122.654 34.95V18.95C122.654 18.7667 122.679 18.65 122.729 18.6C122.796 18.5333 122.921 18.5 123.104 18.5H128.804C132.704 18.5 134.654 20.0083 134.654 23.025ZM127.454 22.55V25.825H127.579C129.179 25.825 129.979 25.2917 129.979 24.225C129.979 23.6417 129.821 23.2167 129.504 22.95C129.204 22.6833 128.696 22.55 127.979 22.55H127.454ZM127.454 28.775V32.025H127.904C128.621 32.025 129.146 31.8917 129.479 31.625C129.812 31.3583 129.979 30.9333 129.979 30.35C129.979 29.7667 129.821 29.3583 129.504 29.125C129.204 28.8917 128.696 28.775 127.979 28.775H127.454ZM148.973 36.05C147.523 36.05 146.739 35.8167 146.623 35.35L145.798 32.125H141.823L141.098 35.225C140.998 35.7417 140.198 36 138.698 36C137.898 36 137.306 35.9583 136.923 35.875C136.539 35.775 136.348 35.7 136.348 35.65L140.773 18.725C140.773 18.5917 141.914 18.525 144.198 18.525C146.481 18.525 147.623 18.5917 147.623 18.725L151.948 35.675C151.948 35.7917 151.564 35.8833 150.798 35.95C150.031 36.0167 149.423 36.05 148.973 36.05ZM142.448 28.95H145.073L143.948 23.775H143.798L142.448 28.95ZM160.754 18.275C161.971 18.275 163.038 18.45 163.954 18.8C164.888 19.1333 165.354 19.5917 165.354 20.175C165.354 20.7583 165.129 21.4833 164.679 22.35C164.246 23.2 163.879 23.625 163.579 23.625C163.496 23.625 163.396 23.5833 163.279 23.5C163.179 23.4 162.929 23.3 162.529 23.2C162.146 23.0833 161.813 23.025 161.529 23.025C160.563 23.025 159.779 23.3667 159.179 24.05C158.596 24.7333 158.304 25.7833 158.304 27.2C158.304 28.6 158.604 29.6417 159.204 30.325C159.821 31.0083 160.596 31.35 161.529 31.35C161.913 31.35 162.338 31.3 162.804 31.2C163.288 31.0833 163.629 30.925 163.829 30.725C163.863 30.6917 163.929 30.675 164.029 30.675C164.129 30.675 164.313 30.8667 164.579 31.25C164.863 31.6167 165.121 32.1083 165.354 32.725C165.588 33.325 165.704 33.7917 165.704 34.125C165.704 34.775 165.204 35.2917 164.204 35.675C163.204 36.0583 162.021 36.25 160.654 36.25C158.454 36.25 156.646 35.475 155.229 33.925C153.813 32.375 153.104 30.1917 153.104 27.375C153.104 24.5417 153.829 22.3167 155.279 20.7C156.746 19.0833 158.571 18.275 160.754 18.275ZM172.618 35.65C172.618 35.9 171.835 36.025 170.268 36.025L168.868 35.95C168.035 35.8833 167.618 35.7667 167.618 35.6V18.825C167.618 18.5417 168.451 18.4 170.118 18.4C171.785 18.4 172.618 18.5417 172.618 18.825V25.225L175.668 18.825C175.785 18.5917 176.451 18.475 177.668 18.475C179.885 18.475 181.051 18.6667 181.168 19.05C181.168 19.0833 181.16 19.1167 181.143 19.15L176.793 27L181.843 33.975C181.843 34.0083 181.685 34.15 181.368 34.4C180.601 35.0667 179.701 35.5917 178.668 35.975C178.351 36.0917 178.035 36.15 177.718 36.15L177.118 36.1C176.585 35.9667 176.168 35.625 175.868 35.075L173.018 29.625H172.618V35.65Z" fill="#CC617D"/>
</svg>
