<svg width="308" height="54" viewBox="0 0 308 54" fill="none" xmlns="http://www.w3.org/2000/svg">
<path d="M27 1.5H281C295.083 1.5 306.5 12.9167 306.5 27C306.5 41.0833 295.083 52.5 281 52.5H27C12.9167 52.5 1.5 41.0833 1.5 27C1.5 12.9167 12.9167 1.5 27 1.5Z" fill="#0957A2" stroke="black" stroke-width="3"/>
<path d="M97.0143 18.825C97.0143 18.7417 97.3726 18.6667 98.0893 18.6C98.8226 18.5167 99.4226 18.475 99.8893 18.475C101.739 18.475 102.706 18.7167 102.789 19.2L104.939 30.2L106.964 19.2C107.064 18.7167 108.098 18.475 110.064 18.475C110.548 18.475 111.156 18.5083 111.889 18.575C112.623 18.6417 112.989 18.7167 112.989 18.8L108.564 35.35C108.498 35.6167 108.006 35.7917 107.089 35.875C105.673 36.025 104.381 36.0583 103.214 35.975C102.064 35.875 101.456 35.7083 101.389 35.475L97.0143 18.825ZM125.267 36.05C123.817 36.05 123.033 35.8167 122.917 35.35L122.092 32.125H118.117L117.392 35.225C117.292 35.7417 116.492 36 114.992 36C114.192 36 113.6 35.9583 113.217 35.875C112.833 35.775 112.642 35.7 112.642 35.65L117.067 18.725C117.067 18.5917 118.208 18.525 120.492 18.525C122.775 18.525 123.917 18.5917 123.917 18.725L128.242 35.675C128.242 35.7917 127.858 35.8833 127.092 35.95C126.325 36.0167 125.717 36.05 125.267 36.05ZM118.742 28.95H121.367L120.242 23.775H120.092L118.742 28.95ZM129.648 34.525V18.975C129.648 18.625 130.49 18.45 132.173 18.45C133.873 18.45 134.723 18.625 134.723 18.975V31.225H138.573C138.873 31.225 139.082 31.6167 139.198 32.4C139.248 32.7833 139.273 33.175 139.273 33.575C139.273 33.975 139.248 34.3833 139.198 34.8C139.065 35.6 138.848 36 138.548 36H130.848C130.482 36 130.19 35.85 129.973 35.55C129.757 35.25 129.648 34.9083 129.648 34.525ZM142.413 31.7V22.8H140.638C140.354 22.8 140.154 22.4417 140.038 21.725C139.988 21.375 139.963 21.0167 139.963 20.65C139.963 20.2833 139.988 19.925 140.038 19.575C140.154 18.8583 140.354 18.5 140.638 18.5H149.038C149.321 18.5 149.513 18.8583 149.613 19.575C149.679 19.925 149.713 20.2833 149.713 20.65C149.713 21.0167 149.679 21.375 149.613 21.725C149.513 22.4417 149.321 22.8 149.038 22.8H147.363V31.7H149.113C149.396 31.7 149.596 32.0583 149.713 32.775C149.779 33.125 149.813 33.4833 149.813 33.85C149.813 34.2167 149.779 34.575 149.713 34.925C149.596 35.6417 149.396 36 149.113 36H140.688C140.404 36 140.213 35.6417 140.113 34.925C140.046 34.575 140.013 34.2167 140.013 33.85C140.013 33.4833 140.046 33.125 140.113 32.775C140.213 32.0583 140.404 31.7 140.688 31.7H142.413ZM151.48 34.85V19.85C151.48 19.4333 151.58 19.1083 151.78 18.875C151.997 18.625 152.272 18.5 152.605 18.5H156.78C159.43 18.5 161.439 19.1667 162.805 20.5C164.189 21.8333 164.88 23.9333 164.88 26.8C164.88 32.9333 162.264 36 157.03 36H152.755C151.905 36 151.48 35.6167 151.48 34.85ZM156.28 23.25V30.725C156.28 31.075 156.305 31.3 156.355 31.4C156.405 31.4833 156.555 31.525 156.805 31.525C157.722 31.525 158.414 31.1833 158.88 30.5C159.364 29.8167 159.605 28.6833 159.605 27.1C159.605 25.5 159.355 24.4583 158.855 23.975C158.372 23.4917 157.597 23.25 156.53 23.25H156.28ZM178.636 36.05C177.186 36.05 176.402 35.8167 176.286 35.35L175.461 32.125H171.486L170.761 35.225C170.661 35.7417 169.861 36 168.361 36C167.561 36 166.969 35.9583 166.586 35.875C166.202 35.775 166.011 35.7 166.011 35.65L170.436 18.725C170.436 18.5917 171.577 18.525 173.861 18.525C176.144 18.525 177.286 18.5917 177.286 18.725L181.611 35.675C181.611 35.7917 181.227 35.8833 180.461 35.95C179.694 36.0167 179.086 36.05 178.636 36.05ZM172.111 28.95H174.736L173.611 23.775H173.461L172.111 28.95ZM190.158 35.6C190.158 35.9333 189.333 36.1 187.683 36.1C186.033 36.1 185.208 35.9333 185.208 35.6V23.05H182.208C181.924 23.05 181.724 22.6667 181.608 21.9C181.558 21.5333 181.533 21.1583 181.533 20.775C181.533 20.3917 181.558 20.0167 181.608 19.65C181.724 18.8833 181.924 18.5 182.208 18.5H193.083C193.366 18.5 193.566 18.8833 193.683 19.65C193.733 20.0167 193.758 20.3917 193.758 20.775C193.758 21.1583 193.733 21.5333 193.683 21.9C193.566 22.6667 193.366 23.05 193.083 23.05H190.158V35.6ZM203.307 25.45C203.623 25.45 203.782 26.0333 203.782 27.2C203.782 27.55 203.74 27.9667 203.657 28.45C203.59 28.9167 203.457 29.15 203.257 29.15H200.082V31.65H204.682C204.965 31.65 205.157 32.0167 205.257 32.75C205.307 33.0667 205.332 33.4083 205.332 33.775C205.332 34.125 205.282 34.5833 205.182 35.15C205.082 35.7167 204.915 36 204.682 36H196.132C195.498 36 195.182 35.7417 195.182 35.225V19.15C195.182 18.7167 195.373 18.5 195.757 18.5H204.707C205.057 18.5 205.232 19.2417 205.232 20.725C205.232 22.1917 205.057 22.925 204.707 22.925H200.082V25.45H203.307Z" fill="#70CFE3"/>
<path d="M97.0143 18.825H94.0143V19.2126L94.1128 19.5874L97.0143 18.825ZM98.0893 18.6L98.3671 21.5871L98.3976 21.5843L98.428 21.5808L98.0893 18.6ZM102.789 19.2L99.8329 19.7097L99.8386 19.7427L99.845 19.7755L102.789 19.2ZM104.939 30.2L101.995 30.7755L107.89 30.7431L104.939 30.2ZM106.964 19.2L104.026 18.5922L104.02 18.6244L104.014 18.6569L106.964 19.2ZM111.889 18.575L111.618 21.5627L111.618 21.5627L111.889 18.575ZM112.989 18.8L115.887 19.5749L115.989 19.1941V18.8H112.989ZM108.564 35.35L105.666 34.5751L105.66 34.5987L105.654 34.6224L108.564 35.35ZM107.089 35.875L106.818 32.8873L106.795 32.8893L106.773 32.8917L107.089 35.875ZM103.214 35.975L102.954 38.9637L102.977 38.9657L103.001 38.9674L103.214 35.975ZM101.389 35.475L98.4878 36.2374L98.4959 36.2684L98.5047 36.2992L101.389 35.475ZM100.014 18.825C100.014 19.984 99.3746 20.7187 99.0465 21.0163C98.7186 21.3137 98.407 21.4581 98.2939 21.5081C98.1509 21.5713 98.0399 21.6049 97.9925 21.6185C97.9384 21.634 97.9038 21.6413 97.8976 21.6426C97.8876 21.6447 97.9194 21.6379 98.0109 21.6258C98.0974 21.6144 98.2146 21.6013 98.3671 21.5871L97.8114 15.6129C97.4258 15.6488 97.0195 15.6964 96.6684 15.7699C96.5178 15.8014 96.2053 15.8714 95.869 16.02C95.7111 16.0898 95.3659 16.2543 95.0156 16.572C94.6651 16.8899 94.0143 17.6451 94.0143 18.825H100.014ZM98.428 21.5808C99.1054 21.5038 99.5811 21.475 99.8893 21.475V15.475C99.2641 15.475 98.5398 15.5295 97.7505 15.6192L98.428 21.5808ZM99.8893 21.475C100.74 21.475 101.151 21.536 101.274 21.5667C101.34 21.5833 101.14 21.5475 100.857 21.3515C100.533 21.128 99.9869 20.6028 99.8329 19.7097L105.746 18.6903C105.55 17.5555 104.852 16.8189 104.266 16.4141C103.719 16.0369 103.146 15.8501 102.729 15.7458C101.885 15.5348 100.889 15.475 99.8893 15.475V21.475ZM99.845 19.7755L101.995 30.7755L107.884 29.6245L105.734 18.6245L99.845 19.7755ZM107.89 30.7431L109.915 19.7431L104.014 18.6569L101.989 29.6569L107.89 30.7431ZM109.902 19.8078C109.711 20.7321 109.116 21.2276 108.831 21.41C108.57 21.5772 108.402 21.5998 108.497 21.5774C108.675 21.5359 109.151 21.475 110.064 21.475V15.475C109.011 15.475 107.987 15.535 107.131 15.7351C106.71 15.8335 106.142 16.0072 105.598 16.3557C105.029 16.7192 104.268 17.4262 104.026 18.5922L109.902 19.8078ZM110.064 21.475C110.423 21.475 110.933 21.5005 111.618 21.5627L112.161 15.5873C111.379 15.5162 110.672 15.475 110.064 15.475V21.475ZM111.618 21.5627C111.775 21.577 111.897 21.5903 111.987 21.602C112.083 21.6143 112.119 21.6216 112.113 21.6204C112.109 21.6195 112.077 21.6129 112.025 21.5984C111.98 21.5858 111.872 21.5539 111.731 21.4932C111.622 21.4459 111.311 21.3058 110.982 21.0142C110.658 20.7267 109.989 19.9865 109.989 18.8H115.989C115.989 17.5926 115.309 16.8319 114.962 16.5241C114.61 16.2121 114.265 16.052 114.11 15.9849C113.777 15.8409 113.466 15.773 113.315 15.7421C112.964 15.6702 112.554 15.6231 112.161 15.5873L111.618 21.5627ZM110.091 18.0251L105.666 34.5751L111.462 36.1249L115.887 19.5749L110.091 18.0251ZM105.654 34.6224C105.84 33.8785 106.278 33.4138 106.573 33.18C106.851 32.9606 107.084 32.8748 107.14 32.8549C107.245 32.8174 107.185 32.8539 106.818 32.8873L107.361 38.8627C107.91 38.8127 108.554 38.7201 109.151 38.5076C109.535 38.3711 111.045 37.7956 111.475 36.0776L105.654 34.6224ZM106.773 32.8917C105.496 33.0269 104.385 33.051 103.428 32.9826L103.001 38.9674C104.377 39.0657 105.849 39.0231 107.405 38.8583L106.773 32.8917ZM103.474 32.9863C103.233 32.9653 103.045 32.9429 102.903 32.9214C102.833 32.9108 102.78 32.9013 102.742 32.8936C102.703 32.8858 102.687 32.8812 102.688 32.8816C102.688 32.8817 102.721 32.8905 102.777 32.9122C102.83 32.9327 102.936 32.9771 103.07 33.0566C103.259 33.1685 103.982 33.6308 104.274 34.6508L98.5047 36.2992C98.8294 37.4358 99.6539 38.0065 100.011 38.2184C100.422 38.462 100.829 38.5932 101.103 38.6684C101.669 38.8235 102.321 38.9087 102.954 38.9637L103.474 32.9863ZM104.291 34.7126L99.9158 18.0626L94.1128 19.5874L98.4878 36.2374L104.291 34.7126ZM122.917 35.35L125.827 34.6224L125.825 34.6144L125.823 34.6065L122.917 35.35ZM122.092 32.125L124.998 31.3815L124.421 29.125H122.092V32.125ZM118.117 32.125V29.125H115.737L115.195 31.4418L118.117 32.125ZM117.392 35.225L114.47 34.5418L114.457 34.5981L114.446 34.6549L117.392 35.225ZM113.217 35.875L112.459 38.7779L112.519 38.7934L112.579 38.8065L113.217 35.875ZM112.642 35.65L109.739 34.8912L109.642 35.2643V35.65H112.642ZM117.067 18.725L119.969 19.4838L120.067 19.1107V18.725H117.067ZM123.917 18.725H120.917V19.1017L121.01 19.4667L123.917 18.725ZM128.242 35.675H131.242V35.2983L131.148 34.9333L128.242 35.675ZM127.092 35.95L126.832 32.9613L127.092 35.95ZM118.742 28.95L115.839 28.1927L114.859 31.95H118.742V28.95ZM121.367 28.95V31.95H125.089L124.298 28.3127L121.367 28.95ZM120.242 23.775L123.173 23.1377L122.659 20.775H120.242V23.775ZM120.092 23.775V20.775H117.774L117.189 23.0177L120.092 23.775ZM125.267 33.05C124.644 33.05 124.426 32.9934 124.448 32.9998C124.467 33.0055 124.691 33.0707 124.971 33.2882C125.286 33.5335 125.665 33.9732 125.827 34.6224L120.006 36.0776C120.464 37.9079 122.055 38.5476 122.735 38.7502C123.54 38.99 124.439 39.05 125.267 39.05V33.05ZM125.823 34.6065L124.998 31.3815L119.185 32.8685L120.01 36.0935L125.823 34.6065ZM122.092 29.125H118.117V35.125H122.092V29.125ZM115.195 31.4418L114.47 34.5418L120.313 35.9082L121.038 32.8082L115.195 31.4418ZM114.446 34.6549C114.566 34.0369 114.898 33.5747 115.228 33.2908C115.516 33.0422 115.761 32.9624 115.795 32.9514C115.842 32.9362 115.807 32.9527 115.651 32.9703C115.501 32.9871 115.286 33 114.992 33V39C115.85 39 116.794 38.9338 117.638 38.6611C118.415 38.4102 119.974 37.6707 120.337 35.7951L114.446 34.6549ZM114.992 33C114.639 33 114.365 32.9907 114.159 32.9762C113.942 32.9609 113.853 32.9434 113.854 32.9435L112.579 38.8065C113.292 38.9614 114.15 39 114.992 39V33ZM113.974 32.9721C113.813 32.9301 113.806 32.9217 113.879 32.95C113.896 32.9569 114.084 33.0277 114.316 33.1794C114.429 33.2527 114.681 33.427 114.934 33.7245C115.176 34.0083 115.642 34.6705 115.642 35.65H109.642C109.642 36.642 110.113 37.3175 110.367 37.6153C110.632 37.9269 110.902 38.1161 111.039 38.205C111.319 38.3879 111.579 38.4931 111.692 38.5375C111.956 38.6408 112.237 38.7199 112.459 38.7779L113.974 32.9721ZM115.544 36.4088L119.969 19.4838L114.164 17.9662L109.739 34.8912L115.544 36.4088ZM120.067 18.725C120.067 19.8975 119.415 20.6438 119.057 20.9575C118.709 21.2621 118.378 21.4051 118.255 21.4551C118.101 21.5181 117.979 21.5511 117.923 21.5654C117.859 21.5815 117.815 21.5896 117.798 21.5925C117.765 21.5983 117.839 21.585 118.098 21.5699C118.578 21.5419 119.363 21.525 120.492 21.525V15.525C119.337 15.525 118.409 15.5415 117.748 15.5801C117.435 15.5984 117.081 15.6267 116.763 15.6825C116.63 15.7058 116.323 15.7629 115.985 15.9012C115.827 15.9658 115.469 16.1238 115.103 16.4441C114.727 16.7733 114.067 17.5358 114.067 18.725H120.067ZM120.492 21.525C121.62 21.525 122.405 21.5419 122.885 21.5699C123.144 21.585 123.218 21.5983 123.185 21.5925C123.168 21.5896 123.124 21.5815 123.06 21.5654C123.004 21.5511 122.882 21.5181 122.728 21.4551C122.606 21.4051 122.274 21.2621 121.927 20.9575C121.568 20.6438 120.917 19.8975 120.917 18.725H126.917C126.917 17.5358 126.256 16.7733 125.88 16.4441C125.514 16.1238 125.156 15.9658 124.998 15.9012C124.66 15.7629 124.353 15.7058 124.22 15.6825C123.902 15.6267 123.548 15.5984 123.235 15.5801C122.574 15.5415 121.646 15.525 120.492 15.525V21.525ZM121.01 19.4667L125.335 36.4167L131.148 34.9333L126.823 17.9833L121.01 19.4667ZM125.242 35.675C125.242 34.7981 125.62 34.1402 125.958 33.7512C126.267 33.3949 126.586 33.2042 126.737 33.1219C126.907 33.0294 127.045 32.9788 127.113 32.9559C127.187 32.9306 127.238 32.9178 127.256 32.9135C127.287 32.9062 127.178 32.9311 126.832 32.9613L127.351 38.9387C127.771 38.9022 128.238 38.848 128.652 38.749C128.833 38.7056 129.207 38.6082 129.602 38.3937C129.782 38.2961 131.242 37.505 131.242 35.675H125.242ZM126.832 32.9613C126.1 33.0249 125.59 33.05 125.267 33.05V39.05C125.843 39.05 126.55 39.0084 127.351 38.9387L126.832 32.9613ZM118.742 31.95H121.367V25.95H118.742V31.95ZM124.298 28.3127L123.173 23.1377L117.31 24.4123L118.435 29.5873L124.298 28.3127ZM120.242 20.775H120.092V26.775H120.242V20.775ZM117.189 23.0177L115.839 28.1927L121.644 29.7073L122.994 24.5323L117.189 23.0177ZM134.723 31.225H131.723V34.225H134.723V31.225ZM139.198 32.4L142.173 32.012L142.17 31.985L142.166 31.9581L139.198 32.4ZM139.198 34.8L142.158 35.2932L142.169 35.2255L142.177 35.1574L139.198 34.8ZM129.973 35.55L132.405 33.7935L132.405 33.7935L129.973 35.55ZM132.648 34.525V18.975H126.648V34.525H132.648ZM132.648 18.975C132.648 19.5761 132.455 20.1217 132.161 20.5508C131.889 20.946 131.58 21.1745 131.394 21.2907C131.057 21.5012 130.811 21.535 130.89 21.5184C131 21.4955 131.381 21.45 132.173 21.45V15.45C131.282 15.45 130.401 15.492 129.669 15.6441C129.328 15.715 128.766 15.8582 128.219 16.1999C127.637 16.5629 126.648 17.4537 126.648 18.975H132.648ZM132.173 21.45C132.974 21.45 133.364 21.4955 133.481 21.5196C133.564 21.5368 133.322 21.5045 132.988 21.2977C132.803 21.1836 132.493 20.9569 132.219 20.5622C131.921 20.1327 131.723 19.5832 131.723 18.975H137.723C137.723 17.4393 136.718 16.5493 136.141 16.1929C135.593 15.8548 135.032 15.7132 134.691 15.6429C133.958 15.492 133.072 15.45 132.173 15.45V21.45ZM131.723 18.975V31.225H137.723V18.975H131.723ZM134.723 34.225H138.573V28.225H134.723V34.225ZM138.573 34.225C137.938 34.225 137.373 34.0002 136.95 33.6749C136.572 33.3835 136.383 33.0714 136.306 32.9276C136.17 32.6724 136.19 32.5663 136.231 32.8419L142.166 31.9581C142.09 31.4504 141.947 30.7568 141.603 30.1099C141.255 29.4554 140.319 28.225 138.573 28.225V34.225ZM136.224 32.788C136.256 33.0383 136.273 33.3003 136.273 33.575H142.273C142.273 33.0497 142.241 32.5283 142.173 32.012L136.224 32.788ZM136.273 33.575C136.273 33.8499 136.256 34.1387 136.22 34.4426L142.177 35.1574C142.241 34.6279 142.273 34.1001 142.273 33.575H136.273ZM136.239 34.3068C136.191 34.5936 136.17 34.5071 136.298 34.2712C136.37 34.1388 136.554 33.8375 136.921 33.5528C137.333 33.2343 137.898 33 138.548 33V39C140.307 39 141.238 37.7495 141.574 37.1288C141.918 36.4929 142.072 35.8064 142.158 35.2932L136.239 34.3068ZM138.548 33H130.848V39H138.548V33ZM130.848 33C131.085 33 131.4 33.0517 131.727 33.2196C132.052 33.3871 132.273 33.6101 132.405 33.7935L127.541 37.3065C128.316 38.3788 129.508 39 130.848 39V33ZM132.405 33.7935C132.478 33.8937 132.544 34.0188 132.589 34.162C132.634 34.3042 132.648 34.4304 132.648 34.525H126.648C126.648 35.5148 126.942 36.476 127.541 37.3065L132.405 33.7935ZM142.413 31.7V34.7H145.413V31.7H142.413ZM142.413 22.8H145.413V19.8H142.413V22.8ZM140.038 21.725L137.068 22.1493L137.072 22.1782L137.077 22.207L140.038 21.725ZM140.038 19.575L137.077 19.093L137.072 19.1218L137.068 19.1507L140.038 19.575ZM149.613 19.575L146.641 19.9896L146.652 20.0633L146.666 20.1363L149.613 19.575ZM149.613 21.725L146.666 21.1637L146.652 21.2367L146.641 21.3104L149.613 21.725ZM147.363 22.8V19.8H144.363V22.8H147.363ZM147.363 31.7H144.363V34.7H147.363V31.7ZM149.713 32.775L146.752 33.257L146.758 33.2968L146.766 33.3363L149.713 32.775ZM149.713 34.925L146.766 34.3637L146.758 34.4032L146.752 34.443L149.713 34.925ZM140.113 34.925L143.084 34.5104L143.074 34.4367L143.06 34.3637L140.113 34.925ZM140.113 32.775L143.06 33.3363L143.074 33.2633L143.084 33.1896L140.113 32.775ZM145.413 31.7V22.8H139.413V31.7H145.413ZM142.413 19.8H140.638V25.8H142.413V19.8ZM140.638 19.8C141.251 19.8 141.805 20.0097 142.227 20.3229C142.609 20.6059 142.809 20.9147 142.895 21.0692C143.048 21.3432 143.037 21.4797 142.999 21.243L137.077 22.207C137.155 22.6869 137.303 23.361 137.656 23.9933C138.022 24.6495 138.958 25.8 140.638 25.8V19.8ZM143.008 21.3007C142.978 21.0964 142.963 20.8799 142.963 20.65H136.963C136.963 21.1534 136.997 21.6536 137.068 22.1493L143.008 21.3007ZM142.963 20.65C142.963 20.4201 142.978 20.2036 143.008 19.9993L137.068 19.1507C136.997 19.6464 136.963 20.1466 136.963 20.65H142.963ZM142.999 20.057C143.037 19.8203 143.048 19.9568 142.895 20.2308C142.809 20.3853 142.609 20.6941 142.227 20.9771C141.805 21.2903 141.251 21.5 140.638 21.5V15.5C138.958 15.5 138.022 16.6505 137.656 17.3067C137.303 17.939 137.155 18.6131 137.077 19.093L142.999 20.057ZM140.638 21.5H149.038V15.5H140.638V21.5ZM149.038 21.5C148.423 21.5 147.86 21.289 147.426 20.9621C147.036 20.6675 146.835 20.3453 146.749 20.1837C146.595 19.8974 146.608 19.7521 146.641 19.9896L152.584 19.1604C152.517 18.6812 152.384 17.9984 152.039 17.3538C151.676 16.6747 150.738 15.5 149.038 15.5V21.5ZM146.666 20.1363C146.696 20.296 146.713 20.4662 146.713 20.65H152.713C152.713 20.1005 152.663 19.554 152.56 19.0137L146.666 20.1363ZM146.713 20.65C146.713 20.8338 146.696 21.004 146.666 21.1637L152.56 22.2863C152.663 21.746 152.713 21.1995 152.713 20.65H146.713ZM146.641 21.3104C146.608 21.5479 146.595 21.4026 146.749 21.1163C146.835 20.9547 147.036 20.6325 147.426 20.3379C147.86 20.011 148.423 19.8 149.038 19.8V25.8C150.738 25.8 151.676 24.6253 152.039 23.9462C152.384 23.3016 152.517 22.6188 152.584 22.1396L146.641 21.3104ZM149.038 19.8H147.363V25.8H149.038V19.8ZM144.363 22.8V31.7H150.363V22.8H144.363ZM147.363 34.7H149.113V28.7H147.363V34.7ZM149.113 34.7C148.499 34.7 147.945 34.4903 147.523 34.1771C147.141 33.8941 146.942 33.5853 146.856 33.4308C146.703 33.1568 146.713 33.0203 146.752 33.257L152.674 32.293C152.596 31.8131 152.448 31.139 152.095 30.5067C151.729 29.8505 150.792 28.7 149.113 28.7V34.7ZM146.766 33.3363C146.796 33.496 146.813 33.6662 146.813 33.85H152.813C152.813 33.3005 152.763 32.754 152.66 32.2137L146.766 33.3363ZM146.813 33.85C146.813 34.0338 146.796 34.204 146.766 34.3637L152.66 35.4863C152.763 34.946 152.813 34.3995 152.813 33.85H146.813ZM146.752 34.443C146.713 34.6797 146.703 34.5432 146.856 34.2692C146.942 34.1147 147.141 33.8059 147.523 33.5229C147.945 33.2097 148.499 33 149.113 33V39C150.792 39 151.729 37.8495 152.095 37.1933C152.448 36.561 152.596 35.8869 152.674 35.407L146.752 34.443ZM149.113 33H140.688V39H149.113V33ZM140.688 33C141.303 33 141.866 33.211 142.299 33.5379C142.69 33.8325 142.89 34.1547 142.977 34.3163C143.13 34.6026 143.117 34.7479 143.084 34.5104L137.141 35.3396C137.208 35.8188 137.341 36.5016 137.686 37.1462C138.049 37.8253 138.988 39 140.688 39V33ZM143.06 34.3637C143.029 34.204 143.013 34.0338 143.013 33.85H137.013C137.013 34.3995 137.063 34.946 137.166 35.4863L143.06 34.3637ZM143.013 33.85C143.013 33.6662 143.029 33.496 143.06 33.3363L137.166 32.2137C137.063 32.754 137.013 33.3005 137.013 33.85H143.013ZM143.084 33.1896C143.117 32.9521 143.13 33.0974 142.977 33.3837C142.89 33.5453 142.69 33.8675 142.299 34.1621C141.866 34.489 141.303 34.7 140.688 34.7V28.7C138.988 28.7 138.049 29.8747 137.686 30.5538C137.341 31.1984 137.208 31.8812 137.141 32.3604L143.084 33.1896ZM140.688 34.7H142.413V28.7H140.688V34.7ZM151.78 18.875L149.513 16.9102L149.508 16.9164L149.503 16.9226L151.78 18.875ZM162.805 20.5L160.71 22.6473L160.717 22.6537L160.724 22.66L162.805 20.5ZM156.28 23.25V20.25H153.28V23.25H156.28ZM156.355 31.4L153.672 32.7416L153.724 32.8447L153.783 32.9435L156.355 31.4ZM158.88 30.5L156.431 28.7676L156.417 28.7877L156.403 28.8081L158.88 30.5ZM158.855 23.975L156.734 26.0963L156.752 26.1143L156.77 26.132L158.855 23.975ZM154.48 34.85V19.85H148.48V34.85H154.48ZM154.48 19.85C154.48 19.8936 154.467 20.35 154.058 20.8274L149.503 16.9226C148.693 17.8667 148.48 18.9731 148.48 19.85H154.48ZM154.048 20.8398C153.9 21.0097 153.682 21.1923 153.391 21.3248C153.1 21.4572 152.822 21.5 152.605 21.5V15.5C151.41 15.5 150.305 15.997 149.513 16.9102L154.048 20.8398ZM152.605 21.5H156.78V15.5H152.605V21.5ZM156.78 21.5C158.956 21.5 160.092 22.0435 160.71 22.6473L164.9 18.3527C162.786 16.2898 159.905 15.5 156.78 15.5V21.5ZM160.724 22.66C161.284 23.2005 161.88 24.3488 161.88 26.8H167.88C167.88 23.5178 167.093 20.4662 164.887 18.34L160.724 22.66ZM161.88 26.8C161.88 29.5104 161.292 30.9835 160.636 31.7527C160.057 32.4308 159.049 33 157.03 33V39C160.245 39 163.162 38.0358 165.2 35.6473C167.16 33.3498 167.88 30.223 167.88 26.8H161.88ZM157.03 33H152.755V39H157.03V33ZM152.755 33C152.759 33 152.876 32.9993 153.061 33.0552C153.258 33.1142 153.536 33.2387 153.809 33.4848C154.421 34.0371 154.48 34.6864 154.48 34.85H148.48C148.48 35.7803 148.753 37.0045 149.79 37.9402C150.768 38.8228 151.94 39 152.755 39V33ZM153.28 23.25V30.725H159.28V23.25H153.28ZM153.28 30.725C153.28 30.958 153.288 31.2228 153.318 31.4875C153.338 31.667 153.398 32.193 153.672 32.7416L159.039 30.0584C159.17 30.3217 159.225 30.5378 159.246 30.627C159.27 30.7314 159.278 30.8035 159.281 30.825C159.285 30.8647 159.28 30.842 159.28 30.725H153.28ZM153.783 32.9435C154.384 33.9446 155.312 34.2759 155.703 34.3843C156.148 34.508 156.552 34.525 156.805 34.525V28.525C156.809 28.525 157.013 28.5212 157.308 28.6032C157.549 28.6699 158.377 28.9387 158.928 29.8565L153.783 32.9435ZM156.805 34.525C158.588 34.525 160.265 33.792 161.358 32.1919L156.403 28.8081C156.416 28.7888 156.447 28.7487 156.5 28.7018C156.554 28.6541 156.617 28.6117 156.683 28.579C156.821 28.5108 156.889 28.525 156.805 28.525V34.525ZM161.33 32.2324C162.371 30.7595 162.605 28.8314 162.605 27.1H156.605C156.605 27.7521 156.555 28.2101 156.49 28.5119C156.424 28.8235 156.366 28.8597 156.431 28.7676L161.33 32.2324ZM162.605 27.1C162.605 26.1678 162.535 25.2514 162.335 24.4186C162.143 23.6201 161.766 22.6163 160.941 21.818L156.77 26.132C156.598 25.9655 156.518 25.8195 156.492 25.7661C156.466 25.7141 156.477 25.721 156.501 25.8189C156.551 26.0278 156.605 26.4322 156.605 27.1H162.605ZM160.977 21.8537C159.685 20.5615 157.959 20.25 156.53 20.25V26.25C156.685 26.25 156.802 26.2589 156.885 26.2698C156.969 26.2808 157.01 26.2927 157.019 26.2952C157.026 26.2976 156.995 26.2888 156.941 26.2572C156.884 26.2247 156.811 26.1727 156.734 26.0963L160.977 21.8537ZM156.53 20.25H156.28V26.25H156.53V20.25ZM176.286 35.35L179.196 34.6224L179.194 34.6144L179.192 34.6065L176.286 35.35ZM175.461 32.125L178.367 31.3815L177.79 29.125H175.461V32.125ZM171.486 32.125V29.125H169.106L168.565 31.4418L171.486 32.125ZM170.761 35.225L167.84 34.5418L167.826 34.5981L167.815 34.6549L170.761 35.225ZM166.586 35.875L165.828 38.7779L165.888 38.7934L165.948 38.8065L166.586 35.875ZM166.011 35.65L163.108 34.8912L163.011 35.2643V35.65H166.011ZM170.436 18.725L173.338 19.4838L173.436 19.1107V18.725H170.436ZM177.286 18.725H174.286V19.1017L174.379 19.4667L177.286 18.725ZM181.611 35.675H184.611V35.2983L184.518 34.9333L181.611 35.675ZM180.461 35.95L180.201 32.9613L180.461 35.95ZM172.111 28.95L169.208 28.1927L168.228 31.95H172.111V28.95ZM174.736 28.95V31.95H178.458L177.667 28.3127L174.736 28.95ZM173.611 23.775L176.542 23.1377L176.029 20.775H173.611V23.775ZM173.461 23.775V20.775H171.143L170.558 23.0177L173.461 23.775ZM178.636 33.05C178.014 33.05 177.795 32.9934 177.817 32.9998C177.836 33.0055 178.06 33.0707 178.34 33.2882C178.655 33.5335 179.034 33.9732 179.196 34.6224L173.375 36.0776C173.833 37.9079 175.424 38.5476 176.104 38.7502C176.909 38.99 177.808 39.05 178.636 39.05V33.05ZM179.192 34.6065L178.367 31.3815L172.554 32.8685L173.379 36.0935L179.192 34.6065ZM175.461 29.125H171.486V35.125H175.461V29.125ZM168.565 31.4418L167.84 34.5418L173.682 35.9082L174.407 32.8082L168.565 31.4418ZM167.815 34.6549C167.935 34.0369 168.267 33.5747 168.597 33.2908C168.886 33.0422 169.13 32.9624 169.164 32.9514C169.211 32.9362 169.176 32.9527 169.02 32.9703C168.87 32.9871 168.655 33 168.361 33V39C169.219 39 170.163 38.9338 171.008 38.6611C171.785 38.4102 173.343 37.6707 173.706 35.7951L167.815 34.6549ZM168.361 33C168.009 33 167.734 32.9907 167.528 32.9762C167.311 32.9609 167.223 32.9434 167.223 32.9435L165.948 38.8065C166.661 38.9614 167.519 39 168.361 39V33ZM167.343 32.9721C167.182 32.9301 167.175 32.9217 167.248 32.95C167.265 32.9569 167.453 33.0277 167.685 33.1794C167.798 33.2527 168.05 33.427 168.303 33.7245C168.545 34.0083 169.011 34.6705 169.011 35.65H163.011C163.011 36.642 163.482 37.3175 163.736 37.6153C164.001 37.9269 164.271 38.1161 164.408 38.205C164.688 38.3879 164.948 38.4931 165.061 38.5375C165.325 38.6408 165.606 38.7199 165.828 38.7779L167.343 32.9721ZM168.913 36.4088L173.338 19.4838L167.533 17.9662L163.108 34.8912L168.913 36.4088ZM173.436 18.725C173.436 19.8975 172.784 20.6438 172.426 20.9575C172.078 21.2621 171.747 21.4051 171.624 21.4551C171.47 21.5181 171.348 21.5511 171.292 21.5654C171.228 21.5815 171.184 21.5896 171.167 21.5925C171.135 21.5983 171.209 21.585 171.467 21.5699C171.947 21.5419 172.732 21.525 173.861 21.525V15.525C172.706 15.525 171.778 15.5415 171.117 15.5801C170.805 15.5984 170.45 15.6267 170.132 15.6825C169.999 15.7058 169.692 15.7629 169.354 15.9012C169.196 15.9658 168.838 16.1238 168.472 16.4441C168.097 16.7733 167.436 17.5358 167.436 18.725H173.436ZM173.861 21.525C174.989 21.525 175.774 21.5419 176.255 21.5699C176.513 21.585 176.587 21.5983 176.554 21.5925C176.538 21.5896 176.493 21.5815 176.429 21.5654C176.373 21.5511 176.251 21.5181 176.097 21.4551C175.975 21.4051 175.643 21.2621 175.296 20.9575C174.938 20.6438 174.286 19.8975 174.286 18.725H180.286C180.286 17.5358 179.625 16.7733 179.249 16.4441C178.883 16.1238 178.525 15.9658 178.367 15.9012C178.029 15.7629 177.722 15.7058 177.589 15.6825C177.271 15.6267 176.917 15.5984 176.604 15.5801C175.943 15.5415 175.015 15.525 173.861 15.525V21.525ZM174.379 19.4667L178.704 36.4167L184.518 34.9333L180.193 17.9833L174.379 19.4667ZM178.611 35.675C178.611 34.7981 178.989 34.1402 179.327 33.7512C179.636 33.3949 179.955 33.2042 180.106 33.1219C180.277 33.0294 180.414 32.9788 180.482 32.9559C180.556 32.9306 180.608 32.9178 180.626 32.9135C180.656 32.9062 180.548 32.9311 180.201 32.9613L180.721 38.9387C181.141 38.9022 181.607 38.848 182.021 38.749C182.202 38.7056 182.577 38.6082 182.971 38.3937C183.151 38.2961 184.611 37.505 184.611 35.675H178.611ZM180.201 32.9613C179.469 33.0249 178.959 33.05 178.636 33.05V39.05C179.212 39.05 179.919 39.0084 180.721 38.9387L180.201 32.9613ZM172.111 31.95H174.736V25.95H172.111V31.95ZM177.667 28.3127L176.542 23.1377L170.679 24.4123L171.804 29.5873L177.667 28.3127ZM173.611 20.775H173.461V26.775H173.611V20.775ZM170.558 23.0177L169.208 28.1927L175.014 29.7073L176.364 24.5323L170.558 23.0177ZM185.208 23.05H188.208V20.05H185.208V23.05ZM181.608 21.9L178.635 22.3053L178.638 22.3284L178.642 22.3513L181.608 21.9ZM181.608 19.65L178.642 19.1987L178.638 19.2216L178.635 19.2447L181.608 19.65ZM193.683 19.65L196.655 19.2447L196.652 19.2216L196.649 19.1987L193.683 19.65ZM193.683 21.9L196.649 22.3513L196.652 22.3284L196.655 22.3053L193.683 21.9ZM190.158 23.05V20.05H187.158V23.05H190.158ZM187.158 35.6C187.158 34.9759 187.364 34.4168 187.67 33.9851C187.949 33.5895 188.264 33.3648 188.448 33.2532C188.783 33.0501 189.026 33.0181 188.945 33.0344C188.835 33.0566 188.46 33.1 187.683 33.1V39.1C188.556 39.1 189.418 39.0601 190.133 38.9156C190.465 38.8485 191.017 38.7124 191.558 38.3843C192.12 38.0439 193.158 37.1595 193.158 35.6H187.158ZM187.683 33.1C186.906 33.1 186.531 33.0566 186.421 33.0344C186.34 33.0181 186.582 33.0501 186.917 33.2532C187.102 33.3648 187.416 33.5895 187.696 33.9851C188.001 34.4168 188.208 34.9759 188.208 35.6H182.208C182.208 37.1595 183.246 38.0439 183.808 38.3843C184.349 38.7124 184.901 38.8485 185.233 38.9156C185.948 39.0601 186.81 39.1 187.683 39.1V33.1ZM188.208 35.6V23.05H182.208V35.6H188.208ZM185.208 20.05H182.208V26.05H185.208V20.05ZM182.208 20.05C182.875 20.05 183.455 20.2947 183.875 20.6276C184.249 20.9241 184.433 21.2372 184.505 21.3748C184.634 21.622 184.615 21.7214 184.574 21.4487L178.642 22.3513C178.717 22.8453 178.857 23.5197 179.186 24.1502C179.503 24.7596 180.423 26.05 182.208 26.05V20.05ZM184.58 21.4947C184.549 21.267 184.533 21.0276 184.533 20.775H178.533C178.533 21.2891 178.566 21.7996 178.635 22.3053L184.58 21.4947ZM184.533 20.775C184.533 20.5224 184.549 20.283 184.58 20.0553L178.635 19.2447C178.566 19.7504 178.533 20.2609 178.533 20.775H184.533ZM184.574 20.1013C184.615 19.8286 184.634 19.928 184.505 20.1752C184.433 20.3128 184.249 20.6259 183.875 20.9224C183.455 21.2553 182.875 21.5 182.208 21.5V15.5C180.423 15.5 179.503 16.7904 179.186 17.3998C178.857 18.0303 178.717 18.7047 178.642 19.1987L184.574 20.1013ZM182.208 21.5H193.083V15.5H182.208V21.5ZM193.083 21.5C192.415 21.5 191.835 21.2553 191.416 20.9224C191.042 20.6259 190.857 20.3128 190.786 20.1752C190.657 19.928 190.675 19.8286 190.717 20.1013L196.649 19.1987C196.573 18.7047 196.434 18.0303 196.105 17.3998C195.787 16.7904 194.867 15.5 193.083 15.5V21.5ZM190.71 20.0553C190.741 20.283 190.758 20.5224 190.758 20.775H196.758C196.758 20.2609 196.724 19.7504 196.655 19.2447L190.71 20.0553ZM190.758 20.775C190.758 21.0276 190.741 21.267 190.71 21.4947L196.655 22.3053C196.724 21.7996 196.758 21.2891 196.758 20.775H190.758ZM190.717 21.4487C190.675 21.7214 190.657 21.622 190.786 21.3748C190.857 21.2372 191.042 20.9241 191.416 20.6276C191.835 20.2947 192.415 20.05 193.083 20.05V26.05C194.867 26.05 195.787 24.7596 196.105 24.1502C196.434 23.5197 196.573 22.8453 196.649 22.3513L190.717 21.4487ZM193.083 20.05H190.158V26.05H193.083V20.05ZM187.158 23.05V35.6H193.158V23.05H187.158ZM203.657 28.45L200.7 27.9403L200.693 27.9829L200.687 28.0257L203.657 28.45ZM200.082 29.15V26.15H197.082V29.15H200.082ZM200.082 31.65H197.082V34.65H200.082V31.65ZM205.257 32.75L202.284 33.1553L202.288 33.1867L202.293 33.2179L205.257 32.75ZM205.182 35.15L202.227 34.6286L202.227 34.6286L205.182 35.15ZM200.082 22.925V19.925H197.082V22.925H200.082ZM200.082 25.45H197.082V28.45H200.082V25.45ZM203.307 28.45C202.865 28.45 202.422 28.3433 202.021 28.1321C201.633 27.9282 201.363 27.6689 201.188 27.4537C200.87 27.0627 200.779 26.7153 200.768 26.6734C200.74 26.5703 200.782 26.6844 200.782 27.2H206.782C206.782 26.5489 206.744 25.788 206.558 25.1016C206.468 24.7681 206.278 24.2019 205.841 23.6651C205.331 23.0385 204.461 22.45 203.307 22.45V28.45ZM200.782 27.2C200.782 27.3265 200.765 27.564 200.7 27.9403L206.613 28.9597C206.715 28.3693 206.782 27.7735 206.782 27.2H200.782ZM200.687 28.0257C200.673 28.1237 200.69 27.8577 200.902 27.4866C201.021 27.2784 201.256 26.9411 201.674 26.6486C202.127 26.3312 202.68 26.15 203.257 26.15V32.15C204.797 32.15 205.719 31.1494 206.111 30.4634C206.457 29.8589 206.574 29.243 206.626 28.8743L200.687 28.0257ZM203.257 26.15H200.082V32.15H203.257V26.15ZM197.082 29.15V31.65H203.082V29.15H197.082ZM200.082 34.65H204.682V28.65H200.082V34.65ZM204.682 34.65C204.048 34.65 203.476 34.4275 203.044 34.0935C202.656 33.7941 202.461 33.4704 202.379 33.3148C202.235 33.038 202.25 32.9057 202.284 33.1553L208.229 32.3447C208.163 31.861 208.033 31.1787 207.697 30.5352C207.35 29.8722 206.418 28.65 204.682 28.65V34.65ZM202.293 33.2179C202.316 33.3596 202.332 33.5432 202.332 33.775H208.332C208.332 33.2735 208.298 32.7737 208.22 32.2821L202.293 33.2179ZM202.332 33.775C202.332 33.875 202.314 34.1395 202.227 34.6286L208.136 35.6714C208.25 35.0272 208.332 34.375 208.332 33.775H202.332ZM202.227 34.6286C202.2 34.7831 202.21 34.5821 202.396 34.2664C202.5 34.0898 202.717 33.7772 203.11 33.4988C203.54 33.1944 204.086 33 204.682 33V39C206.269 39 207.19 37.9503 207.567 37.3086C207.92 36.7095 208.063 36.0836 208.136 35.6714L202.227 34.6286ZM204.682 33H196.132V39H204.682V33ZM196.132 33C196.146 33 196.714 32.9906 197.316 33.4817C198.034 34.068 198.182 34.8413 198.182 35.225H192.182C192.182 36.1254 192.487 37.2861 193.523 38.1308C194.441 38.8802 195.484 39 196.132 39V33ZM198.182 35.225V19.15H192.182V35.225H198.182ZM198.182 19.15C198.182 19.3114 198.154 19.9928 197.572 20.6502C196.929 21.3778 196.129 21.5 195.757 21.5V15.5C195.001 15.5 193.914 15.7306 193.078 16.6748C192.305 17.5488 192.182 18.5553 192.182 19.15H198.182ZM195.757 21.5H204.707V15.5H195.757V21.5ZM204.707 21.5C204.19 21.5 203.695 21.3548 203.276 21.1011C202.881 20.8618 202.631 20.575 202.488 20.3723C202.345 20.1709 202.27 20 202.235 19.9108C202.198 19.8169 202.183 19.7559 202.181 19.7452C202.177 19.7303 202.193 19.7982 202.208 19.9868C202.222 20.1661 202.232 20.4089 202.232 20.725H208.232C208.232 19.926 208.19 19.0868 208.02 18.3673C207.94 18.0263 207.774 17.4559 207.385 16.9058C206.942 16.2807 206.05 15.5 204.707 15.5V21.5ZM202.232 20.725C202.232 21.0363 202.222 21.2746 202.208 21.4496C202.194 21.634 202.178 21.6977 202.182 21.6786C202.185 21.6659 202.201 21.6028 202.239 21.5069C202.275 21.4157 202.352 21.2433 202.497 21.0412C202.643 20.8374 202.894 20.5529 203.289 20.3166C203.706 20.0666 204.196 19.925 204.707 19.925V25.925C206.034 25.925 206.927 25.1611 207.376 24.5338C207.769 23.9838 207.937 23.4127 208.018 23.0714C208.19 22.3524 208.232 21.5165 208.232 20.725H202.232ZM204.707 19.925H200.082V25.925H204.707V19.925ZM197.082 22.925V25.45H203.082V22.925H197.082ZM200.082 28.45H203.307V22.45H200.082V28.45Z" fill="black"/>
</svg>
