<svg width="420" height="700" viewBox="0 0 420 700" fill="none" xmlns="http://www.w3.org/2000/svg">
<g filter="url(#filter0_i_34_2)">
<g clip-path="url(#clip0_34_2)">
<rect width="420" height="700" rx="20" fill="url(#paint0_diamond_34_2)"/>
<rect width="420" height="700" rx="20" fill="black" fill-opacity="0.3"/>
<path d="M87.9198 83V50.2727H101.439C103.889 50.2727 106.004 50.7521 107.783 51.7109C109.573 52.6591 110.952 53.9854 111.922 55.69C112.891 57.3839 113.376 59.3548 113.376 61.6026C113.376 63.8611 112.881 65.8374 111.89 67.5312C110.91 69.2145 109.509 70.5195 107.687 71.4464C105.865 72.3732 103.703 72.8366 101.199 72.8366H92.8576V66.6044H99.7291C100.922 66.6044 101.918 66.3967 102.717 65.9812C103.527 65.5657 104.14 64.9851 104.555 64.2393C104.971 63.483 105.178 62.604 105.178 61.6026C105.178 60.5906 104.971 59.717 104.555 58.9819C104.14 58.2362 103.527 57.6609 102.717 57.256C101.908 56.8512 100.912 56.6488 99.7291 56.6488H95.8299V83H87.9198ZM128.25 83.4634C125.671 83.4634 123.456 82.9361 121.602 81.8814C119.759 80.8161 118.337 79.3352 117.335 77.4389C116.344 75.532 115.849 73.3214 115.849 70.8072C115.849 68.2823 116.344 66.0717 117.335 64.1754C118.337 62.2685 119.759 60.7876 121.602 59.733C123.456 58.6676 125.671 58.1349 128.25 58.1349C130.828 58.1349 133.038 58.6676 134.881 59.733C136.735 60.7876 138.157 62.2685 139.148 64.1754C140.149 66.0717 140.65 68.2823 140.65 70.8072C140.65 73.3214 140.149 75.532 139.148 77.4389C138.157 79.3352 136.735 80.8161 134.881 81.8814C133.038 82.9361 130.828 83.4634 128.25 83.4634ZM128.298 77.5668C129.235 77.5668 130.029 77.2791 130.679 76.7038C131.328 76.1286 131.824 75.3295 132.165 74.3068C132.516 73.2841 132.692 72.1016 132.692 70.7592C132.692 69.3956 132.516 68.2024 132.165 67.1797C131.824 66.157 131.328 65.358 130.679 64.7827C130.029 64.2074 129.235 63.9197 128.298 63.9197C127.328 63.9197 126.508 64.2074 125.837 64.7827C125.176 65.358 124.67 66.157 124.318 67.1797C123.978 68.2024 123.807 69.3956 123.807 70.7592C123.807 72.1016 123.978 73.2841 124.318 74.3068C124.67 75.3295 125.176 76.1286 125.837 76.7038C126.508 77.2791 127.328 77.5668 128.298 77.5668ZM151.7 76.56L151.732 67.2436H152.819L159.722 58.4545H168.575L158.316 71.0469H156.255L151.7 76.56ZM144.653 83V50.2727H152.467V83H144.653ZM159.898 83L153.474 72.8047L158.62 67.2596L168.927 83H159.898ZM181.835 83.4634C179.267 83.4634 177.052 82.9574 175.187 81.9453C173.333 80.9226 171.906 79.4684 170.905 77.5827C169.914 75.6864 169.418 73.4332 169.418 70.8232C169.418 68.2876 169.919 66.0717 170.92 64.1754C171.922 62.2685 173.333 60.7876 175.155 59.733C176.977 58.6676 179.124 58.1349 181.595 58.1349C183.342 58.1349 184.94 58.4066 186.389 58.9499C187.838 59.4933 189.09 60.2976 190.145 61.3629C191.199 62.4283 192.02 63.744 192.606 65.31C193.191 66.8654 193.484 68.6499 193.484 70.6634V72.6129H172.151V68.0746H186.213C186.203 67.2436 186.006 66.5032 185.622 65.8533C185.239 65.2035 184.711 64.6974 184.04 64.3352C183.38 63.9624 182.618 63.7759 181.755 63.7759C180.881 63.7759 180.098 63.973 179.406 64.3672C178.713 64.7507 178.165 65.2781 177.76 65.9492C177.355 66.6097 177.142 67.3608 177.121 68.2024V72.8207C177.121 73.8221 177.318 74.701 177.712 75.4574C178.106 76.2031 178.666 76.7837 179.39 77.1992C180.114 77.6147 180.977 77.8224 181.979 77.8224C182.671 77.8224 183.3 77.7266 183.864 77.5348C184.429 77.343 184.914 77.0607 185.319 76.6879C185.723 76.315 186.027 75.8569 186.229 75.3136L193.405 75.5213C193.106 77.13 192.451 78.5309 191.439 79.7241C190.438 80.9066 189.122 81.8281 187.492 82.4886C185.862 83.1385 183.976 83.4634 181.835 83.4634ZM206.44 83.3516C204.629 83.3516 202.983 82.8828 201.502 81.9453C200.022 81.0078 198.839 79.6016 197.955 77.7266C197.071 75.8516 196.629 73.5238 196.629 70.7433C196.629 67.8562 197.087 65.4805 198.003 63.6161C198.919 61.7518 200.117 60.3722 201.598 59.4773C203.09 58.5824 204.693 58.1349 206.408 58.1349C207.697 58.1349 208.8 58.3587 209.716 58.8061C210.632 59.2429 211.389 59.8075 211.985 60.5C212.582 61.1925 213.035 61.9116 213.344 62.6573H213.504V50.2727H221.318V83H213.583V79.021H213.344C213.013 79.7773 212.545 80.4858 211.937 81.1463C211.33 81.8068 210.568 82.3395 209.652 82.7443C208.747 83.1491 207.676 83.3516 206.44 83.3516ZM209.157 77.2631C210.105 77.2631 210.915 76.9968 211.586 76.4641C212.257 75.9208 212.774 75.1591 213.136 74.179C213.498 73.1989 213.679 72.0483 213.679 70.7273C213.679 69.3849 213.498 68.229 213.136 67.2596C212.784 66.2901 212.268 65.5444 211.586 65.0224C210.915 64.5004 210.105 64.2393 209.157 64.2393C208.187 64.2393 207.367 64.5057 206.696 65.0384C206.025 65.571 205.513 66.3221 205.162 67.2915C204.821 68.261 204.651 69.4062 204.651 70.7273C204.651 72.0483 204.826 73.1989 205.178 74.179C205.529 75.1591 206.035 75.9208 206.696 76.4641C207.367 76.9968 208.187 77.2631 209.157 77.2631ZM237.733 83.4634C235.166 83.4634 232.95 82.9574 231.086 81.9453C229.232 80.9226 227.804 79.4684 226.803 77.5827C225.812 75.6864 225.317 73.4332 225.317 70.8232C225.317 68.2876 225.818 66.0717 226.819 64.1754C227.82 62.2685 229.232 60.7876 231.054 59.733C232.875 58.6676 235.022 58.1349 237.494 58.1349C239.241 58.1349 240.839 58.4066 242.288 58.9499C243.737 59.4933 244.988 60.2976 246.043 61.3629C247.098 62.4283 247.918 63.744 248.504 65.31C249.09 66.8654 249.383 68.6499 249.383 70.6634V72.6129H228.049V68.0746H242.112C242.101 67.2436 241.904 66.5032 241.521 65.8533C241.137 65.2035 240.61 64.6974 239.939 64.3352C239.278 63.9624 238.516 63.7759 237.653 63.7759C236.78 63.7759 235.997 63.973 235.304 64.3672C234.612 64.7507 234.063 65.2781 233.658 65.9492C233.254 66.6097 233.041 67.3608 233.019 68.2024V72.8207C233.019 73.8221 233.216 74.701 233.61 75.4574C234.005 76.2031 234.564 76.7837 235.288 77.1992C236.013 77.6147 236.876 77.8224 237.877 77.8224C238.57 77.8224 239.198 77.7266 239.763 77.5348C240.327 77.343 240.812 77.0607 241.217 76.6879C241.622 76.315 241.925 75.8569 242.128 75.3136L249.303 75.5213C249.005 77.13 248.349 78.5309 247.337 79.7241C246.336 80.9066 245.02 81.8281 243.39 82.4886C241.76 83.1385 239.875 83.4634 237.733 83.4634ZM259.67 58.4545L263.713 66.5405L267.9 58.4545H275.778L268.923 70.7273L276.034 83H268.219L263.713 74.8501L259.318 83H251.392L258.519 70.7273L251.744 58.4545H259.67Z" fill="#FFFBF1"/>
<path d="M304.834 63.9091L298.284 83H291.324L284.786 63.9091H291.187L294.704 77.0589H294.903L298.433 63.9091H304.834ZM307.115 83V78.5753L316.399 70.4467C317.095 69.817 317.687 69.2411 318.176 68.7191C318.665 68.1888 319.038 67.6585 319.295 67.1282C319.552 66.5896 319.68 66.0054 319.68 65.3757C319.68 64.6714 319.527 64.0707 319.22 63.5735C318.914 63.0681 318.491 62.6786 317.953 62.4052C317.414 62.1317 316.797 61.995 316.101 61.995C315.396 61.995 314.779 62.14 314.249 62.43C313.718 62.7118 313.304 63.1219 313.006 63.6605C312.716 64.1991 312.571 64.8537 312.571 65.6243H306.742C306.742 63.8925 307.131 62.3969 307.91 61.1374C308.689 59.878 309.783 58.9085 311.191 58.229C312.608 57.5413 314.253 57.1974 316.126 57.1974C318.056 57.1974 319.734 57.5206 321.159 58.1669C322.585 58.8132 323.687 59.7164 324.465 60.8764C325.253 62.0282 325.646 63.3664 325.646 64.891C325.646 65.8604 325.451 66.8216 325.062 67.7745C324.673 68.7274 323.972 69.7797 322.962 70.9315C321.959 72.0832 320.534 73.4628 318.686 75.0703L315.641 77.8793V78.0408H325.957V83H307.115Z" fill="#FDC01E"/>
</g>
<rect x="1.5" y="1.5" width="417" height="697" rx="18.5" stroke="black" stroke-width="3"/>
</g>
<defs>
<filter id="filter0_i_34_2" x="0" y="0" width="420" height="704" filterUnits="userSpaceOnUse" color-interpolation-filters="sRGB">
<feFlood flood-opacity="0" result="BackgroundImageFix"/>
<feBlend mode="normal" in="SourceGraphic" in2="BackgroundImageFix" result="shape"/>
<feColorMatrix in="SourceAlpha" type="matrix" values="0 0 0 0 0 0 0 0 0 0 0 0 0 0 0 0 0 0 127 0" result="hardAlpha"/>
<feOffset dy="4"/>
<feGaussianBlur stdDeviation="2"/>
<feComposite in2="hardAlpha" operator="arithmetic" k2="-1" k3="1"/>
<feColorMatrix type="matrix" values="0 0 0 0 0 0 0 0 0 0 0 0 0 0 0 0 0 0 0.25 0"/>
<feBlend mode="normal" in2="shape" result="effect1_innerShadow_34_2"/>
</filter>
<radialGradient id="paint0_diamond_34_2" cx="0" cy="0" r="1" gradientUnits="userSpaceOnUse" gradientTransform="translate(210 350) rotate(90) scale(350 210)">
<stop stop-color="#F7BA15" stop-opacity="0.35"/>
<stop offset="0.921875" stop-color="#2D3252"/>
</radialGradient>
<clipPath id="clip0_34_2">
<rect width="420" height="700" rx="20" fill="white"/>
</clipPath>
</defs>
</svg>
