<svg width="400" height="300" viewBox="0 0 400 300" fill="none" xmlns="http://www.w3.org/2000/svg">
<g clip-path="url(#clip0_3_153)">
<path d="M326.068 198.586C326.515 197.967 326.83 197.25 326.99 196.487C327.149 195.724 327.15 194.933 326.992 194.17C326.834 193.406 326.521 192.689 326.075 192.069C325.628 191.448 325.06 190.94 324.409 190.579L325.401 178.403L318.606 175.956L317.432 193.171C316.936 194.377 316.872 195.734 317.252 196.986C317.631 198.239 318.429 199.299 319.493 199.966C320.557 200.634 321.814 200.862 323.026 200.608C324.237 200.354 325.319 199.635 326.066 198.587L326.068 198.586Z" fill="#FFB8B8"/>
<path d="M359.969 293.248H353.855L350.946 268.096H359.974L359.969 293.248Z" fill="#FFB8B8"/>
<path d="M349.486 291.384H361.283V299.302H342.059C342.059 297.202 342.841 295.188 344.234 293.703C345.627 292.219 347.516 291.384 349.486 291.384Z" fill="#2F2E41"/>
<path d="M346.088 276.559L340.149 278.115L331.692 254.433L340.459 252.136L346.088 276.559Z" fill="#FFB8B8"/>
<path d="M335.572 277.192L347.026 274.186L348.802 281.874L330.135 286.772C329.665 284.733 329.973 282.578 330.992 280.782C332.012 278.985 333.659 277.694 335.572 277.192V277.192Z" fill="#2F2E41"/>
<path d="M352.813 285.228C352.254 285.23 351.715 285.01 351.3 284.612C350.885 284.214 350.623 283.665 350.566 283.073L343.529 213.177L337.405 234.552L346.079 267.935C346.228 268.508 346.174 269.118 345.927 269.651C345.679 270.183 345.256 270.599 344.739 270.819L337.842 273.76C337.558 273.881 337.254 273.939 336.949 273.931C336.643 273.924 336.342 273.85 336.064 273.715C335.785 273.58 335.536 273.386 335.33 273.145C335.123 272.904 334.965 272.621 334.865 272.313L324.234 239.799C323.07 236.249 322.556 232.494 322.717 228.737L324.201 193.648L363.281 195.412L362.671 282.227C362.664 282.831 362.446 283.411 362.059 283.853C361.671 284.294 361.144 284.566 360.578 284.614L352.989 285.224C352.93 285.227 352.871 285.228 352.813 285.228Z" fill="#2F2E41"/>
<path d="M346.341 115.993C353.598 115.993 359.482 109.721 359.482 101.985C359.482 94.2481 353.598 87.9764 346.341 87.9764C339.083 87.9764 333.2 94.2481 333.2 101.985C333.2 109.721 339.083 115.993 346.341 115.993Z" fill="#FFB8B8"/>
<path d="M356.004 197.695C352.544 197.695 348.246 197.393 343.797 197.081C337.719 196.655 331.434 196.214 326.742 196.503C326.109 196.57 325.47 196.463 324.886 196.192C324.302 195.921 323.794 195.496 323.408 194.956C318.572 188.354 326.03 162.613 326.351 161.52L332.42 132.736L332.681 132.799L332.42 132.736C333.758 126.406 338.023 121.736 343.556 120.549C348.735 119.441 353.744 121.651 356.957 126.467C357.128 126.722 357.298 126.984 357.468 127.253C367.929 143.768 362.012 184.801 361.616 187.446C362.168 188.152 365.157 192.141 364.335 194.913C364.001 196.04 363.094 196.809 361.638 197.194C359.783 197.586 357.893 197.753 356.003 197.693L356.004 197.695Z" fill="#6C63FF"/>
<path d="M326.954 197.707C325.764 197.707 324.158 197.239 321.994 196.282C321.063 195.869 318.232 194.613 321.669 162.59C323.358 146.86 325.777 131.24 325.801 131.084L325.824 130.933L325.954 130.871C326.016 130.841 332.194 127.822 333.268 123.943C333.304 123.809 333.346 123.679 333.393 123.553C333.689 122.69 334.286 121.983 335.059 121.579C335.832 121.174 336.721 121.103 337.542 121.381C338.409 121.602 339.165 122.166 339.656 122.959C340.147 123.752 340.337 124.715 340.186 125.652C339.812 128.182 339.093 130.64 338.051 132.947C335.144 139.341 333.175 156.29 333.155 156.461C333.044 157.908 330.406 192.205 329.898 194.808C329.72 195.717 329.394 196.829 328.436 197.369C327.976 197.61 327.468 197.728 326.955 197.711L326.954 197.707Z" fill="#2F2E41"/>
<path d="M341.31 196.393C341.07 196.393 340.836 196.308 340.647 196.151C336.781 193.019 343.037 155.057 346.746 141.959C347.489 139.336 348.151 137.09 348.713 135.283C349.737 132.04 350.452 128.695 350.847 125.298C351.052 123.459 351.495 122.408 352.205 122.086C352.697 121.862 353.275 122.014 353.927 122.538C357.355 122.358 360.686 123.85 363.772 125.493L366.55 126.97L369.667 185.8C369.579 189.555 362.636 192.205 359.608 192.375C354.745 192.647 346.013 193.491 342.166 196.087C341.914 196.274 341.617 196.38 341.31 196.393L341.31 196.393Z" fill="#2F2E41"/>
<path d="M323.945 185.355C323.899 185.355 323.853 185.355 323.806 185.35L317.51 184.937C317.196 184.917 316.89 184.827 316.611 184.674C316.332 184.52 316.086 184.307 315.889 184.046C315.691 183.786 315.547 183.485 315.465 183.162C315.382 182.838 315.364 182.501 315.411 182.17L318.26 162.048L323.623 133.817C323.755 133.121 324.023 132.463 324.409 131.885C324.795 131.307 325.291 130.822 325.864 130.461C326.437 130.1 327.075 129.872 327.736 129.791C328.397 129.71 329.067 129.778 329.702 129.99V129.99C330.788 130.359 331.714 131.13 332.313 132.163C332.912 133.197 333.146 134.424 332.97 135.625L328.709 163.913L326.187 183.275C326.109 183.851 325.84 184.378 325.428 184.759C325.017 185.141 324.49 185.353 323.944 185.355H323.945Z" fill="#2F2E41"/>
<path d="M345.454 163.331C345.838 162.665 346.354 162.097 346.966 161.666C347.579 161.236 348.272 160.954 348.998 160.84C349.723 160.726 350.463 160.784 351.166 161.008C351.869 161.232 352.517 161.617 353.064 162.137L363.388 156.822L367.948 162.721L353.271 170.01C352.39 170.933 351.223 171.479 349.99 171.546C348.757 171.613 347.543 171.195 346.58 170.372C345.616 169.548 344.969 168.377 344.762 167.079C344.554 165.782 344.8 164.448 345.454 163.331V163.331Z" fill="#FFB8B8"/>
<path d="M359.794 169.04C359.286 169.04 358.793 168.857 358.393 168.522C357.994 168.187 357.712 167.718 357.593 167.191L356.095 160.547C355.981 160.047 356.02 159.521 356.207 159.047C356.394 158.573 356.718 158.175 357.133 157.912L366.175 152.143L361.553 134.101C361.153 132.556 361.336 130.905 362.064 129.502C362.791 128.1 364.005 127.056 365.445 126.595C366.885 126.135 368.437 126.293 369.769 127.037C371.1 127.781 372.106 129.051 372.571 130.575L377.674 147.187C378.301 149.211 378.306 151.397 377.688 153.425C377.07 155.453 375.862 157.218 374.239 158.464L361.12 168.582C360.734 168.879 360.27 169.04 359.794 169.04V169.04Z" fill="#2F2E41"/>
<path d="M262.098 0H8.92432C6.55831 0.00301875 4.29002 1.00628 2.617 2.78972C0.943975 4.57316 0.00283185 6.99114 0 9.5133V38.5551C0.00283185 41.0773 0.943975 43.4953 2.617 45.2787C4.29002 47.0622 6.55831 48.0654 8.92432 48.0684H262.098C264.464 48.0654 266.732 47.0622 268.405 45.2787C270.078 43.4953 271.019 41.0773 271.022 38.5551V9.5133C271.019 6.99114 270.078 4.57316 268.405 2.78972C266.732 1.00628 264.464 0.00301875 262.098 0ZM270.083 38.5551C270.08 40.8116 269.237 42.9747 267.741 44.5702C266.244 46.1658 264.215 47.0636 262.098 47.0669H8.92432C6.80757 47.0636 4.77841 46.1658 3.28165 44.5702C1.78488 42.9747 0.942626 40.8116 0.939513 38.5551V9.5133C0.942626 7.25686 1.78488 5.09378 3.28165 3.49823C4.77841 1.90268 6.80757 1.00484 8.92432 1.00152H262.098C264.215 1.00484 266.244 1.90268 267.741 3.49823C269.237 5.09378 270.08 7.25686 270.083 9.5133V38.5551Z" fill="#3F3D56"/>
<path d="M262.098 116.665H8.92432C6.55831 116.662 4.29002 115.659 2.617 113.876C0.943975 112.092 0.00283185 109.674 0 107.152V78.1107C0.00283185 75.5885 0.943975 73.1705 2.617 71.3871C4.29002 69.6036 6.55831 68.6004 8.92432 68.5974H262.098C264.464 68.6004 266.732 69.6036 268.405 71.3871C270.078 73.1705 271.019 75.5885 271.022 78.1107V107.152C271.019 109.674 270.078 112.092 268.405 113.876C266.732 115.659 264.464 116.662 262.098 116.665ZM8.92432 69.5989C6.80735 69.6014 4.77779 70.499 3.28087 72.0948C1.78395 73.6905 0.94192 75.854 0.939513 78.1107V107.152C0.941495 109.409 1.78333 111.573 3.2803 113.169C4.77726 114.765 6.80707 115.663 8.92432 115.665H262.098C264.215 115.663 266.245 114.765 267.742 113.17C269.239 111.574 270.081 109.41 270.083 107.154V78.1107C270.081 75.854 269.239 73.6905 267.742 72.0948C266.245 70.499 264.215 69.6014 262.098 69.5989H8.92432Z" fill="#CCCCCC"/>
<path d="M262.098 185.263H8.92432C6.55831 185.26 4.29002 184.256 2.617 182.473C0.943975 180.689 0.00283185 178.271 0 175.749V146.708C0.00283185 144.186 0.943975 141.768 2.617 139.984C4.29002 138.201 6.55831 137.198 8.92432 137.195H262.098C264.464 137.198 266.732 138.201 268.405 139.984C270.078 141.768 271.019 144.186 271.022 146.708V175.749C271.019 178.271 270.078 180.689 268.405 182.473C266.732 184.256 264.464 185.26 262.098 185.263ZM8.92432 138.194C6.80735 138.196 4.77779 139.094 3.28087 140.69C1.78395 142.286 0.94192 144.449 0.939513 146.706V175.747C0.941779 178.004 1.78375 180.167 3.28068 181.763C4.77762 183.359 6.80726 184.257 8.92432 184.259H262.098C264.215 184.257 266.245 183.359 267.742 181.764C269.239 180.168 270.081 178.004 270.083 175.748V146.708C270.081 144.451 269.239 142.287 267.742 140.69C266.245 139.094 264.215 138.196 262.098 138.194H8.92432Z" fill="#CCCCCC"/>
<path d="M43.1336 40.5924C40.0615 40.5924 37.0583 39.6213 34.5039 37.8018C31.9495 35.9824 29.9586 33.3964 28.783 30.3708C27.6073 27.3452 27.2997 24.0159 27.8991 20.8039C28.4984 17.5919 29.9778 14.6415 32.1501 12.3258C34.3224 10.0101 37.0902 8.43311 40.1033 7.79421C43.1164 7.15531 46.2396 7.48322 49.0778 8.73647C51.9161 9.98971 54.3421 12.112 56.0488 14.835C57.7556 17.558 58.6666 20.7593 58.6666 24.0342C58.6666 28.4257 57.0301 32.6374 54.1171 35.7426C51.2041 38.8479 47.2532 40.5924 43.1336 40.5924Z" fill="#6C63FF"/>
<path d="M239.164 37.553H73.3581C72.3615 37.553 71.4057 37.131 70.701 36.3798C69.9963 35.6285 69.6003 34.6096 69.6003 33.5472C69.6003 32.4848 69.9963 31.4659 70.701 30.7147C71.4057 29.9635 72.3615 29.5414 73.3581 29.5414H239.164C240.161 29.5414 241.117 29.9635 241.821 30.7147C242.526 31.4659 242.922 32.4848 242.922 33.5472C242.922 34.6096 242.526 35.6285 241.821 36.3798C241.117 37.131 240.161 37.553 239.164 37.553V37.553Z" fill="#CCCCCC"/>
<path d="M185.145 20.5289H73.3545C72.3578 20.5289 71.402 20.1069 70.6973 19.3556C69.9926 18.6044 69.5967 17.5855 69.5967 16.5231C69.5967 15.4607 69.9926 14.4418 70.6973 13.6906C71.402 12.9393 72.3578 12.5173 73.3545 12.5173H185.145C186.142 12.5173 187.097 12.9393 187.802 13.6906C188.507 14.4418 188.903 15.4607 188.903 16.5231C188.903 17.5855 188.507 18.6044 187.802 19.3556C187.097 20.1069 186.142 20.5289 185.145 20.5289V20.5289Z" fill="#CCCCCC"/>
<path d="M43.1336 109.189C40.0615 109.189 37.0583 108.218 34.5039 106.399C31.9495 104.579 29.9586 101.993 28.783 98.9675C27.6073 95.9419 27.2997 92.6126 27.8991 89.4007C28.4984 86.1887 29.9778 83.2383 32.1501 80.9226C34.3224 78.6069 37.0902 77.0299 40.1033 76.391C43.1164 75.7521 46.2396 76.08 49.0778 77.3332C51.9161 78.5865 54.3421 80.7088 56.0488 83.4318C57.7556 86.1547 58.6666 89.3561 58.6666 92.631C58.6666 97.0225 57.0301 101.234 54.1171 104.339C51.2041 107.445 47.2532 109.189 43.1336 109.189V109.189Z" fill="#E6E6E6"/>
<path d="M239.164 106.15H73.3581C72.3615 106.15 71.4057 105.728 70.701 104.977C69.9963 104.226 69.6003 103.207 69.6003 102.145C69.6003 101.082 69.9963 100.063 70.701 99.3121C71.4057 98.5608 72.3615 98.1388 73.3581 98.1388H239.164C240.161 98.1388 241.117 98.5608 241.821 99.3121C242.526 100.063 242.922 101.082 242.922 102.145C242.922 103.207 242.526 104.226 241.821 104.977C241.117 105.728 240.161 106.15 239.164 106.15Z" fill="#E6E6E6"/>
<path d="M185.145 89.1262H73.3545C72.3578 89.1262 71.402 88.7042 70.6973 87.953C69.9926 87.2017 69.5967 86.1828 69.5967 85.1204C69.5967 84.058 69.9926 83.0391 70.6973 82.2879C71.402 81.5367 72.3578 81.1146 73.3545 81.1146H185.145C186.142 81.1146 187.097 81.5367 187.802 82.2879C188.507 83.0391 188.903 84.058 188.903 85.1204C188.903 86.1828 188.507 87.2017 187.802 87.953C187.097 88.7042 186.142 89.1262 185.145 89.1262V89.1262Z" fill="#E6E6E6"/>
<path d="M43.1336 177.786C40.0615 177.786 37.0583 176.815 34.5039 174.996C31.9495 173.177 29.9586 170.59 28.783 167.565C27.6073 164.539 27.2997 161.21 27.8991 157.998C28.4984 154.786 29.9778 151.836 32.1501 149.52C34.3224 147.204 37.0902 145.627 40.1033 144.988C43.1164 144.349 46.2396 144.677 49.0778 145.931C51.9161 147.184 54.3421 149.306 56.0488 152.029C57.7556 154.752 58.6666 157.953 58.6666 161.228C58.6666 165.62 57.0301 169.831 54.1171 172.937C51.2041 176.042 47.2532 177.786 43.1336 177.786V177.786Z" fill="#E6E6E6"/>
<path d="M239.164 174.748H73.3581C72.3615 174.748 71.4057 174.326 70.701 173.574C69.9963 172.823 69.6003 171.804 69.6003 170.742C69.6003 169.68 69.9963 168.661 70.701 167.909C71.4057 167.158 72.3615 166.736 73.3581 166.736H239.164C240.161 166.736 241.117 167.158 241.821 167.909C242.526 168.661 242.922 169.68 242.922 170.742C242.922 171.804 242.526 172.823 241.821 173.574C241.117 174.326 240.161 174.748 239.164 174.748Z" fill="#E6E6E6"/>
<path d="M185.145 157.724H73.3545C72.3578 157.724 71.402 157.302 70.6973 156.55C69.9926 155.799 69.5967 154.78 69.5967 153.718C69.5967 152.655 69.9926 151.636 70.6973 150.885C71.402 150.134 72.3578 149.712 73.3545 149.712H185.145C186.142 149.712 187.097 150.134 187.802 150.885C188.507 151.636 188.903 152.655 188.903 153.718C188.903 154.78 188.507 155.799 187.802 156.55C187.097 157.302 186.142 157.724 185.145 157.724V157.724Z" fill="#E6E6E6"/>
<path d="M42.3408 29.8585C41.955 29.8595 41.5794 29.7266 41.2707 29.4798L41.2514 29.4644L37.2253 26.1815C37.0389 26.0292 36.8824 25.8391 36.7648 25.6223C36.6472 25.4054 36.5709 25.166 36.5401 24.9177C36.5093 24.6694 36.5247 24.417 36.5854 24.1751C36.6461 23.9331 36.7509 23.7063 36.8939 23.5075C37.0368 23.3087 37.2151 23.1419 37.4185 23.0166C37.622 22.8912 37.8465 22.8098 38.0795 22.777C38.3124 22.7442 38.5491 22.7606 38.7761 22.8253C39.0031 22.89 39.2159 23.0018 39.4024 23.1542L42.0101 25.2861L48.1721 16.7161C48.4607 16.315 48.8869 16.0525 49.3571 15.9863C49.8272 15.9201 50.3028 16.0556 50.6792 16.3631V16.3631L50.6412 16.4201L50.6803 16.3631C51.0562 16.6712 51.3021 17.1257 51.3641 17.6268C51.4261 18.128 51.2991 18.6348 51.0109 19.0363L43.7629 29.112C43.5949 29.3437 43.3792 29.5311 43.1324 29.6597C42.8856 29.7882 42.6144 29.8545 42.3397 29.8534L42.3408 29.8585Z" fill="white"/>
<path d="M399.465 300H293.529C293.387 300 293.251 299.94 293.15 299.833C293.05 299.726 292.994 299.581 292.994 299.43C292.994 299.278 293.05 299.133 293.15 299.026C293.251 298.919 293.387 298.859 293.529 298.859H399.465C399.607 298.859 399.743 298.919 399.843 299.026C399.944 299.133 400 299.278 400 299.43C400 299.581 399.944 299.726 399.843 299.833C399.743 299.94 399.607 300 399.465 300Z" fill="#CCCCCC"/>
<path d="M351.172 105.719C351.172 105.719 349.573 96.2929 345.934 97.4191C342.295 98.5452 332.93 99.6975 332.913 95.2585C332.895 90.8196 341.728 86.896 346.935 87.427C352.142 87.9581 360.997 89.5827 360.51 97.9079C360.119 103.151 358.599 108.228 356.067 112.742L351.172 105.719Z" fill="#2F2E41"/>
</g>
<defs>
<clipPath id="clip0_3_153">
<rect width="400" height="300" fill="white"/>
</clipPath>
</defs>
</svg>
