<svg width="400" height="300" viewBox="0 0 400 300" fill="none" xmlns="http://www.w3.org/2000/svg">
<g clip-path="url(#clip0_3_183)">
<path opacity="0.1" d="M336.675 58.7818C339.296 83.6763 359.717 104.542 379 118.532C385.451 123.217 392.418 128.045 396.486 135.75C401.458 145.152 400.583 156.24 397.397 164.655C391.593 179.997 378.607 189.765 363.587 190.066C350.626 190.332 336.74 184.011 323.854 184.732C302.289 185.923 288.097 206.319 278.93 227.921C272.45 243.202 266.167 261.058 251.748 264.868C241.603 267.558 229.571 262.278 219.411 254.264C214.504 250.394 209.665 245.767 204.29 244.077C201.1 243.073 197.942 243.195 194.929 243.629C167.383 247.607 149.188 276.268 121.152 278.287C102.219 279.665 81.4812 268.276 64.4736 252.101C47.4659 235.927 33.6049 215.233 20.4639 194.482C11.1249 179.735 1.59857 163.575 0.183666 146.795C-1.33204 129.039 7.02416 114.131 18.8222 106.738C30.6203 99.3447 45.4642 98.4874 60.128 100.08C78.4678 102.064 98.0532 107.566 113.902 100.507C124.702 95.7002 132.475 85.5523 140.878 76.7066C154.919 61.9205 171.261 50.3772 187.66 39.1317C203.357 28.3704 219.342 17.7382 237.344 11.8697C250.103 7.70508 263.662 9.11123 276.77 6.69352C285.317 5.11878 292.424 0.236738 301.403 0.0250986C312.463 -0.254695 326.112 4.48387 333.046 18.4628C339.649 31.7387 335.282 45.5705 336.675 58.7818Z" fill="#6C63FF"/>
<path d="M284.45 4.88562L259.86 3.40056L245.632 2.389V2.36389H245.455H245.257V2.39259L168.748 8.49066H162.404L161.659 34.802L173.975 39.1281L181.439 76.972L147.478 144.004L126.956 159.5V174.276L139.273 186.171L140.018 240.594L143.751 241.311V240.734L145.627 241.093V241.308L218.514 265.729L221.578 267.799L227.987 263.82L279.614 234.101L284.45 4.88562ZM206.09 173.953L226.057 157.093L206.09 173.953ZM136.839 180.948L142.239 186.174V186.497L136.839 180.948Z" fill="url(#paint0_linear_3_183)"/>
<path d="M146.657 187.275L219.382 205.57L208.581 193.373L202.461 185.841L138.736 173.286L135.856 175.797L146.657 187.275Z" fill="#535461"/>
<path d="M135.856 175.797L207.501 192.297L207.861 175.079L187.34 167.188L146.297 160.372H134.416L135.856 175.797Z" fill="#D6D6E3"/>
<path d="M187.7 78.2275L260.785 82.8907V69.2597L255.745 38.7694L253.224 36.6171L180.139 38.7694L187.7 78.2275Z" fill="#D6D6E3"/>
<path d="M170.418 9.71387H166.818L166.098 35.8997L177.979 40.2042L185.18 77.8688L152.417 144.589L132.616 160.013V174.721L144.497 186.558L145.217 240.723L148.817 241.441L148.097 187.634L136.216 175.079L135.856 160.013L154.937 144.948L188.42 78.2275L181.219 40.2042L169.338 35.1823L170.418 9.71387Z" fill="#D6D6E3"/>
<path d="M167.538 9.71387H163.938L163.218 35.8997L175.099 40.2042L182.299 77.8688L149.537 144.589L129.735 160.013V174.721L141.616 186.558L142.336 240.723L145.937 241.441L145.217 187.634L133.336 175.079L132.976 160.013L152.777 144.948L185.54 78.2275L178.339 40.2042L166.458 35.1823L167.538 9.71387Z" fill="#535461"/>
<path d="M167.358 33.2094L169.158 35.7204L179.239 40.3836L259.165 38.2313L251.424 35.8997L243.144 32.3126L244.224 29.4429L167.358 33.2094Z" fill="#A8A8A8"/>
<path d="M153.857 146.024L226.942 157.861L241.704 126.653L261.865 81.8146L187.7 78.2275L153.857 146.024Z" fill="#6C63FF"/>
<g opacity="0.1">
<path d="M191.66 91.1411L240.984 95.0869L215.422 145.306L167.538 138.132L191.66 91.1411Z" fill="white"/>
</g>
<g opacity="0.1">
<path d="M195.062 94.7891L197.24 94.9649L196.113 97.1781L194 96.8625L195.062 94.7891Z" fill="white"/>
</g>
<g opacity="0.1">
<path d="M195.422 115.594L197.6 115.77L196.473 117.983L194.36 117.668L195.422 115.594Z" fill="white"/>
</g>
<g opacity="0.1">
<path d="M207.303 97.3001L209.481 97.4759L208.354 99.6891L206.241 99.3735L207.303 97.3001Z" fill="white"/>
</g>
<g opacity="0.1">
<path d="M229.985 98.3763L232.163 98.552L231.036 100.765L228.923 100.45L229.985 98.3763Z" fill="white"/>
</g>
<g opacity="0.1">
<path d="M199.383 101.246L201.561 101.422L200.434 103.635L198.32 103.319L199.383 101.246Z" fill="white"/>
</g>
<g opacity="0.1">
<path d="M207.303 123.127L209.481 123.303L208.354 125.516L206.241 125.201L207.303 123.127Z" fill="white"/>
</g>
<g opacity="0.1">
<path d="M187.862 110.572L190.04 110.748L188.913 112.961L186.8 112.646L187.862 110.572Z" fill="white"/>
</g>
<g opacity="0.1">
<path d="M220.984 97.3001L223.162 97.4759L222.035 99.6891L219.922 99.3735L220.984 97.3001Z" fill="white"/>
</g>
<g opacity="0.1">
<path d="M203.703 109.496L205.881 109.672L204.754 111.885L202.641 111.57L203.703 109.496Z" fill="white"/>
</g>
<g opacity="0.1">
<path d="M201.183 95.8653L203.361 96.041L202.234 98.2543L200.121 97.9386L201.183 95.8653Z" fill="white"/>
</g>
<g opacity="0.1">
<path d="M212.343 108.42L214.522 108.596L213.395 110.809L211.281 110.493L212.343 108.42Z" fill="white"/>
</g>
<g opacity="0.1">
<path d="M214.864 97.3001L217.042 97.4759L215.915 99.6891L213.802 99.3735L214.864 97.3001Z" fill="white"/>
</g>
<g opacity="0.1">
<path d="M192.182 102.322L194.36 102.498L193.233 104.711L191.12 104.395L192.182 102.322Z" fill="white"/>
</g>
<path d="M134.416 160.372L205.701 174.72L225.337 157.603L154.037 145.486L134.416 160.372Z" fill="#D6D6E3"/>
<path d="M147.737 185.482V241.441L218.302 265.833L219.382 207.722L216.502 202.316L203.541 199.113L147.737 185.482Z" fill="#535461"/>
<path d="M156.917 152.48C158.608 152.48 159.978 151.677 159.978 150.687C159.978 149.696 158.608 148.893 156.917 148.893C155.227 148.893 153.857 149.696 153.857 150.687C153.857 151.677 155.227 152.48 156.917 152.48Z" fill="#575988"/>
<path d="M159.438 156.426C161.128 156.426 162.498 155.623 162.498 154.633C162.498 153.642 161.128 152.839 159.438 152.839C157.748 152.839 156.377 153.642 156.377 154.633C156.377 155.623 157.748 156.426 159.438 156.426Z" fill="#FA595F"/>
<path d="M150.797 155.35C152.487 155.35 153.857 154.547 153.857 153.557C153.857 152.566 152.487 151.763 150.797 151.763C149.107 151.763 147.737 152.566 147.737 153.557C147.737 154.547 149.107 155.35 150.797 155.35Z" fill="#FFD037"/>
<path d="M189.68 158.937C191.37 158.937 192.74 158.134 192.74 157.144C192.74 156.153 191.37 155.35 189.68 155.35C187.99 155.35 186.62 156.153 186.62 157.144C186.62 158.134 187.99 158.937 189.68 158.937Z" fill="#575988"/>
<path d="M183.559 162.166C185.249 162.166 186.62 161.363 186.62 160.372C186.62 159.382 185.249 158.579 183.559 158.579C181.869 158.579 180.499 159.382 180.499 160.372C180.499 161.363 181.869 162.166 183.559 162.166Z" fill="#FFD037"/>
<path d="M172.039 157.144C174.524 157.144 176.539 156.18 176.539 154.991C176.539 153.803 174.524 152.839 172.039 152.839C169.553 152.839 167.538 153.803 167.538 154.991C167.538 156.18 169.553 157.144 172.039 157.144Z" fill="#A8A8A8"/>
<path d="M192.92 162.883C194.61 162.883 195.98 162.08 195.98 161.09C195.98 160.099 194.61 159.296 192.92 159.296C191.23 159.296 189.86 160.099 189.86 161.09C189.86 162.08 191.23 162.883 192.92 162.883Z" fill="#FA595F"/>
<path d="M173.299 154.636H171.138L169.281 147.491C169.203 147.19 169.195 146.876 169.258 146.572C169.32 146.268 169.452 145.982 169.643 145.736C169.834 145.491 170.079 145.292 170.358 145.155C170.638 145.019 170.946 144.948 171.257 144.948V144.948C171.799 144.948 172.318 145.162 172.701 145.543C173.084 145.925 173.299 146.442 173.299 146.981V154.636Z" fill="#A8A8A8"/>
<path d="M204.441 162.883C206.926 162.883 208.941 161.919 208.941 160.731C208.941 159.542 206.926 158.579 204.441 158.579C201.955 158.579 199.941 159.542 199.941 160.731C199.941 161.919 201.955 162.883 204.441 162.883Z" fill="#A8A8A8"/>
<path d="M205.701 160.376H203.541L201.683 153.23C201.605 152.93 201.597 152.615 201.66 152.311C201.723 152.007 201.855 151.721 202.045 151.476C202.236 151.23 202.481 151.031 202.761 150.895C203.04 150.758 203.348 150.687 203.66 150.687V150.687C204.201 150.687 204.72 150.901 205.103 151.283C205.486 151.664 205.701 152.181 205.701 152.721V160.376Z" fill="#A8A8A8"/>
<path d="M170.058 9.71386L244.224 3.61578L242.424 30.519L168.258 34.1061L170.058 9.71386Z" fill="#535461"/>
<path d="M243.864 3.61578L278.066 6.12675L273.386 234.266L221.002 267.806L217.402 265.295L217.222 205.57L205.701 192.656V174.72L225.863 157.144L260.065 81.4559L255.205 38.2313H257.725L241.704 32.6713L243.864 3.61578Z" fill="#D6D6E3"/>
<path d="M247.104 3.97452L281.667 6.12678L276.986 234.266L220.822 267.626V205.57L209.301 192.656V174.721L229.463 157.144L263.665 81.4559L257.545 38.052L245.304 32.6713L247.104 3.97452Z" fill="#535461"/>
<path d="M186.299 142.186C181.259 152.588 168.852 149.891 168.852 149.891C168.211 149.299 164.201 148.309 161.159 147.624C159.207 147.182 157.656 146.874 157.656 146.874L161.915 140.959L165.108 141.612L169.871 142.587C169.871 142.587 191.358 131.787 186.299 142.186Z" fill="url(#paint1_linear_3_183)"/>
<g opacity="0.08">
<path d="M186.299 142.186C181.259 152.588 168.852 149.891 168.852 149.891C168.211 149.299 164.201 148.309 161.159 147.624C159.207 147.182 157.656 146.874 157.656 146.874L161.915 140.959L165.108 141.612L169.871 142.587C169.871 142.587 191.358 131.787 186.299 142.186Z" fill="url(#paint2_linear_3_183)"/>
</g>
<g opacity="0.1">
<path d="M165.112 141.612L161.151 147.627C159.2 147.186 157.648 146.877 157.648 146.877L161.907 140.962L165.112 141.612Z" fill="url(#paint3_linear_3_183)"/>
</g>
<path d="M120.836 120.11C120.836 120.11 139.402 149.019 159.283 148.951L164.683 140.7C164.683 140.7 146.487 127.751 144.068 121C143.175 118.489 141.332 115.049 139.366 111.674C133.329 101.332 117.045 108.087 120.623 119.45C120.693 119.675 120.764 119.895 120.836 120.11Z" fill="url(#paint4_linear_3_183)"/>
<g opacity="0.05">
<path d="M120.836 120.11C120.836 120.11 139.402 149.019 159.283 148.951L164.683 140.7C164.683 140.7 146.487 127.751 144.068 121C143.175 118.489 141.332 115.049 139.366 111.674C133.329 101.332 117.045 108.087 120.623 119.45C120.693 119.675 120.764 119.895 120.836 120.11Z" fill="url(#paint5_linear_3_183)"/>
</g>
<path d="M108.75 288.141L109.621 298.185C109.621 298.185 138.138 293.464 137.89 284.027C137.642 274.589 108.75 288.141 108.75 288.141Z" fill="url(#paint6_linear_3_183)"/>
<g opacity="0.1">
<path d="M108.75 288.141L109.621 298.185C109.621 298.185 138.138 293.464 137.89 284.027C137.642 274.589 108.75 288.141 108.75 288.141Z" fill="url(#paint7_linear_3_183)"/>
</g>
<path d="M142.124 291.287L141.627 300C141.627 300 181.23 297.094 179.732 288.88C178.235 280.666 157.317 285.235 157.317 285.235L142.124 291.287Z" fill="url(#paint8_linear_3_183)"/>
<path d="M142.621 206.093C142.621 206.093 140.281 212.55 137.292 219.947C134.434 227.028 130.985 234.987 128.425 239.009C123.194 247.237 122.449 272.652 122.449 272.652C121.451 276.766 126.434 284.755 126.434 284.755C116.472 295.157 107.255 289.113 107.255 289.113C108.998 285.967 106.01 277.01 106.01 277.01C106.01 277.01 109.995 235.622 112.49 233.685C114.985 231.748 116.973 222.067 116.973 222.067L114.744 189.166L114.233 181.633L135.651 172.195L137.195 179.699L138.725 187.128L142.621 206.093Z" fill="url(#paint9_linear_3_183)"/>
<g opacity="0.1">
<path d="M142.621 206.093C142.621 206.093 140.281 212.55 137.292 219.947C134.434 227.028 130.985 234.987 128.425 239.009C123.194 247.237 122.449 272.652 122.449 272.652C121.451 276.766 126.434 284.755 126.434 284.755C116.472 295.157 107.255 289.113 107.255 289.113C108.998 285.967 106.01 277.01 106.01 277.01C106.01 277.01 109.995 235.622 112.49 233.685C114.985 231.748 116.973 222.067 116.973 222.067L114.744 189.166L114.233 181.633L135.651 172.195L137.195 179.699L138.725 187.128L142.621 206.093Z" fill="url(#paint10_linear_3_183)"/>
</g>
<path d="M161.299 286.208C156.817 293.952 141.137 292.984 141.137 292.984V270.231C141.137 270.231 136.655 244.816 139.147 239.023C141.638 233.23 138.149 222.565 138.149 222.565L137.292 219.95L127.136 188.742L124.191 179.696H157.814C157.814 179.696 157.814 181.245 157.814 183.764C157.857 193.449 158.059 217.45 159.049 223.021C160.294 230.041 156.806 234.639 156.806 234.639C156.806 234.639 158.797 263.2 157.054 272.153C155.312 281.107 161.299 286.208 161.299 286.208Z" fill="url(#paint11_linear_3_183)"/>
<path d="M133.656 73.4567C133.656 73.4567 128.425 87.493 117.966 92.5759C107.507 97.6588 135.15 99.1116 135.15 99.1116C135.15 99.1116 139.633 88.4615 149.843 80.9573L133.656 73.4567Z" fill="url(#paint12_linear_3_183)"/>
<g opacity="0.1">
<path d="M157.825 183.778C153.656 184.578 146.279 185.948 138.722 187.139C134.761 187.763 130.758 188.337 127.136 188.753C121.563 189.395 116.901 189.664 114.74 189.162L114.229 181.629L135.647 172.192L137.192 179.696H157.814C157.814 179.696 157.814 181.26 157.825 183.778Z" fill="url(#paint13_linear_3_183)"/>
</g>
<path d="M161.299 182.372C161.299 182.372 119.208 190.845 113.981 188.183C108.753 185.521 107.5 178.745 108.998 171.241C110.496 163.737 108.998 145.102 106.258 121.38C104.879 109.435 107.918 101.418 111.281 96.4033C112.756 94.2417 114.744 92.4752 117.067 91.2597C119.39 90.0442 121.978 89.4171 124.602 89.4336C129.154 89.4151 133.579 90.9323 137.156 93.7381C138.207 94.5739 139.269 95.2591 140.137 95.4922C140.821 95.6752 141.85 96.3998 143.017 97.3862C148.211 101.843 151.472 108.131 152.115 114.931C152.547 119.44 153.004 125.118 153.227 130.857C153.457 135.759 153.406 140.669 153.076 145.565C152.845 149.149 153.016 152.747 153.587 156.294C155.528 169.372 161.299 182.372 161.299 182.372Z" fill="url(#paint14_linear_3_183)"/>
<g opacity="0.1">
<path d="M153.591 156.311C138.315 147.05 130.416 121.136 130.416 121.136C130.416 120.91 130.416 120.688 130.391 120.469C130.049 108.585 147.611 106.297 150.592 117.829C151.56 121.585 152.392 125.394 152.565 128.027C152.659 128.996 152.883 129.948 153.231 130.857C153.46 135.759 153.41 140.669 153.08 145.565C152.847 149.155 153.018 152.759 153.591 156.311V156.311Z" fill="url(#paint15_linear_3_183)"/>
</g>
<g opacity="0.1">
<path d="M131.039 81.8074C133.523 85.9003 135.489 90.0219 140.533 90.7214C143.009 87.5906 145.888 84.7974 149.094 82.4136L132.893 74.9094C132.893 74.9094 133.843 77.4706 131.039 81.8074Z" fill="url(#paint16_linear_3_183)"/>
</g>
<path d="M143.618 89.4264C152.697 89.4264 160.057 82.2749 160.057 73.4531C160.057 64.6312 152.697 57.4797 143.618 57.4797C134.539 57.4797 127.179 64.6312 127.179 73.4531C127.179 82.2749 134.539 89.4264 143.618 89.4264Z" fill="url(#paint17_linear_3_183)"/>
<g opacity="0.1">
<path d="M159.866 78.4643C160.546 78.4932 161.219 78.3156 161.796 77.9549C162.584 77.3845 162.836 76.3622 163.016 75.4224C163.445 73.202 163.78 70.8632 163.016 68.7253C162.523 67.312 161.576 66.0888 160.914 64.7472C159.438 61.8165 159.175 58.2904 157.069 55.7471C155.755 54.1545 151.135 55.7471 149.206 54.9436C145.058 53.2075 143.258 49.6849 138.74 49.6885C137.084 49.6483 135.431 49.8538 133.836 50.2983C131.816 50.9189 130.031 52.0919 128.371 53.3797C125.491 55.6108 122.668 58.6742 122.924 62.2541C123.089 64.5391 124.49 66.5587 125.314 68.6894C126.697 72.2765 126.445 76.3084 125.448 80.0246C125.023 81.6066 124.537 83.497 125.664 84.7058C126.384 85.4627 127.525 85.6779 128.544 85.5129C129.56 85.2885 130.533 84.9008 131.424 84.365C133.044 83.5077 134.686 82.6361 135.996 81.377C136.864 80.5448 137.562 79.5619 138.387 78.6902C140.001 77.0234 141.829 75.5761 143.823 74.3857C145.418 73.4316 147.063 74.027 148.738 74.6476C152.417 75.9927 155.819 78.536 159.866 78.4643Z" fill="url(#paint18_linear_3_183)"/>
</g>
<path d="M159.618 78.2203C160.298 78.2493 160.971 78.0716 161.547 77.7109C162.336 77.1406 162.588 76.1183 162.768 75.1784C163.196 72.958 163.531 70.6192 162.768 68.4813C162.275 67.068 161.328 65.8448 160.665 64.5032C159.189 61.5726 158.926 58.0464 156.82 55.5032C155.506 53.9105 151.135 55.7471 149.206 54.94C145.058 53.2039 143.01 49.441 138.491 49.4446C136.835 49.4044 135.183 49.6099 133.588 50.0544C131.568 50.675 129.782 51.8479 128.123 53.1357C125.242 55.3669 122.42 58.4303 122.675 62.0102C122.841 64.2952 124.241 66.3147 125.066 68.4454C126.448 72.0326 126.196 76.0645 125.199 79.7807C124.774 81.3626 124.288 83.253 125.415 84.4619C126.135 85.2187 127.276 85.434 128.295 85.269C129.312 85.0446 130.284 84.6569 131.176 84.1211C132.796 83.2638 134.437 82.3921 135.748 81.133C136.616 80.3008 137.314 79.318 138.138 78.4463C139.753 76.7794 141.581 75.3321 143.575 74.1418C145.17 73.1876 146.815 73.7831 148.489 74.4036C152.169 75.7488 155.571 78.292 159.618 78.2203Z" fill="url(#paint19_linear_3_183)"/>
<g opacity="0.05">
<path d="M153.591 156.312C153.02 152.765 152.848 149.167 153.08 145.582C153.41 140.687 153.46 135.777 153.231 130.875C153.008 125.136 152.554 119.458 152.118 114.949C151.472 108.142 148.204 101.849 142.999 97.3934C141.843 96.4069 140.813 95.6787 140.119 95.4994C139.251 95.2698 138.189 94.5811 137.138 93.7453C133.602 90.9366 138.095 96.4069 139.251 97.3934C144.456 101.849 147.724 108.142 148.37 114.949C148.802 119.458 149.26 125.136 149.483 130.875C149.712 135.777 149.662 140.687 149.332 145.582C149.1 149.167 149.272 152.765 149.843 156.312C151.78 169.379 157.551 182.372 157.551 182.372C157.551 182.372 129.375 188.043 116.263 188.646C126.538 189.363 161.285 182.372 161.285 182.372C161.285 182.372 155.528 169.372 153.591 156.312Z" fill="url(#paint20_linear_3_183)"/>
</g>
<path d="M187.948 158.654C180.226 167.367 169.022 161.559 169.022 161.559C168.564 160.82 164.971 158.83 162.231 157.38C160.471 156.451 159.06 155.748 159.06 155.748L164.788 151.15L167.686 152.606L172.006 154.78C172.006 154.78 195.678 149.941 187.948 158.654Z" fill="url(#paint21_linear_3_183)"/>
<g opacity="0.1">
<path d="M167.686 152.606L162.231 157.38C160.471 156.451 159.06 155.748 159.06 155.748L164.788 151.15L167.686 152.606Z" fill="url(#paint22_linear_3_183)"/>
</g>
<path d="M130.916 120.412C130.916 120.412 140.878 153.087 160.057 158.17L167.527 151.634C167.527 151.634 153.555 134.437 153.065 127.303C152.889 124.666 152.061 120.846 151.092 117.105C148.111 105.576 130.549 107.861 130.891 119.745C130.898 119.965 130.907 120.187 130.916 120.412Z" fill="url(#paint23_linear_3_183)"/>
<path opacity="0.05" d="M111.615 152.24C111.615 152.24 118.096 147.157 124.069 151.031C130.042 154.905 138.761 154.421 140.007 154.661" fill="url(#paint24_linear_3_183)"/>
<path d="M184.434 141.655C179.628 151.799 167.83 149.188 167.83 149.188C167.218 148.61 163.401 147.645 160.51 146.978C158.653 146.547 157.177 146.26 157.177 146.26L161.231 140.489L164.269 141.127L168.802 142.078C168.802 142.078 189.241 131.507 184.434 141.655Z" fill="#F7C4A7"/>
<path opacity="0.08" d="M184.434 141.655C179.628 151.799 167.83 149.188 167.83 149.188C167.218 148.61 163.401 147.645 160.51 146.978C158.653 146.547 157.177 146.26 157.177 146.26L161.231 140.489L164.269 141.127L168.802 142.078C168.802 142.078 189.241 131.507 184.434 141.655Z" fill="black"/>
<path opacity="0.1" d="M164.269 141.091L160.51 146.96C158.653 146.529 157.177 146.242 157.177 146.242L161.231 140.471L164.269 141.091Z" fill="black"/>
<path d="M122.135 120.114C122.135 120.114 139.805 148.323 158.721 148.251L163.866 140.216C163.866 140.216 146.552 127.582 144.248 120.993C143.398 118.561 141.645 115.189 139.777 111.903C134.016 101.816 118.535 108.406 121.937 119.494C122.002 119.697 122.068 119.904 122.135 120.114Z" fill="#575988"/>
<path opacity="0.05" d="M122.135 120.114C122.135 120.114 139.805 148.323 158.721 148.251L163.866 140.216C163.866 140.216 146.552 127.582 144.248 120.993C143.398 118.561 141.645 115.189 139.777 111.903C134.016 101.816 118.535 108.406 121.937 119.494C122.002 119.697 122.068 119.904 122.135 120.114Z" fill="black"/>
<path d="M110.632 284.062L111.461 293.862C111.461 293.862 138.599 289.257 138.362 280.049C138.124 270.84 110.632 284.062 110.632 284.062Z" fill="#535461"/>
<path opacity="0.1" d="M110.632 284.062L111.461 293.862C111.461 293.862 138.599 289.257 138.362 280.049C138.124 270.84 110.632 284.062 110.632 284.062Z" fill="black"/>
<path d="M142.394 287.133L141.919 295.638C141.919 295.638 179.606 292.804 178.184 284.776C176.762 276.748 156.853 281.232 156.853 281.232L142.394 287.133Z" fill="#535461"/>
<path d="M142.866 204.006C142.866 204.006 140.637 210.297 137.793 217.522C135.071 224.431 131.788 232.197 129.354 236.121C124.393 244.152 123.673 268.946 123.673 268.946C122.726 272.96 127.464 280.755 127.464 280.755C117.984 290.91 109.214 285.006 109.214 285.006C110.874 281.935 108.03 273.197 108.03 273.197C108.03 273.197 111.821 232.814 114.193 230.927C116.566 229.04 118.456 219.592 118.456 219.592L116.335 187.491L115.849 180.155L136.234 170.943L137.714 178.265L139.154 185.514L142.866 204.006Z" fill="#6A5C99"/>
<path opacity="0.1" d="M142.866 204.006C142.866 204.006 140.637 210.297 137.793 217.522C135.071 224.431 131.788 232.197 129.354 236.121C124.393 244.152 123.673 268.946 123.673 268.946C122.726 272.96 127.464 280.755 127.464 280.755C117.984 290.91 109.214 285.006 109.214 285.006C110.874 281.935 108.03 273.197 108.03 273.197C108.03 273.197 111.821 232.814 114.193 230.927C116.566 229.04 118.456 219.592 118.456 219.592L116.335 187.491L115.849 180.155L136.234 170.943L137.714 178.265L139.154 185.514L142.866 204.006Z" fill="black"/>
<path d="M160.644 282.172C156.377 289.73 141.444 288.783 141.444 288.783V266.583C141.444 266.583 137.177 241.785 139.546 236.117C141.915 230.45 138.599 220.058 138.599 220.058L137.793 217.518L128.126 187.085L125.325 178.261H157.324C157.324 178.261 157.324 179.771 157.324 182.232C157.364 191.677 157.558 215.101 158.502 220.535C159.686 227.383 156.367 231.87 156.367 231.87C156.367 231.87 158.264 259.735 156.604 268.459C154.945 277.182 160.644 282.172 160.644 282.172Z" fill="#6A5C99"/>
<path d="M134.333 74.5938C134.333 74.5938 129.354 88.2893 119.399 93.2467C109.444 98.204 135.755 99.6245 135.755 99.6245C135.755 99.6245 140.021 89.2219 149.739 81.9114L134.333 74.5938Z" fill="#F7C4A7"/>
<path opacity="0.1" d="M157.335 182.235C153.368 183.003 146.354 184.352 139.154 185.514C135.388 186.124 131.575 186.683 128.126 187.089C122.823 187.713 118.384 187.978 116.328 187.487L115.842 180.151L136.227 170.94L137.714 178.265H157.339C157.339 178.265 157.324 179.775 157.335 182.235Z" fill="black"/>
<path d="M160.644 180.851C160.644 180.851 120.587 189.101 115.612 186.518C110.636 183.936 109.448 177.307 110.87 169.989C112.292 162.671 110.87 144.485 108.263 121.341C106.949 109.686 109.844 101.866 113.041 96.9701C114.418 94.8738 116.298 93.1527 118.511 91.9626C120.724 90.7726 123.199 90.1512 125.714 90.1546C130.062 90.1394 134.282 91.6206 137.66 94.3479C138.66 95.1622 139.672 95.833 140.497 96.059C141.148 96.2347 142.128 96.945 143.226 97.9063C148.205 102.304 151.31 108.431 151.906 115.035C152.32 119.433 152.752 124.975 152.964 130.578C153.184 135.359 153.137 140.149 152.824 144.926C152.604 148.422 152.767 151.932 153.31 155.393C155.15 168.185 160.644 180.851 160.644 180.851Z" fill="#575988"/>
<path opacity="0.1" d="M153.306 155.436C138.769 146.4 131.251 121.115 131.251 121.115C131.251 120.896 131.251 120.677 131.226 120.466C130.902 108.872 147.614 106.637 150.451 117.89C151.373 121.556 152.161 125.269 152.327 127.841C152.416 128.785 152.629 129.714 152.961 130.603C153.18 135.384 153.133 140.175 152.82 144.951C152.599 148.453 152.762 151.969 153.306 155.436Z" fill="black"/>
<path opacity="0.1" d="M131.845 82.7401C134.207 86.7325 136.079 90.7572 140.882 91.4352C143.23 88.3891 145.969 85.6635 149.029 83.3284L133.624 76.0071C133.624 76.0071 134.513 78.5109 131.845 82.7401Z" fill="black"/>
<path d="M143.816 90.1797C152.456 90.1797 159.459 83.2016 159.459 74.5938C159.459 65.9859 152.456 59.0078 143.816 59.0078C135.177 59.0078 128.173 65.9859 128.173 74.5938C128.173 83.2016 135.177 90.1797 143.816 90.1797Z" fill="#F7C4A7"/>
<path opacity="0.1" d="M159.279 79.4794C159.929 79.5054 160.57 79.3299 161.115 78.9772C161.864 78.4212 162.105 77.4204 162.275 76.5057C162.681 74.3534 162.995 72.0577 162.275 69.97C161.807 68.5889 160.917 67.398 160.273 66.0887C158.865 63.2191 158.617 59.7898 156.615 57.3075C155.362 55.7543 150.97 57.3075 149.13 56.5219C145.17 54.8288 143.47 51.3924 139.172 51.396C137.59 51.3556 136.012 51.5564 134.491 51.9914C132.569 52.5941 130.87 53.7491 129.293 54.9974C126.542 57.1748 123.863 60.1628 124.108 63.6567C124.267 65.8879 125.599 67.8392 126.384 69.9341C127.701 73.4423 127.464 77.3702 126.51 80.9931C126.106 82.5356 125.642 84.3794 126.715 85.5631C127.384 86.2985 128.486 86.5137 129.469 86.3487C130.443 86.1304 131.374 85.7522 132.223 85.2295C133.764 84.3937 135.327 83.5436 136.572 82.3168C137.397 81.5025 138.063 80.5448 138.848 79.6946C140.378 78.0727 142.118 76.6602 144.021 75.4941C145.541 74.5651 147.1 75.1354 148.702 75.7488C152.19 77.0689 155.427 79.5511 159.279 79.4794Z" fill="black"/>
<path d="M159.042 79.2427C159.69 79.2708 160.332 79.0979 160.878 78.7476C161.627 78.1916 161.868 77.1908 162.037 76.2761C162.444 74.1239 162.757 71.8281 162.037 69.7404C161.569 68.3594 160.68 67.1685 160.035 65.8592C158.628 62.9895 158.379 59.5602 156.377 57.078C155.125 55.5247 150.977 57.3183 149.13 56.5291C145.17 54.836 143.233 51.1485 138.934 51.1485C137.353 51.1081 135.774 51.3089 134.254 51.7439C132.331 52.3466 130.632 53.5016 129.055 54.7499C126.304 56.9273 123.626 59.9154 123.871 63.4092C124.029 65.6404 125.361 67.5918 126.146 69.6866C127.464 73.1948 127.226 77.1227 126.272 80.7456C125.869 82.2881 125.404 84.1319 126.477 85.3156C127.147 86.051 128.249 86.2662 129.231 86.1012C130.206 85.8829 131.136 85.5047 131.986 84.982C133.527 84.1462 135.089 83.2961 136.335 82.0693C137.159 81.255 137.825 80.2973 138.61 79.4471C140.157 77.8267 141.914 76.4189 143.834 75.261C145.353 74.3319 146.912 74.9023 148.514 75.5157C151.953 76.8249 155.189 79.3144 159.042 79.2427Z" fill="#632652"/>
<path opacity="0.05" d="M153.306 155.436C152.769 151.978 152.61 148.472 152.835 144.98C153.148 140.203 153.194 135.413 152.975 130.631C152.763 125.028 152.331 119.49 151.917 115.089C151.321 108.485 148.216 102.358 143.236 97.9601C142.138 96.9952 141.159 96.2885 140.507 96.1128C139.683 95.8868 138.671 95.216 137.67 94.4017C134.304 91.6612 138.581 96.9988 139.683 97.9601C144.662 102.358 147.767 108.485 148.363 115.089C148.777 119.486 149.209 125.028 149.422 130.631C149.641 135.413 149.594 140.203 149.281 144.98C149.061 148.476 149.224 151.986 149.767 155.447C151.611 168.196 157.105 180.872 157.105 180.872C157.105 180.872 130.29 186.404 117.815 186.996C127.593 187.713 160.658 180.872 160.658 180.872C160.658 180.872 155.15 168.185 153.306 155.436Z" fill="black"/>
<path d="M186.004 157.721C178.656 166.223 168.003 160.555 168.003 160.555C167.571 159.838 164.15 157.89 161.522 156.48C159.848 155.573 158.505 154.887 158.505 154.887L163.956 150.4L166.714 151.835L170.836 153.948C170.836 153.948 193.352 149.22 186.004 157.721Z" fill="#F7C4A7"/>
<path opacity="0.1" d="M166.721 151.82L161.529 156.484C159.855 155.576 158.512 154.891 158.512 154.891L163.963 150.404L166.721 151.82Z" fill="black"/>
<path d="M131.726 120.408C131.726 120.408 141.206 152.29 159.448 157.248L166.559 150.87C166.559 150.87 153.238 134.093 152.795 127.13C152.626 124.558 151.841 120.842 150.916 117.18C148.079 105.931 131.366 108.162 131.694 119.755C131.706 119.971 131.717 120.188 131.726 120.408Z" fill="#575988"/>
<path opacity="0.05" d="M113.358 151.462C113.358 151.462 119.522 146.501 125.21 150.282C130.898 154.062 139.193 153.589 140.378 153.826" fill="black"/>
</g>
<defs>
<linearGradient id="paint0_linear_3_183" x1="205.701" y1="267.809" x2="205.701" y2="2.36389" gradientUnits="userSpaceOnUse">
<stop stop-color="#808080" stop-opacity="0.25"/>
<stop offset="0.54" stop-color="#808080" stop-opacity="0.12"/>
<stop offset="1" stop-color="#808080" stop-opacity="0.1"/>
</linearGradient>
<linearGradient id="paint1_linear_3_183" x1="172.363" y1="150.206" x2="172.363" y2="137.666" gradientUnits="userSpaceOnUse">
<stop stop-color="#808080" stop-opacity="0.25"/>
<stop offset="0.54" stop-color="#808080" stop-opacity="0.12"/>
<stop offset="1" stop-color="#808080" stop-opacity="0.1"/>
</linearGradient>
<linearGradient id="paint2_linear_3_183" x1="172.363" y1="150.206" x2="172.363" y2="137.666" gradientUnits="userSpaceOnUse">
<stop stop-color="#808080" stop-opacity="0.25"/>
<stop offset="0.54" stop-color="#808080" stop-opacity="0.12"/>
<stop offset="1" stop-color="#808080" stop-opacity="0.1"/>
</linearGradient>
<linearGradient id="paint3_linear_3_183" x1="161.385" y1="147.624" x2="161.385" y2="140.959" gradientUnits="userSpaceOnUse">
<stop stop-color="#808080" stop-opacity="0.25"/>
<stop offset="0.54" stop-color="#808080" stop-opacity="0.12"/>
<stop offset="1" stop-color="#808080" stop-opacity="0.1"/>
</linearGradient>
<linearGradient id="paint4_linear_3_183" x1="142.405" y1="148.947" x2="142.405" y2="106.584" gradientUnits="userSpaceOnUse">
<stop stop-color="#808080" stop-opacity="0.25"/>
<stop offset="0.54" stop-color="#808080" stop-opacity="0.12"/>
<stop offset="1" stop-color="#808080" stop-opacity="0.1"/>
</linearGradient>
<linearGradient id="paint5_linear_3_183" x1="142.405" y1="148.947" x2="142.405" y2="106.584" gradientUnits="userSpaceOnUse">
<stop stop-color="#808080" stop-opacity="0.25"/>
<stop offset="0.54" stop-color="#808080" stop-opacity="0.12"/>
<stop offset="1" stop-color="#808080" stop-opacity="0.1"/>
</linearGradient>
<linearGradient id="paint6_linear_3_183" x1="123.32" y1="298.188" x2="123.32" y2="280.687" gradientUnits="userSpaceOnUse">
<stop stop-color="#808080" stop-opacity="0.25"/>
<stop offset="0.54" stop-color="#808080" stop-opacity="0.12"/>
<stop offset="1" stop-color="#808080" stop-opacity="0.1"/>
</linearGradient>
<linearGradient id="paint7_linear_3_183" x1="123.32" y1="298.188" x2="123.32" y2="280.687" gradientUnits="userSpaceOnUse">
<stop stop-color="#808080" stop-opacity="0.25"/>
<stop offset="0.54" stop-color="#808080" stop-opacity="0.12"/>
<stop offset="1" stop-color="#808080" stop-opacity="0.1"/>
</linearGradient>
<linearGradient id="paint8_linear_3_183" x1="160.698" y1="300.004" x2="160.698" y2="283.958" gradientUnits="userSpaceOnUse">
<stop stop-color="#808080" stop-opacity="0.25"/>
<stop offset="0.54" stop-color="#808080" stop-opacity="0.12"/>
<stop offset="1" stop-color="#808080" stop-opacity="0.1"/>
</linearGradient>
<linearGradient id="paint9_linear_3_183" x1="124.317" y1="290.86" x2="124.317" y2="172.206" gradientUnits="userSpaceOnUse">
<stop stop-color="#808080" stop-opacity="0.25"/>
<stop offset="0.54" stop-color="#808080" stop-opacity="0.12"/>
<stop offset="1" stop-color="#808080" stop-opacity="0.1"/>
</linearGradient>
<linearGradient id="paint10_linear_3_183" x1="124.317" y1="290.86" x2="124.317" y2="172.206" gradientUnits="userSpaceOnUse">
<stop stop-color="#808080" stop-opacity="0.25"/>
<stop offset="0.54" stop-color="#808080" stop-opacity="0.12"/>
<stop offset="1" stop-color="#808080" stop-opacity="0.1"/>
</linearGradient>
<linearGradient id="paint11_linear_3_183" x1="142.747" y1="293.023" x2="142.747" y2="179.71" gradientUnits="userSpaceOnUse">
<stop stop-color="#808080" stop-opacity="0.25"/>
<stop offset="0.54" stop-color="#808080" stop-opacity="0.12"/>
<stop offset="1" stop-color="#808080" stop-opacity="0.1"/>
</linearGradient>
<linearGradient id="paint12_linear_3_183" x1="132.724" y1="99.1116" x2="132.724" y2="73.4567" gradientUnits="userSpaceOnUse">
<stop stop-color="#808080" stop-opacity="0.25"/>
<stop offset="0.54" stop-color="#808080" stop-opacity="0.12"/>
<stop offset="1" stop-color="#808080" stop-opacity="0.1"/>
</linearGradient>
<linearGradient id="paint13_linear_3_183" x1="136.025" y1="189.424" x2="136.025" y2="172.206" gradientUnits="userSpaceOnUse">
<stop stop-color="#808080" stop-opacity="0.25"/>
<stop offset="0.54" stop-color="#808080" stop-opacity="0.12"/>
<stop offset="1" stop-color="#808080" stop-opacity="0.1"/>
</linearGradient>
<linearGradient id="paint14_linear_3_183" x1="133.609" y1="188.699" x2="133.609" y2="89.43" gradientUnits="userSpaceOnUse">
<stop stop-color="#808080" stop-opacity="0.25"/>
<stop offset="0.54" stop-color="#808080" stop-opacity="0.12"/>
<stop offset="1" stop-color="#808080" stop-opacity="0.1"/>
</linearGradient>
<linearGradient id="paint15_linear_3_183" x1="141.991" y1="156.312" x2="141.991" y2="110.275" gradientUnits="userSpaceOnUse">
<stop stop-color="#808080" stop-opacity="0.25"/>
<stop offset="0.54" stop-color="#808080" stop-opacity="0.12"/>
<stop offset="1" stop-color="#808080" stop-opacity="0.1"/>
</linearGradient>
<linearGradient id="paint16_linear_3_183" x1="140.068" y1="90.7178" x2="140.068" y2="74.9094" gradientUnits="userSpaceOnUse">
<stop stop-color="#808080" stop-opacity="0.25"/>
<stop offset="0.54" stop-color="#808080" stop-opacity="0.12"/>
<stop offset="1" stop-color="#808080" stop-opacity="0.1"/>
</linearGradient>
<linearGradient id="paint17_linear_3_183" x1="143.618" y1="89.43" x2="143.618" y2="57.4797" gradientUnits="userSpaceOnUse">
<stop stop-color="#808080" stop-opacity="0.25"/>
<stop offset="0.54" stop-color="#808080" stop-opacity="0.12"/>
<stop offset="1" stop-color="#808080" stop-opacity="0.1"/>
</linearGradient>
<linearGradient id="paint18_linear_3_183" x1="143.2" y1="85.5595" x2="143.2" y2="49.6849" gradientUnits="userSpaceOnUse">
<stop stop-color="#808080" stop-opacity="0.25"/>
<stop offset="0.54" stop-color="#808080" stop-opacity="0.12"/>
<stop offset="1" stop-color="#808080" stop-opacity="0.1"/>
</linearGradient>
<linearGradient id="paint19_linear_3_183" x1="142.948" y1="85.3192" x2="142.948" y2="49.4446" gradientUnits="userSpaceOnUse">
<stop stop-color="#808080" stop-opacity="0.25"/>
<stop offset="0.54" stop-color="#808080" stop-opacity="0.12"/>
<stop offset="1" stop-color="#808080" stop-opacity="0.1"/>
</linearGradient>
<linearGradient id="paint20_linear_3_183" x1="138.79" y1="188.699" x2="138.79" y2="92.9346" gradientUnits="userSpaceOnUse">
<stop stop-color="#808080" stop-opacity="0.25"/>
<stop offset="0.54" stop-color="#808080" stop-opacity="0.12"/>
<stop offset="1" stop-color="#808080" stop-opacity="0.1"/>
</linearGradient>
<linearGradient id="paint21_linear_3_183" x1="174.278" y1="163.453" x2="174.278" y2="151.15" gradientUnits="userSpaceOnUse">
<stop stop-color="#808080" stop-opacity="0.25"/>
<stop offset="0.54" stop-color="#808080" stop-opacity="0.12"/>
<stop offset="1" stop-color="#808080" stop-opacity="0.1"/>
</linearGradient>
<linearGradient id="paint22_linear_3_183" x1="163.373" y1="157.38" x2="163.373" y2="151.15" gradientUnits="userSpaceOnUse">
<stop stop-color="#808080" stop-opacity="0.25"/>
<stop offset="0.54" stop-color="#808080" stop-opacity="0.12"/>
<stop offset="1" stop-color="#808080" stop-opacity="0.1"/>
</linearGradient>
<linearGradient id="paint23_linear_3_183" x1="149.206" y1="158.17" x2="149.206" y2="109.55" gradientUnits="userSpaceOnUse">
<stop stop-color="#808080" stop-opacity="0.25"/>
<stop offset="0.54" stop-color="#808080" stop-opacity="0.12"/>
<stop offset="1" stop-color="#808080" stop-opacity="0.1"/>
</linearGradient>
<linearGradient id="paint24_linear_3_183" x1="125.811" y1="154.658" x2="125.811" y2="149.575" gradientUnits="userSpaceOnUse">
<stop stop-color="#808080" stop-opacity="0.25"/>
<stop offset="0.54" stop-color="#808080" stop-opacity="0.12"/>
<stop offset="1" stop-color="#808080" stop-opacity="0.1"/>
</linearGradient>
<clipPath id="clip0_3_183">
<rect width="400" height="300" fill="white"/>
</clipPath>
</defs>
</svg>
