<svg width="400" height="300" viewBox="0 0 400 300" fill="none" xmlns="http://www.w3.org/2000/svg">
<g clip-path="url(#clip0_1_6)">
<path d="M398.097 97.9312C392.579 118.227 376.468 132.434 359.662 144.502C357.315 146.188 354.968 147.834 352.62 149.442C352.604 149.45 352.588 149.465 352.571 149.473C352.458 149.55 352.345 149.627 352.24 149.704C351.755 150.036 351.271 150.367 350.79 150.694L351.054 150.82C351.054 150.82 351.313 150.966 351.03 150.844C350.945 150.806 350.857 150.773 350.773 150.735C341.009 146.56 331.073 142.077 323.591 134.256C315.829 126.135 311.293 113.396 315.496 102.727C316.049 101.329 316.746 100.001 317.577 98.7675C317.917 98.2503 318.285 97.7553 318.667 97.2694C320.985 94.2695 324.015 91.9783 327.445 90.6316C330.876 89.2849 334.582 88.9312 338.184 89.6069C341.786 90.2825 345.154 91.9632 347.94 94.4761C350.726 96.9889 352.831 100.243 354.037 103.904C355.272 91.7157 345.793 81.5058 336.671 73.9725C327.544 66.4429 317.174 58.243 315.41 46.1219C314.424 39.3779 316.636 32.8423 320.665 27.5958C320.79 27.4364 320.915 27.2772 321.043 27.1222C325.948 21.0115 332.846 17.0876 340.361 16.1342C354.355 14.5921 367.948 22.4459 378.114 32.7622C394.477 49.3605 404.369 74.8554 398.097 97.9312Z" fill="#F2F2F2"/>
<path d="M371.793 71.385C374.478 75.8154 376.54 80.6374 377.914 85.6988C379.075 90.2226 379.592 94.9051 379.447 99.591C379.196 109.223 376.4 118.635 372.003 127.018C368.6 133.374 364.454 139.249 359.662 144.502C357.315 146.188 354.968 147.834 352.62 149.442C352.604 149.45 352.588 149.465 352.571 149.473C352.458 149.55 352.345 149.627 352.24 149.704C351.755 150.036 351.271 150.367 350.79 150.694C350.79 150.694 351.313 150.966 351.03 150.844C350.945 150.806 350.857 150.773 350.773 150.735C351.648 143.128 350.79 135.41 348.273 128.227C345.755 121.045 341.65 114.606 336.302 109.452C330.942 104.376 324.525 100.715 317.577 98.7675C317.917 98.2503 318.285 97.7553 318.667 97.2694C321.351 98.0674 323.963 99.1153 326.472 100.401C335.443 104.969 342.789 112.478 347.422 121.816C351.579 130.296 353.369 139.858 352.58 149.378C352.981 148.993 353.383 148.599 353.772 148.209C361.191 140.875 367.781 132.457 372.24 122.742C376.109 114.515 378.011 105.406 377.777 96.2157C377.413 86.1953 373.648 76.9138 368.196 68.8337C362.356 60.1861 355.034 52.5353 347.215 45.9073C339.206 39.1065 330.443 33.3702 321.12 28.8263C320.91 28.7223 320.746 28.5365 320.661 28.3075C320.576 28.0785 320.578 27.8237 320.665 27.5958C320.727 27.3913 320.863 27.2211 321.043 27.1222C321.136 27.0799 321.236 27.0603 321.337 27.0648C321.437 27.0693 321.536 27.0979 321.625 27.1484C322.776 27.7102 323.919 28.2797 325.053 28.8739C334.497 33.8231 343.324 39.9972 351.333 47.2542C359.068 54.2468 366.351 62.2357 371.793 71.385Z" fill="white"/>
<path d="M308.048 214.14C319.351 214.14 328.514 204.425 328.514 192.441C328.514 180.457 319.351 170.742 308.048 170.742C296.745 170.742 287.583 180.457 287.583 192.441C287.583 204.425 296.745 214.14 308.048 214.14Z" fill="#2F2E41"/>
<path d="M292.074 180.741C295.381 177.235 296.051 172.26 293.571 169.631C291.09 167.001 286.399 167.711 283.091 171.218C279.784 174.724 279.114 179.699 281.594 182.329C284.075 184.958 288.766 184.248 292.074 180.741Z" fill="#2F2E41"/>
<path d="M329.378 173.851C330.756 170.43 328.387 166.079 324.086 164.131C319.785 162.183 315.181 163.376 313.803 166.796C312.425 170.217 314.795 174.568 319.096 176.516C323.397 178.464 328 177.271 329.378 173.851Z" fill="#2F2E41"/>
<path d="M351.389 285.608C347.873 288.199 344.157 290.47 340.28 292.399L339.708 291.326L334.222 281.118L333.742 280.222L330.936 275.002L330.93 274.995L322.072 258.493L317.519 250.021L331.04 239.967L336.3 251.758L339.152 258.162L350.892 284.486L351.389 285.608Z" fill="#A0616A"/>
<path d="M339.308 245.795L337.613 242.979L330.114 230.507C329.091 228.084 327.203 226.19 324.864 225.24C322.526 224.29 319.928 224.361 317.639 225.438C315.35 226.515 313.557 228.51 312.653 230.986C311.749 233.462 311.807 236.217 312.815 238.648L317.449 256.156C317.58 256.651 317.809 257.111 318.121 257.505C318.434 257.899 318.822 258.217 319.26 258.439C319.698 258.66 320.175 258.779 320.66 258.789C321.145 258.798 321.627 258.698 322.072 258.493C322.09 258.487 322.101 258.481 322.118 258.475L336.3 251.758L337.827 251.034C338.273 250.821 338.671 250.509 338.993 250.118C339.315 249.728 339.555 249.269 339.695 248.773C339.836 248.276 339.874 247.753 339.807 247.239C339.74 246.725 339.57 246.233 339.308 245.795H339.308Z" fill="#6C63FF"/>
<path d="M298.564 246.187L294.618 255.635L293.762 257.69L279.152 292.681L278.684 293.804C274.727 292.055 270.918 289.954 267.297 287.522L267.69 286.344L279.615 250.672L282.543 241.912L288.954 243.623L298.564 246.187Z" fill="#A0616A"/>
<path d="M323.937 206.454C328.539 197.53 325.445 186.341 317.028 181.462C308.611 176.584 298.058 179.863 293.457 188.788C288.855 197.712 291.949 208.901 300.366 213.78C308.783 218.658 319.336 215.378 323.937 206.454Z" fill="#A0616A"/>
<path d="M338.973 250.144C338.722 247.718 338.267 245.32 337.613 242.979C335.643 235.931 331.877 229.597 326.73 224.673C324.838 222.873 322.386 221.879 319.844 221.882H295.376C293.617 221.877 291.887 222.35 290.35 223.256C288.813 224.162 287.521 225.471 286.596 227.057C285.672 228.643 285.146 230.454 285.07 232.317C284.993 234.179 285.368 236.032 286.159 237.697L288.954 243.623L294.618 255.635L295.978 258.512L302.036 271.364L302.516 272.382L333.268 281.351L333.401 281.038C333.517 280.762 333.632 280.492 333.742 280.222C333.91 279.811 334.078 279.412 334.234 279.007C337.335 271.21 338.799 264.272 339.152 258.162C339.311 255.489 339.251 252.806 338.973 250.144V250.144Z" fill="#6C63FF"/>
<path d="M299.814 225.244C297.551 224.12 294.959 223.992 292.607 224.889C290.255 225.785 288.334 227.634 287.264 230.029L285.083 233.519L277.793 245.187C277.522 245.62 277.343 246.11 277.267 246.623C277.191 247.136 277.22 247.661 277.352 248.161C277.485 248.661 277.717 249.125 278.034 249.521C278.35 249.917 278.744 250.236 279.187 250.457L279.615 250.672L293.762 257.69L294.769 258.187C295.148 258.376 295.559 258.487 295.978 258.512C296.537 258.559 297.098 258.455 297.609 258.211C298.056 257.999 298.454 257.688 298.776 257.298C299.099 256.909 299.338 256.45 299.478 255.954L304.373 238.587C305.435 236.176 305.551 233.417 304.697 230.915C303.842 228.414 302.086 226.374 299.814 225.244V225.244Z" fill="#6C63FF"/>
<path d="M334.234 279.007C334.131 278.626 333.964 278.266 333.742 277.946C332.951 276.821 332.005 275.829 330.936 275.002L330.93 274.995C327.21 272.008 319.804 268.517 305.519 268.425H305.496C304.841 268.425 304.2 268.624 303.649 268.999C303.098 269.375 302.66 269.91 302.388 270.542L302.036 271.364L299.762 276.664C299.569 277.12 299.263 277.512 298.877 277.799C296.822 279.339 290.284 284.921 286.906 295.583C286.784 295.963 286.668 296.35 286.558 296.749C301.005 301.224 316.377 301.076 330.745 296.325L331.063 294.933L334.223 281.118L334.275 280.891C334.418 280.27 334.404 279.62 334.234 279.007V279.007Z" fill="#2F2E41"/>
<path d="M290.446 186.038C294.415 188.938 299.126 190.482 303.947 190.461C302.227 191.725 300.27 192.579 298.209 192.964C304.618 194.422 311.242 194.461 317.666 193.08C319.094 192.837 320.472 192.335 321.739 191.597C322.371 191.223 322.921 190.712 323.354 190.098C323.787 189.484 324.094 188.78 324.253 188.032C324.68 185.446 322.78 183.097 320.805 181.514C317.782 179.127 314.295 177.482 310.599 176.699C306.902 175.916 303.088 176.013 299.431 176.985C297.044 177.639 294.652 178.745 293.101 180.778C291.55 182.811 291.091 185.945 292.568 188.039L290.446 186.038Z" fill="#2F2E41"/>
<path d="M314.407 18.6978H0.628418V20.0313H314.407V18.6978Z" fill="#3F3D56"/>
<path d="M11.3183 14.0042C13.402 14.0042 15.0912 12.2132 15.0912 10.004C15.0912 7.79467 13.402 6.00369 11.3183 6.00369C9.23459 6.00369 7.54541 7.79467 7.54541 10.004C7.54541 12.2132 9.23459 14.0042 11.3183 14.0042Z" fill="#3F3D56"/>
<path d="M22.1652 14.0042C24.2489 14.0042 25.9381 12.2132 25.9381 10.004C25.9381 7.79467 24.2489 6.00369 22.1652 6.00369C20.0815 6.00369 18.3923 7.79467 18.3923 10.004C18.3923 12.2132 20.0815 14.0042 22.1652 14.0042Z" fill="#3F3D56"/>
<path d="M33.0124 14.0042C35.0961 14.0042 36.7853 12.2132 36.7853 10.004C36.7853 7.79467 35.0961 6.00369 33.0124 6.00369C30.9287 6.00369 29.2395 7.79467 29.2395 10.004C29.2395 12.2132 30.9287 14.0042 33.0124 14.0042Z" fill="#3F3D56"/>
<path d="M246.451 96.0812H68.3617C67.8317 96.0812 67.3069 95.9705 66.8172 95.7555C66.3275 95.5404 65.8826 95.2252 65.5078 94.8278C65.133 94.4305 64.8357 93.9587 64.6329 93.4396C64.4301 92.9204 64.3257 92.3639 64.3257 91.8019C64.3257 91.24 64.4301 90.6835 64.6329 90.1644C64.8357 89.6452 65.133 89.1734 65.5078 88.7761C65.8826 88.3787 66.3275 88.0635 66.8172 87.8484C67.3069 87.6334 67.8317 87.5227 68.3617 87.5227H246.451C246.981 87.5227 247.506 87.6334 247.996 87.8484C248.485 88.0635 248.93 88.3787 249.305 88.7761C249.68 89.1734 249.977 89.6452 250.18 90.1644C250.383 90.6835 250.487 91.24 250.487 91.8019C250.487 92.3639 250.383 92.9204 250.18 93.4396C249.977 93.9587 249.68 94.4305 249.305 94.8278C248.93 95.2252 248.485 95.5404 247.996 95.7555C247.506 95.9705 246.981 96.0812 246.451 96.0812V96.0812Z" fill="#CCCCCC"/>
<path d="M246.451 142.083H68.3617C67.8317 142.083 67.3069 141.973 66.8172 141.757C66.3275 141.542 65.8826 141.227 65.5078 140.83C65.133 140.432 64.8357 139.961 64.6329 139.442C64.4301 138.922 64.3257 138.366 64.3257 137.804C64.3257 137.242 64.4301 136.686 64.6329 136.166C64.8357 135.647 65.133 135.175 65.5078 134.778C65.8826 134.381 66.3275 134.066 66.8172 133.85C67.3069 133.635 67.8317 133.525 68.3617 133.525H246.451C246.981 133.525 247.506 133.635 247.996 133.85C248.485 134.066 248.93 134.381 249.305 134.778C249.68 135.175 249.977 135.647 250.18 136.166C250.383 136.686 250.487 137.242 250.487 137.804C250.487 138.366 250.383 138.922 250.18 139.442C249.977 139.961 249.68 140.432 249.305 140.83C248.93 141.227 248.485 141.542 247.996 141.757C247.506 141.973 246.981 142.083 246.451 142.083V142.083Z" fill="#E6E6E6"/>
<path d="M246.451 159.735H68.3617C67.2913 159.735 66.2647 159.284 65.5078 158.482C64.7509 157.679 64.3257 156.591 64.3257 155.456C64.3257 154.321 64.7509 153.233 65.5078 152.43C66.2647 151.627 67.2913 151.177 68.3617 151.177H246.451C247.521 151.177 248.548 151.627 249.305 152.43C250.062 153.233 250.487 154.321 250.487 155.456C250.487 156.591 250.062 157.679 249.305 158.482C248.548 159.284 247.521 159.735 246.451 159.735Z" fill="#E6E6E6"/>
<path d="M217.442 77.8944H97.3707C96.3003 77.8944 95.2737 77.4435 94.5168 76.641C93.7599 75.8385 93.3347 74.7501 93.3347 73.6151C93.3347 72.4802 93.7599 71.3918 94.5168 70.5892C95.2737 69.7867 96.3003 69.3359 97.3707 69.3359H217.442C218.513 69.3359 219.539 69.7867 220.296 70.5892C221.053 71.3918 221.478 72.4802 221.478 73.6151C221.478 74.7501 221.053 75.8385 220.296 76.641C219.539 77.4435 218.513 77.8944 217.442 77.8944Z" fill="#CCCCCC"/>
<path d="M131.147 124.431H68.5882C68.0578 124.432 67.5325 124.322 67.0422 124.107C66.552 123.892 66.1065 123.577 65.7312 123.18C65.3559 122.782 65.0582 122.31 64.8551 121.791C64.6519 121.271 64.5474 120.714 64.5474 120.152C64.5474 119.59 64.6519 119.033 64.8551 118.513C65.0582 117.994 65.3559 117.522 65.7312 117.124C66.1065 116.727 66.552 116.412 67.0422 116.197C67.5325 115.982 68.0578 115.872 68.5882 115.873H131.147C132.217 115.873 133.244 116.324 134 117.126C134.757 117.929 135.183 119.017 135.183 120.152C135.183 121.287 134.757 122.375 134 123.178C133.244 123.98 132.217 124.431 131.147 124.431Z" fill="#E6E6E6"/>
<path d="M246.678 124.431H184.119C183.589 124.432 183.063 124.322 182.573 124.107C182.083 123.892 181.638 123.577 181.262 123.18C180.887 122.782 180.589 122.31 180.386 121.791C180.183 121.271 180.078 120.714 180.078 120.152C180.078 119.59 180.183 119.033 180.386 118.513C180.589 117.994 180.887 117.522 181.262 117.124C181.638 116.727 182.083 116.412 182.573 116.197C183.063 115.982 183.589 115.872 184.119 115.873H246.678C247.208 115.872 247.733 115.982 248.224 116.197C248.714 116.412 249.159 116.727 249.535 117.124C249.91 117.522 250.208 117.994 250.411 118.513C250.614 119.033 250.718 119.59 250.718 120.152C250.718 120.714 250.614 121.271 250.411 121.791C250.208 122.31 249.91 122.782 249.535 123.18C249.159 123.577 248.714 123.892 248.224 124.107C247.733 124.322 247.208 124.432 246.678 124.431Z" fill="#E6E6E6"/>
<path d="M310.633 -3.05176e-05H4.39734C3.23065 0.00185137 2.11232 0.494503 1.28788 1.36977C0.463437 2.24504 0.000256155 3.43139 0 4.6684V224.686C0.00146981 225.922 0.465229 227.107 1.28957 227.981C2.11392 228.855 3.23155 229.346 4.39734 229.348H233.397C233.34 228.906 233.293 228.458 233.247 228.017H4.39734C3.56432 228.016 2.76563 227.665 2.17658 227.04C1.58753 226.416 1.25626 225.569 1.2555 224.686V4.6684C1.25604 3.78453 1.58705 2.93695 2.17598 2.31139C2.76491 1.68584 3.56372 1.33335 4.39734 1.33118H310.633C311.468 1.3321 312.268 1.68399 312.858 2.30964C313.448 2.93529 313.78 3.7836 313.781 4.6684V139.513C314.198 139.544 314.62 139.58 315.037 139.623V4.6684C315.036 3.43041 314.572 2.2433 313.746 1.36793C312.921 0.492564 311.801 0.000538414 310.633 -3.05176e-05Z" fill="#3F3D56"/>
<path d="M233.397 229.348C233.34 228.906 233.293 228.458 233.247 228.017C233.235 227.949 233.23 227.888 233.224 227.82C233.056 226.207 232.934 224.577 232.859 222.931C232.541 224.348 232.254 225.771 231.997 227.201C232.015 227.409 232.032 227.612 232.055 227.82C232.061 227.888 232.067 227.949 232.078 228.017C232.124 228.458 232.171 228.906 232.229 229.348C232.391 230.716 232.587 232.066 232.819 233.409C232.824 233.354 232.83 233.305 232.836 233.25C232.998 231.955 233.183 230.667 233.403 229.379C233.399 229.369 233.397 229.358 233.397 229.348ZM315.037 138.39C314.62 138.347 314.197 138.311 313.781 138.28C313.717 138.274 313.659 138.274 313.596 138.268C311.744 138.12 309.87 138.047 307.983 138.047C297.304 138.05 286.744 140.428 276.985 145.025C267.226 149.623 258.485 156.339 251.325 164.74C244.165 173.14 238.745 183.039 235.416 193.798C232.087 204.557 230.923 215.936 231.997 227.201C232.015 227.409 232.032 227.612 232.055 227.82C232.061 227.888 232.067 227.949 232.078 228.017C232.124 228.458 232.171 228.906 232.229 229.348C232.391 230.716 232.587 232.066 232.819 233.409C235.118 246.728 240.517 259.228 248.526 269.775C256.535 280.322 266.901 288.581 278.684 293.804C279.887 294.332 281.102 294.835 282.335 295.295C283.145 295.608 283.955 295.896 284.776 296.172C285.366 296.374 285.962 296.565 286.558 296.749C287.403 297.012 288.259 297.264 289.121 297.497C299.697 300.374 310.733 300.801 321.478 298.749C332.223 296.698 342.425 292.216 351.389 285.608H351.395C361.561 278.166 369.871 268.219 375.613 256.621C381.354 245.024 384.355 232.122 384.357 219.023C384.357 176.891 353.854 142.175 315.037 138.39V138.39ZM350.892 284.486C347.356 287.103 343.614 289.391 339.707 291.326C336.9 292.719 334.013 293.923 331.063 294.933C317.753 299.474 303.513 299.999 289.937 296.448C288.919 296.184 287.908 295.896 286.905 295.583C285.916 295.276 284.936 294.951 283.966 294.608C283.173 294.319 282.381 294.025 281.594 293.712C280.772 293.381 279.962 293.037 279.152 292.681C266.968 287.298 256.331 278.618 248.302 267.509C240.274 256.401 235.137 243.252 233.403 229.379C233.399 229.369 233.397 229.358 233.397 229.348C233.34 228.906 233.293 228.458 233.247 228.017C233.235 227.949 233.23 227.888 233.224 227.82C233.056 226.207 232.934 224.577 232.859 222.931C232.796 221.637 232.765 220.334 232.767 219.023C232.788 197.88 240.72 177.608 254.821 162.657C268.922 147.706 288.041 139.297 307.983 139.274C309.87 139.274 311.744 139.347 313.596 139.495C313.659 139.501 313.717 139.507 313.781 139.513C314.198 139.544 314.62 139.58 315.037 139.623C353.218 143.402 383.2 177.566 383.2 219.023C383.198 231.89 380.259 244.564 374.633 255.964C369.006 267.364 360.861 277.15 350.892 284.486V284.486ZM281.594 293.712C280.772 293.381 279.962 293.037 279.152 292.681C266.968 287.298 256.331 278.618 248.302 267.509C240.274 256.401 235.137 243.252 233.403 229.379C233.183 230.667 232.998 231.955 232.836 233.25C232.83 233.305 232.825 233.354 232.819 233.409C235.118 246.728 240.517 259.228 248.526 269.775C256.535 280.322 266.901 288.581 278.684 293.804C279.887 294.332 281.102 294.835 282.335 295.295C282.08 294.773 281.831 294.246 281.594 293.712ZM313.596 138.268C311.744 138.12 309.87 138.047 307.983 138.047C297.304 138.05 286.744 140.428 276.985 145.025C267.226 149.623 258.484 156.339 251.324 164.74C244.164 173.14 238.745 183.039 235.416 193.798C232.087 204.557 230.923 215.936 231.997 227.201C232.015 227.409 232.032 227.612 232.055 227.82C232.061 227.888 232.066 227.949 232.078 228.017H233.247C233.235 227.949 233.23 227.888 233.224 227.82C233.056 226.207 232.934 224.577 232.859 222.931C232.796 221.637 232.765 220.334 232.767 219.023C232.788 197.88 240.72 177.608 254.821 162.657C268.922 147.706 288.041 139.297 307.983 139.274C309.87 139.274 311.744 139.347 313.596 139.495C313.659 139.501 313.717 139.507 313.781 139.513V138.28C313.717 138.274 313.659 138.274 313.596 138.268H313.596Z" fill="#3F3D56"/>
<path d="M370.063 158.773C393.521 159.198 393.518 196.195 370.062 196.616C346.605 196.191 346.608 159.195 370.063 158.773Z" fill="#6C63FF"/>
<path d="M370.063 187.998C369.731 187.997 369.412 187.857 369.177 187.608C368.942 187.358 368.809 187.02 368.809 186.668V179.617C368.809 179.46 368.75 179.31 368.645 179.198C368.54 179.087 368.398 179.025 368.25 179.025H361.6C361.268 179.025 360.949 178.885 360.713 178.635C360.478 178.386 360.346 178.047 360.346 177.695C360.346 177.342 360.478 177.004 360.713 176.754C360.949 176.505 361.268 176.365 361.6 176.365H368.25C368.398 176.365 368.54 176.302 368.645 176.191C368.75 176.08 368.809 175.929 368.809 175.772V168.722C368.809 168.369 368.941 168.031 369.176 167.781C369.411 167.532 369.73 167.392 370.063 167.392C370.396 167.392 370.715 167.532 370.95 167.781C371.185 168.031 371.317 168.369 371.317 168.722V175.772C371.317 175.929 371.376 176.08 371.481 176.191C371.586 176.302 371.728 176.365 371.876 176.365H378.526C378.858 176.365 379.177 176.505 379.413 176.754C379.648 177.004 379.78 177.342 379.78 177.695C379.78 178.047 379.648 178.386 379.413 178.635C379.177 178.884 378.858 179.025 378.526 179.025H371.876C371.728 179.025 371.586 179.087 371.481 179.198C371.376 179.31 371.317 179.46 371.317 179.617V186.668C371.317 187.02 371.185 187.358 370.949 187.608C370.714 187.857 370.396 187.997 370.063 187.998V187.998Z" fill="white"/>
</g>
<defs>
<clipPath id="clip0_1_6">
<rect width="400" height="300" fill="white"/>
</clipPath>
</defs>
</svg>
