<svg width="36" height="37" viewBox="0 0 36 37" fill="none" xmlns="http://www.w3.org/2000/svg">
<path d="M36 25.6135C32.5123 27.2348 28.6268 27.7254 24.8609 27.0199C21.0951 26.3144 17.6279 24.4462 14.9212 21.6643C12.2145 18.8824 10.3968 15.3189 9.71038 11.4485C9.02392 7.57806 9.50126 3.58455 11.0788 0C8.3022 1.28965 5.87146 3.25236 3.99512 5.71974C2.11877 8.18712 0.852838 11.0855 0.305919 14.1663C-0.241 17.247 -0.0525757 20.4181 0.855027 23.4076C1.76263 26.397 3.36232 29.1155 5.51685 31.3299C7.67138 33.5443 10.3164 35.1884 13.2251 36.1212C16.1337 37.054 19.2191 37.2477 22.2166 36.6856C25.2141 36.1235 28.0342 34.8224 30.4348 32.8939C32.8355 30.9654 34.7452 28.4672 36 25.6135V25.6135Z" fill="black"/>
</svg>
