<svg width="36" height="37" viewBox="0 0 36 37" fill="none" xmlns="http://www.w3.org/2000/svg">
<path fill-rule="evenodd" clip-rule="evenodd" d="M18 0C18.5967 0 19.169 0.243638 19.591 0.677315C20.0129 1.11099 20.25 1.69919 20.25 2.3125V4.625C20.25 5.23831 20.0129 5.82651 19.591 6.26018C19.169 6.69386 18.5967 6.9375 18 6.9375C17.4033 6.9375 16.831 6.69386 16.409 6.26018C15.9871 5.82651 15.75 5.23831 15.75 4.625V2.3125C15.75 1.69919 15.9871 1.11099 16.409 0.677315C16.831 0.243638 17.4033 0 18 0ZM27 18.5C27 20.9533 26.0518 23.306 24.364 25.0407C22.6761 26.7754 20.3869 27.75 18 27.75C15.6131 27.75 13.3239 26.7754 11.636 25.0407C9.94821 23.306 9 20.9533 9 18.5C9 16.0467 9.94821 13.694 11.636 11.9593C13.3239 10.2246 15.6131 9.25 18 9.25C20.3869 9.25 22.6761 10.2246 24.364 11.9593C26.0518 13.694 27 16.0467 27 18.5ZM25.956 29.9469L27.5467 31.5818C27.9711 32.0031 28.5395 32.2361 29.1294 32.2309C29.7193 32.2256 30.2837 31.9824 30.7008 31.5536C31.118 31.1249 31.3546 30.5449 31.3598 29.9386C31.3649 29.3322 31.1381 28.7481 30.7282 28.3119L29.1375 26.677C28.7131 26.2558 28.1448 26.0227 27.5548 26.0279C26.9649 26.0332 26.4006 26.2764 25.9834 26.7052C25.5662 27.1339 25.3296 27.7139 25.3245 28.3203C25.3194 28.9266 25.5461 29.5107 25.956 29.9469ZM30.726 5.41819C31.1478 5.85185 31.3848 6.43993 31.3848 7.05313C31.3848 7.66632 31.1478 8.25441 30.726 8.68806L29.1375 10.323C28.9299 10.5439 28.6817 10.72 28.4072 10.8412C28.1327 10.9624 27.8374 11.0262 27.5387 11.0289C27.2399 11.0316 26.9436 10.9731 26.6671 10.8568C26.3906 10.7405 26.1394 10.5688 25.9281 10.3517C25.7169 10.1345 25.5498 9.87634 25.4367 9.59214C25.3235 9.30795 25.2666 9.00344 25.2692 8.69638C25.2718 8.38933 25.3339 8.08589 25.4518 7.80375C25.5697 7.52162 25.7411 7.26645 25.956 7.05313L27.5467 5.41819C27.9687 4.98466 28.5409 4.74112 29.1375 4.74112C29.7341 4.74112 30.3063 4.98466 30.7282 5.41819H30.726ZM33.75 20.8125C34.3467 20.8125 34.919 20.5689 35.341 20.1352C35.7629 19.7015 36 19.1133 36 18.5C36 17.8867 35.7629 17.2985 35.341 16.8648C34.919 16.4311 34.3467 16.1875 33.75 16.1875H31.5C30.9033 16.1875 30.331 16.4311 29.909 16.8648C29.4871 17.2985 29.25 17.8867 29.25 18.5C29.25 19.1133 29.4871 19.7015 29.909 20.1352C30.331 20.5689 30.9033 20.8125 31.5 20.8125H33.75ZM18 30.0625C18.5967 30.0625 19.169 30.3061 19.591 30.7398C20.0129 31.1735 20.25 31.7617 20.25 32.375V34.6875C20.25 35.3008 20.0129 35.889 19.591 36.3227C19.169 36.7564 18.5967 37 18 37C17.4033 37 16.831 36.7564 16.409 36.3227C15.9871 35.889 15.75 35.3008 15.75 34.6875V32.375C15.75 31.7617 15.9871 31.1735 16.409 30.7398C16.831 30.3061 17.4033 30.0625 18 30.0625ZM6.8625 10.323C7.0714 10.5379 7.31943 10.7083 7.59243 10.8247C7.86543 10.941 8.15804 11.0009 8.45358 11.001C8.74911 11.0011 9.04177 10.9414 9.31485 10.8253C9.58793 10.7091 9.83608 10.5389 10.0451 10.3242C10.2542 10.1095 10.42 9.85453 10.5332 9.57395C10.6464 9.29337 10.7047 8.99262 10.7048 8.68888C10.7049 8.38514 10.6468 8.08435 10.5338 7.80368C10.4208 7.52302 10.2552 7.26798 10.0463 7.05313L8.45325 5.41819C8.0289 4.99695 7.46054 4.76386 6.8706 4.76913C6.28065 4.7744 5.71633 5.0176 5.29916 5.44636C4.88199 5.87511 4.64536 6.45512 4.64023 7.06145C4.63511 7.66778 4.86189 8.25192 5.27175 8.68806L6.8625 10.323ZM10.044 29.9469L8.45325 31.5818C8.0289 32.0031 7.46054 32.2361 6.8706 32.2309C6.28065 32.2256 5.71633 31.9824 5.29916 31.5536C4.88199 31.1249 4.64536 30.5449 4.64023 29.9386C4.63511 29.3322 4.86189 28.7481 5.27175 28.3119L6.8625 26.677C7.28686 26.2558 7.85521 26.0227 8.44515 26.0279C9.0351 26.0332 9.59942 26.2764 10.0166 26.7052C10.4338 27.1339 10.6704 27.7139 10.6755 28.3203C10.6806 28.9266 10.4539 29.5107 10.044 29.9469ZM4.5 20.8125C5.09674 20.8125 5.66903 20.5689 6.09099 20.1352C6.51295 19.7015 6.75 19.1133 6.75 18.5C6.75 17.8867 6.51295 17.2985 6.09099 16.8648C5.66903 16.4311 5.09674 16.1875 4.5 16.1875H2.25C1.65326 16.1875 1.08097 16.4311 0.65901 16.8648C0.237053 17.2985 0 17.8867 0 18.5C0 19.1133 0.237053 19.7015 0.65901 20.1352C1.08097 20.5689 1.65326 20.8125 2.25 20.8125H4.5Z" fill="#AFAD70"/>
</svg>
