<svg width="45" height="45" viewBox="0 0 45 45" fill="none" xmlns="http://www.w3.org/2000/svg">
<g clip-path="url(#clip0_71_6)">
<path d="M65 34C65 52.7777 50.2254 68 32 68C13.7746 68 -1 52.7777 -1 34C-1 15.2223 13.7746 0 32 0C50.2254 0 65 15.2223 65 34Z" fill="#E9BA12" fill-opacity="0.95"/>
<path fill-rule="evenodd" clip-rule="evenodd" d="M22.5 40.5C27.2739 40.5 31.8523 38.6036 35.2279 35.2279C38.6036 31.8523 40.5 27.2739 40.5 22.5C40.5 17.7261 38.6036 13.1477 35.2279 9.77208C31.8523 6.39642 27.2739 4.5 22.5 4.5C17.7261 4.5 13.1477 6.39642 9.77208 9.77208C6.39642 13.1477 4.5 17.7261 4.5 22.5C4.5 27.2739 6.39642 31.8523 9.77208 35.2279C13.1477 38.6036 17.7261 40.5 22.5 40.5ZM30.8407 20.9093L24.0907 14.1593C23.6664 13.7494 23.098 13.5226 22.5081 13.5277C21.9182 13.5329 21.3538 13.7695 20.9367 14.1867C20.5195 14.6038 20.2829 15.1682 20.2777 15.7581C20.2726 16.348 20.4994 16.9164 20.9093 17.3407L23.8185 20.25H15.75C15.1533 20.25 14.581 20.4871 14.159 20.909C13.7371 21.331 13.5 21.9033 13.5 22.5C13.5 23.0967 13.7371 23.669 14.159 24.091C14.581 24.5129 15.1533 24.75 15.75 24.75H23.8185L20.9093 27.6593C20.6944 27.8668 20.5229 28.1151 20.405 28.3896C20.2871 28.6641 20.225 28.9593 20.2224 29.2581C20.2198 29.5569 20.2768 29.8531 20.3899 30.1296C20.503 30.4062 20.6701 30.6574 20.8814 30.8686C21.0926 31.0799 21.3438 31.247 21.6204 31.3601C21.8969 31.4732 22.1931 31.5302 22.4919 31.5276C22.7907 31.525 23.0859 31.4629 23.3604 31.345C23.6349 31.2271 23.8832 31.0556 24.0907 30.8407L30.8407 24.0907C31.2626 23.6688 31.4995 23.0966 31.4995 22.5C31.4995 21.9034 31.2626 21.3312 30.8407 20.9093Z" fill="black"/>
</g>
<defs>
<clipPath id="clip0_71_6">
<rect width="45" height="45" rx="20" fill="white"/>
</clipPath>
</defs>
</svg>
