<svg width="45" height="45" viewBox="0 0 45 45" fill="none" xmlns="http://www.w3.org/2000/svg">
<path d="M45 22.5C45 34.9264 34.9264 45 22.5 45C10.0736 45 0 34.9264 0 22.5C0 10.0736 10.0736 0 22.5 0C34.9264 0 45 10.0736 45 22.5Z" fill="#E9BA12" fill-opacity="0.95"/>
<path fill-rule="evenodd" clip-rule="evenodd" d="M22.8409 40.6323C27.5425 40.6323 32.0515 38.7917 35.376 35.5153C38.7005 32.239 40.5682 27.7952 40.5682 23.1618C40.5682 18.5283 38.7005 14.0846 35.376 10.8082C32.0515 7.53181 27.5425 5.69116 22.8409 5.69116C18.1394 5.69116 13.6304 7.53181 10.3058 10.8082C6.98134 14.0846 5.11365 18.5283 5.11365 23.1618C5.11365 27.7952 6.98134 32.239 10.3058 35.5153C13.6304 38.7917 18.1394 40.6323 22.8409 40.6323V40.6323ZM18.4091 16.6103C17.8214 16.6103 17.2578 16.8404 16.8422 17.2499C16.4267 17.6595 16.1932 18.2149 16.1932 18.7941V27.5294C16.1932 28.1086 16.4267 28.664 16.8422 29.0736C17.2578 29.4831 17.8214 29.7132 18.4091 29.7132H27.2727C27.8604 29.7132 28.4241 29.4831 28.8396 29.0736C29.2552 28.664 29.4886 28.1086 29.4886 27.5294V18.7941C29.4886 18.2149 29.2552 17.6595 28.8396 17.2499C28.4241 16.8404 27.8604 16.6103 27.2727 16.6103H18.4091Z" fill="black"/>
</svg>
