<svg width="739" height="260" viewBox="0 0 739 260" fill="none" xmlns="http://www.w3.org/2000/svg">
<rect width="371" height="260" fill="#2C4449"/>
<ellipse cx="34.2687" cy="38.2641" rx="9.26866" ry="9.0566" fill="#302828"/>
<ellipse cx="34.2687" cy="38.2641" rx="9.26866" ry="9.0566" fill="#DFF6FD"/>
<ellipse cx="61.6716" cy="21.0566" rx="9.26866" ry="9.0566" fill="#302828"/>
<ellipse cx="61.6716" cy="21.0566" rx="9.26866" ry="9.0566" fill="#DFF6FD"/>
<ellipse cx="47.9702" cy="32.8302" rx="9.26866" ry="9.0566" fill="#302828"/>
<ellipse cx="47.9702" cy="32.8302" rx="9.26866" ry="9.0566" fill="#DFF6FD"/>
<ellipse cx="43.1344" cy="50.9434" rx="9.26866" ry="9.0566" fill="#302828"/>
<ellipse cx="43.1344" cy="50.9434" rx="9.26866" ry="9.0566" fill="#DFF6FD"/>
<ellipse cx="55.2239" cy="50.9434" rx="9.26866" ry="9.0566" fill="#302828"/>
<ellipse cx="55.2239" cy="50.9434" rx="9.26866" ry="9.0566" fill="#DFF6FD"/>
<ellipse cx="69.7313" cy="44.6037" rx="9.26866" ry="9.0566" fill="#302828"/>
<ellipse cx="69.7313" cy="44.6037" rx="9.26866" ry="9.0566" fill="#DFF6FD"/>
<ellipse cx="66.5074" cy="35.5472" rx="9.26866" ry="9.0566" fill="#302828"/>
<ellipse cx="66.5074" cy="35.5472" rx="9.26866" ry="9.0566" fill="#DFF6FD"/>
<ellipse cx="53.612" cy="36.4528" rx="16.5224" ry="9.0566" fill="#302828"/>
<ellipse cx="53.612" cy="36.4528" rx="16.5224" ry="9.0566" fill="#DFF6FD"/>
<ellipse cx="241.332" cy="59.4608" rx="8.77919" ry="11.5405" transform="rotate(-59.7436 241.332 59.4608)" fill="#302828"/>
<ellipse cx="241.332" cy="59.4608" rx="8.77919" ry="11.5405" transform="rotate(-59.7436 241.332 59.4608)" fill="#DFF6FD"/>
<ellipse cx="235.47" cy="25.9923" rx="8.77919" ry="11.5405" transform="rotate(-59.7436 235.47 25.9923)" fill="#302828"/>
<ellipse cx="235.47" cy="25.9923" rx="8.77919" ry="11.5405" transform="rotate(-59.7436 235.47 25.9923)" fill="#DFF6FD"/>
<ellipse cx="241.89" cy="44.7618" rx="8.77919" ry="11.5405" transform="rotate(-59.7436 241.89 44.7618)" fill="#302828"/>
<ellipse cx="241.89" cy="44.7618" rx="8.77919" ry="11.5405" transform="rotate(-59.7436 241.89 44.7618)" fill="#DFF6FD"/>
<ellipse cx="259.519" cy="60.3481" rx="8.77919" ry="11.5405" transform="rotate(-59.7436 259.519 60.3481)" fill="#302828"/>
<ellipse cx="259.519" cy="60.3481" rx="8.77919" ry="11.5405" transform="rotate(-59.7436 259.519 60.3481)" fill="#DFF6FD"/>
<ellipse cx="265.289" cy="50.4569" rx="8.77919" ry="11.5405" transform="rotate(-59.7436 265.289 50.4569)" fill="#302828"/>
<ellipse cx="265.289" cy="50.4569" rx="8.77919" ry="11.5405" transform="rotate(-59.7436 265.289 50.4569)" fill="#DFF6FD"/>
<ellipse cx="265.235" cy="34.5169" rx="8.77919" ry="11.5405" transform="rotate(-59.7436 265.235 34.5169)" fill="#302828"/>
<ellipse cx="265.235" cy="34.5169" rx="8.77919" ry="11.5405" transform="rotate(-59.7436 265.235 34.5169)" fill="#DFF6FD"/>
<ellipse cx="253.728" cy="31.3397" rx="8.77919" ry="11.5405" transform="rotate(-59.7436 253.728 31.3397)" fill="#302828"/>
<ellipse cx="253.728" cy="31.3397" rx="8.77919" ry="11.5405" transform="rotate(-59.7436 253.728 31.3397)" fill="#DFF6FD"/>
<ellipse cx="247.24" cy="43.4839" rx="14.1053" ry="14.4878" transform="rotate(-59.7436 247.24 43.4839)" fill="#302828"/>
<ellipse cx="247.24" cy="43.4839" rx="14.1053" ry="14.4878" transform="rotate(-59.7436 247.24 43.4839)" fill="#DFF6FD"/>
<rect x="368" width="371" height="260" fill="#2C4449"/>
<ellipse cx="415.5" cy="58" rx="11.5" ry="10" fill="#302828"/>
<ellipse cx="415.5" cy="58" rx="11.5" ry="10" fill="#DFF6FD"/>
<ellipse cx="449.5" cy="39" rx="11.5" ry="10" fill="#302828"/>
<ellipse cx="449.5" cy="39" rx="11.5" ry="10" fill="#DFF6FD"/>
<ellipse cx="432.5" cy="52" rx="11.5" ry="10" fill="#302828"/>
<ellipse cx="432.5" cy="52" rx="11.5" ry="10" fill="#DFF6FD"/>
<ellipse cx="426.5" cy="72" rx="11.5" ry="10" fill="#302828"/>
<ellipse cx="426.5" cy="72" rx="11.5" ry="10" fill="#DFF6FD"/>
<ellipse cx="441.5" cy="72" rx="11.5" ry="10" fill="#302828"/>
<ellipse cx="441.5" cy="72" rx="11.5" ry="10" fill="#DFF6FD"/>
<ellipse cx="459.5" cy="65" rx="11.5" ry="10" fill="#302828"/>
<ellipse cx="459.5" cy="65" rx="11.5" ry="10" fill="#DFF6FD"/>
<ellipse cx="455.5" cy="55" rx="11.5" ry="10" fill="#302828"/>
<ellipse cx="455.5" cy="55" rx="11.5" ry="10" fill="#DFF6FD"/>
<path d="M460 56C460 61.5228 450.822 66 439.5 66C428.178 66 419 61.5228 419 56C419 50.4772 428.178 46 439.5 46C450.822 46 460 50.4772 460 56Z" fill="#302828"/>
<path d="M460 56C460 61.5228 450.822 66 439.5 66C428.178 66 419 61.5228 419 56C419 50.4772 428.178 46 439.5 46C450.822 46 460 50.4772 460 56Z" fill="#DFF6FD"/>
<ellipse cx="673.332" cy="108.461" rx="8.77919" ry="11.5405" transform="rotate(-59.7436 673.332 108.461)" fill="#302828"/>
<ellipse cx="673.332" cy="108.461" rx="8.77919" ry="11.5405" transform="rotate(-59.7436 673.332 108.461)" fill="#DFF6FD"/>
<ellipse cx="667.47" cy="74.9924" rx="8.77919" ry="11.5405" transform="rotate(-59.7436 667.47 74.9924)" fill="#302828"/>
<ellipse cx="667.47" cy="74.9924" rx="8.77919" ry="11.5405" transform="rotate(-59.7436 667.47 74.9924)" fill="#DFF6FD"/>
<ellipse cx="673.89" cy="93.7619" rx="8.77919" ry="11.5405" transform="rotate(-59.7436 673.89 93.7619)" fill="#302828"/>
<ellipse cx="673.89" cy="93.7619" rx="8.77919" ry="11.5405" transform="rotate(-59.7436 673.89 93.7619)" fill="#DFF6FD"/>
<ellipse cx="691.519" cy="109.348" rx="8.77919" ry="11.5405" transform="rotate(-59.7436 691.519 109.348)" fill="#302828"/>
<ellipse cx="691.519" cy="109.348" rx="8.77919" ry="11.5405" transform="rotate(-59.7436 691.519 109.348)" fill="#DFF6FD"/>
<ellipse cx="697.289" cy="99.457" rx="8.77919" ry="11.5405" transform="rotate(-59.7436 697.289 99.457)" fill="#302828"/>
<ellipse cx="697.289" cy="99.457" rx="8.77919" ry="11.5405" transform="rotate(-59.7436 697.289 99.457)" fill="#DFF6FD"/>
<ellipse cx="697.235" cy="83.5171" rx="8.77919" ry="11.5405" transform="rotate(-59.7436 697.235 83.5171)" fill="#302828"/>
<ellipse cx="697.235" cy="83.5171" rx="8.77919" ry="11.5405" transform="rotate(-59.7436 697.235 83.5171)" fill="#DFF6FD"/>
<ellipse cx="685.728" cy="80.3398" rx="8.77919" ry="11.5405" transform="rotate(-59.7436 685.728 80.3398)" fill="#302828"/>
<ellipse cx="685.728" cy="80.3398" rx="8.77919" ry="11.5405" transform="rotate(-59.7436 685.728 80.3398)" fill="#DFF6FD"/>
<ellipse cx="680.823" cy="92.984" rx="14.4714" ry="12.8681" transform="rotate(-59.7436 680.823 92.984)" fill="#302828"/>
<ellipse cx="680.823" cy="92.984" rx="14.4714" ry="12.8681" transform="rotate(-59.7436 680.823 92.984)" fill="#DFF6FD"/>
</svg>
