<svg width="420" height="700" viewBox="0 0 420 700" fill="none" xmlns="http://www.w3.org/2000/svg">
<rect x="1.5" y="1.5" width="417" height="697" rx="18.5" fill="#562D0B" fill-opacity="0.5"/>
<path d="M94.7727 61.3636C94.7727 63.8485 94.3182 65.9848 93.4091 67.7727C92.5 69.553 91.2538 70.9242 89.6705 71.8864C88.0947 72.8409 86.303 73.3182 84.2955 73.3182C82.2803 73.3182 80.4811 72.8409 78.8977 71.8864C77.322 70.9242 76.0795 69.5492 75.1705 67.7614C74.2614 65.9735 73.8068 63.8409 73.8068 61.3636C73.8068 58.8788 74.2614 56.7462 75.1705 54.9659C76.0795 53.178 77.322 51.8068 78.8977 50.8523C80.4811 49.8902 82.2803 49.4091 84.2955 49.4091C86.303 49.4091 88.0947 49.8902 89.6705 50.8523C91.2538 51.8068 92.5 53.178 93.4091 54.9659C94.3182 56.7462 94.7727 58.8788 94.7727 61.3636ZM91.2955 61.3636C91.2955 59.4697 90.9886 57.875 90.375 56.5795C89.7689 55.2765 88.9356 54.2917 87.875 53.625C86.822 52.9508 85.6288 52.6136 84.2955 52.6136C82.9545 52.6136 81.7576 52.9508 80.7045 53.625C79.6515 54.2917 78.8182 55.2765 78.2045 56.5795C77.5985 57.875 77.2955 59.4697 77.2955 61.3636C77.2955 63.2576 77.5985 64.8561 78.2045 66.1591C78.8182 67.4545 79.6515 68.4394 80.7045 69.1136C81.7576 69.7803 82.9545 70.1136 84.2955 70.1136C85.6288 70.1136 86.822 69.7803 87.875 69.1136C88.9356 68.4394 89.7689 67.4545 90.375 66.1591C90.9886 64.8561 91.2955 63.2576 91.2955 61.3636ZM99.1506 73V49.7273H107.673C109.325 49.7273 110.692 50 111.776 50.5455C112.859 51.0833 113.67 51.8144 114.207 52.7386C114.745 53.6553 115.014 54.6894 115.014 55.8409C115.014 56.8106 114.836 57.6288 114.48 58.2955C114.124 58.9545 113.647 59.4848 113.048 59.8864C112.457 60.2803 111.806 60.5682 111.094 60.75V60.9773C111.866 61.0152 112.62 61.2652 113.355 61.7273C114.098 62.1818 114.711 62.8295 115.196 63.6705C115.681 64.5114 115.923 65.5341 115.923 66.7386C115.923 67.928 115.643 68.9962 115.082 69.9432C114.529 70.8826 113.673 71.6288 112.514 72.1818C111.355 72.7273 109.874 73 108.071 73H99.1506ZM102.662 69.9886H107.73C109.412 69.9886 110.616 69.6629 111.344 69.0114C112.071 68.3598 112.435 67.5455 112.435 66.5682C112.435 65.8333 112.249 65.1591 111.878 64.5455C111.507 63.9318 110.976 63.4432 110.287 63.0795C109.605 62.7159 108.795 62.5341 107.855 62.5341H102.662V69.9886ZM102.662 59.7955H107.366C108.154 59.7955 108.863 59.6439 109.491 59.3409C110.128 59.0379 110.632 58.6136 111.003 58.0682C111.382 57.5152 111.571 56.8636 111.571 56.1136C111.571 55.1515 111.234 54.3447 110.56 53.6932C109.885 53.0417 108.851 52.7159 107.457 52.7159H102.662V59.7955ZM129.134 49.7273H132.634V66.2273C132.634 67.7197 132.338 68.9962 131.747 70.0568C131.164 71.1174 130.342 71.928 129.281 72.4886C128.221 73.0417 126.978 73.3182 125.554 73.3182C124.243 73.3182 123.065 73.0795 122.02 72.6023C120.982 72.125 120.16 71.4318 119.554 70.5227C118.955 69.6061 118.656 68.4924 118.656 67.1818H122.145C122.145 67.8258 122.293 68.3826 122.588 68.8523C122.891 69.322 123.304 69.6894 123.827 69.9545C124.357 70.2121 124.963 70.3409 125.645 70.3409C126.387 70.3409 127.016 70.1856 127.531 69.875C128.054 69.5568 128.452 69.0909 128.724 68.4773C128.997 67.8636 129.134 67.1136 129.134 66.2273V49.7273ZM137.744 73V49.7273H152.335V52.75H141.256V59.8409H151.574V62.8523H141.256V69.9773H152.472V73H137.744ZM176.355 57.2955H172.81C172.673 56.5379 172.42 55.8712 172.048 55.2955C171.677 54.7197 171.223 54.2311 170.685 53.8295C170.147 53.428 169.545 53.125 168.878 52.9205C168.219 52.7159 167.518 52.6136 166.776 52.6136C165.435 52.6136 164.234 52.9508 163.173 53.625C162.12 54.2992 161.287 55.2879 160.673 56.5909C160.067 57.8939 159.764 59.4848 159.764 61.3636C159.764 63.2576 160.067 64.8561 160.673 66.1591C161.287 67.4621 162.124 68.447 163.185 69.1136C164.245 69.7803 165.438 70.1136 166.764 70.1136C167.499 70.1136 168.196 70.0152 168.855 69.8182C169.522 69.6136 170.124 69.3144 170.662 68.9205C171.2 68.5265 171.654 68.0455 172.026 67.4773C172.404 66.9015 172.666 66.2424 172.81 65.5L176.355 65.5114C176.166 66.6553 175.798 67.7083 175.253 68.6705C174.715 69.625 174.022 70.4508 173.173 71.1477C172.332 71.8371 171.37 72.3712 170.287 72.75C169.204 73.1288 168.022 73.3182 166.741 73.3182C164.726 73.3182 162.931 72.8409 161.355 71.8864C159.779 70.9242 158.537 69.5492 157.628 67.7614C156.726 65.9735 156.276 63.8409 156.276 61.3636C156.276 58.8788 156.73 56.7462 157.639 54.9659C158.548 53.178 159.791 51.8068 161.366 50.8523C162.942 49.8902 164.734 49.4091 166.741 49.4091C167.976 49.4091 169.128 49.5871 170.196 49.9432C171.272 50.2917 172.238 50.8068 173.094 51.4886C173.95 52.1629 174.658 52.9886 175.219 53.9659C175.779 54.9356 176.158 56.0455 176.355 57.2955ZM179.409 52.75V49.7273H197.42V52.75H190.159V73H186.659V52.75H179.409Z" fill="#FAF0F0"/>
<path d="M206.591 49.7273L213.068 68.6818H213.33L219.807 49.7273H223.602L215.227 73H211.17L202.795 49.7273H206.591ZM226.963 73V49.7273H241.554V52.75H230.474V59.8409H240.793V62.8523H230.474V69.9773H241.69V73H226.963ZM246.244 73V49.7273H249.756V59.8409H261.358V49.7273H264.881V73H261.358V62.8523H249.756V73H246.244ZM273.506 49.7273V73H269.994V49.7273H273.506ZM297.949 57.2955H294.403C294.267 56.5379 294.013 55.8712 293.642 55.2955C293.271 54.7197 292.816 54.2311 292.278 53.8295C291.741 53.428 291.138 53.125 290.472 52.9205C289.813 52.7159 289.112 52.6136 288.369 52.6136C287.028 52.6136 285.828 52.9508 284.767 53.625C283.714 54.2992 282.881 55.2879 282.267 56.5909C281.661 57.8939 281.358 59.4848 281.358 61.3636C281.358 63.2576 281.661 64.8561 282.267 66.1591C282.881 67.4621 283.718 68.447 284.778 69.1136C285.839 69.7803 287.032 70.1136 288.358 70.1136C289.093 70.1136 289.79 70.0152 290.449 69.8182C291.116 69.6136 291.718 69.3144 292.256 68.9205C292.794 68.5265 293.248 68.0455 293.619 67.4773C293.998 66.9015 294.259 66.2424 294.403 65.5L297.949 65.5114C297.759 66.6553 297.392 67.7083 296.847 68.6705C296.309 69.625 295.616 70.4508 294.767 71.1477C293.926 71.8371 292.964 72.3712 291.881 72.75C290.797 73.1288 289.616 73.3182 288.335 73.3182C286.32 73.3182 284.525 72.8409 282.949 71.8864C281.373 70.9242 280.131 69.5492 279.222 67.7614C278.32 65.9735 277.869 63.8409 277.869 61.3636C277.869 58.8788 278.324 56.7462 279.233 54.9659C280.142 53.178 281.384 51.8068 282.96 50.8523C284.536 49.8902 286.328 49.4091 288.335 49.4091C289.57 49.4091 290.722 49.5871 291.79 49.9432C292.866 50.2917 293.831 50.8068 294.688 51.4886C295.544 52.1629 296.252 52.9886 296.812 53.9659C297.373 54.9356 297.752 56.0455 297.949 57.2955ZM302.151 73V49.7273H305.662V69.9773H316.207V73H302.151ZM320.213 73V49.7273H334.804V52.75H323.724V59.8409H334.043V62.8523H323.724V69.9773H334.94V73H320.213Z" fill="#E9BA12"/>
<path d="M58.4148 122H57.3068L60.5114 113.273H61.6023L64.8068 122H63.6989L61.0909 114.653H61.0227L58.4148 122ZM58.8239 118.591H63.2898V119.528H58.8239V118.591ZM64.6694 114.21V113.273H71.2148V114.21H68.4705V122H67.4137V114.21H64.6694ZM72.8459 122V113.273H75.7947C76.4766 113.273 77.0362 113.389 77.4737 113.622C77.9112 113.852 78.2351 114.169 78.4453 114.572C78.6555 114.976 78.7607 115.435 78.7607 115.949C78.7607 116.463 78.6555 116.919 78.4453 117.317C78.2351 117.714 77.9126 118.027 77.478 118.254C77.0433 118.479 76.4879 118.591 75.8118 118.591H73.4254V117.636H75.7777C76.2436 117.636 76.6186 117.568 76.9027 117.432C77.1896 117.295 77.397 117.102 77.5249 116.852C77.6555 116.599 77.7209 116.298 77.7209 115.949C77.7209 115.599 77.6555 115.294 77.5249 115.033C77.3942 114.771 77.1854 114.57 76.8984 114.428C76.6115 114.283 76.2322 114.21 75.7607 114.21H73.9027V122H72.8459ZM76.9538 118.08L79.1016 122H77.8743L75.7607 118.08H76.9538ZM81.5785 113.273V122H80.5217V113.273H81.5785ZM83.6974 122V113.273H86.7486C87.3565 113.273 87.858 113.378 88.2528 113.588C88.6477 113.795 88.9418 114.075 89.1349 114.428C89.3281 114.777 89.4247 115.165 89.4247 115.591C89.4247 115.966 89.358 116.276 89.2244 116.52C89.0938 116.764 88.9205 116.957 88.7045 117.099C88.4915 117.241 88.2599 117.347 88.0099 117.415V117.5C88.277 117.517 88.5455 117.611 88.8153 117.781C89.0852 117.952 89.3111 118.196 89.4929 118.514C89.6747 118.832 89.7656 119.222 89.7656 119.682C89.7656 120.119 89.6662 120.513 89.4673 120.862C89.2685 121.212 88.9545 121.489 88.5256 121.693C88.0966 121.898 87.5384 122 86.8509 122H83.6974ZM84.7543 121.062H86.8509C87.5412 121.062 88.0313 120.929 88.321 120.662C88.6136 120.392 88.7599 120.065 88.7599 119.682C88.7599 119.386 88.6847 119.114 88.5341 118.864C88.3835 118.611 88.169 118.409 87.8906 118.259C87.6122 118.105 87.2827 118.028 86.902 118.028H84.7543V121.062ZM84.7543 117.108H86.7145C87.0327 117.108 87.3196 117.045 87.5753 116.92C87.8338 116.795 88.0384 116.619 88.1889 116.392C88.3423 116.165 88.419 115.898 88.419 115.591C88.419 115.207 88.2855 114.882 88.0185 114.615C87.7514 114.345 87.3281 114.21 86.7486 114.21H84.7543V117.108ZM97.2294 113.273H98.2862V119.051C98.2862 119.648 98.1456 120.18 97.8643 120.649C97.5859 121.115 97.1925 121.483 96.6839 121.753C96.1754 122.02 95.5788 122.153 94.8942 122.153C94.2095 122.153 93.6129 122.02 93.1044 121.753C92.5959 121.483 92.201 121.115 91.9197 120.649C91.6413 120.18 91.5021 119.648 91.5021 119.051V113.273H92.5589V118.966C92.5589 119.392 92.6527 119.771 92.8402 120.104C93.0277 120.433 93.2947 120.693 93.6413 120.884C93.9908 121.071 94.4084 121.165 94.8942 121.165C95.38 121.165 95.7976 121.071 96.147 120.884C96.4964 120.693 96.7635 120.433 96.9482 120.104C97.1357 119.771 97.2294 119.392 97.2294 118.966V113.273ZM99.9194 114.21V113.273H106.465V114.21H103.721V122H102.664V114.21H99.9194ZM108.096 122V113.273H113.363V114.21H109.153V117.159H113.09V118.097H109.153V121.062H113.431V122H108.096ZM120.04 115.455C119.989 115.023 119.782 114.688 119.418 114.449C119.055 114.21 118.609 114.091 118.08 114.091C117.694 114.091 117.356 114.153 117.066 114.278C116.779 114.403 116.555 114.575 116.393 114.794C116.234 115.013 116.154 115.261 116.154 115.54C116.154 115.773 116.21 115.973 116.32 116.141C116.434 116.305 116.579 116.443 116.755 116.554C116.931 116.662 117.116 116.751 117.309 116.822C117.502 116.891 117.68 116.946 117.842 116.989L118.728 117.227C118.955 117.287 119.208 117.369 119.487 117.474C119.768 117.58 120.036 117.723 120.292 117.905C120.55 118.084 120.763 118.314 120.931 118.595C121.099 118.876 121.183 119.222 121.183 119.631C121.183 120.102 121.059 120.528 120.812 120.909C120.567 121.29 120.21 121.592 119.738 121.817C119.269 122.041 118.7 122.153 118.029 122.153C117.404 122.153 116.863 122.053 116.406 121.851C115.951 121.649 115.593 121.368 115.332 121.007C115.073 120.646 114.927 120.227 114.893 119.75H115.984C116.012 120.08 116.123 120.352 116.316 120.568C116.512 120.781 116.759 120.94 117.058 121.045C117.359 121.148 117.683 121.199 118.029 121.199C118.433 121.199 118.795 121.134 119.116 121.003C119.437 120.869 119.691 120.685 119.879 120.449C120.066 120.21 120.16 119.932 120.16 119.614C120.16 119.324 120.079 119.088 119.917 118.906C119.755 118.724 119.542 118.577 119.278 118.463C119.013 118.349 118.728 118.25 118.421 118.165L117.347 117.858C116.665 117.662 116.126 117.382 115.728 117.018C115.33 116.655 115.131 116.179 115.131 115.591C115.131 115.102 115.263 114.676 115.528 114.312C115.795 113.946 116.153 113.662 116.602 113.46C117.053 113.256 117.558 113.153 118.114 113.153C118.677 113.153 119.177 113.254 119.614 113.456C120.052 113.655 120.398 113.928 120.654 114.274C120.913 114.621 121.049 115.014 121.063 115.455H120.04ZM123.517 120.884C123.306 120.884 123.126 120.808 122.975 120.658C122.825 120.507 122.75 120.327 122.75 120.116C122.75 119.906 122.825 119.726 122.975 119.575C123.126 119.425 123.306 119.349 123.517 119.349C123.727 119.349 123.907 119.425 124.058 119.575C124.208 119.726 124.284 119.906 124.284 120.116C124.284 120.256 124.248 120.384 124.177 120.5C124.109 120.616 124.017 120.71 123.9 120.781C123.787 120.849 123.659 120.884 123.517 120.884ZM123.517 116.469C123.306 116.469 123.126 116.393 122.975 116.243C122.825 116.092 122.75 115.912 122.75 115.702C122.75 115.491 122.825 115.311 122.975 115.161C123.126 115.01 123.306 114.935 123.517 114.935C123.727 114.935 123.907 115.01 124.058 115.161C124.208 115.311 124.284 115.491 124.284 115.702C124.284 115.841 124.248 115.969 124.177 116.085C124.109 116.202 124.017 116.295 123.9 116.366C123.787 116.435 123.659 116.469 123.517 116.469Z" fill="#FFF8F8"/>
<circle cx="367" cy="58" r="23.5" fill="#F4E98C" stroke="#E9BA12" stroke-width="3"/>
<rect x="33.5" y="108.5" width="19" height="18" fill="#7E7272" stroke="#E9BA12"/>
<rect x="25.5" y="563.5" width="19" height="18" fill="#7E7272" stroke="#E9BA12"/>
<g filter="url(#filter0_dd_0_3)">
<rect x="25" y="150" width="179" height="60" rx="18" fill="#7E7272"/>
<rect x="25" y="150" width="179" height="60" rx="18" fill="black" fill-opacity="0.2"/>
<rect x="26.5" y="151.5" width="176" height="57" rx="16.5" stroke="#E9BA12" stroke-width="3"/>
</g>
<g filter="url(#filter1_dd_0_3)">
<rect x="25" y="218" width="179" height="60" rx="18" fill="#7E7272"/>
<rect x="25" y="218" width="179" height="60" rx="18" fill="black" fill-opacity="0.2"/>
<rect x="26.5" y="219.5" width="176" height="57" rx="16.5" stroke="#E9BA12" stroke-width="3"/>
</g>
<g filter="url(#filter2_dd_0_3)">
<rect x="210" y="150" width="179" height="60" rx="18" fill="#7E7272"/>
<rect x="210" y="150" width="179" height="60" rx="18" fill="black" fill-opacity="0.2"/>
<rect x="211.5" y="151.5" width="176" height="57" rx="16.5" stroke="#E9BA12" stroke-width="3"/>
</g>
<g filter="url(#filter3_dd_0_3)">
<rect x="210" y="218" width="179" height="60" rx="18" fill="#7E7272"/>
<rect x="210" y="218" width="179" height="60" rx="18" fill="black" fill-opacity="0.2"/>
<rect x="211.5" y="219.5" width="176" height="57" rx="16.5" stroke="#E9BA12" stroke-width="3"/>
</g>
<path d="M62 402C62 414.15 49.0163 424 33 424C33 424 33 414.15 33 402C33 389.85 33 380 33 380C49.0163 380 62 389.85 62 402Z" fill="#E9BA12"/>
<path fill-rule="evenodd" clip-rule="evenodd" d="M53.5308 413.464C53.2425 413.807 52.8516 414 52.4441 414C52.0365 414 51.6456 413.807 51.3574 413.464L43.6722 404.306C43.3841 403.963 43.2222 403.497 43.2222 403.011C43.2222 402.526 43.3841 402.06 43.6722 401.717L51.3574 392.559C51.4992 392.384 51.6688 392.245 51.8563 392.149C52.0438 392.053 52.2455 392.002 52.4496 392C52.6537 391.998 52.8561 392.044 53.045 392.136C53.2339 392.228 53.4055 392.364 53.5498 392.536C53.6941 392.708 53.8083 392.913 53.8855 393.138C53.9628 393.363 54.0017 393.604 53.9999 393.847C53.9982 394.091 53.9558 394.331 53.8752 394.554C53.7947 394.778 53.6776 394.98 53.5308 395.149L46.9323 403.011L53.5308 410.874C53.8189 411.217 53.9808 411.683 53.9808 412.169C53.9808 412.655 53.8189 413.12 53.5308 413.464V413.464ZM44.3086 413.464C44.0203 413.807 43.6294 414 43.2219 414C42.8143 414 42.4234 413.807 42.1352 413.464L34.45 404.306C34.1619 403.963 34 403.497 34 403.011C34 402.526 34.1619 402.06 34.45 401.717L42.1352 392.559C42.4251 392.226 42.8133 392.041 43.2163 392.045C43.6193 392.049 44.0049 392.242 44.2898 392.581C44.5748 392.921 44.7365 393.38 44.74 393.861C44.7435 394.341 44.5885 394.803 44.3086 395.149L37.7101 403.011L44.3086 410.874C44.5967 411.217 44.7586 411.683 44.7586 412.169C44.7586 412.655 44.5967 413.12 44.3086 413.464V413.464Z" fill="black"/>
<path d="M363 408.947C363.044 396.797 376.064 386.995 392.08 387.053C392.08 387.053 392.044 396.903 392 409.053C391.956 421.203 391.92 431.053 391.92 431.053C375.904 430.994 362.956 421.097 363 408.947Z" fill="#E9BA12"/>
<path fill-rule="evenodd" clip-rule="evenodd" d="M371.105 397.896C371.381 397.543 371.765 397.336 372.172 397.322C372.579 397.307 372.977 397.486 373.277 397.819L381.285 406.696C381.585 407.028 381.763 407.488 381.781 407.974C381.798 408.459 381.653 408.93 381.377 409.284L374.024 418.71C373.889 418.89 373.724 419.035 373.54 419.138C373.356 419.24 373.156 419.298 372.953 419.308C372.749 419.317 372.545 419.278 372.353 419.193C372.161 419.107 371.984 418.978 371.834 418.811C371.683 418.644 371.562 418.444 371.477 418.222C371.392 418 371.344 417.76 371.337 417.517C371.33 417.274 371.364 417.032 371.437 416.806C371.509 416.58 371.619 416.374 371.76 416.199L378.073 408.106L371.198 400.484C370.897 400.151 370.719 399.692 370.702 399.206C370.684 398.721 370.829 398.25 371.105 397.896V397.896ZM380.321 397.567C380.597 397.213 380.981 397.007 381.388 396.992C381.795 396.977 382.193 397.156 382.493 397.489L390.501 406.366C390.801 406.699 390.979 407.159 390.997 407.644C391.014 408.129 390.869 408.601 390.593 408.954L383.24 418.38C382.963 418.724 382.581 418.922 382.178 418.933C381.775 418.943 381.383 418.764 381.086 418.435C380.789 418.106 380.611 417.653 380.591 417.173C380.57 416.693 380.708 416.225 380.976 415.87L387.289 407.777L380.414 400.155C380.114 399.822 379.935 399.362 379.918 398.877C379.901 398.391 380.046 397.92 380.321 397.567V397.567Z" fill="black"/>
<path d="M37.0568 168V159.273H40.108C40.7159 159.273 41.2173 159.378 41.6122 159.588C42.0071 159.795 42.3011 160.075 42.4943 160.428C42.6875 160.777 42.7841 161.165 42.7841 161.591C42.7841 161.966 42.7173 162.276 42.5838 162.52C42.4531 162.764 42.2798 162.957 42.0639 163.099C41.8509 163.241 41.6193 163.347 41.3693 163.415V163.5C41.6364 163.517 41.9048 163.611 42.1747 163.781C42.4446 163.952 42.6705 164.196 42.8523 164.514C43.0341 164.832 43.125 165.222 43.125 165.682C43.125 166.119 43.0256 166.513 42.8267 166.862C42.6278 167.212 42.3139 167.489 41.8849 167.693C41.456 167.898 40.8977 168 40.2102 168H37.0568ZM38.1136 167.062H40.2102C40.9006 167.062 41.3906 166.929 41.6804 166.662C41.973 166.392 42.1193 166.065 42.1193 165.682C42.1193 165.386 42.044 165.114 41.8935 164.864C41.7429 164.611 41.5284 164.409 41.25 164.259C40.9716 164.105 40.642 164.028 40.2614 164.028H38.1136V167.062ZM38.1136 163.108H40.0739C40.392 163.108 40.679 163.045 40.9347 162.92C41.1932 162.795 41.3977 162.619 41.5483 162.392C41.7017 162.165 41.7784 161.898 41.7784 161.591C41.7784 161.207 41.6449 160.882 41.3778 160.615C41.1108 160.345 40.6875 160.21 40.108 160.21H38.1136V163.108ZM44.8615 168V159.273H47.8104C48.4922 159.273 49.0518 159.389 49.4893 159.622C49.9268 159.852 50.2507 160.169 50.4609 160.572C50.6712 160.976 50.7763 161.435 50.7763 161.949C50.7763 162.463 50.6712 162.919 50.4609 163.317C50.2507 163.714 49.9283 164.027 49.4936 164.254C49.0589 164.479 48.5036 164.591 47.8274 164.591H45.4411V163.636H47.7933C48.2592 163.636 48.6342 163.568 48.9183 163.432C49.2053 163.295 49.4126 163.102 49.5405 162.852C49.6712 162.599 49.7365 162.298 49.7365 161.949C49.7365 161.599 49.6712 161.294 49.5405 161.033C49.4098 160.771 49.201 160.57 48.9141 160.428C48.6271 160.283 48.2479 160.21 47.7763 160.21H45.9183V168H44.8615ZM48.9695 164.08L51.1172 168H49.8899L47.7763 164.08H48.9695ZM52.8952 168H51.7873L54.9918 159.273H56.0827L59.2873 168H58.1793L55.5714 160.653H55.5032L52.8952 168ZM53.3043 164.591H57.7702V165.528H53.3043V164.591ZM67.5671 159.273V168H66.5444L61.7887 161.148H61.7035V168H60.6467V159.273H61.6694L66.4421 166.142H66.5273V159.273H67.5671ZM72.375 168H69.6818V159.273H72.4943C73.3409 159.273 74.0653 159.447 74.6676 159.797C75.2699 160.143 75.7315 160.642 76.0526 161.293C76.3736 161.94 76.5341 162.716 76.5341 163.619C76.5341 164.528 76.3722 165.311 76.0483 165.967C75.7244 166.621 75.2528 167.124 74.6335 167.476C74.0142 167.825 73.2614 168 72.375 168ZM70.7386 167.062H72.3068C73.0284 167.062 73.6264 166.923 74.1009 166.645C74.5753 166.366 74.929 165.97 75.1619 165.456C75.3949 164.942 75.5114 164.33 75.5114 163.619C75.5114 162.915 75.3963 162.308 75.1662 161.8C74.9361 161.288 74.5923 160.896 74.1349 160.624C73.6776 160.348 73.108 160.21 72.4261 160.21H70.7386V167.062ZM78.9034 166.884C78.6932 166.884 78.5128 166.808 78.3622 166.658C78.2116 166.507 78.1364 166.327 78.1364 166.116C78.1364 165.906 78.2116 165.726 78.3622 165.575C78.5128 165.425 78.6932 165.349 78.9034 165.349C79.1136 165.349 79.294 165.425 79.4446 165.575C79.5952 165.726 79.6705 165.906 79.6705 166.116C79.6705 166.256 79.6349 166.384 79.5639 166.5C79.4957 166.616 79.4034 166.71 79.2869 166.781C79.1733 166.849 79.0455 166.884 78.9034 166.884ZM78.9034 162.469C78.6932 162.469 78.5128 162.393 78.3622 162.243C78.2116 162.092 78.1364 161.912 78.1364 161.702C78.1364 161.491 78.2116 161.311 78.3622 161.161C78.5128 161.01 78.6932 160.935 78.9034 160.935C79.1136 160.935 79.294 161.01 79.4446 161.161C79.5952 161.311 79.6705 161.491 79.6705 161.702C79.6705 161.841 79.6349 161.969 79.5639 162.085C79.4957 162.202 79.4034 162.295 79.2869 162.366C79.1733 162.435 79.0455 162.469 78.9034 162.469Z" fill="white"/>
<path d="M232.08 229H231.023C230.96 228.696 230.851 228.429 230.695 228.199C230.541 227.969 230.354 227.776 230.132 227.619C229.913 227.46 229.67 227.341 229.403 227.261C229.136 227.182 228.858 227.142 228.568 227.142C228.04 227.142 227.561 227.276 227.132 227.543C226.706 227.81 226.366 228.203 226.114 228.723C225.864 229.243 225.739 229.881 225.739 230.636C225.739 231.392 225.864 232.03 226.114 232.55C226.366 233.07 226.706 233.463 227.132 233.73C227.561 233.997 228.04 234.131 228.568 234.131C228.858 234.131 229.136 234.091 229.403 234.011C229.67 233.932 229.913 233.814 230.132 233.658C230.354 233.499 230.541 233.304 230.695 233.074C230.851 232.841 230.96 232.574 231.023 232.273H232.08C232 232.719 231.855 233.118 231.645 233.47C231.435 233.822 231.173 234.122 230.861 234.369C230.548 234.614 230.197 234.8 229.808 234.928C229.422 235.055 229.009 235.119 228.568 235.119C227.824 235.119 227.162 234.938 226.582 234.574C226.003 234.21 225.547 233.693 225.214 233.023C224.882 232.352 224.716 231.557 224.716 230.636C224.716 229.716 224.882 228.92 225.214 228.25C225.547 227.58 226.003 227.062 226.582 226.699C227.162 226.335 227.824 226.153 228.568 226.153C229.009 226.153 229.422 226.217 229.808 226.345C230.197 226.473 230.548 226.661 230.861 226.908C231.173 227.152 231.435 227.45 231.645 227.803C231.855 228.152 232 228.551 232.08 229ZM241.151 230.636C241.151 231.557 240.985 232.352 240.652 233.023C240.32 233.693 239.864 234.21 239.284 234.574C238.705 234.938 238.043 235.119 237.299 235.119C236.554 235.119 235.892 234.938 235.313 234.574C234.733 234.21 234.277 233.693 233.945 233.023C233.613 232.352 233.446 231.557 233.446 230.636C233.446 229.716 233.613 228.92 233.945 228.25C234.277 227.58 234.733 227.062 235.313 226.699C235.892 226.335 236.554 226.153 237.299 226.153C238.043 226.153 238.705 226.335 239.284 226.699C239.864 227.062 240.32 227.58 240.652 228.25C240.985 228.92 241.151 229.716 241.151 230.636ZM240.128 230.636C240.128 229.881 240.002 229.243 239.749 228.723C239.499 228.203 239.159 227.81 238.73 227.543C238.304 227.276 237.827 227.142 237.299 227.142C236.77 227.142 236.292 227.276 235.863 227.543C235.436 227.81 235.097 228.203 234.844 228.723C234.594 229.243 234.469 229.881 234.469 230.636C234.469 231.392 234.594 232.03 234.844 232.55C235.097 233.07 235.436 233.463 235.863 233.73C236.292 233.997 236.77 234.131 237.299 234.131C237.827 234.131 238.304 233.997 238.73 233.73C239.159 233.463 239.499 233.07 239.749 232.55C240.002 232.03 240.128 231.392 240.128 230.636ZM242.928 235V226.273H243.985V234.062H248.042V235H242.928ZM256.702 230.636C256.702 231.557 256.536 232.352 256.203 233.023C255.871 233.693 255.415 234.21 254.835 234.574C254.256 234.938 253.594 235.119 252.849 235.119C252.105 235.119 251.443 234.938 250.864 234.574C250.284 234.21 249.828 233.693 249.496 233.023C249.163 232.352 248.997 231.557 248.997 230.636C248.997 229.716 249.163 228.92 249.496 228.25C249.828 227.58 250.284 227.062 250.864 226.699C251.443 226.335 252.105 226.153 252.849 226.153C253.594 226.153 254.256 226.335 254.835 226.699C255.415 227.062 255.871 227.58 256.203 228.25C256.536 228.92 256.702 229.716 256.702 230.636ZM255.679 230.636C255.679 229.881 255.553 229.243 255.3 228.723C255.05 228.203 254.71 227.81 254.281 227.543C253.855 227.276 253.378 227.142 252.849 227.142C252.321 227.142 251.842 227.276 251.413 227.543C250.987 227.81 250.648 228.203 250.395 228.723C250.145 229.243 250.02 229.881 250.02 230.636C250.02 231.392 250.145 232.03 250.395 232.55C250.648 233.07 250.987 233.463 251.413 233.73C251.842 233.997 252.321 234.131 252.849 234.131C253.378 234.131 253.855 233.997 254.281 233.73C254.71 233.463 255.05 233.07 255.3 232.55C255.553 232.03 255.679 231.392 255.679 230.636ZM258.479 235V226.273H261.428C262.109 226.273 262.669 226.389 263.107 226.622C263.544 226.852 263.868 227.169 264.078 227.572C264.288 227.976 264.393 228.435 264.393 228.949C264.393 229.463 264.288 229.919 264.078 230.317C263.868 230.714 263.545 231.027 263.111 231.254C262.676 231.479 262.121 231.591 261.445 231.591H259.058V230.636H261.411C261.876 230.636 262.251 230.568 262.536 230.432C262.822 230.295 263.03 230.102 263.158 229.852C263.288 229.599 263.354 229.298 263.354 228.949C263.354 228.599 263.288 228.294 263.158 228.033C263.027 227.771 262.818 227.57 262.531 227.428C262.244 227.283 261.865 227.21 261.393 227.21H259.536V235H258.479ZM262.587 231.08L264.734 235H263.507L261.393 231.08H262.587ZM266.751 233.884C266.541 233.884 266.36 233.808 266.21 233.658C266.059 233.507 265.984 233.327 265.984 233.116C265.984 232.906 266.059 232.726 266.21 232.575C266.36 232.425 266.541 232.349 266.751 232.349C266.961 232.349 267.142 232.425 267.292 232.575C267.443 232.726 267.518 232.906 267.518 233.116C267.518 233.256 267.483 233.384 267.412 233.5C267.343 233.616 267.251 233.71 267.135 233.781C267.021 233.849 266.893 233.884 266.751 233.884ZM266.751 229.469C266.541 229.469 266.36 229.393 266.21 229.243C266.059 229.092 265.984 228.912 265.984 228.702C265.984 228.491 266.059 228.311 266.21 228.161C266.36 228.01 266.541 227.935 266.751 227.935C266.961 227.935 267.142 228.01 267.292 228.161C267.443 228.311 267.518 228.491 267.518 228.702C267.518 228.841 267.483 228.969 267.412 229.085C267.343 229.202 267.251 229.295 267.135 229.366C267.021 229.435 266.893 229.469 266.751 229.469Z" fill="white"/>
<path d="M40.0568 226.273H41.3182L44.2841 233.517H44.3864L47.3523 226.273H48.6136V235H47.625V228.369H47.5398L44.8125 235H43.858L41.1307 228.369H41.0455V235H40.0568V226.273ZM58.0962 230.636C58.0962 231.557 57.93 232.352 57.5977 233.023C57.2653 233.693 56.8093 234.21 56.2298 234.574C55.6502 234.938 54.9883 235.119 54.244 235.119C53.4996 235.119 52.8377 234.938 52.2582 234.574C51.6786 234.21 51.2227 233.693 50.8903 233.023C50.5579 232.352 50.3917 231.557 50.3917 230.636C50.3917 229.716 50.5579 228.92 50.8903 228.25C51.2227 227.58 51.6786 227.062 52.2582 226.699C52.8377 226.335 53.4996 226.153 54.244 226.153C54.9883 226.153 55.6502 226.335 56.2298 226.699C56.8093 227.062 57.2653 227.58 57.5977 228.25C57.93 228.92 58.0962 229.716 58.0962 230.636ZM57.0735 230.636C57.0735 229.881 56.9471 229.243 56.6942 228.723C56.4442 228.203 56.1048 227.81 55.6758 227.543C55.2496 227.276 54.7724 227.142 54.244 227.142C53.7156 227.142 53.2369 227.276 52.8079 227.543C52.3817 227.81 52.0423 228.203 51.7894 228.723C51.5394 229.243 51.4144 229.881 51.4144 230.636C51.4144 231.392 51.5394 232.03 51.7894 232.55C52.0423 233.07 52.3817 233.463 52.8079 233.73C53.2369 233.997 53.7156 234.131 54.244 234.131C54.7724 234.131 55.2496 233.997 55.6758 233.73C56.1048 233.463 56.4442 233.07 56.6942 232.55C56.9471 232.03 57.0735 231.392 57.0735 230.636ZM62.5664 235H59.8732V226.273H62.6857C63.5323 226.273 64.2567 226.447 64.859 226.797C65.4613 227.143 65.9229 227.642 66.244 228.293C66.565 228.94 66.7255 229.716 66.7255 230.619C66.7255 231.528 66.5636 232.311 66.2397 232.967C65.9158 233.621 65.4442 234.124 64.8249 234.476C64.2056 234.825 63.4528 235 62.5664 235ZM60.93 234.062H62.4982C63.2198 234.062 63.8178 233.923 64.2923 233.645C64.7667 233.366 65.1204 232.97 65.3533 232.456C65.5863 231.942 65.7028 231.33 65.7028 230.619C65.7028 229.915 65.5877 229.308 65.3576 228.8C65.1275 228.288 64.7837 227.896 64.3263 227.624C63.869 227.348 63.2994 227.21 62.6175 227.21H60.93V234.062ZM68.4982 235V226.273H73.7653V227.21H69.555V230.159H73.4925V231.097H69.555V234.062H73.8335V235H68.4982ZM75.6701 235V226.273H76.7269V234.062H80.7837V235H75.6701ZM83.0167 233.884C82.8065 233.884 82.6261 233.808 82.4755 233.658C82.3249 233.507 82.2496 233.327 82.2496 233.116C82.2496 232.906 82.3249 232.726 82.4755 232.575C82.6261 232.425 82.8065 232.349 83.0167 232.349C83.2269 232.349 83.4073 232.425 83.5579 232.575C83.7085 232.726 83.7837 232.906 83.7837 233.116C83.7837 233.256 83.7482 233.384 83.6772 233.5C83.609 233.616 83.5167 233.71 83.4002 233.781C83.2866 233.849 83.1587 233.884 83.0167 233.884ZM83.0167 229.469C82.8065 229.469 82.6261 229.393 82.4755 229.243C82.3249 229.092 82.2496 228.912 82.2496 228.702C82.2496 228.491 82.3249 228.311 82.4755 228.161C82.6261 228.01 82.8065 227.935 83.0167 227.935C83.2269 227.935 83.4073 228.01 83.5579 228.161C83.7085 228.311 83.7837 228.491 83.7837 228.702C83.7837 228.841 83.7482 228.969 83.6772 229.085C83.609 229.202 83.5167 229.295 83.4002 229.366C83.2866 229.435 83.1587 229.469 83.0167 229.469Z" fill="white"/>
<path d="M225.057 168V159.273H228.006C228.688 159.273 229.247 159.389 229.685 159.622C230.122 159.852 230.446 160.169 230.656 160.572C230.866 160.976 230.972 161.435 230.972 161.949C230.972 162.463 230.866 162.919 230.656 163.317C230.446 163.714 230.124 164.027 229.689 164.254C229.254 164.479 228.699 164.591 228.023 164.591H225.636V163.636H227.989C228.455 163.636 228.83 163.568 229.114 163.432C229.401 163.295 229.608 163.102 229.736 162.852C229.866 162.599 229.932 162.298 229.932 161.949C229.932 161.599 229.866 161.294 229.736 161.033C229.605 160.771 229.396 160.57 229.109 160.428C228.822 160.283 228.443 160.21 227.972 160.21H226.114V168H225.057ZM229.165 164.08L231.312 168H230.085L227.972 164.08H229.165ZM232.733 168V159.273H238V160.21H233.789V163.159H237.727V164.097H233.789V167.062H238.068V168H232.733ZM239.904 168V159.273H245.137V160.21H240.961V163.159H244.745V164.097H240.961V168H239.904ZM246.947 168V159.273H252.214V160.21H248.004V163.159H251.942V164.097H248.004V167.062H252.283V168H246.947ZM254.119 168V159.273H257.068C257.75 159.273 258.31 159.389 258.747 159.622C259.185 159.852 259.509 160.169 259.719 160.572C259.929 160.976 260.034 161.435 260.034 161.949C260.034 162.463 259.929 162.919 259.719 163.317C259.509 163.714 259.186 164.027 258.751 164.254C258.317 164.479 257.761 164.591 257.085 164.591H254.699V163.636H257.051C257.517 163.636 257.892 163.568 258.176 163.432C258.463 163.295 258.67 163.102 258.798 162.852C258.929 162.599 258.994 162.298 258.994 161.949C258.994 161.599 258.929 161.294 258.798 161.033C258.668 160.771 258.459 160.57 258.172 160.428C257.885 160.283 257.506 160.21 257.034 160.21H255.176V168H254.119ZM258.227 164.08L260.375 168H259.148L257.034 164.08H258.227ZM261.795 168V159.273H267.062V160.21H262.852V163.159H266.789V164.097H262.852V167.062H267.13V168H261.795ZM275.887 159.273V168H274.865L270.109 161.148H270.024V168H268.967V159.273H269.99L274.762 166.142H274.848V159.273H275.887ZM285.025 162H283.968C283.906 161.696 283.796 161.429 283.64 161.199C283.487 160.969 283.299 160.776 283.077 160.619C282.859 160.46 282.616 160.341 282.349 160.261C282.082 160.182 281.803 160.142 281.513 160.142C280.985 160.142 280.506 160.276 280.077 160.543C279.651 160.81 279.312 161.203 279.059 161.723C278.809 162.243 278.684 162.881 278.684 163.636C278.684 164.392 278.809 165.03 279.059 165.55C279.312 166.07 279.651 166.463 280.077 166.73C280.506 166.997 280.985 167.131 281.513 167.131C281.803 167.131 282.082 167.091 282.349 167.011C282.616 166.932 282.859 166.814 283.077 166.658C283.299 166.499 283.487 166.304 283.64 166.074C283.796 165.841 283.906 165.574 283.968 165.273H285.025C284.945 165.719 284.8 166.118 284.59 166.47C284.38 166.822 284.119 167.122 283.806 167.369C283.494 167.614 283.143 167.8 282.754 167.928C282.367 168.055 281.954 168.119 281.513 168.119C280.769 168.119 280.107 167.938 279.528 167.574C278.948 167.21 278.492 166.693 278.16 166.023C277.827 165.352 277.661 164.557 277.661 163.636C277.661 162.716 277.827 161.92 278.16 161.25C278.492 160.58 278.948 160.062 279.528 159.699C280.107 159.335 280.769 159.153 281.513 159.153C281.954 159.153 282.367 159.217 282.754 159.345C283.143 159.473 283.494 159.661 283.806 159.908C284.119 160.152 284.38 160.45 284.59 160.803C284.8 161.152 284.945 161.551 285.025 162ZM286.733 168V159.273H292V160.21H287.789V163.159H291.727V164.097H287.789V167.062H292.068V168H286.733ZM294.501 168.068C294.291 168.068 294.11 167.993 293.96 167.842C293.809 167.692 293.734 167.511 293.734 167.301C293.734 167.091 293.809 166.911 293.96 166.76C294.11 166.609 294.291 166.534 294.501 166.534C294.711 166.534 294.892 166.609 295.042 166.76C295.193 166.911 295.268 167.091 295.268 167.301C295.268 167.44 295.233 167.568 295.162 167.685C295.093 167.801 295.001 167.895 294.885 167.966C294.771 168.034 294.643 168.068 294.501 168.068Z" fill="white"/>
<path d="M52.0568 570.273H53.3182L56.2841 577.517H56.3864L59.3523 570.273H60.6136V579H59.625V572.369H59.5398L56.8125 579H55.858L53.1307 572.369H53.0455V579H52.0568V570.273ZM62.7326 579V570.273H67.9996V571.21H63.7894V574.159H67.7269V575.097H63.7894V578.062H68.0678V579H62.7326ZM69.4272 571.21V570.273H75.9727V571.21H73.2283V579H72.1715V571.21H69.4272ZM77.6037 579V570.273H78.6605V574.159H83.3139V570.273H84.3707V579H83.3139V575.097H78.6605V579H77.6037ZM93.8501 574.636C93.8501 575.557 93.6839 576.352 93.3516 577.023C93.0192 577.693 92.5632 578.21 91.9837 578.574C91.4041 578.938 90.7422 579.119 89.9979 579.119C89.2536 579.119 88.5916 578.938 88.0121 578.574C87.4325 578.21 86.9766 577.693 86.6442 577.023C86.3118 576.352 86.1456 575.557 86.1456 574.636C86.1456 573.716 86.3118 572.92 86.6442 572.25C86.9766 571.58 87.4325 571.062 88.0121 570.699C88.5916 570.335 89.2536 570.153 89.9979 570.153C90.7422 570.153 91.4041 570.335 91.9837 570.699C92.5632 571.062 93.0192 571.58 93.3516 572.25C93.6839 572.92 93.8501 573.716 93.8501 574.636ZM92.8274 574.636C92.8274 573.881 92.701 573.243 92.4482 572.723C92.1982 572.203 91.8587 571.81 91.4297 571.543C91.0036 571.276 90.5263 571.142 89.9979 571.142C89.4695 571.142 88.9908 571.276 88.5618 571.543C88.1357 571.81 87.7962 572.203 87.5433 572.723C87.2933 573.243 87.1683 573.881 87.1683 574.636C87.1683 575.392 87.2933 576.03 87.5433 576.55C87.7962 577.07 88.1357 577.463 88.5618 577.73C88.9908 577.997 89.4695 578.131 89.9979 578.131C90.5263 578.131 91.0036 577.997 91.4297 577.73C91.8587 577.463 92.1982 577.07 92.4482 576.55C92.701 576.03 92.8274 575.392 92.8274 574.636ZM98.3203 579H95.6271V570.273H98.4396C99.2862 570.273 100.011 570.447 100.613 570.797C101.215 571.143 101.677 571.642 101.998 572.293C102.319 572.94 102.479 573.716 102.479 574.619C102.479 575.528 102.317 576.311 101.994 576.967C101.67 577.621 101.198 578.124 100.579 578.476C99.9595 578.825 99.2067 579 98.3203 579ZM96.6839 578.062H98.2521C98.9737 578.062 99.5717 577.923 100.046 577.645C100.521 577.366 100.874 576.97 101.107 576.456C101.34 575.942 101.457 575.33 101.457 574.619C101.457 573.915 101.342 573.308 101.112 572.8C100.881 572.288 100.538 571.896 100.08 571.624C99.6229 571.348 99.0533 571.21 98.3714 571.21H96.6839V578.062ZM109.025 572.455C108.974 572.023 108.766 571.688 108.403 571.449C108.039 571.21 107.593 571.091 107.065 571.091C106.678 571.091 106.34 571.153 106.05 571.278C105.763 571.403 105.539 571.575 105.377 571.794C105.218 572.013 105.138 572.261 105.138 572.54C105.138 572.773 105.194 572.973 105.305 573.141C105.418 573.305 105.563 573.443 105.739 573.554C105.915 573.662 106.1 573.751 106.293 573.822C106.487 573.891 106.664 573.946 106.826 573.989L107.712 574.227C107.94 574.287 108.192 574.369 108.471 574.474C108.752 574.58 109.021 574.723 109.276 574.905C109.535 575.084 109.748 575.314 109.915 575.595C110.083 575.876 110.167 576.222 110.167 576.631C110.167 577.102 110.043 577.528 109.796 577.909C109.552 578.29 109.194 578.592 108.722 578.817C108.254 579.041 107.684 579.153 107.013 579.153C106.388 579.153 105.847 579.053 105.39 578.851C104.935 578.649 104.577 578.368 104.316 578.007C104.058 577.646 103.911 577.227 103.877 576.75H104.968C104.996 577.08 105.107 577.352 105.3 577.568C105.496 577.781 105.744 577.94 106.042 578.045C106.343 578.148 106.667 578.199 107.013 578.199C107.417 578.199 107.779 578.134 108.1 578.003C108.421 577.869 108.675 577.685 108.863 577.449C109.05 577.21 109.144 576.932 109.144 576.614C109.144 576.324 109.063 576.088 108.901 575.906C108.739 575.724 108.526 575.577 108.262 575.463C107.998 575.349 107.712 575.25 107.406 575.165L106.332 574.858C105.65 574.662 105.11 574.382 104.712 574.018C104.315 573.655 104.116 573.179 104.116 572.591C104.116 572.102 104.248 571.676 104.512 571.312C104.779 570.946 105.137 570.662 105.586 570.46C106.038 570.256 106.542 570.153 107.099 570.153C107.661 570.153 108.161 570.254 108.599 570.456C109.036 570.655 109.383 570.928 109.638 571.274C109.897 571.621 110.033 572.014 110.048 572.455H109.025ZM112.501 577.884C112.291 577.884 112.11 577.808 111.96 577.658C111.809 577.507 111.734 577.327 111.734 577.116C111.734 576.906 111.809 576.726 111.96 576.575C112.11 576.425 112.291 576.349 112.501 576.349C112.711 576.349 112.892 576.425 113.042 576.575C113.193 576.726 113.268 576.906 113.268 577.116C113.268 577.256 113.233 577.384 113.162 577.5C113.093 577.616 113.001 577.71 112.885 577.781C112.771 577.849 112.643 577.884 112.501 577.884ZM112.501 573.469C112.291 573.469 112.11 573.393 111.96 573.243C111.809 573.092 111.734 572.912 111.734 572.702C111.734 572.491 111.809 572.311 111.96 572.161C112.11 572.01 112.291 571.935 112.501 571.935C112.711 571.935 112.892 572.01 113.042 572.161C113.193 572.311 113.268 572.491 113.268 572.702C113.268 572.841 113.233 572.969 113.162 573.085C113.093 573.202 113.001 573.295 112.885 573.366C112.771 573.435 112.643 573.469 112.501 573.469Z" fill="#FAF1F1"/>
<rect x="1.5" y="1.5" width="417" height="697" rx="18.5" stroke="#FEF9F9" stroke-width="3"/>
<defs>
<filter id="filter0_dd_0_3" x="21" y="150" width="187" height="68" filterUnits="userSpaceOnUse" color-interpolation-filters="sRGB">
<feFlood flood-opacity="0" result="BackgroundImageFix"/>
<feColorMatrix in="SourceAlpha" type="matrix" values="0 0 0 0 0 0 0 0 0 0 0 0 0 0 0 0 0 0 127 0" result="hardAlpha"/>
<feOffset dy="4"/>
<feGaussianBlur stdDeviation="2"/>
<feComposite in2="hardAlpha" operator="out"/>
<feColorMatrix type="matrix" values="0 0 0 0 0 0 0 0 0 0 0 0 0 0 0 0 0 0 0.25 0"/>
<feBlend mode="normal" in2="BackgroundImageFix" result="effect1_dropShadow_0_3"/>
<feColorMatrix in="SourceAlpha" type="matrix" values="0 0 0 0 0 0 0 0 0 0 0 0 0 0 0 0 0 0 127 0" result="hardAlpha"/>
<feOffset dy="4"/>
<feGaussianBlur stdDeviation="2"/>
<feComposite in2="hardAlpha" operator="out"/>
<feColorMatrix type="matrix" values="0 0 0 0 0 0 0 0 0 0 0 0 0 0 0 0 0 0 0.25 0"/>
<feBlend mode="normal" in2="effect1_dropShadow_0_3" result="effect2_dropShadow_0_3"/>
<feBlend mode="normal" in="SourceGraphic" in2="effect2_dropShadow_0_3" result="shape"/>
</filter>
<filter id="filter1_dd_0_3" x="21" y="218" width="187" height="68" filterUnits="userSpaceOnUse" color-interpolation-filters="sRGB">
<feFlood flood-opacity="0" result="BackgroundImageFix"/>
<feColorMatrix in="SourceAlpha" type="matrix" values="0 0 0 0 0 0 0 0 0 0 0 0 0 0 0 0 0 0 127 0" result="hardAlpha"/>
<feOffset dy="4"/>
<feGaussianBlur stdDeviation="2"/>
<feComposite in2="hardAlpha" operator="out"/>
<feColorMatrix type="matrix" values="0 0 0 0 0 0 0 0 0 0 0 0 0 0 0 0 0 0 0.25 0"/>
<feBlend mode="normal" in2="BackgroundImageFix" result="effect1_dropShadow_0_3"/>
<feColorMatrix in="SourceAlpha" type="matrix" values="0 0 0 0 0 0 0 0 0 0 0 0 0 0 0 0 0 0 127 0" result="hardAlpha"/>
<feOffset dy="4"/>
<feGaussianBlur stdDeviation="2"/>
<feComposite in2="hardAlpha" operator="out"/>
<feColorMatrix type="matrix" values="0 0 0 0 0 0 0 0 0 0 0 0 0 0 0 0 0 0 0.25 0"/>
<feBlend mode="normal" in2="effect1_dropShadow_0_3" result="effect2_dropShadow_0_3"/>
<feBlend mode="normal" in="SourceGraphic" in2="effect2_dropShadow_0_3" result="shape"/>
</filter>
<filter id="filter2_dd_0_3" x="206" y="150" width="187" height="68" filterUnits="userSpaceOnUse" color-interpolation-filters="sRGB">
<feFlood flood-opacity="0" result="BackgroundImageFix"/>
<feColorMatrix in="SourceAlpha" type="matrix" values="0 0 0 0 0 0 0 0 0 0 0 0 0 0 0 0 0 0 127 0" result="hardAlpha"/>
<feOffset dy="4"/>
<feGaussianBlur stdDeviation="2"/>
<feComposite in2="hardAlpha" operator="out"/>
<feColorMatrix type="matrix" values="0 0 0 0 0 0 0 0 0 0 0 0 0 0 0 0 0 0 0.25 0"/>
<feBlend mode="normal" in2="BackgroundImageFix" result="effect1_dropShadow_0_3"/>
<feColorMatrix in="SourceAlpha" type="matrix" values="0 0 0 0 0 0 0 0 0 0 0 0 0 0 0 0 0 0 127 0" result="hardAlpha"/>
<feOffset dy="4"/>
<feGaussianBlur stdDeviation="2"/>
<feComposite in2="hardAlpha" operator="out"/>
<feColorMatrix type="matrix" values="0 0 0 0 0 0 0 0 0 0 0 0 0 0 0 0 0 0 0.25 0"/>
<feBlend mode="normal" in2="effect1_dropShadow_0_3" result="effect2_dropShadow_0_3"/>
<feBlend mode="normal" in="SourceGraphic" in2="effect2_dropShadow_0_3" result="shape"/>
</filter>
<filter id="filter3_dd_0_3" x="206" y="218" width="187" height="68" filterUnits="userSpaceOnUse" color-interpolation-filters="sRGB">
<feFlood flood-opacity="0" result="BackgroundImageFix"/>
<feColorMatrix in="SourceAlpha" type="matrix" values="0 0 0 0 0 0 0 0 0 0 0 0 0 0 0 0 0 0 127 0" result="hardAlpha"/>
<feOffset dy="4"/>
<feGaussianBlur stdDeviation="2"/>
<feComposite in2="hardAlpha" operator="out"/>
<feColorMatrix type="matrix" values="0 0 0 0 0 0 0 0 0 0 0 0 0 0 0 0 0 0 0.25 0"/>
<feBlend mode="normal" in2="BackgroundImageFix" result="effect1_dropShadow_0_3"/>
<feColorMatrix in="SourceAlpha" type="matrix" values="0 0 0 0 0 0 0 0 0 0 0 0 0 0 0 0 0 0 127 0" result="hardAlpha"/>
<feOffset dy="4"/>
<feGaussianBlur stdDeviation="2"/>
<feComposite in2="hardAlpha" operator="out"/>
<feColorMatrix type="matrix" values="0 0 0 0 0 0 0 0 0 0 0 0 0 0 0 0 0 0 0.25 0"/>
<feBlend mode="normal" in2="effect1_dropShadow_0_3" result="effect2_dropShadow_0_3"/>
<feBlend mode="normal" in="SourceGraphic" in2="effect2_dropShadow_0_3" result="shape"/>
</filter>
</defs>
</svg>
