<svg width="735" height="260" viewBox="0 0 735 260" fill="none" xmlns="http://www.w3.org/2000/svg">
<rect width="368.992" height="260" fill="#2C4449"/>
<ellipse cx="47.0128" cy="45.0566" rx="9.21849" ry="9.0566" fill="#302828"/>
<ellipse cx="47.0128" cy="45.0566" rx="9.21849" ry="9.0566" fill="#DFF6FD"/>
<ellipse cx="64.9154" cy="24.0566" rx="9.21849" ry="9.0566" fill="#302828"/>
<ellipse cx="64.9154" cy="24.0566" rx="9.21849" ry="9.0566" fill="#DFF6FD"/>
<ellipse cx="47.0128" cy="24.0566" rx="9.21849" ry="9.0566" fill="#302828"/>
<ellipse cx="47.0128" cy="24.0566" rx="9.21849" ry="9.0566" fill="#DFF6FD"/>
<ellipse cx="47.0128" cy="55.0566" rx="9.21849" ry="9.0566" fill="#302828"/>
<ellipse cx="47.0128" cy="55.0566" rx="9.21849" ry="9.0566" fill="#DFF6FD"/>
<ellipse cx="64.9154" cy="44.0566" rx="9.21849" ry="9.0566" fill="#302828"/>
<ellipse cx="64.9154" cy="44.0566" rx="9.21849" ry="9.0566" fill="#DFF6FD"/>
<path d="M64.6483 45.6037C64.6483 50.6055 60.521 54.6603 55.4298 54.6603C50.3386 54.6603 46.2113 50.6055 46.2113 45.6037C46.2113 40.6019 50.3386 36.5471 55.4298 36.5471C60.521 36.5471 64.6483 40.6019 64.6483 45.6037Z" fill="#302828"/>
<path d="M64.6483 45.6037C64.6483 50.6055 60.521 54.6603 55.4298 54.6603C50.3386 54.6603 46.2113 50.6055 46.2113 45.6037C46.2113 40.6019 50.3386 36.5471 55.4298 36.5471C60.521 36.5471 64.6483 40.6019 64.6483 45.6037Z" fill="#DFF6FD"/>
<ellipse cx="64.9154" cy="34.0566" rx="9.21849" ry="9.0566" fill="#302828"/>
<ellipse cx="64.9154" cy="34.0566" rx="9.21849" ry="9.0566" fill="#DFF6FD"/>
<ellipse cx="45.751" cy="34.5" rx="18.8972" ry="9.5" fill="#302828"/>
<ellipse cx="45.751" cy="34.5" rx="18.8972" ry="9.5" fill="#DFF6FD"/>
<ellipse rx="8.76715" ry="11.494" transform="matrix(0.501832 -0.864965 0.862585 0.505913 240.026 59.4608)" fill="#302828"/>
<ellipse rx="8.76715" ry="11.494" transform="matrix(0.501832 -0.864965 0.862585 0.505913 240.026 59.4608)" fill="#DFF6FD"/>
<ellipse rx="8.76715" ry="11.494" transform="matrix(0.501832 -0.864965 0.862585 0.505913 234.196 25.9923)" fill="#302828"/>
<ellipse rx="8.76715" ry="11.494" transform="matrix(0.501832 -0.864965 0.862585 0.505913 234.196 25.9923)" fill="#DFF6FD"/>
<ellipse rx="8.76715" ry="11.494" transform="matrix(0.501832 -0.864965 0.862585 0.505913 240.581 44.7618)" fill="#302828"/>
<ellipse rx="8.76715" ry="11.494" transform="matrix(0.501832 -0.864965 0.862585 0.505913 240.581 44.7618)" fill="#DFF6FD"/>
<ellipse rx="8.76715" ry="11.494" transform="matrix(0.501832 -0.864965 0.862585 0.505913 258.115 60.3481)" fill="#302828"/>
<ellipse rx="8.76715" ry="11.494" transform="matrix(0.501832 -0.864965 0.862585 0.505913 258.115 60.3481)" fill="#DFF6FD"/>
<ellipse rx="8.76715" ry="11.494" transform="matrix(0.501832 -0.864965 0.862585 0.505913 263.853 50.4569)" fill="#302828"/>
<ellipse rx="8.76715" ry="11.494" transform="matrix(0.501832 -0.864965 0.862585 0.505913 263.853 50.4569)" fill="#DFF6FD"/>
<ellipse rx="8.76715" ry="11.494" transform="matrix(0.501832 -0.864965 0.862585 0.505913 263.799 34.5169)" fill="#302828"/>
<ellipse rx="8.76715" ry="11.494" transform="matrix(0.501832 -0.864965 0.862585 0.505913 263.799 34.5169)" fill="#DFF6FD"/>
<ellipse rx="8.76715" ry="11.494" transform="matrix(0.501832 -0.864965 0.862585 0.505913 252.355 31.3397)" fill="#302828"/>
<ellipse rx="8.76715" ry="11.494" transform="matrix(0.501832 -0.864965 0.862585 0.505913 252.355 31.3397)" fill="#DFF6FD"/>
<ellipse rx="14.086" ry="14.4294" transform="matrix(0.501832 -0.864965 0.862585 0.505913 245.902 43.4839)" fill="#302828"/>
<ellipse rx="14.086" ry="14.4294" transform="matrix(0.501832 -0.864965 0.862585 0.505913 245.902 43.4839)" fill="#DFF6FD"/>
<rect x="366.008" width="368.992" height="260" fill="#2C4449"/>
<ellipse cx="413.251" cy="58" rx="11.4378" ry="10" fill="#302828"/>
<ellipse cx="413.251" cy="58" rx="11.4378" ry="10" fill="#DFF6FD"/>
<ellipse cx="447.067" cy="39" rx="11.4378" ry="10" fill="#302828"/>
<ellipse cx="447.067" cy="39" rx="11.4378" ry="10" fill="#DFF6FD"/>
<ellipse cx="430.159" cy="52" rx="11.4378" ry="10" fill="#302828"/>
<ellipse cx="430.159" cy="52" rx="11.4378" ry="10" fill="#DFF6FD"/>
<ellipse cx="424.191" cy="72" rx="11.4378" ry="10" fill="#302828"/>
<ellipse cx="424.191" cy="72" rx="11.4378" ry="10" fill="#DFF6FD"/>
<ellipse cx="439.11" cy="72" rx="11.4378" ry="10" fill="#302828"/>
<ellipse cx="439.11" cy="72" rx="11.4378" ry="10" fill="#DFF6FD"/>
<ellipse cx="457.013" cy="65" rx="11.4378" ry="10" fill="#302828"/>
<ellipse cx="457.013" cy="65" rx="11.4378" ry="10" fill="#DFF6FD"/>
<ellipse cx="453.034" cy="55" rx="11.4378" ry="10" fill="#302828"/>
<ellipse cx="453.034" cy="55" rx="11.4378" ry="10" fill="#DFF6FD"/>
<path d="M457.51 56C457.51 61.5228 448.382 66 437.121 66C425.861 66 416.732 61.5228 416.732 56C416.732 50.4772 425.861 46 437.121 46C448.382 46 457.51 50.4772 457.51 56Z" fill="#302828"/>
<path d="M457.51 56C457.51 61.5228 448.382 66 437.121 66C425.861 66 416.732 61.5228 416.732 56C416.732 50.4772 425.861 46 437.121 46C448.382 46 457.51 50.4772 457.51 56Z" fill="#DFF6FD"/>
<ellipse rx="8.76715" ry="11.494" transform="matrix(0.501832 -0.864965 0.862585 0.505913 669.688 108.461)" fill="#302828"/>
<ellipse rx="8.76715" ry="11.494" transform="matrix(0.501832 -0.864965 0.862585 0.505913 669.688 108.461)" fill="#DFF6FD"/>
<ellipse rx="8.76715" ry="11.494" transform="matrix(0.501832 -0.864965 0.862585 0.505913 663.858 74.9924)" fill="#302828"/>
<ellipse rx="8.76715" ry="11.494" transform="matrix(0.501832 -0.864965 0.862585 0.505913 663.858 74.9924)" fill="#DFF6FD"/>
<path d="M670.92 81.3685C677.386 85.1607 679.801 93.1072 676.314 99.1175C672.827 105.128 664.758 106.926 658.293 103.134C651.827 99.3414 649.412 91.3949 652.899 85.3847C656.386 79.3744 664.455 77.5763 670.92 81.3685Z" fill="#302828"/>
<path d="M670.92 81.3685C677.386 85.1607 679.801 93.1072 676.314 99.1175C672.827 105.128 664.758 106.926 658.293 103.134C651.827 99.3414 649.412 91.3949 652.899 85.3847C656.386 79.3744 664.455 77.5763 670.92 81.3685Z" fill="#DFF6FD"/>
<ellipse rx="8.76715" ry="11.494" transform="matrix(0.501832 -0.864965 0.862585 0.505913 687.776 109.348)" fill="#302828"/>
<ellipse rx="8.76715" ry="11.494" transform="matrix(0.501832 -0.864965 0.862585 0.505913 687.776 109.348)" fill="#DFF6FD"/>
<ellipse rx="8.76715" ry="11.494" transform="matrix(0.501832 -0.864965 0.862585 0.505913 693.515 99.457)" fill="#302828"/>
<ellipse rx="8.76715" ry="11.494" transform="matrix(0.501832 -0.864965 0.862585 0.505913 693.515 99.457)" fill="#DFF6FD"/>
<ellipse rx="8.76715" ry="11.494" transform="matrix(0.501832 -0.864965 0.862585 0.505913 693.461 83.5171)" fill="#302828"/>
<ellipse rx="8.76715" ry="11.494" transform="matrix(0.501832 -0.864965 0.862585 0.505913 693.461 83.5171)" fill="#DFF6FD"/>
<ellipse rx="8.76715" ry="11.494" transform="matrix(0.501832 -0.864965 0.862585 0.505913 682.016 80.3398)" fill="#302828"/>
<ellipse rx="8.76715" ry="11.494" transform="matrix(0.501832 -0.864965 0.862585 0.505913 682.016 80.3398)" fill="#DFF6FD"/>
<ellipse rx="19.0401" ry="12.7866" transform="matrix(0.501832 -0.864965 0.862585 0.505913 675.416 94.0001)" fill="#302828"/>
<ellipse rx="19.0401" ry="12.7866" transform="matrix(0.501832 -0.864965 0.862585 0.505913 675.416 94.0001)" fill="#DFF6FD"/>
<path d="M679.5 19L680.959 23.4914H685.682L681.861 26.2672L683.321 30.7586L679.5 27.9828L675.679 30.7586L677.139 26.2672L673.318 23.4914H678.041L679.5 19Z" fill="#C4C4C4"/>
<path d="M611.5 50L612.959 54.4914H617.682L613.861 57.2672L615.321 61.7586L611.5 58.9828L607.679 61.7586L609.139 57.2672L605.318 54.4914H610.041L611.5 50Z" fill="#C4C4C4"/>
<path d="M112.5 14L113.959 18.4914H118.682L114.861 21.2672L116.321 25.7586L112.5 22.9828L108.679 25.7586L110.139 21.2672L106.318 18.4914H111.041L112.5 14Z" fill="#C4C4C4"/>
<path d="M445.5 117L446.735 120.8H450.731L447.498 123.149L448.733 126.95L445.5 124.601L442.267 126.95L443.502 123.149L440.269 120.8H444.265L445.5 117Z" fill="#C4C4C4"/>
<path d="M279.5 102L280.735 105.8H284.731L281.498 108.149L282.733 111.95L279.5 109.601L276.267 111.95L277.502 108.149L274.269 105.8H278.265L279.5 102Z" fill="#C4C4C4"/>
<path d="M376.5 102L377.735 105.8H381.731L378.498 108.149L379.733 111.95L376.5 109.601L373.267 111.95L374.502 108.149L371.269 105.8H375.265L376.5 102Z" fill="#C4C4C4"/>
<path d="M133.5 84L134.51 87.1094H137.78L135.135 89.0312L136.145 92.1406L133.5 90.2188L130.855 92.1406L131.865 89.0312L129.22 87.1094H132.49L133.5 84Z" fill="#C4C4C4"/>
<path d="M551.5 95L553.184 100.182H558.633L554.225 103.385L555.908 108.568L551.5 105.365L547.092 108.568L548.775 103.385L544.367 100.182H549.816L551.5 95Z" fill="#C4C4C4"/>
<path d="M585.5 22L587.184 27.1824H592.633L588.225 30.3853L589.908 35.5676L585.5 32.3647L581.092 35.5676L582.775 30.3853L578.367 27.1824H583.816L585.5 22Z" fill="#C4C4C4"/>
<path d="M326 44L327.123 47.4549H330.755L327.816 49.5902L328.939 53.0451L326 50.9098L323.061 53.0451L324.184 49.5902L321.245 47.4549H324.877L326 44Z" fill="#C4C4C4"/>
<path d="M179.5 34L180.286 36.4184H182.829L180.771 37.9131L181.557 40.3316L179.5 38.8369L177.443 40.3316L178.229 37.9131L176.171 36.4184H178.714L179.5 34Z" fill="#C4C4C4"/>
<path d="M533.5 10L534.286 12.4184H536.829L534.771 13.9131L535.557 16.3316L533.5 14.8369L531.443 16.3316L532.229 13.9131L530.171 12.4184H532.714L533.5 10Z" fill="#C4C4C4"/>
<path d="M40.5 81L41.2858 83.4184H43.8287L41.7714 84.9131L42.5572 87.3316L40.5 85.8369L38.4428 87.3316L39.2286 84.9131L37.1713 83.4184H39.7142L40.5 81Z" fill="#C4C4C4"/>
<path d="M324.5 32L325.286 34.4184H327.829L325.771 35.9131L326.557 38.3316L324.5 36.8369L322.443 38.3316L323.229 35.9131L321.171 34.4184H323.714L324.5 32Z" fill="#C4C4C4"/>
</svg>
