<svg width="45" height="45" viewBox="0 0 45 45" fill="none" xmlns="http://www.w3.org/2000/svg">
<path d="M38.9092 29.9093C35.5759 31.417 31.8622 31.8732 28.263 31.2171C24.6639 30.561 21.3501 28.8238 18.7631 26.2369C16.1762 23.6499 14.4389 20.3361 13.7829 16.7369C13.1268 13.1378 13.583 9.42411 15.0907 6.09076C12.437 7.29003 10.1138 9.1152 8.32048 11.4097C6.52716 13.7041 5.31724 16.3994 4.79452 19.2643C4.2718 22.1291 4.45189 25.078 5.31933 27.8579C6.18677 30.6379 7.71568 33.1659 9.77488 35.2251C11.8341 37.2843 14.3621 38.8132 17.142 39.6806C19.922 40.5481 22.8709 40.7282 25.7357 40.2055C28.6006 39.6827 31.2958 38.4728 33.5903 36.6795C35.8848 34.8862 37.7099 32.563 38.9092 29.9093V29.9093Z" fill="black"/>
</svg>
