<svg width="729" height="260" viewBox="0 0 729 260" fill="none" xmlns="http://www.w3.org/2000/svg">
<rect x="610" y="162" width="52" height="91" rx="20" fill="url(#paint0_linear_63_136)"/>
<rect x="610" y="162" width="52" height="91" rx="20" fill="url(#paint1_linear_63_136)"/>
<rect x="378" y="112" width="51" height="141" rx="20" fill="url(#paint2_linear_63_136)"/>
<rect x="378" y="112" width="51" height="141" rx="20" fill="url(#paint3_linear_63_136)"/>
<rect x="479" y="123" width="74" height="137" rx="20" fill="url(#paint4_linear_63_136)"/>
<rect x="479" y="123" width="74" height="137" rx="20" fill="url(#paint5_linear_63_136)"/>
<g style="mix-blend-mode:multiply">
<rect x="113" y="130" width="57" height="123" rx="20" fill="url(#paint6_linear_63_136)"/>
<rect x="113" y="130" width="57" height="123" rx="20" fill="url(#paint7_linear_63_136)"/>
</g>
<g style="mix-blend-mode:multiply">
<rect x="32" y="108" width="52" height="145" rx="20" fill="url(#paint8_linear_63_136)"/>
<rect x="32" y="108" width="52" height="145" rx="20" fill="url(#paint9_linear_63_136)"/>
</g>
<g style="mix-blend-mode:darken">
<rect x="192" y="116" width="74" height="137" rx="20" fill="url(#paint10_linear_63_136)"/>
<rect x="192" y="116" width="74" height="137" rx="20" fill="url(#paint11_linear_63_136)"/>
</g>
<path d="M301 164C301 152.954 309.954 144 321 144H333C344.046 144 353 152.954 353 164V233C353 244.046 344.046 253 333 253H321C309.954 253 301 244.046 301 233V164Z" fill="url(#paint12_linear_63_136)"/>
<path d="M301 164C301 152.954 309.954 144 321 144H333C344.046 144 353 152.954 353 164V233C353 244.046 344.046 253 333 253H321C309.954 253 301 244.046 301 233V164Z" fill="url(#paint13_linear_63_136)"/>
<defs>
<linearGradient id="paint0_linear_63_136" x1="636" y1="162" x2="636" y2="253" gradientUnits="userSpaceOnUse">
<stop stop-color="#1F7027"/>
<stop offset="1" stop-color="#C4C4C4" stop-opacity="0"/>
</linearGradient>
<linearGradient id="paint1_linear_63_136" x1="636" y1="162" x2="636" y2="253" gradientUnits="userSpaceOnUse">
<stop stop-color="#1F7027"/>
<stop offset="1" stop-color="#C4C4C4" stop-opacity="0"/>
</linearGradient>
<linearGradient id="paint2_linear_63_136" x1="403.5" y1="112" x2="403.5" y2="253" gradientUnits="userSpaceOnUse">
<stop stop-color="#1F7027"/>
<stop offset="1" stop-color="#C4C4C4" stop-opacity="0"/>
</linearGradient>
<linearGradient id="paint3_linear_63_136" x1="403.5" y1="112" x2="403.5" y2="253" gradientUnits="userSpaceOnUse">
<stop stop-color="#1F7027"/>
<stop offset="1" stop-color="#C4C4C4" stop-opacity="0"/>
</linearGradient>
<linearGradient id="paint4_linear_63_136" x1="516" y1="123" x2="516" y2="260" gradientUnits="userSpaceOnUse">
<stop stop-color="#1D4120"/>
<stop offset="1" stop-color="#C4C4C4" stop-opacity="0"/>
</linearGradient>
<linearGradient id="paint5_linear_63_136" x1="516" y1="123" x2="516" y2="260" gradientUnits="userSpaceOnUse">
<stop stop-color="#1F7027"/>
<stop offset="1" stop-color="#C4C4C4" stop-opacity="0"/>
</linearGradient>
<linearGradient id="paint6_linear_63_136" x1="141.5" y1="130" x2="141.5" y2="253" gradientUnits="userSpaceOnUse">
<stop stop-color="#1F7027"/>
<stop offset="1" stop-color="#C4C4C4" stop-opacity="0"/>
</linearGradient>
<linearGradient id="paint7_linear_63_136" x1="141.5" y1="130" x2="141.5" y2="253" gradientUnits="userSpaceOnUse">
<stop stop-color="#1F7027"/>
<stop offset="1" stop-color="#C4C4C4" stop-opacity="0"/>
</linearGradient>
<linearGradient id="paint8_linear_63_136" x1="58" y1="108" x2="58" y2="253" gradientUnits="userSpaceOnUse">
<stop stop-color="#1F7027"/>
<stop offset="1" stop-color="#C4C4C4" stop-opacity="0"/>
</linearGradient>
<linearGradient id="paint9_linear_63_136" x1="58" y1="108" x2="58" y2="253" gradientUnits="userSpaceOnUse">
<stop stop-color="#1F7027"/>
<stop offset="1" stop-color="#C4C4C4" stop-opacity="0"/>
</linearGradient>
<linearGradient id="paint10_linear_63_136" x1="229" y1="116" x2="229" y2="253" gradientUnits="userSpaceOnUse">
<stop stop-color="#1F7027"/>
<stop offset="1" stop-color="#C4C4C4" stop-opacity="0"/>
</linearGradient>
<linearGradient id="paint11_linear_63_136" x1="229" y1="116" x2="229" y2="253" gradientUnits="userSpaceOnUse">
<stop stop-color="#1F7027"/>
<stop offset="1" stop-color="#C4C4C4" stop-opacity="0"/>
</linearGradient>
<linearGradient id="paint12_linear_63_136" x1="327" y1="144" x2="327" y2="253" gradientUnits="userSpaceOnUse">
<stop stop-color="#1F7027"/>
<stop offset="1" stop-color="#C4C4C4" stop-opacity="0"/>
</linearGradient>
<linearGradient id="paint13_linear_63_136" x1="327" y1="144" x2="327" y2="253" gradientUnits="userSpaceOnUse">
<stop stop-color="#1F7027"/>
<stop offset="1" stop-color="#C4C4C4" stop-opacity="0"/>
</linearGradient>
</defs>
</svg>
