<svg width="730" height="260" viewBox="0 0 730 260" fill="none" xmlns="http://www.w3.org/2000/svg">
<line y1="153.5" x2="729" y2="153.5" stroke="#7A6868"/>
<line y1="160.5" x2="729" y2="160.5" stroke="#7A6868"/>
<line y1="166.5" x2="729" y2="166.5" stroke="#7A6868"/>
<rect x="1" y="186" width="729" height="74" fill="#C4C4C4"/>
<line x1="13" y1="220.5" x2="33" y2="220.5" stroke="black"/>
<line x1="319" y1="222.485" x2="339" y2="222.485" stroke="black"/>
<line x1="279" y1="220.5" x2="299" y2="220.5" stroke="black"/>
<line x1="145" y1="220.5" x2="165" y2="220.5" stroke="black"/>
<line x1="451" y1="222.485" x2="471" y2="222.485" stroke="black"/>
<line x1="623" y1="222.485" x2="643" y2="222.485" stroke="black"/>
<line x1="78" y1="220.5" x2="98" y2="220.5" stroke="black"/>
<line x1="384" y1="222.485" x2="404" y2="222.485" stroke="black"/>
<line x1="556" y1="222.485" x2="576" y2="222.485" stroke="black"/>
<line x1="210" y1="220.5" x2="230" y2="220.5" stroke="black"/>
<line x1="45" y1="220.5" x2="65" y2="220.5" stroke="black"/>
<line x1="351" y1="222.485" x2="371" y2="222.485" stroke="black"/>
<line x1="523" y1="222.485" x2="543" y2="222.485" stroke="black"/>
<line x1="177" y1="220.5" x2="197" y2="220.5" stroke="black"/>
<line x1="483" y1="222.485" x2="503" y2="222.485" stroke="black"/>
<line x1="655" y1="222.485" x2="675" y2="222.485" stroke="black"/>
<line x1="691" y1="220.5" x2="711" y2="220.5" stroke="black"/>
<line x1="110" y1="220.5" x2="130" y2="220.5" stroke="black"/>
<line x1="416" y1="222.485" x2="436" y2="222.485" stroke="black"/>
<line x1="588" y1="222.485" x2="608" y2="222.485" stroke="black"/>
<line x1="242" y1="220.5" x2="262" y2="220.5" stroke="black"/>
<line x1="211.5" y1="137" x2="211.5" y2="187" stroke="black"/>
<line x1="1" y1="186.5" x2="730" y2="186.5" stroke="black"/>
<line x1="403.5" y1="139.083" x2="403.5" y2="187" stroke="black"/>
<line x1="595.5" y1="139.083" x2="595.5" y2="187" stroke="black"/>
<line x1="67.5002" y1="137.694" x2="67.5002" y2="185.611" stroke="black"/>
<line x1="259.5" y1="137" x2="259.5" y2="184.917" stroke="black"/>
<line x1="451.5" y1="137.694" x2="451.5" y2="185.611" stroke="black"/>
<line x1="643.5" y1="137.694" x2="643.5" y2="185.611" stroke="black"/>
<line x1="115.5" y1="139.083" x2="115.5" y2="187" stroke="black"/>
<line x1="307.5" y1="138.389" x2="307.5" y2="186.306" stroke="black"/>
<line x1="499.5" y1="139.083" x2="499.5" y2="187" stroke="black"/>
<line x1="691.5" y1="139.083" x2="691.5" y2="187" stroke="black"/>
<line x1="163.5" y1="139.083" x2="163.5" y2="187" stroke="black"/>
<line x1="355.5" y1="138.389" x2="355.5" y2="186.306" stroke="black"/>
<line x1="547.5" y1="139.083" x2="547.5" y2="187" stroke="black"/>
<line x1="29.5" y1="139.083" x2="29.5" y2="187" stroke="black"/>
<line x1="221.5" y1="138.389" x2="221.5" y2="186.306" stroke="black"/>
<line x1="413.5" y1="139.083" x2="413.5" y2="187" stroke="black"/>
<line x1="605.5" y1="139.083" x2="605.5" y2="187" stroke="black"/>
<line x1="77.4998" y1="137.694" x2="77.4998" y2="185.611" stroke="black"/>
<line x1="269.5" y1="137" x2="269.5" y2="184.917" stroke="black"/>
<line x1="461.5" y1="137.694" x2="461.5" y2="185.611" stroke="black"/>
<line x1="653.5" y1="137.694" x2="653.5" y2="185.611" stroke="black"/>
<line x1="125.5" y1="139.083" x2="125.5" y2="187" stroke="black"/>
<line x1="317.5" y1="138.389" x2="317.5" y2="186.306" stroke="black"/>
<line x1="509.5" y1="139.083" x2="509.5" y2="187" stroke="black"/>
<line x1="701.5" y1="139.083" x2="701.5" y2="187" stroke="black"/>
<line x1="173.5" y1="139.083" x2="173.5" y2="187" stroke="black"/>
<line x1="365.5" y1="138.389" x2="365.5" y2="186.306" stroke="black"/>
<line x1="557.5" y1="139.083" x2="557.5" y2="187" stroke="black"/>
<line x1="38.5002" y1="139.083" x2="38.5002" y2="187" stroke="black"/>
<line x1="230.5" y1="138.389" x2="230.5" y2="186.306" stroke="black"/>
<line x1="422.5" y1="139.083" x2="422.5" y2="187" stroke="black"/>
<line x1="614.5" y1="139.083" x2="614.5" y2="187" stroke="black"/>
<line x1="86.5001" y1="137.694" x2="86.5001" y2="185.611" stroke="black"/>
<line x1="278.5" y1="137" x2="278.5" y2="184.917" stroke="black"/>
<line x1="470.5" y1="137.694" x2="470.5" y2="185.611" stroke="black"/>
<line x1="662.5" y1="137.694" x2="662.5" y2="185.611" stroke="black"/>
<line x1="134.5" y1="139.083" x2="134.5" y2="187" stroke="black"/>
<line x1="326.5" y1="138.389" x2="326.5" y2="186.306" stroke="black"/>
<line x1="518.5" y1="139.083" x2="518.5" y2="187" stroke="black"/>
<line x1="710.5" y1="139.083" x2="710.5" y2="187" stroke="black"/>
<line x1="182.5" y1="139.083" x2="182.5" y2="187" stroke="black"/>
<line x1="374.5" y1="138.389" x2="374.5" y2="186.306" stroke="black"/>
<line x1="566.5" y1="139.083" x2="566.5" y2="187" stroke="black"/>
<line x1="47.4999" y1="139.083" x2="47.4999" y2="187" stroke="black"/>
<line x1="239.5" y1="138.389" x2="239.5" y2="186.306" stroke="black"/>
<line x1="431.5" y1="139.083" x2="431.5" y2="187" stroke="black"/>
<line x1="623.5" y1="139.083" x2="623.5" y2="187" stroke="black"/>
<line x1="95.4997" y1="137.694" x2="95.4997" y2="185.611" stroke="black"/>
<line x1="287.5" y1="137" x2="287.5" y2="184.917" stroke="black"/>
<line x1="479.5" y1="137.694" x2="479.5" y2="185.611" stroke="black"/>
<line x1="671.5" y1="137.694" x2="671.5" y2="185.611" stroke="black"/>
<line x1="143.5" y1="139.083" x2="143.5" y2="187" stroke="black"/>
<line x1="335.5" y1="138.389" x2="335.5" y2="186.306" stroke="black"/>
<line x1="527.5" y1="139.083" x2="527.5" y2="187" stroke="black"/>
<line x1="719.5" y1="139.083" x2="719.5" y2="187" stroke="black"/>
<line x1="191.5" y1="139.083" x2="191.5" y2="187" stroke="black"/>
<line x1="383.5" y1="138.389" x2="383.5" y2="186.306" stroke="black"/>
<line x1="575.5" y1="139.083" x2="575.5" y2="187" stroke="black"/>
<line x1="9.50024" y1="139.083" x2="9.50024" y2="187" stroke="black"/>
<line x1="201.5" y1="138.389" x2="201.5" y2="186.306" stroke="black"/>
<line x1="393.5" y1="139.083" x2="393.5" y2="187" stroke="black"/>
<line x1="585.5" y1="139.083" x2="585.5" y2="187" stroke="black"/>
<line x1="57.5001" y1="137.694" x2="57.5001" y2="185.611" stroke="black"/>
<line x1="249.5" y1="137" x2="249.5" y2="184.917" stroke="black"/>
<line x1="441.5" y1="137.694" x2="441.5" y2="185.611" stroke="black"/>
<line x1="633.5" y1="137.694" x2="633.5" y2="185.611" stroke="black"/>
<line x1="105.5" y1="139.083" x2="105.5" y2="187" stroke="black"/>
<line x1="297.5" y1="138.389" x2="297.5" y2="186.306" stroke="black"/>
<line x1="489.5" y1="139.083" x2="489.5" y2="187" stroke="black"/>
<line x1="681.5" y1="139.083" x2="681.5" y2="187" stroke="black"/>
<line x1="153.5" y1="139.083" x2="153.5" y2="187" stroke="black"/>
<line x1="345.5" y1="138.389" x2="345.5" y2="186.306" stroke="black"/>
<line x1="537.5" y1="139.083" x2="537.5" y2="187" stroke="black"/>
<line x1="0.5" y1="139.083" x2="0.5" y2="187" stroke="black"/>
<line x1="19.4998" y1="139.083" x2="19.4998" y2="187" stroke="black"/>
</svg>
