<svg width="420" height="700" viewBox="0 0 420 700" fill="none" xmlns="http://www.w3.org/2000/svg">
<rect x="1.5" y="1.5" width="417" height="697" rx="18.5" fill="#D5D2E8"/>
<path d="M91.7727 60.3636C91.7727 62.8485 91.3182 64.9848 90.4091 66.7727C89.5 68.553 88.2538 69.9242 86.6705 70.8864C85.0947 71.8409 83.303 72.3182 81.2955 72.3182C79.2803 72.3182 77.4811 71.8409 75.8977 70.8864C74.322 69.9242 73.0795 68.5492 72.1705 66.7614C71.2614 64.9735 70.8068 62.8409 70.8068 60.3636C70.8068 57.8788 71.2614 55.7462 72.1705 53.9659C73.0795 52.178 74.322 50.8068 75.8977 49.8523C77.4811 48.8902 79.2803 48.4091 81.2955 48.4091C83.303 48.4091 85.0947 48.8902 86.6705 49.8523C88.2538 50.8068 89.5 52.178 90.4091 53.9659C91.3182 55.7462 91.7727 57.8788 91.7727 60.3636ZM88.2955 60.3636C88.2955 58.4697 87.9886 56.875 87.375 55.5795C86.7689 54.2765 85.9356 53.2917 84.875 52.625C83.822 51.9508 82.6288 51.6136 81.2955 51.6136C79.9545 51.6136 78.7576 51.9508 77.7045 52.625C76.6515 53.2917 75.8182 54.2765 75.2045 55.5795C74.5985 56.875 74.2955 58.4697 74.2955 60.3636C74.2955 62.2576 74.5985 63.8561 75.2045 65.1591C75.8182 66.4545 76.6515 67.4394 77.7045 68.1136C78.7576 68.7803 79.9545 69.1136 81.2955 69.1136C82.6288 69.1136 83.822 68.7803 84.875 68.1136C85.9356 67.4394 86.7689 66.4545 87.375 65.1591C87.9886 63.8561 88.2955 62.2576 88.2955 60.3636ZM96.1506 72V48.7273H104.673C106.325 48.7273 107.692 49 108.776 49.5455C109.859 50.0833 110.67 50.8144 111.207 51.7386C111.745 52.6553 112.014 53.6894 112.014 54.8409C112.014 55.8106 111.836 56.6288 111.48 57.2955C111.124 57.9545 110.647 58.4848 110.048 58.8864C109.457 59.2803 108.806 59.5682 108.094 59.75V59.9773C108.866 60.0152 109.62 60.2652 110.355 60.7273C111.098 61.1818 111.711 61.8295 112.196 62.6705C112.681 63.5114 112.923 64.5341 112.923 65.7386C112.923 66.928 112.643 67.9962 112.082 68.9432C111.529 69.8826 110.673 70.6288 109.514 71.1818C108.355 71.7273 106.874 72 105.071 72H96.1506ZM99.6619 68.9886H104.73C106.412 68.9886 107.616 68.6629 108.344 68.0114C109.071 67.3598 109.435 66.5455 109.435 65.5682C109.435 64.8333 109.249 64.1591 108.878 63.5455C108.507 62.9318 107.976 62.4432 107.287 62.0795C106.605 61.7159 105.795 61.5341 104.855 61.5341H99.6619V68.9886ZM99.6619 58.7955H104.366C105.154 58.7955 105.863 58.6439 106.491 58.3409C107.128 58.0379 107.632 57.6136 108.003 57.0682C108.382 56.5152 108.571 55.8636 108.571 55.1136C108.571 54.1515 108.234 53.3447 107.56 52.6932C106.885 52.0417 105.851 51.7159 104.457 51.7159H99.6619V58.7955ZM126.134 48.7273H129.634V65.2273C129.634 66.7197 129.338 67.9962 128.747 69.0568C128.164 70.1174 127.342 70.928 126.281 71.4886C125.221 72.0417 123.978 72.3182 122.554 72.3182C121.243 72.3182 120.065 72.0795 119.02 71.6023C117.982 71.125 117.16 70.4318 116.554 69.5227C115.955 68.6061 115.656 67.4924 115.656 66.1818H119.145C119.145 66.8258 119.293 67.3826 119.588 67.8523C119.891 68.322 120.304 68.6894 120.827 68.9545C121.357 69.2121 121.963 69.3409 122.645 69.3409C123.387 69.3409 124.016 69.1856 124.531 68.875C125.054 68.5568 125.452 68.0909 125.724 67.4773C125.997 66.8636 126.134 66.1136 126.134 65.2273V48.7273ZM134.744 72V48.7273H149.335V51.75H138.256V58.8409H148.574V61.8523H138.256V68.9773H149.472V72H134.744ZM173.355 56.2955H169.81C169.673 55.5379 169.42 54.8712 169.048 54.2955C168.677 53.7197 168.223 53.2311 167.685 52.8295C167.147 52.428 166.545 52.125 165.878 51.9205C165.219 51.7159 164.518 51.6136 163.776 51.6136C162.435 51.6136 161.234 51.9508 160.173 52.625C159.12 53.2992 158.287 54.2879 157.673 55.5909C157.067 56.8939 156.764 58.4848 156.764 60.3636C156.764 62.2576 157.067 63.8561 157.673 65.1591C158.287 66.4621 159.124 67.447 160.185 68.1136C161.245 68.7803 162.438 69.1136 163.764 69.1136C164.499 69.1136 165.196 69.0152 165.855 68.8182C166.522 68.6136 167.124 68.3144 167.662 67.9205C168.2 67.5265 168.654 67.0455 169.026 66.4773C169.404 65.9015 169.666 65.2424 169.81 64.5L173.355 64.5114C173.166 65.6553 172.798 66.7083 172.253 67.6705C171.715 68.625 171.022 69.4508 170.173 70.1477C169.332 70.8371 168.37 71.3712 167.287 71.75C166.204 72.1288 165.022 72.3182 163.741 72.3182C161.726 72.3182 159.931 71.8409 158.355 70.8864C156.779 69.9242 155.537 68.5492 154.628 66.7614C153.726 64.9735 153.276 62.8409 153.276 60.3636C153.276 57.8788 153.73 55.7462 154.639 53.9659C155.548 52.178 156.791 50.8068 158.366 49.8523C159.942 48.8902 161.734 48.4091 163.741 48.4091C164.976 48.4091 166.128 48.5871 167.196 48.9432C168.272 49.2917 169.238 49.8068 170.094 50.4886C170.95 51.1629 171.658 51.9886 172.219 52.9659C172.779 53.9356 173.158 55.0455 173.355 56.2955ZM176.409 51.75V48.7273H194.42V51.75H187.159V72H183.659V51.75H176.409Z" fill="black"/>
<path d="M209.591 48.7273L216.068 67.6818H216.33L222.807 48.7273H226.602L218.227 72H214.17L205.795 48.7273H209.591ZM229.963 72V48.7273H244.554V51.75H233.474V58.8409H243.793V61.8523H233.474V68.9773H244.69V72H229.963ZM249.244 72V48.7273H252.756V58.8409H264.358V48.7273H267.881V72H264.358V61.8523H252.756V72H249.244ZM276.506 48.7273V72H272.994V48.7273H276.506ZM300.949 56.2955H297.403C297.267 55.5379 297.013 54.8712 296.642 54.2955C296.271 53.7197 295.816 53.2311 295.278 52.8295C294.741 52.428 294.138 52.125 293.472 51.9205C292.813 51.7159 292.112 51.6136 291.369 51.6136C290.028 51.6136 288.828 51.9508 287.767 52.625C286.714 53.2992 285.881 54.2879 285.267 55.5909C284.661 56.8939 284.358 58.4848 284.358 60.3636C284.358 62.2576 284.661 63.8561 285.267 65.1591C285.881 66.4621 286.718 67.447 287.778 68.1136C288.839 68.7803 290.032 69.1136 291.358 69.1136C292.093 69.1136 292.79 69.0152 293.449 68.8182C294.116 68.6136 294.718 68.3144 295.256 67.9205C295.794 67.5265 296.248 67.0455 296.619 66.4773C296.998 65.9015 297.259 65.2424 297.403 64.5L300.949 64.5114C300.759 65.6553 300.392 66.7083 299.847 67.6705C299.309 68.625 298.616 69.4508 297.767 70.1477C296.926 70.8371 295.964 71.3712 294.881 71.75C293.797 72.1288 292.616 72.3182 291.335 72.3182C289.32 72.3182 287.525 71.8409 285.949 70.8864C284.373 69.9242 283.131 68.5492 282.222 66.7614C281.32 64.9735 280.869 62.8409 280.869 60.3636C280.869 57.8788 281.324 55.7462 282.233 53.9659C283.142 52.178 284.384 50.8068 285.96 49.8523C287.536 48.8902 289.328 48.4091 291.335 48.4091C292.57 48.4091 293.722 48.5871 294.79 48.9432C295.866 49.2917 296.831 49.8068 297.688 50.4886C298.544 51.1629 299.252 51.9886 299.812 52.9659C300.373 53.9356 300.752 55.0455 300.949 56.2955ZM305.151 72V48.7273H308.662V68.9773H319.207V72H305.151ZM323.213 72V48.7273H337.804V51.75H326.724V58.8409H337.043V61.8523H326.724V68.9773H337.94V72H323.213Z" fill="#503A8D"/>
<path d="M58.4148 122H57.3068L60.5114 113.273H61.6023L64.8068 122H63.6989L61.0909 114.653H61.0227L58.4148 122ZM58.8239 118.591H63.2898V119.528H58.8239V118.591ZM64.6694 114.21V113.273H71.2148V114.21H68.4705V122H67.4137V114.21H64.6694ZM72.8459 122V113.273H75.7947C76.4766 113.273 77.0362 113.389 77.4737 113.622C77.9112 113.852 78.2351 114.169 78.4453 114.572C78.6555 114.976 78.7607 115.435 78.7607 115.949C78.7607 116.463 78.6555 116.919 78.4453 117.317C78.2351 117.714 77.9126 118.027 77.478 118.254C77.0433 118.479 76.4879 118.591 75.8118 118.591H73.4254V117.636H75.7777C76.2436 117.636 76.6186 117.568 76.9027 117.432C77.1896 117.295 77.397 117.102 77.5249 116.852C77.6555 116.599 77.7209 116.298 77.7209 115.949C77.7209 115.599 77.6555 115.294 77.5249 115.033C77.3942 114.771 77.1854 114.57 76.8984 114.428C76.6115 114.283 76.2322 114.21 75.7607 114.21H73.9027V122H72.8459ZM76.9538 118.08L79.1016 122H77.8743L75.7607 118.08H76.9538ZM81.5785 113.273V122H80.5217V113.273H81.5785ZM83.6974 122V113.273H86.7486C87.3565 113.273 87.858 113.378 88.2528 113.588C88.6477 113.795 88.9418 114.075 89.1349 114.428C89.3281 114.777 89.4247 115.165 89.4247 115.591C89.4247 115.966 89.358 116.276 89.2244 116.52C89.0938 116.764 88.9205 116.957 88.7045 117.099C88.4915 117.241 88.2599 117.347 88.0099 117.415V117.5C88.277 117.517 88.5455 117.611 88.8153 117.781C89.0852 117.952 89.3111 118.196 89.4929 118.514C89.6747 118.832 89.7656 119.222 89.7656 119.682C89.7656 120.119 89.6662 120.513 89.4673 120.862C89.2685 121.212 88.9545 121.489 88.5256 121.693C88.0966 121.898 87.5384 122 86.8509 122H83.6974ZM84.7543 121.062H86.8509C87.5412 121.062 88.0313 120.929 88.321 120.662C88.6136 120.392 88.7599 120.065 88.7599 119.682C88.7599 119.386 88.6847 119.114 88.5341 118.864C88.3835 118.611 88.169 118.409 87.8906 118.259C87.6122 118.105 87.2827 118.028 86.902 118.028H84.7543V121.062ZM84.7543 117.108H86.7145C87.0327 117.108 87.3196 117.045 87.5753 116.92C87.8338 116.795 88.0384 116.619 88.1889 116.392C88.3423 116.165 88.419 115.898 88.419 115.591C88.419 115.207 88.2855 114.882 88.0185 114.615C87.7514 114.345 87.3281 114.21 86.7486 114.21H84.7543V117.108ZM97.2294 113.273H98.2862V119.051C98.2862 119.648 98.1456 120.18 97.8643 120.649C97.5859 121.115 97.1925 121.483 96.6839 121.753C96.1754 122.02 95.5788 122.153 94.8942 122.153C94.2095 122.153 93.6129 122.02 93.1044 121.753C92.5959 121.483 92.201 121.115 91.9197 120.649C91.6413 120.18 91.5021 119.648 91.5021 119.051V113.273H92.5589V118.966C92.5589 119.392 92.6527 119.771 92.8402 120.104C93.0277 120.433 93.2947 120.693 93.6413 120.884C93.9908 121.071 94.4084 121.165 94.8942 121.165C95.38 121.165 95.7976 121.071 96.147 120.884C96.4964 120.693 96.7635 120.433 96.9482 120.104C97.1357 119.771 97.2294 119.392 97.2294 118.966V113.273ZM99.9194 114.21V113.273H106.465V114.21H103.721V122H102.664V114.21H99.9194ZM108.096 122V113.273H113.363V114.21H109.153V117.159H113.09V118.097H109.153V121.062H113.431V122H108.096ZM120.04 115.455C119.989 115.023 119.782 114.688 119.418 114.449C119.055 114.21 118.609 114.091 118.08 114.091C117.694 114.091 117.356 114.153 117.066 114.278C116.779 114.403 116.555 114.575 116.393 114.794C116.234 115.013 116.154 115.261 116.154 115.54C116.154 115.773 116.21 115.973 116.32 116.141C116.434 116.305 116.579 116.443 116.755 116.554C116.931 116.662 117.116 116.751 117.309 116.822C117.502 116.891 117.68 116.946 117.842 116.989L118.728 117.227C118.955 117.287 119.208 117.369 119.487 117.474C119.768 117.58 120.036 117.723 120.292 117.905C120.55 118.084 120.763 118.314 120.931 118.595C121.099 118.876 121.183 119.222 121.183 119.631C121.183 120.102 121.059 120.528 120.812 120.909C120.567 121.29 120.21 121.592 119.738 121.817C119.269 122.041 118.7 122.153 118.029 122.153C117.404 122.153 116.863 122.053 116.406 121.851C115.951 121.649 115.593 121.368 115.332 121.007C115.073 120.646 114.927 120.227 114.893 119.75H115.984C116.012 120.08 116.123 120.352 116.316 120.568C116.512 120.781 116.759 120.94 117.058 121.045C117.359 121.148 117.683 121.199 118.029 121.199C118.433 121.199 118.795 121.134 119.116 121.003C119.437 120.869 119.691 120.685 119.879 120.449C120.066 120.21 120.16 119.932 120.16 119.614C120.16 119.324 120.079 119.088 119.917 118.906C119.755 118.724 119.542 118.577 119.278 118.463C119.013 118.349 118.728 118.25 118.421 118.165L117.347 117.858C116.665 117.662 116.126 117.382 115.728 117.018C115.33 116.655 115.131 116.179 115.131 115.591C115.131 115.102 115.263 114.676 115.528 114.312C115.795 113.946 116.153 113.662 116.602 113.46C117.053 113.256 117.558 113.153 118.114 113.153C118.677 113.153 119.177 113.254 119.614 113.456C120.052 113.655 120.398 113.928 120.654 114.274C120.913 114.621 121.049 115.014 121.063 115.455H120.04ZM123.517 120.884C123.306 120.884 123.126 120.808 122.975 120.658C122.825 120.507 122.75 120.327 122.75 120.116C122.75 119.906 122.825 119.726 122.975 119.575C123.126 119.425 123.306 119.349 123.517 119.349C123.727 119.349 123.907 119.425 124.058 119.575C124.208 119.726 124.284 119.906 124.284 120.116C124.284 120.256 124.248 120.384 124.177 120.5C124.109 120.616 124.017 120.71 123.9 120.781C123.787 120.849 123.659 120.884 123.517 120.884ZM123.517 116.469C123.306 116.469 123.126 116.393 122.975 116.243C122.825 116.092 122.75 115.912 122.75 115.702C122.75 115.491 122.825 115.311 122.975 115.161C123.126 115.01 123.306 114.935 123.517 114.935C123.727 114.935 123.907 115.01 124.058 115.161C124.208 115.311 124.284 115.491 124.284 115.702C124.284 115.841 124.248 115.969 124.177 116.085C124.109 116.202 124.017 116.295 123.9 116.366C123.787 116.435 123.659 116.469 123.517 116.469Z" fill="black"/>
<circle cx="367" cy="58" r="25" fill="#9E9090"/>
<circle cx="367" cy="58" r="23.5" stroke="#E9BA12" stroke-opacity="0.76" stroke-width="3"/>
<rect x="33" y="108" width="20" height="19" fill="#7E7272"/>
<rect x="25.5" y="563.5" width="19" height="18" fill="#7E7272" stroke="black"/>
<rect x="26.5" y="151.5" width="176" height="57" rx="16.5" fill="#E9BA12" fill-opacity="0.7" stroke="#3A3344" stroke-width="3"/>
<rect x="26.5" y="219.5" width="176" height="57" rx="16.5" fill="#E9BA12" fill-opacity="0.7" stroke="#3A3344" stroke-width="3"/>
<rect x="211.5" y="151.5" width="176" height="57" rx="16.5" fill="#E9BA12" fill-opacity="0.7" stroke="#3A3344" stroke-width="3"/>
<g filter="url(#filter0_d_3_4)">
<rect x="210" y="218" width="179" height="60" rx="18" fill="#E9BA12" fill-opacity="0.7" shape-rendering="crispEdges"/>
<rect x="211.5" y="219.5" width="176" height="57" rx="16.5" stroke="#3A3344" stroke-width="3" shape-rendering="crispEdges"/>
</g>
<path d="M54.5 410C54.5 415.885 51.3569 421.249 46.2039 425.158C41.1594 428.985 34.2098 431.397 26.5 431.497L26.5 430.271L26.5 425.556L26.5 410L26.5 394.444L26.5 389.729L26.5 388.503C34.2098 388.603 41.1594 391.015 46.2039 394.842C51.3569 398.751 54.5 404.115 54.5 410Z" fill="#E9BA12" stroke="black"/>
<path fill-rule="evenodd" clip-rule="evenodd" d="M46.5308 421.464C46.2425 421.807 45.8516 422 45.4441 422C45.0365 422 44.6456 421.807 44.3574 421.464L36.6722 412.306C36.3841 411.963 36.2222 411.497 36.2222 411.011C36.2222 410.526 36.3841 410.06 36.6722 409.717L44.3574 400.559C44.4992 400.384 44.6688 400.245 44.8563 400.149C45.0438 400.053 45.2455 400.002 45.4496 400C45.6537 399.998 45.8561 400.044 46.045 400.136C46.2339 400.228 46.4055 400.364 46.5498 400.536C46.6941 400.708 46.8083 400.913 46.8855 401.138C46.9628 401.363 47.0017 401.604 46.9999 401.847C46.9982 402.091 46.9558 402.331 46.8752 402.554C46.7947 402.778 46.6776 402.98 46.5308 403.149L39.9323 411.011L46.5308 418.874C46.8189 419.217 46.9808 419.683 46.9808 420.169C46.9808 420.655 46.8189 421.12 46.5308 421.464ZM37.3086 421.464C37.0203 421.807 36.6294 422 36.2219 422C35.8143 422 35.4234 421.807 35.1352 421.464L27.45 412.306C27.1619 411.963 27 411.497 27 411.011C27 410.526 27.1619 410.06 27.45 409.717L35.1352 400.559C35.4251 400.226 35.8133 400.041 36.2163 400.045C36.6193 400.049 37.0049 400.242 37.2898 400.581C37.5748 400.921 37.7365 401.38 37.74 401.861C37.7435 402.341 37.5885 402.803 37.3086 403.149L30.7101 411.011L37.3086 418.874C37.5967 419.217 37.7586 419.683 37.7586 420.169C37.7586 420.655 37.5967 421.12 37.3086 421.464Z" fill="black"/>
<path d="M360.597 409.975C360.634 404.09 363.811 398.746 368.988 394.87C374.057 391.075 381.022 388.707 388.732 388.656L388.724 389.881L388.695 394.596L388.596 410.152L388.497 425.708L388.468 430.423L388.46 431.648C380.751 431.499 373.817 429.044 368.796 425.185C363.668 421.243 360.559 415.859 360.597 409.975Z" fill="#E9BA12" stroke="black"/>
<path fill-rule="evenodd" clip-rule="evenodd" d="M368.638 398.562C368.929 398.22 369.321 398.03 369.728 398.032C370.136 398.035 370.526 398.23 370.812 398.575L378.439 407.781C378.725 408.127 378.883 408.593 378.88 409.079C378.877 409.565 378.713 410.029 378.422 410.371L370.679 419.48C370.536 419.654 370.366 419.792 370.178 419.887C369.99 419.982 369.788 420.031 369.583 420.032C369.379 420.033 369.177 419.985 368.989 419.892C368.801 419.798 368.63 419.661 368.487 419.488C368.343 419.316 368.231 419.11 368.155 418.885C368.079 418.659 368.042 418.418 368.045 418.175C368.048 417.931 368.092 417.691 368.174 417.468C368.256 417.246 368.374 417.044 368.522 416.876L375.17 409.056L368.622 401.151C368.336 400.806 368.177 400.339 368.18 399.854C368.183 399.368 368.348 398.903 368.638 398.562ZM377.86 398.62C378.151 398.278 378.543 398.088 378.95 398.091C379.358 398.093 379.748 398.289 380.034 398.634L387.661 407.84C387.947 408.185 388.105 408.652 388.102 409.137C388.099 409.623 387.935 410.088 387.644 410.429L379.901 419.538C379.609 419.87 379.22 420.052 378.817 420.045C378.414 420.038 378.03 419.843 377.747 419.502C377.464 419.161 377.305 418.7 377.305 418.22C377.304 417.74 377.462 417.278 377.744 416.935L384.392 409.114L377.844 401.21C377.558 400.864 377.399 400.398 377.402 399.912C377.405 399.426 377.57 398.962 377.86 398.62Z" fill="black"/>
<path d="M39.0568 168V159.273H42.108C42.7159 159.273 43.2173 159.378 43.6122 159.588C44.0071 159.795 44.3011 160.075 44.4943 160.428C44.6875 160.777 44.7841 161.165 44.7841 161.591C44.7841 161.966 44.7173 162.276 44.5838 162.52C44.4531 162.764 44.2798 162.957 44.0639 163.099C43.8509 163.241 43.6193 163.347 43.3693 163.415V163.5C43.6364 163.517 43.9048 163.611 44.1747 163.781C44.4446 163.952 44.6705 164.196 44.8523 164.514C45.0341 164.832 45.125 165.222 45.125 165.682C45.125 166.119 45.0256 166.513 44.8267 166.862C44.6278 167.212 44.3139 167.489 43.8849 167.693C43.456 167.898 42.8977 168 42.2102 168H39.0568ZM40.1136 167.062H42.2102C42.9006 167.062 43.3906 166.929 43.6804 166.662C43.973 166.392 44.1193 166.065 44.1193 165.682C44.1193 165.386 44.044 165.114 43.8935 164.864C43.7429 164.611 43.5284 164.409 43.25 164.259C42.9716 164.105 42.642 164.028 42.2614 164.028H40.1136V167.062ZM40.1136 163.108H42.0739C42.392 163.108 42.679 163.045 42.9347 162.92C43.1932 162.795 43.3977 162.619 43.5483 162.392C43.7017 162.165 43.7784 161.898 43.7784 161.591C43.7784 161.207 43.6449 160.882 43.3778 160.615C43.1108 160.345 42.6875 160.21 42.108 160.21H40.1136V163.108ZM46.8615 168V159.273H49.8104C50.4922 159.273 51.0518 159.389 51.4893 159.622C51.9268 159.852 52.2507 160.169 52.4609 160.572C52.6712 160.976 52.7763 161.435 52.7763 161.949C52.7763 162.463 52.6712 162.919 52.4609 163.317C52.2507 163.714 51.9283 164.027 51.4936 164.254C51.0589 164.479 50.5036 164.591 49.8274 164.591H47.4411V163.636H49.7933C50.2592 163.636 50.6342 163.568 50.9183 163.432C51.2053 163.295 51.4126 163.102 51.5405 162.852C51.6712 162.599 51.7365 162.298 51.7365 161.949C51.7365 161.599 51.6712 161.294 51.5405 161.033C51.4098 160.771 51.201 160.57 50.9141 160.428C50.6271 160.283 50.2479 160.21 49.7763 160.21H47.9183V168H46.8615ZM50.9695 164.08L53.1172 168H51.8899L49.7763 164.08H50.9695ZM54.8952 168H53.7873L56.9918 159.273H58.0827L61.2873 168H60.1793L57.5714 160.653H57.5032L54.8952 168ZM55.3043 164.591H59.7702V165.528H55.3043V164.591ZM69.5671 159.273V168H68.5444L63.7887 161.148H63.7035V168H62.6467V159.273H63.6694L68.4421 166.142H68.5273V159.273H69.5671ZM74.375 168H71.6818V159.273H74.4943C75.3409 159.273 76.0653 159.447 76.6676 159.797C77.2699 160.143 77.7315 160.642 78.0526 161.293C78.3736 161.94 78.5341 162.716 78.5341 163.619C78.5341 164.528 78.3722 165.311 78.0483 165.967C77.7244 166.621 77.2528 167.124 76.6335 167.476C76.0142 167.825 75.2614 168 74.375 168ZM72.7386 167.062H74.3068C75.0284 167.062 75.6264 166.923 76.1009 166.645C76.5753 166.366 76.929 165.97 77.1619 165.456C77.3949 164.942 77.5114 164.33 77.5114 163.619C77.5114 162.915 77.3963 162.308 77.1662 161.8C76.9361 161.288 76.5923 160.896 76.1349 160.624C75.6776 160.348 75.108 160.21 74.4261 160.21H72.7386V167.062ZM80.9034 166.884C80.6932 166.884 80.5128 166.808 80.3622 166.658C80.2116 166.507 80.1364 166.327 80.1364 166.116C80.1364 165.906 80.2116 165.726 80.3622 165.575C80.5128 165.425 80.6932 165.349 80.9034 165.349C81.1136 165.349 81.294 165.425 81.4446 165.575C81.5952 165.726 81.6705 165.906 81.6705 166.116C81.6705 166.256 81.6349 166.384 81.5639 166.5C81.4957 166.616 81.4034 166.71 81.2869 166.781C81.1733 166.849 81.0455 166.884 80.9034 166.884ZM80.9034 162.469C80.6932 162.469 80.5128 162.393 80.3622 162.243C80.2116 162.092 80.1364 161.912 80.1364 161.702C80.1364 161.491 80.2116 161.311 80.3622 161.161C80.5128 161.01 80.6932 160.935 80.9034 160.935C81.1136 160.935 81.294 161.01 81.4446 161.161C81.5952 161.311 81.6705 161.491 81.6705 161.702C81.6705 161.841 81.6349 161.969 81.5639 162.085C81.4957 162.202 81.4034 162.295 81.2869 162.366C81.1733 162.435 81.0455 162.469 80.9034 162.469Z" fill="#1D0303"/>
<path d="M232.08 229H231.023C230.96 228.696 230.851 228.429 230.695 228.199C230.541 227.969 230.354 227.776 230.132 227.619C229.913 227.46 229.67 227.341 229.403 227.261C229.136 227.182 228.858 227.142 228.568 227.142C228.04 227.142 227.561 227.276 227.132 227.543C226.706 227.81 226.366 228.203 226.114 228.723C225.864 229.243 225.739 229.881 225.739 230.636C225.739 231.392 225.864 232.03 226.114 232.55C226.366 233.07 226.706 233.463 227.132 233.73C227.561 233.997 228.04 234.131 228.568 234.131C228.858 234.131 229.136 234.091 229.403 234.011C229.67 233.932 229.913 233.814 230.132 233.658C230.354 233.499 230.541 233.304 230.695 233.074C230.851 232.841 230.96 232.574 231.023 232.273H232.08C232 232.719 231.855 233.118 231.645 233.47C231.435 233.822 231.173 234.122 230.861 234.369C230.548 234.614 230.197 234.8 229.808 234.928C229.422 235.055 229.009 235.119 228.568 235.119C227.824 235.119 227.162 234.938 226.582 234.574C226.003 234.21 225.547 233.693 225.214 233.023C224.882 232.352 224.716 231.557 224.716 230.636C224.716 229.716 224.882 228.92 225.214 228.25C225.547 227.58 226.003 227.062 226.582 226.699C227.162 226.335 227.824 226.153 228.568 226.153C229.009 226.153 229.422 226.217 229.808 226.345C230.197 226.473 230.548 226.661 230.861 226.908C231.173 227.152 231.435 227.45 231.645 227.803C231.855 228.152 232 228.551 232.08 229ZM241.151 230.636C241.151 231.557 240.985 232.352 240.652 233.023C240.32 233.693 239.864 234.21 239.284 234.574C238.705 234.938 238.043 235.119 237.299 235.119C236.554 235.119 235.892 234.938 235.313 234.574C234.733 234.21 234.277 233.693 233.945 233.023C233.613 232.352 233.446 231.557 233.446 230.636C233.446 229.716 233.613 228.92 233.945 228.25C234.277 227.58 234.733 227.062 235.313 226.699C235.892 226.335 236.554 226.153 237.299 226.153C238.043 226.153 238.705 226.335 239.284 226.699C239.864 227.062 240.32 227.58 240.652 228.25C240.985 228.92 241.151 229.716 241.151 230.636ZM240.128 230.636C240.128 229.881 240.002 229.243 239.749 228.723C239.499 228.203 239.159 227.81 238.73 227.543C238.304 227.276 237.827 227.142 237.299 227.142C236.77 227.142 236.292 227.276 235.863 227.543C235.436 227.81 235.097 228.203 234.844 228.723C234.594 229.243 234.469 229.881 234.469 230.636C234.469 231.392 234.594 232.03 234.844 232.55C235.097 233.07 235.436 233.463 235.863 233.73C236.292 233.997 236.77 234.131 237.299 234.131C237.827 234.131 238.304 233.997 238.73 233.73C239.159 233.463 239.499 233.07 239.749 232.55C240.002 232.03 240.128 231.392 240.128 230.636ZM242.928 235V226.273H243.985V234.062H248.042V235H242.928ZM256.702 230.636C256.702 231.557 256.536 232.352 256.203 233.023C255.871 233.693 255.415 234.21 254.835 234.574C254.256 234.938 253.594 235.119 252.849 235.119C252.105 235.119 251.443 234.938 250.864 234.574C250.284 234.21 249.828 233.693 249.496 233.023C249.163 232.352 248.997 231.557 248.997 230.636C248.997 229.716 249.163 228.92 249.496 228.25C249.828 227.58 250.284 227.062 250.864 226.699C251.443 226.335 252.105 226.153 252.849 226.153C253.594 226.153 254.256 226.335 254.835 226.699C255.415 227.062 255.871 227.58 256.203 228.25C256.536 228.92 256.702 229.716 256.702 230.636ZM255.679 230.636C255.679 229.881 255.553 229.243 255.3 228.723C255.05 228.203 254.71 227.81 254.281 227.543C253.855 227.276 253.378 227.142 252.849 227.142C252.321 227.142 251.842 227.276 251.413 227.543C250.987 227.81 250.648 228.203 250.395 228.723C250.145 229.243 250.02 229.881 250.02 230.636C250.02 231.392 250.145 232.03 250.395 232.55C250.648 233.07 250.987 233.463 251.413 233.73C251.842 233.997 252.321 234.131 252.849 234.131C253.378 234.131 253.855 233.997 254.281 233.73C254.71 233.463 255.05 233.07 255.3 232.55C255.553 232.03 255.679 231.392 255.679 230.636ZM258.479 235V226.273H261.428C262.109 226.273 262.669 226.389 263.107 226.622C263.544 226.852 263.868 227.169 264.078 227.572C264.288 227.976 264.393 228.435 264.393 228.949C264.393 229.463 264.288 229.919 264.078 230.317C263.868 230.714 263.545 231.027 263.111 231.254C262.676 231.479 262.121 231.591 261.445 231.591H259.058V230.636H261.411C261.876 230.636 262.251 230.568 262.536 230.432C262.822 230.295 263.03 230.102 263.158 229.852C263.288 229.599 263.354 229.298 263.354 228.949C263.354 228.599 263.288 228.294 263.158 228.033C263.027 227.771 262.818 227.57 262.531 227.428C262.244 227.283 261.865 227.21 261.393 227.21H259.536V235H258.479ZM262.587 231.08L264.734 235H263.507L261.393 231.08H262.587ZM266.751 233.884C266.541 233.884 266.36 233.808 266.21 233.658C266.059 233.507 265.984 233.327 265.984 233.116C265.984 232.906 266.059 232.726 266.21 232.575C266.36 232.425 266.541 232.349 266.751 232.349C266.961 232.349 267.142 232.425 267.292 232.575C267.443 232.726 267.518 232.906 267.518 233.116C267.518 233.256 267.483 233.384 267.412 233.5C267.343 233.616 267.251 233.71 267.135 233.781C267.021 233.849 266.893 233.884 266.751 233.884ZM266.751 229.469C266.541 229.469 266.36 229.393 266.21 229.243C266.059 229.092 265.984 228.912 265.984 228.702C265.984 228.491 266.059 228.311 266.21 228.161C266.36 228.01 266.541 227.935 266.751 227.935C266.961 227.935 267.142 228.01 267.292 228.161C267.443 228.311 267.518 228.491 267.518 228.702C267.518 228.841 267.483 228.969 267.412 229.085C267.343 229.202 267.251 229.295 267.135 229.366C267.021 229.435 266.893 229.469 266.751 229.469Z" fill="#1D0303"/>
<path d="M38.0568 226.273H39.3182L42.2841 233.517H42.3864L45.3523 226.273H46.6136V235H45.625V228.369H45.5398L42.8125 235H41.858L39.1307 228.369H39.0455V235H38.0568V226.273ZM56.0962 230.636C56.0962 231.557 55.93 232.352 55.5977 233.023C55.2653 233.693 54.8093 234.21 54.2298 234.574C53.6502 234.938 52.9883 235.119 52.244 235.119C51.4996 235.119 50.8377 234.938 50.2582 234.574C49.6786 234.21 49.2227 233.693 48.8903 233.023C48.5579 232.352 48.3917 231.557 48.3917 230.636C48.3917 229.716 48.5579 228.92 48.8903 228.25C49.2227 227.58 49.6786 227.062 50.2582 226.699C50.8377 226.335 51.4996 226.153 52.244 226.153C52.9883 226.153 53.6502 226.335 54.2298 226.699C54.8093 227.062 55.2653 227.58 55.5977 228.25C55.93 228.92 56.0962 229.716 56.0962 230.636ZM55.0735 230.636C55.0735 229.881 54.9471 229.243 54.6942 228.723C54.4442 228.203 54.1048 227.81 53.6758 227.543C53.2496 227.276 52.7724 227.142 52.244 227.142C51.7156 227.142 51.2369 227.276 50.8079 227.543C50.3817 227.81 50.0423 228.203 49.7894 228.723C49.5394 229.243 49.4144 229.881 49.4144 230.636C49.4144 231.392 49.5394 232.03 49.7894 232.55C50.0423 233.07 50.3817 233.463 50.8079 233.73C51.2369 233.997 51.7156 234.131 52.244 234.131C52.7724 234.131 53.2496 233.997 53.6758 233.73C54.1048 233.463 54.4442 233.07 54.6942 232.55C54.9471 232.03 55.0735 231.392 55.0735 230.636ZM60.5664 235H57.8732V226.273H60.6857C61.5323 226.273 62.2567 226.447 62.859 226.797C63.4613 227.143 63.9229 227.642 64.244 228.293C64.565 228.94 64.7255 229.716 64.7255 230.619C64.7255 231.528 64.5636 232.311 64.2397 232.967C63.9158 233.621 63.4442 234.124 62.8249 234.476C62.2056 234.825 61.4528 235 60.5664 235ZM58.93 234.062H60.4982C61.2198 234.062 61.8178 233.923 62.2923 233.645C62.7667 233.366 63.1204 232.97 63.3533 232.456C63.5863 231.942 63.7028 231.33 63.7028 230.619C63.7028 229.915 63.5877 229.308 63.3576 228.8C63.1275 228.288 62.7837 227.896 62.3263 227.624C61.869 227.348 61.2994 227.21 60.6175 227.21H58.93V234.062ZM66.4982 235V226.273H71.7653V227.21H67.555V230.159H71.4925V231.097H67.555V234.062H71.8335V235H66.4982ZM73.6701 235V226.273H74.7269V234.062H78.7837V235H73.6701ZM81.0167 233.884C80.8065 233.884 80.6261 233.808 80.4755 233.658C80.3249 233.507 80.2496 233.327 80.2496 233.116C80.2496 232.906 80.3249 232.726 80.4755 232.575C80.6261 232.425 80.8065 232.349 81.0167 232.349C81.2269 232.349 81.4073 232.425 81.5579 232.575C81.7085 232.726 81.7837 232.906 81.7837 233.116C81.7837 233.256 81.7482 233.384 81.6772 233.5C81.609 233.616 81.5167 233.71 81.4002 233.781C81.2866 233.849 81.1587 233.884 81.0167 233.884ZM81.0167 229.469C80.8065 229.469 80.6261 229.393 80.4755 229.243C80.3249 229.092 80.2496 228.912 80.2496 228.702C80.2496 228.491 80.3249 228.311 80.4755 228.161C80.6261 228.01 80.8065 227.935 81.0167 227.935C81.2269 227.935 81.4073 228.01 81.5579 228.161C81.7085 228.311 81.7837 228.491 81.7837 228.702C81.7837 228.841 81.7482 228.969 81.6772 229.085C81.609 229.202 81.5167 229.295 81.4002 229.366C81.2866 229.435 81.1587 229.469 81.0167 229.469Z" fill="#1D0303"/>
<path d="M225.057 168V159.273H228.006C228.688 159.273 229.247 159.389 229.685 159.622C230.122 159.852 230.446 160.169 230.656 160.572C230.866 160.976 230.972 161.435 230.972 161.949C230.972 162.463 230.866 162.919 230.656 163.317C230.446 163.714 230.124 164.027 229.689 164.254C229.254 164.479 228.699 164.591 228.023 164.591H225.636V163.636H227.989C228.455 163.636 228.83 163.568 229.114 163.432C229.401 163.295 229.608 163.102 229.736 162.852C229.866 162.599 229.932 162.298 229.932 161.949C229.932 161.599 229.866 161.294 229.736 161.033C229.605 160.771 229.396 160.57 229.109 160.428C228.822 160.283 228.443 160.21 227.972 160.21H226.114V168H225.057ZM229.165 164.08L231.312 168H230.085L227.972 164.08H229.165ZM232.733 168V159.273H238V160.21H233.789V163.159H237.727V164.097H233.789V167.062H238.068V168H232.733ZM239.904 168V159.273H245.137V160.21H240.961V163.159H244.745V164.097H240.961V168H239.904ZM246.947 168V159.273H252.214V160.21H248.004V163.159H251.942V164.097H248.004V167.062H252.283V168H246.947ZM254.119 168V159.273H257.068C257.75 159.273 258.31 159.389 258.747 159.622C259.185 159.852 259.509 160.169 259.719 160.572C259.929 160.976 260.034 161.435 260.034 161.949C260.034 162.463 259.929 162.919 259.719 163.317C259.509 163.714 259.186 164.027 258.751 164.254C258.317 164.479 257.761 164.591 257.085 164.591H254.699V163.636H257.051C257.517 163.636 257.892 163.568 258.176 163.432C258.463 163.295 258.67 163.102 258.798 162.852C258.929 162.599 258.994 162.298 258.994 161.949C258.994 161.599 258.929 161.294 258.798 161.033C258.668 160.771 258.459 160.57 258.172 160.428C257.885 160.283 257.506 160.21 257.034 160.21H255.176V168H254.119ZM258.227 164.08L260.375 168H259.148L257.034 164.08H258.227ZM261.795 168V159.273H267.062V160.21H262.852V163.159H266.789V164.097H262.852V167.062H267.13V168H261.795ZM275.887 159.273V168H274.865L270.109 161.148H270.024V168H268.967V159.273H269.99L274.762 166.142H274.848V159.273H275.887ZM285.025 162H283.968C283.906 161.696 283.796 161.429 283.64 161.199C283.487 160.969 283.299 160.776 283.077 160.619C282.859 160.46 282.616 160.341 282.349 160.261C282.082 160.182 281.803 160.142 281.513 160.142C280.985 160.142 280.506 160.276 280.077 160.543C279.651 160.81 279.312 161.203 279.059 161.723C278.809 162.243 278.684 162.881 278.684 163.636C278.684 164.392 278.809 165.03 279.059 165.55C279.312 166.07 279.651 166.463 280.077 166.73C280.506 166.997 280.985 167.131 281.513 167.131C281.803 167.131 282.082 167.091 282.349 167.011C282.616 166.932 282.859 166.814 283.077 166.658C283.299 166.499 283.487 166.304 283.64 166.074C283.796 165.841 283.906 165.574 283.968 165.273H285.025C284.945 165.719 284.8 166.118 284.59 166.47C284.38 166.822 284.119 167.122 283.806 167.369C283.494 167.614 283.143 167.8 282.754 167.928C282.367 168.055 281.954 168.119 281.513 168.119C280.769 168.119 280.107 167.938 279.528 167.574C278.948 167.21 278.492 166.693 278.16 166.023C277.827 165.352 277.661 164.557 277.661 163.636C277.661 162.716 277.827 161.92 278.16 161.25C278.492 160.58 278.948 160.062 279.528 159.699C280.107 159.335 280.769 159.153 281.513 159.153C281.954 159.153 282.367 159.217 282.754 159.345C283.143 159.473 283.494 159.661 283.806 159.908C284.119 160.152 284.38 160.45 284.59 160.803C284.8 161.152 284.945 161.551 285.025 162ZM286.733 168V159.273H292V160.21H287.789V163.159H291.727V164.097H287.789V167.062H292.068V168H286.733ZM294.501 168.068C294.291 168.068 294.11 167.993 293.96 167.842C293.809 167.692 293.734 167.511 293.734 167.301C293.734 167.091 293.809 166.911 293.96 166.76C294.11 166.609 294.291 166.534 294.501 166.534C294.711 166.534 294.892 166.609 295.042 166.76C295.193 166.911 295.268 167.091 295.268 167.301C295.268 167.44 295.233 167.568 295.162 167.685C295.093 167.801 295.001 167.895 294.885 167.966C294.771 168.034 294.643 168.068 294.501 168.068Z" fill="#1D0303"/>
<path d="M52.0568 570.273H53.3182L56.2841 577.517H56.3864L59.3523 570.273H60.6136V579H59.625V572.369H59.5398L56.8125 579H55.858L53.1307 572.369H53.0455V579H52.0568V570.273ZM62.7326 579V570.273H67.9996V571.21H63.7894V574.159H67.7269V575.097H63.7894V578.062H68.0678V579H62.7326ZM69.4272 571.21V570.273H75.9727V571.21H73.2283V579H72.1715V571.21H69.4272ZM77.6037 579V570.273H78.6605V574.159H83.3139V570.273H84.3707V579H83.3139V575.097H78.6605V579H77.6037ZM93.8501 574.636C93.8501 575.557 93.6839 576.352 93.3516 577.023C93.0192 577.693 92.5632 578.21 91.9837 578.574C91.4041 578.938 90.7422 579.119 89.9979 579.119C89.2536 579.119 88.5916 578.938 88.0121 578.574C87.4325 578.21 86.9766 577.693 86.6442 577.023C86.3118 576.352 86.1456 575.557 86.1456 574.636C86.1456 573.716 86.3118 572.92 86.6442 572.25C86.9766 571.58 87.4325 571.062 88.0121 570.699C88.5916 570.335 89.2536 570.153 89.9979 570.153C90.7422 570.153 91.4041 570.335 91.9837 570.699C92.5632 571.062 93.0192 571.58 93.3516 572.25C93.6839 572.92 93.8501 573.716 93.8501 574.636ZM92.8274 574.636C92.8274 573.881 92.701 573.243 92.4482 572.723C92.1982 572.203 91.8587 571.81 91.4297 571.543C91.0036 571.276 90.5263 571.142 89.9979 571.142C89.4695 571.142 88.9908 571.276 88.5618 571.543C88.1357 571.81 87.7962 572.203 87.5433 572.723C87.2933 573.243 87.1683 573.881 87.1683 574.636C87.1683 575.392 87.2933 576.03 87.5433 576.55C87.7962 577.07 88.1357 577.463 88.5618 577.73C88.9908 577.997 89.4695 578.131 89.9979 578.131C90.5263 578.131 91.0036 577.997 91.4297 577.73C91.8587 577.463 92.1982 577.07 92.4482 576.55C92.701 576.03 92.8274 575.392 92.8274 574.636ZM98.3203 579H95.6271V570.273H98.4396C99.2862 570.273 100.011 570.447 100.613 570.797C101.215 571.143 101.677 571.642 101.998 572.293C102.319 572.94 102.479 573.716 102.479 574.619C102.479 575.528 102.317 576.311 101.994 576.967C101.67 577.621 101.198 578.124 100.579 578.476C99.9595 578.825 99.2067 579 98.3203 579ZM96.6839 578.062H98.2521C98.9737 578.062 99.5717 577.923 100.046 577.645C100.521 577.366 100.874 576.97 101.107 576.456C101.34 575.942 101.457 575.33 101.457 574.619C101.457 573.915 101.342 573.308 101.112 572.8C100.881 572.288 100.538 571.896 100.08 571.624C99.6229 571.348 99.0533 571.21 98.3714 571.21H96.6839V578.062ZM109.025 572.455C108.974 572.023 108.766 571.688 108.403 571.449C108.039 571.21 107.593 571.091 107.065 571.091C106.678 571.091 106.34 571.153 106.05 571.278C105.763 571.403 105.539 571.575 105.377 571.794C105.218 572.013 105.138 572.261 105.138 572.54C105.138 572.773 105.194 572.973 105.305 573.141C105.418 573.305 105.563 573.443 105.739 573.554C105.915 573.662 106.1 573.751 106.293 573.822C106.487 573.891 106.664 573.946 106.826 573.989L107.712 574.227C107.94 574.287 108.192 574.369 108.471 574.474C108.752 574.58 109.021 574.723 109.276 574.905C109.535 575.084 109.748 575.314 109.915 575.595C110.083 575.876 110.167 576.222 110.167 576.631C110.167 577.102 110.043 577.528 109.796 577.909C109.552 578.29 109.194 578.592 108.722 578.817C108.254 579.041 107.684 579.153 107.013 579.153C106.388 579.153 105.847 579.053 105.39 578.851C104.935 578.649 104.577 578.368 104.316 578.007C104.058 577.646 103.911 577.227 103.877 576.75H104.968C104.996 577.08 105.107 577.352 105.3 577.568C105.496 577.781 105.744 577.94 106.042 578.045C106.343 578.148 106.667 578.199 107.013 578.199C107.417 578.199 107.779 578.134 108.1 578.003C108.421 577.869 108.675 577.685 108.863 577.449C109.05 577.21 109.144 576.932 109.144 576.614C109.144 576.324 109.063 576.088 108.901 575.906C108.739 575.724 108.526 575.577 108.262 575.463C107.998 575.349 107.712 575.25 107.406 575.165L106.332 574.858C105.65 574.662 105.11 574.382 104.712 574.018C104.315 573.655 104.116 573.179 104.116 572.591C104.116 572.102 104.248 571.676 104.512 571.312C104.779 570.946 105.137 570.662 105.586 570.46C106.038 570.256 106.542 570.153 107.099 570.153C107.661 570.153 108.161 570.254 108.599 570.456C109.036 570.655 109.383 570.928 109.638 571.274C109.897 571.621 110.033 572.014 110.048 572.455H109.025ZM112.501 577.884C112.291 577.884 112.11 577.808 111.96 577.658C111.809 577.507 111.734 577.327 111.734 577.116C111.734 576.906 111.809 576.726 111.96 576.575C112.11 576.425 112.291 576.349 112.501 576.349C112.711 576.349 112.892 576.425 113.042 576.575C113.193 576.726 113.268 576.906 113.268 577.116C113.268 577.256 113.233 577.384 113.162 577.5C113.093 577.616 113.001 577.71 112.885 577.781C112.771 577.849 112.643 577.884 112.501 577.884ZM112.501 573.469C112.291 573.469 112.11 573.393 111.96 573.243C111.809 573.092 111.734 572.912 111.734 572.702C111.734 572.491 111.809 572.311 111.96 572.161C112.11 572.01 112.291 571.935 112.501 571.935C112.711 571.935 112.892 572.01 113.042 572.161C113.193 572.311 113.268 572.491 113.268 572.702C113.268 572.841 113.233 572.969 113.162 573.085C113.093 573.202 113.001 573.295 112.885 573.366C112.771 573.435 112.643 573.469 112.501 573.469Z" fill="black"/>
<path d="M387 64.6135C383.512 66.2348 379.627 66.7254 375.861 66.0199C372.095 65.3144 368.628 63.4462 365.921 60.6643C363.215 57.8824 361.397 54.3189 360.71 50.4485C360.024 46.5781 360.501 42.5846 362.079 39C359.302 40.2897 356.871 42.2524 354.995 44.7197C353.119 47.1871 351.853 50.0855 351.306 53.1663C350.759 56.247 350.947 59.4181 351.855 62.4076C352.763 65.397 354.362 68.1155 356.517 70.3299C358.671 72.5443 361.316 74.1884 364.225 75.1212C367.134 76.054 370.219 76.2477 373.217 75.6856C376.214 75.1235 379.034 73.8224 381.435 71.8939C383.836 69.9654 385.745 67.4672 387 64.6135Z" fill="black"/>
<rect x="1.5" y="1.5" width="417" height="697" rx="18.5" stroke="black" stroke-width="3"/>
<defs>
<filter id="filter0_d_3_4" x="206" y="218" width="187" height="68" filterUnits="userSpaceOnUse" color-interpolation-filters="sRGB">
<feFlood flood-opacity="0" result="BackgroundImageFix"/>
<feColorMatrix in="SourceAlpha" type="matrix" values="0 0 0 0 0 0 0 0 0 0 0 0 0 0 0 0 0 0 127 0" result="hardAlpha"/>
<feOffset dy="4"/>
<feGaussianBlur stdDeviation="2"/>
<feComposite in2="hardAlpha" operator="out"/>
<feColorMatrix type="matrix" values="0 0 0 0 0 0 0 0 0 0 0 0 0 0 0 0 0 0 0.25 0"/>
<feBlend mode="normal" in2="BackgroundImageFix" result="effect1_dropShadow_3_4"/>
<feBlend mode="normal" in="SourceGraphic" in2="effect1_dropShadow_3_4" result="shape"/>
</filter>
</defs>
</svg>
