<svg width="31" height="46" viewBox="0 0 31 46" fill="none" xmlns="http://www.w3.org/2000/svg">
<path d="M1.50746 23.4569C1.31539 17.5751 4.28176 12.1115 9.30443 8.03621C14.2214 4.04674 21.0886 1.40949 28.791 1.05778L28.831 2.28275L28.9848 6.99502L29.4925 22.5431L30.0002 38.0911L30.1541 42.8034L30.1941 44.0284C22.4852 44.1799 15.4606 41.9963 10.2938 38.3361C5.01599 34.5972 1.69952 29.3387 1.50746 23.4569Z" fill="#E9BA12" stroke="black"/>
<path fill-rule="evenodd" clip-rule="evenodd" d="M8.70643 12.1355C8.96922 11.7723 9.3452 11.5518 9.75171 11.5225C10.1582 11.4931 10.562 11.6574 10.8742 11.9791L19.1984 20.5598C19.5105 20.8816 19.7055 21.3345 19.7404 21.8189C19.7754 22.3033 19.6474 22.7795 19.3848 23.1428L12.3785 32.8295C12.2497 33.0142 12.0906 33.1656 11.9104 33.2748C11.7303 33.3841 11.5328 33.449 11.3294 33.4658C11.126 33.4826 10.9207 33.4509 10.7257 33.3726C10.5307 33.2944 10.3497 33.1711 10.1934 33.01C10.0371 32.8488 9.90855 32.6531 9.81527 32.4341C9.72199 32.2152 9.66584 31.9775 9.65011 31.7348C9.63438 31.4921 9.65937 31.2493 9.72364 31.0207C9.7879 30.792 9.89015 30.582 10.0244 30.4029L16.04 22.0859L8.8928 14.7185C8.58068 14.3967 8.38571 13.9438 8.35076 13.4594C8.31581 12.975 8.44375 12.4988 8.70643 12.1355ZM17.9047 11.4719C18.1675 11.1087 18.5435 10.8881 18.95 10.8588C19.3565 10.8295 19.7603 10.9937 20.0725 11.3155L28.3967 19.8961C28.7088 20.218 28.9038 20.6709 28.9387 21.1553C28.9737 21.6396 28.8457 22.1158 28.5831 22.4791L21.5768 32.1659C21.3117 32.5195 20.9377 32.7316 20.5354 32.7564C20.1332 32.7813 19.7348 32.6169 19.4261 32.2987C19.1175 31.9805 18.9232 31.534 18.8851 31.0553C18.8471 30.5765 18.9683 30.104 19.2227 29.7393L25.2383 21.4222L18.0911 14.0549C17.779 13.733 17.584 13.2801 17.5491 12.7958C17.5141 12.3114 17.642 11.8352 17.9047 11.4719Z" fill="black"/>
</svg>
