<svg width="63" height="65" viewBox="0 0 63 65" fill="none" xmlns="http://www.w3.org/2000/svg">
<ellipse cx="31.5" cy="32.5" rx="31.5" ry="32.5" fill="#FEE0E0"/>
<path d="M62.5 32.5C62.5 50.188 48.6062 64.5 31.5 64.5C14.3938 64.5 0.5 50.188 0.5 32.5C0.5 14.812 14.3938 0.5 31.5 0.5C48.6062 0.5 62.5 14.812 62.5 32.5Z" stroke="#F9A2B3" stroke-opacity="0.8"/>
<g filter="url(#filter0_b_2_102)">
<path d="M32.9973 44.3196C31.7757 44.3149 30.7246 44.0142 29.8439 43.4176C28.968 42.821 28.2933 41.9569 27.8198 40.8253C27.351 39.6937 27.119 38.3324 27.1238 36.7415C27.1238 35.1553 27.3581 33.8035 27.8269 32.6861C28.3004 31.5687 28.9751 30.7187 29.851 30.1364C30.7317 29.5492 31.7805 29.2557 32.9973 29.2557C34.2142 29.2557 35.2606 29.5492 36.1365 30.1364C37.0172 30.7235 37.6943 31.5758 38.1678 32.6932C38.6413 33.8059 38.8757 35.1553 38.8709 36.7415C38.8709 38.3371 38.6342 39.7008 38.1607 40.8324C37.6919 41.964 37.0196 42.8281 36.1436 43.4247C35.2677 44.0213 34.2189 44.3196 32.9973 44.3196ZM32.9973 41.7699C33.8307 41.7699 34.4959 41.3509 34.9931 40.5128C35.4902 39.6747 35.7364 38.4176 35.7317 36.7415C35.7317 35.6383 35.6181 34.7197 35.3908 33.9858C35.1683 33.2519 34.851 32.7003 34.4391 32.331C34.0319 31.9616 33.5513 31.777 32.9973 31.777C32.1687 31.777 31.5059 32.1913 31.0087 33.0199C30.5115 33.8485 30.2606 35.089 30.2559 36.7415C30.2559 37.8589 30.3671 38.7917 30.5897 39.5398C30.8169 40.2831 31.1365 40.8419 31.5485 41.2159C31.9604 41.5852 32.4434 41.7699 32.9973 41.7699Z" fill="black" fill-opacity="0.25"/>
<path d="M32.9973 44.3196L32.9935 45.3196H32.9973V44.3196ZM29.8439 43.4176L29.281 44.2441L29.2831 44.2455L29.8439 43.4176ZM27.8198 40.8253L26.8959 41.208L26.8973 41.2113L27.8198 40.8253ZM27.1238 36.7415L28.1238 36.7445V36.7415H27.1238ZM27.8269 32.6861L26.9061 32.2959L26.9047 32.2992L27.8269 32.6861ZM29.851 30.1364L30.4047 30.9691L30.4057 30.9684L29.851 30.1364ZM36.1365 30.1364L35.5798 30.967L35.5818 30.9684L36.1365 30.1364ZM38.1678 32.6932L37.247 33.0833L37.2476 33.0847L38.1678 32.6932ZM38.8709 36.7415L37.8709 36.7385V36.7415H38.8709ZM38.1607 40.8324L37.2382 40.4464L37.2368 40.4497L38.1607 40.8324ZM36.1436 43.4247L36.7066 44.2512L36.7066 44.2512L36.1436 43.4247ZM34.9931 40.5128L35.8531 41.023L35.8531 41.023L34.9931 40.5128ZM35.7317 36.7415L34.7317 36.7415L34.7317 36.7443L35.7317 36.7415ZM35.3908 33.9858L34.4338 34.276L34.4356 34.2816L35.3908 33.9858ZM34.4391 32.331L33.7673 33.0717L33.7716 33.0755L34.4391 32.331ZM31.0087 33.0199L30.1512 32.5054L30.1512 32.5054L31.0087 33.0199ZM30.2559 36.7415L29.2559 36.7386V36.7415H30.2559ZM30.5897 39.5398L29.6311 39.8249L29.6334 39.8321L30.5897 39.5398ZM31.5485 41.2159L30.8762 41.9562L30.8809 41.9605L31.5485 41.2159ZM33.0012 43.3196C31.9479 43.3155 31.0976 43.059 30.4048 42.5897L29.2831 44.2455C30.3517 44.9694 31.6036 45.3142 32.9935 45.3196L33.0012 43.3196ZM30.4068 42.5911C29.7148 42.1198 29.1531 41.4212 28.7423 40.4393L26.8973 41.2113C27.4334 42.4927 28.2211 43.5223 29.281 44.2441L30.4068 42.5911ZM28.7437 40.4426C28.3382 39.4638 28.1193 38.2408 28.1238 36.7445L26.1238 36.7385C26.1187 38.424 26.3638 39.9235 26.8959 41.208L28.7437 40.4426ZM28.1238 36.7415C28.1238 35.2491 28.3449 34.0363 28.749 33.0729L26.9047 32.2992C26.3714 33.5707 26.1238 35.0615 26.1238 36.7415H28.1238ZM28.7476 33.0762C29.1568 32.1107 29.7157 31.4272 30.4047 30.9691L29.2974 29.3036C28.2344 30.0103 27.444 31.0267 26.9061 32.2959L28.7476 33.0762ZM30.4057 30.9684C31.0986 30.5065 31.9475 30.2557 32.9973 30.2557V28.2557C31.6134 28.2557 30.3649 28.592 29.2963 29.3043L30.4057 30.9684ZM32.9973 30.2557C34.0473 30.2557 34.8928 30.5066 35.5798 30.967L36.6933 29.3057C35.6284 28.5919 34.3811 28.2557 32.9973 28.2557V30.2557ZM35.5818 30.9684C36.2771 31.4319 36.8383 32.1187 37.247 33.0833L39.0885 32.303C38.5503 31.0328 37.7574 30.0151 36.6912 29.3043L35.5818 30.9684ZM37.2476 33.0847C37.6543 34.0403 37.8754 35.2476 37.8709 36.7385L39.8709 36.7445C39.8759 35.063 39.6283 33.5714 39.0879 32.3016L37.2476 33.0847ZM37.8709 36.7415C37.8709 38.2426 37.6476 39.4678 37.2382 40.4464L39.0832 41.2184C39.6207 39.9337 39.8709 38.4316 39.8709 36.7415H37.8709ZM37.2368 40.4497C36.8307 41.4301 36.2718 42.1275 35.5807 42.5982L36.7066 44.2512C37.7674 43.5287 38.5532 42.4979 39.0846 41.2151L37.2368 40.4497ZM35.5807 42.5982C34.895 43.0652 34.0497 43.3196 32.9973 43.3196V45.3196C34.3882 45.3196 35.6403 44.9774 36.7066 44.2512L35.5807 42.5982ZM32.9973 42.7699C34.2492 42.7699 35.212 42.1038 35.8531 41.023L34.133 40.0026C33.7799 40.5979 33.4121 40.7699 32.9973 40.7699V42.7699ZM35.8531 41.023C36.487 39.9545 36.7366 38.4813 36.7317 36.7387L34.7317 36.7443C34.7363 38.354 34.4935 39.3949 34.133 40.0026L35.8531 41.023ZM36.7317 36.7415C36.7317 35.5777 36.6128 34.5514 36.346 33.69L34.4356 34.2816C34.6233 34.888 34.7317 35.6988 34.7317 36.7415H36.7317ZM36.3478 33.6956C36.0918 32.8514 35.6976 32.1163 35.1066 31.5864L33.7716 33.0755C34.0044 33.2843 34.2447 33.6524 34.4338 34.276L36.3478 33.6956ZM35.1109 31.5902C34.5182 31.0526 33.7976 30.777 32.9973 30.777V32.777C33.3051 32.777 33.5456 32.8706 33.7673 33.0717L35.1109 31.5902ZM32.9973 30.777C31.7535 30.777 30.7936 31.4348 30.1512 32.5054L31.8662 33.5344C32.2182 32.9478 32.5839 32.777 32.9973 32.777V30.777ZM30.1512 32.5054C29.5168 33.5628 29.2608 35.0185 29.2559 36.7386L31.2559 36.7443C31.2604 35.1596 31.5063 34.1342 31.8662 33.5344L30.1512 32.5054ZM29.2559 36.7415C29.2559 37.9175 29.3721 38.9538 29.6312 39.8249L31.5482 39.2547C31.3622 38.6295 31.2559 37.8003 31.2559 36.7415H29.2559ZM29.6334 39.8321C29.8933 40.6825 30.2883 41.4223 30.8762 41.9562L32.2207 40.4756C31.9848 40.2614 31.7405 39.8838 31.546 39.2474L29.6334 39.8321ZM30.8809 41.9605C31.4766 42.4945 32.1973 42.7699 32.9973 42.7699V40.7699C32.6894 40.7699 32.4442 40.6759 32.216 40.4713L30.8809 41.9605Z" fill="#F9A2B3" fill-opacity="0.8"/>
</g>
<defs>
<filter id="filter0_b_2_102" x="23.1167" y="25.2557" width="19.7614" height="23.0639" filterUnits="userSpaceOnUse" color-interpolation-filters="sRGB">
<feFlood flood-opacity="0" result="BackgroundImageFix"/>
<feGaussianBlur in="BackgroundImage" stdDeviation="2"/>
<feComposite in2="SourceAlpha" operator="in" result="effect1_backgroundBlur_2_102"/>
<feBlend mode="normal" in="SourceGraphic" in2="effect1_backgroundBlur_2_102" result="shape"/>
</filter>
</defs>
</svg>
