<svg width="63" height="66" viewBox="0 0 63 66" fill="none" xmlns="http://www.w3.org/2000/svg">
<path d="M62.5 33C62.5 50.9714 48.5992 65.5 31.5 65.5C14.4008 65.5 0.5 50.9714 0.5 33C0.5 15.0286 14.4008 0.5 31.5 0.5C48.5992 0.5 62.5 15.0286 62.5 33Z" fill="#FEE0E0" stroke="#DF3397"/>
<g filter="url(#filter0_b_2_89)">
<path d="M33.6145 27.4545V42H30.5392V30.3736H30.454L27.123 32.4616V29.7344L30.7239 27.4545H33.6145Z" fill="black" fill-opacity="0.25"/>
<path d="M33.6145 27.4545H34.6145V26.4545H33.6145V27.4545ZM33.6145 42V43H34.6145V42H33.6145ZM30.5392 42H29.5392V43H30.5392V42ZM30.5392 30.3736H31.5392V29.3736H30.5392V30.3736ZM30.454 30.3736V29.3736H30.1665L29.9229 29.5263L30.454 30.3736ZM27.123 32.4616H26.123V34.2688L27.6542 33.3089L27.123 32.4616ZM27.123 29.7344L26.5881 28.8895L26.123 29.1839V29.7344H27.123ZM30.7239 27.4545V26.4545H30.4339L30.189 26.6097L30.7239 27.4545ZM32.6145 27.4545V42H34.6145V27.4545H32.6145ZM33.6145 41H30.5392V43H33.6145V41ZM31.5392 42V30.3736H29.5392V42H31.5392ZM30.5392 29.3736H30.454V31.3736H30.5392V29.3736ZM29.9229 29.5263L26.5919 31.6144L27.6542 33.3089L30.9851 31.2209L29.9229 29.5263ZM28.123 32.4616V29.7344H26.123V32.4616H28.123ZM27.658 30.5793L31.2588 28.2994L30.189 26.6097L26.5881 28.8895L27.658 30.5793ZM30.7239 28.4545H33.6145V26.4545H30.7239V28.4545Z" fill="#DF3397"/>
</g>
<defs>
<filter id="filter0_b_2_89" x="23.123" y="23.4545" width="14.4915" height="22.5455" filterUnits="userSpaceOnUse" color-interpolation-filters="sRGB">
<feFlood flood-opacity="0" result="BackgroundImageFix"/>
<feGaussianBlur in="BackgroundImage" stdDeviation="2"/>
<feComposite in2="SourceAlpha" operator="in" result="effect1_backgroundBlur_2_89"/>
<feBlend mode="normal" in="SourceGraphic" in2="effect1_backgroundBlur_2_89" result="shape"/>
</filter>
</defs>
</svg>
