<svg width="63" height="66" viewBox="0 0 63 66" fill="none" xmlns="http://www.w3.org/2000/svg">
<ellipse cx="31.5" cy="33" rx="31.5" ry="33" fill="#FEE0E0"/>
<path d="M62.5 33C62.5 50.9714 48.5992 65.5 31.5 65.5C14.4008 65.5 0.5 50.9714 0.5 33C0.5 15.0286 14.4008 0.5 31.5 0.5C48.5992 0.5 62.5 15.0286 62.5 33Z" stroke="#F9A2B3" stroke-opacity="0.8"/>
<g filter="url(#filter0_b_2_90)">
<path d="M29.8801 43V40.7841L35.0577 35.9901C35.498 35.5639 35.8674 35.1804 36.1657 34.8395C36.4687 34.4986 36.6983 34.1648 36.8546 33.8381C37.0108 33.5066 37.089 33.1491 37.089 32.7656C37.089 32.3395 36.9919 31.9725 36.7978 31.6648C36.6036 31.3523 36.3385 31.1132 36.0023 30.9474C35.6661 30.777 35.285 30.6918 34.8588 30.6918C34.4138 30.6918 34.0255 30.7817 33.6941 30.9616C33.3626 31.1416 33.1069 31.3996 32.927 31.7358C32.7471 32.072 32.6571 32.4721 32.6571 32.9361H29.7381C29.7381 31.9844 29.9535 31.1581 30.3844 30.4574C30.8153 29.7566 31.419 29.2145 32.1955 28.831C32.972 28.4474 33.8669 28.2557 34.8801 28.2557C35.9218 28.2557 36.8285 28.4403 37.6003 28.8097C38.3768 29.1742 38.9805 29.6809 39.4114 30.3295C39.8423 30.9782 40.0577 31.7216 40.0577 32.5597C40.0577 33.1089 39.9488 33.651 39.731 34.1861C39.5179 34.7211 39.1368 35.3153 38.5875 35.9688C38.0383 36.6174 37.2641 37.3963 36.2651 38.3054L34.1415 40.3864V40.4858H40.2495V43H29.8801Z" fill="black" fill-opacity="0.25"/>
<path d="M29.8801 43H28.8801V44H29.8801V43ZM29.8801 40.7841L29.2007 40.0503L28.8801 40.3472V40.7841H29.8801ZM35.0577 35.9901L35.7371 36.7238L35.7452 36.7163L35.7531 36.7087L35.0577 35.9901ZM36.1657 34.8395L35.4182 34.1751L35.4131 34.181L36.1657 34.8395ZM36.8546 33.8381L37.7567 34.2695L37.7591 34.2645L36.8546 33.8381ZM36.7978 31.6648L35.9483 32.1925L35.952 32.1983L36.7978 31.6648ZM36.0023 30.9474L35.55 31.8394L35.5602 31.8444L36.0023 30.9474ZM32.927 31.7358L33.8087 32.2077L33.8087 32.2077L32.927 31.7358ZM32.6571 32.9361V33.9361H33.6571V32.9361H32.6571ZM29.7381 32.9361H28.7381V33.9361H29.7381V32.9361ZM30.3844 30.4574L31.2363 30.9812L31.2363 30.9812L30.3844 30.4574ZM32.1955 28.831L31.7527 27.9344L31.7527 27.9344L32.1955 28.831ZM37.6003 28.8097L37.1687 29.7117L37.1753 29.7149L37.6003 28.8097ZM39.4114 30.3295L38.5784 30.8828L38.5784 30.8828L39.4114 30.3295ZM39.731 34.1861L38.8048 33.809L38.802 33.8161L39.731 34.1861ZM38.5875 35.9688L39.3507 36.6149L39.353 36.6122L38.5875 35.9688ZM36.2651 38.3054L35.5921 37.5658L35.5784 37.5782L35.5652 37.5912L36.2651 38.3054ZM34.1415 40.3864L33.4416 39.6721L33.1415 39.9662V40.3864H34.1415ZM34.1415 40.4858H33.1415V41.4858H34.1415V40.4858ZM40.2495 40.4858H41.2495V39.4858H40.2495V40.4858ZM40.2495 43V44H41.2495V43H40.2495ZM30.8801 43V40.7841H28.8801V43H30.8801ZM30.5596 41.5179L35.7371 36.7238L34.3783 35.2563L29.2007 40.0503L30.5596 41.5179ZM35.7531 36.7087C36.2069 36.2695 36.5967 35.8655 36.9182 35.498L35.4131 34.181C35.1381 34.4953 34.7892 34.8583 34.3623 35.2715L35.7531 36.7087ZM36.9131 35.5039C37.263 35.1102 37.5512 34.6993 37.7567 34.2695L35.9524 33.4066C35.8455 33.6303 35.6744 33.887 35.4183 34.1751L36.9131 35.5039ZM37.7591 34.2645C37.9812 33.7934 38.089 33.2895 38.089 32.7656H36.089C36.089 33.0088 36.0405 33.2198 35.9501 33.4116L37.7591 34.2645ZM38.089 32.7656C38.089 32.1835 37.9546 31.6244 37.6436 31.1313L35.952 32.1983C36.0292 32.3207 36.089 32.4955 36.089 32.7656H38.089ZM37.6472 31.1371C37.3525 30.6628 36.9449 30.2972 36.4445 30.0505L35.5602 31.8444C35.7321 31.9291 35.8547 32.0418 35.9483 32.1925L37.6472 31.1371ZM36.4545 30.0555C35.9608 29.8052 35.4214 29.6918 34.8588 29.6918V31.6918C35.1485 31.6918 35.3714 31.7488 35.5501 31.8393L36.4545 30.0555ZM34.8588 29.6918C34.2772 29.6918 33.7192 29.8102 33.217 30.0828L34.1712 31.8405C34.3318 31.7533 34.5504 31.6918 34.8588 31.6918V29.6918ZM33.217 30.0828C32.7118 30.357 32.3164 30.7575 32.0454 31.2639L33.8087 32.2077C33.8975 32.0417 34.0135 31.9261 34.1712 31.8405L33.217 30.0828ZM32.0454 31.2639C31.7726 31.7735 31.6571 32.3428 31.6571 32.9361H33.6571C33.6571 32.6013 33.7216 32.3704 33.8087 32.2077L32.0454 31.2639ZM32.6571 31.9361H29.7381V33.9361H32.6571V31.9361ZM30.7381 32.9361C30.7381 32.1398 30.9166 31.501 31.2363 30.9812L29.5326 29.9336C28.9904 30.8153 28.7381 31.829 28.7381 32.9361H30.7381ZM31.2363 30.9812C31.5633 30.4493 32.0212 30.0324 32.6383 29.7276L31.7527 27.9344C30.8168 28.3966 30.0673 29.0639 29.5326 29.9336L31.2363 30.9812ZM32.6383 29.7276C33.2556 29.4227 33.9945 29.2557 34.8801 29.2557V27.2557C33.7393 27.2557 32.6885 27.4722 31.7527 27.9344L32.6383 29.7276ZM34.8801 29.2557C35.8043 29.2557 36.5577 29.4194 37.1687 29.7117L38.032 27.9076C37.0993 27.4613 36.0393 27.2557 34.8801 27.2557V29.2557ZM37.1753 29.7149C37.8036 30.0098 38.2589 30.4018 38.5784 30.8828L40.2444 29.7762C39.7022 28.9599 38.9501 28.3387 38.0253 27.9045L37.1753 29.7149ZM38.5784 30.8828C38.892 31.3549 39.0577 31.9027 39.0577 32.5597H41.0577C41.0577 31.5404 40.7926 30.6015 40.2444 29.7762L38.5784 30.8828ZM39.0577 32.5597C39.0577 32.973 38.9764 33.3874 38.8048 33.809L40.6572 34.5631C40.9212 33.9146 41.0577 33.2448 41.0577 32.5597H39.0577ZM38.802 33.8161C38.6426 34.2163 38.3324 34.7182 37.822 35.3253L39.353 36.6122C39.9412 35.9125 40.3933 35.2259 40.66 34.5561L38.802 33.8161ZM37.8244 35.3226C37.3144 35.9248 36.5754 36.671 35.5921 37.5658L36.9381 39.045C37.9529 38.1216 38.7621 37.3101 39.3507 36.6149L37.8244 35.3226ZM35.5652 37.5912L33.4416 39.6721L34.8414 41.1006L36.965 39.0196L35.5652 37.5912ZM33.1415 40.3864V40.4858H35.1415V40.3864H33.1415ZM34.1415 41.4858H40.2495V39.4858H34.1415V41.4858ZM39.2495 40.4858V43H41.2495V40.4858H39.2495ZM40.2495 42H29.8801V44H40.2495V42Z" fill="#F9A2B3" fill-opacity="0.8"/>
</g>
<defs>
<filter id="filter0_b_2_90" x="25.7381" y="24.2557" width="18.5114" height="22.7443" filterUnits="userSpaceOnUse" color-interpolation-filters="sRGB">
<feFlood flood-opacity="0" result="BackgroundImageFix"/>
<feGaussianBlur in="BackgroundImage" stdDeviation="2"/>
<feComposite in2="SourceAlpha" operator="in" result="effect1_backgroundBlur_2_90"/>
<feBlend mode="normal" in="SourceGraphic" in2="effect1_backgroundBlur_2_90" result="shape"/>
</filter>
</defs>
</svg>
