<svg width="63" height="66" viewBox="0 0 63 66" fill="none" xmlns="http://www.w3.org/2000/svg">
<path d="M62.5 33C62.5 50.9714 48.5992 65.5 31.5 65.5C14.4008 65.5 0.5 50.9714 0.5 33C0.5 15.0286 14.4008 0.5 31.5 0.5C48.5992 0.5 62.5 15.0286 62.5 33Z" fill="#FEE0E0" stroke="#DF3397"/>
<g filter="url(#filter0_b_2_91)">
<path d="M32.9636 43.1989C31.903 43.1989 30.9584 43.0166 30.1298 42.652C29.3059 42.2827 28.6549 41.776 28.1767 41.1321C27.7032 40.4834 27.4593 39.7353 27.4451 38.8878H30.5417C30.5607 39.2429 30.6767 39.5554 30.8897 39.8253C31.1075 40.0904 31.3964 40.2964 31.7562 40.4432C32.1161 40.59 32.5209 40.6634 32.9707 40.6634C33.4395 40.6634 33.8538 40.5805 34.2136 40.4148C34.5734 40.2491 34.8552 40.0194 35.0588 39.7259C35.2624 39.4323 35.3642 39.0937 35.3642 38.7102C35.3642 38.322 35.2553 37.9787 35.0375 37.6804C34.8244 37.3774 34.5166 37.1406 34.1142 36.9702C33.7164 36.7997 33.243 36.7145 32.6937 36.7145H31.3372V34.456H32.6937C33.1577 34.456 33.5673 34.3755 33.9224 34.2145C34.2823 34.0535 34.5616 33.831 34.7605 33.5469C34.9593 33.258 35.0588 32.9219 35.0588 32.5384C35.0588 32.1738 34.9712 31.8542 34.796 31.5795C34.6255 31.3002 34.3841 31.0824 34.0716 30.9261C33.7638 30.7699 33.4039 30.6918 32.992 30.6918C32.5753 30.6918 32.1942 30.7675 31.8485 30.919C31.5029 31.0658 31.2259 31.2765 31.0176 31.5511C30.8092 31.8258 30.698 32.1477 30.6838 32.517H27.7363C27.7505 31.679 27.9896 30.9403 28.4537 30.3011C28.9177 29.6619 29.5427 29.1624 30.3287 28.8026C31.1194 28.438 32.0119 28.2557 33.0062 28.2557C34.01 28.2557 34.8883 28.438 35.6412 28.8026C36.394 29.1671 36.9788 29.6596 37.3954 30.2798C37.8168 30.8954 38.0252 31.5866 38.0204 32.3537C38.0252 33.1681 37.7718 33.8475 37.2605 34.392C36.7538 34.9366 36.0933 35.2822 35.2789 35.429V35.5426C36.349 35.6799 37.1634 36.0516 37.7221 36.6577C38.2856 37.259 38.5649 38.0118 38.5602 38.9162C38.5649 39.7448 38.3258 40.4811 37.8429 41.125C37.3646 41.7689 36.7041 42.2756 35.8613 42.6449C35.0185 43.0142 34.0526 43.1989 32.9636 43.1989Z" fill="black" fill-opacity="0.25"/>
<path d="M30.1298 42.652L29.7207 43.5645L29.7271 43.5673L30.1298 42.652ZM28.1767 41.1321L27.3689 41.7217L27.3738 41.7283L28.1767 41.1321ZM27.4451 38.8878V37.8878H26.4282L26.4453 38.9045L27.4451 38.8878ZM30.5417 38.8878L31.5403 38.8345L31.4898 37.8878H30.5417V38.8878ZM30.8897 39.8253L30.1049 40.4449L30.1109 40.4525L30.117 40.46L30.8897 39.8253ZM31.7562 40.4432L31.3785 41.3691L31.3785 41.3691L31.7562 40.4432ZM34.2136 40.4148L33.7953 39.5065L33.7953 39.5065L34.2136 40.4148ZM35.0588 39.7259L35.8805 40.2958L35.8805 40.2958L35.0588 39.7259ZM35.0375 37.6804L34.2194 38.2556L34.2246 38.2629L34.2298 38.2701L35.0375 37.6804ZM34.1142 36.9702L33.7202 37.8893L33.7242 37.891L34.1142 36.9702ZM31.3372 36.7145H30.3372V37.7145H31.3372V36.7145ZM31.3372 34.456V33.456H30.3372V34.456H31.3372ZM33.9224 34.2145L33.514 33.3017L33.5095 33.3037L33.9224 34.2145ZM34.7605 33.5469L35.5797 34.1204L35.5841 34.114L34.7605 33.5469ZM34.796 31.5795L33.9423 32.1004L33.9476 32.1089L33.9529 32.1174L34.796 31.5795ZM34.0716 30.9261L33.6189 31.8178L33.6243 31.8206L34.0716 30.9261ZM31.8485 30.919L32.2394 31.8395L32.25 31.8349L31.8485 30.919ZM31.0176 31.5511L31.8143 32.1555L31.8143 32.1555L31.0176 31.5511ZM30.6838 32.517V33.517H31.646L31.683 32.5555L30.6838 32.517ZM27.7363 32.517L26.7365 32.5001L26.7192 33.517H27.7363V32.517ZM28.4537 30.3011L29.2629 30.8886L29.2629 30.8886L28.4537 30.3011ZM30.3287 28.8026L30.7449 29.7118L30.7474 29.7107L30.3287 28.8026ZM35.6412 28.8026L36.077 27.9025L36.077 27.9025L35.6412 28.8026ZM37.3954 30.2798L36.5653 30.8375L36.5703 30.8447L37.3954 30.2798ZM38.0204 32.3537L37.0204 32.3475L37.0204 32.3595L38.0204 32.3537ZM37.2605 34.392L36.5315 33.7075L36.5284 33.7109L37.2605 34.392ZM35.2789 35.429L35.1016 34.4448L34.2789 34.5931V35.429H35.2789ZM35.2789 35.5426H34.2789V36.4225L35.1517 36.5345L35.2789 35.5426ZM37.7221 36.6577L36.9869 37.3355L36.9924 37.3414L37.7221 36.6577ZM38.5602 38.9162L37.5601 38.911L37.5602 38.9219L38.5602 38.9162ZM37.8429 41.125L37.0429 40.525L37.04 40.5288L37.8429 41.125ZM35.8613 42.6449L35.46 41.729L35.46 41.729L35.8613 42.6449ZM32.9636 42.1989C32.0181 42.1989 31.2143 42.0367 30.5325 41.7367L29.7271 43.5673C30.7025 43.9965 31.7879 44.1989 32.9636 44.1989V42.1989ZM30.5388 41.7395C29.8512 41.4312 29.3434 41.0259 28.9795 40.5359L27.3738 41.7283C27.9664 42.5262 28.7607 43.1341 29.7207 43.5645L30.5388 41.7395ZM28.9844 40.5425C28.6394 40.0699 28.4559 39.5245 28.445 38.871L26.4453 38.9045C26.4627 39.9461 26.7669 40.8969 27.369 41.7217L28.9844 40.5425ZM27.4451 39.8878H30.5417V37.8878H27.4451V39.8878ZM29.5431 38.941C29.5727 39.495 29.7592 40.007 30.1049 40.4449L31.6746 39.2056C31.5942 39.1038 31.5486 38.9908 31.5403 38.8345L29.5431 38.941ZM30.117 40.46C30.4536 40.8698 30.8855 41.168 31.3785 41.3691L32.1339 39.5172C31.9072 39.4248 31.7615 39.3111 31.6625 39.1905L30.117 40.46ZM31.3785 41.3691C31.8756 41.5719 32.4115 41.6634 32.9707 41.6634V39.6634C32.6302 39.6634 32.3565 39.608 32.1339 39.5172L31.3785 41.3691ZM32.9707 41.6634C33.5577 41.6634 34.119 41.5593 34.6319 41.3231L33.7953 39.5065C33.5885 39.6017 33.3212 39.6634 32.9707 39.6634V41.6634ZM34.6319 41.3231C35.1359 41.091 35.5642 40.7517 35.8805 40.2958L34.2371 39.156C34.1461 39.2871 34.011 39.4071 33.7953 39.5065L34.6319 41.3231ZM35.8805 40.2958C36.2088 39.8223 36.3642 39.2817 36.3642 38.7102H34.3642C34.3642 38.9058 34.3159 39.0423 34.2371 39.156L35.8805 40.2958ZM36.3642 38.7102C36.3642 38.1215 36.1946 37.5693 35.8451 37.0907L34.2298 38.2701C34.316 38.3881 34.3642 38.5224 34.3642 38.7102H36.3642ZM35.8555 37.1052C35.5168 36.6236 35.0474 36.2794 34.5042 36.0494L33.7242 37.891C33.9858 38.0018 34.132 38.1312 34.2194 38.2556L35.8555 37.1052ZM34.5081 36.051C33.9572 35.8149 33.3433 35.7145 32.6937 35.7145V37.7145C33.1426 37.7145 33.4757 37.7845 33.7203 37.8893L34.5081 36.051ZM32.6937 35.7145H31.3372V37.7145H32.6937V35.7145ZM32.3372 36.7145V34.456H30.3372V36.7145H32.3372ZM31.3372 35.456H32.6937V33.456H31.3372V35.456ZM32.6937 35.456C33.2735 35.456 33.8282 35.3552 34.3353 35.1253L33.5095 33.3037C33.3064 33.3958 33.042 33.456 32.6937 33.456V35.456ZM34.3308 35.1273C34.8327 34.9028 35.2635 34.572 35.5797 34.1203L33.9412 32.9734C33.8597 33.0899 33.7318 33.2042 33.514 33.3017L34.3308 35.1273ZM35.5841 34.114C35.9086 33.6427 36.0588 33.1045 36.0588 32.5384H34.0588C34.0588 32.7392 34.0101 32.8734 33.9368 32.9798L35.5841 34.114ZM36.0588 32.5384C36.0588 32.0066 35.9286 31.4957 35.6391 31.0417L33.9529 32.1174C34.0137 32.2126 34.0588 32.3409 34.0588 32.5384H36.0588ZM35.6496 31.0587C35.3748 30.6082 34.9873 30.266 34.5188 30.0317L33.6243 31.8206C33.7808 31.8988 33.8763 31.9922 33.9423 32.1004L35.6496 31.0587ZM34.5242 30.0345C34.0515 29.7945 33.5311 29.6918 32.992 29.6918V31.6918C33.2768 31.6918 33.476 31.7453 33.6189 31.8178L34.5242 30.0345ZM32.992 29.6918C32.4516 29.6918 31.9319 29.7906 31.4471 30.0032L32.25 31.8349C32.4565 31.7444 32.6991 31.6918 32.992 31.6918V29.6918ZM31.4577 29.9986C30.9663 30.2073 30.5439 30.5209 30.2209 30.9468L31.8143 32.1555C31.9079 32.0321 32.0395 31.9244 32.2394 31.8395L31.4577 29.9986ZM30.2209 30.9467C29.8795 31.3968 29.706 31.9199 29.6845 32.4786L31.683 32.5555C31.69 32.3755 31.739 32.2547 31.8143 32.1555L30.2209 30.9467ZM30.6838 31.517H27.7363V33.517H30.6838V31.517ZM28.7362 32.534C28.7471 31.8879 28.927 31.3513 29.2629 30.8886L27.6444 29.7137C27.0522 30.5294 26.7539 31.4701 26.7365 32.5001L28.7362 32.534ZM29.2629 30.8886C29.6164 30.4016 30.1003 30.0069 30.7449 29.7118L29.9124 27.8933C28.9851 28.3179 28.2189 28.9223 27.6444 29.7137L29.2629 30.8886ZM30.7474 29.7107C31.3894 29.4147 32.136 29.2557 33.0062 29.2557V27.2557C31.8878 27.2557 30.8494 27.4613 29.9099 27.8944L30.7474 29.7107ZM33.0062 29.2557C33.8889 29.2557 34.6128 29.4157 35.2053 29.7026L36.077 27.9025C35.1638 27.4603 34.1312 27.2557 33.0062 27.2557V29.2557ZM35.2053 29.7026C35.8182 29.9994 36.2588 30.3812 36.5653 30.8375L38.2255 29.7222C37.6987 28.9379 36.9698 28.3349 36.077 27.9025L35.2053 29.7026ZM36.5703 30.8447C36.8732 31.2872 37.024 31.7781 37.0204 32.3475L39.0204 32.3599C39.0264 31.3952 38.7605 30.5036 38.2206 29.7149L36.5703 30.8447ZM37.0204 32.3595C37.0238 32.9428 36.8508 33.3675 36.5315 33.7075L37.9894 35.0766C38.6929 34.3276 39.0265 33.3933 39.0204 32.3479L37.0204 32.3595ZM36.5284 33.7109C36.1856 34.0793 35.7284 34.3319 35.1016 34.4448L35.4563 36.4131C36.4583 36.2325 37.3221 35.7938 37.9926 35.0732L36.5284 33.7109ZM34.2789 35.429V35.5426H36.2789V35.429H34.2789ZM35.1517 36.5345C36.0615 36.6512 36.6312 36.9497 36.9869 37.3355L38.4574 35.9799C37.6956 35.1535 36.6365 34.7086 35.4062 34.5507L35.1517 36.5345ZM36.9924 37.3414C37.3632 37.7372 37.5637 38.2352 37.5602 38.911L39.5602 38.9214C39.5661 37.7885 39.2079 36.7808 38.4518 35.9739L36.9924 37.3414ZM37.5602 38.9219C37.5637 39.5391 37.3907 40.0612 37.0429 40.525L38.6429 41.725C39.2609 40.9009 39.5661 39.9505 39.5602 38.9105L37.5602 38.9219ZM37.04 40.5288C36.68 41.0136 36.1672 41.4191 35.46 41.729L36.2627 43.5608C37.2411 43.1321 38.0493 42.5243 38.6457 41.7212L37.04 40.5288ZM35.46 41.729C34.7647 42.0336 33.9394 42.1989 32.9636 42.1989V44.1989C34.1658 44.1989 35.2723 43.9948 36.2627 43.5608L35.46 41.729Z" fill="#DF3397"/>
</g>
<defs>
<filter id="filter0_b_2_91" x="23.4451" y="24.2557" width="19.1222" height="22.9432" filterUnits="userSpaceOnUse" color-interpolation-filters="sRGB">
<feFlood flood-opacity="0" result="BackgroundImageFix"/>
<feGaussianBlur in="BackgroundImage" stdDeviation="2"/>
<feComposite in2="SourceAlpha" operator="in" result="effect1_backgroundBlur_2_91"/>
<feBlend mode="normal" in="SourceGraphic" in2="effect1_backgroundBlur_2_91" result="shape"/>
</filter>
</defs>
</svg>
