<svg width="63" height="65" viewBox="0 0 63 65" fill="none" xmlns="http://www.w3.org/2000/svg">
<ellipse cx="31.5" cy="32.5" rx="31.5" ry="32.5" fill="#FEE0E0"/>
<path d="M62.5 32.5C62.5 50.188 48.6062 64.5 31.5 64.5C14.3938 64.5 0.5 50.188 0.5 32.5C0.5 14.812 14.3938 0.5 31.5 0.5C48.6062 0.5 62.5 14.812 62.5 32.5Z" stroke="#F9A2B3" stroke-opacity="0.8"/>
<g filter="url(#filter0_b_2_93)">
<path d="M26.1815 38.4432V36.0213L32.2539 26.4545H34.342V29.8068H33.1062L29.2781 35.8651V35.9787H37.9073V38.4432H26.1815ZM33.163 41V37.7045L33.2198 36.6321V26.4545H36.1033V41H33.163Z" fill="black" fill-opacity="0.25"/>
<path d="M26.1815 38.4432H25.1815V39.4432H26.1815V38.4432ZM26.1815 36.0213L25.3372 35.4854L25.1815 35.7307V36.0213H26.1815ZM32.2539 26.4545V25.4545H31.7042L31.4096 25.9186L32.2539 26.4545ZM34.342 26.4545H35.342V25.4545H34.342V26.4545ZM34.342 29.8068V30.8068H35.342V29.8068H34.342ZM33.1062 29.8068V28.8068H32.5552L32.2608 29.2726L33.1062 29.8068ZM29.2781 35.8651L28.4327 35.3309L28.2781 35.5756V35.8651H29.2781ZM29.2781 35.9787H28.2781V36.9787H29.2781V35.9787ZM37.9073 35.9787H38.9073V34.9787H37.9073V35.9787ZM37.9073 38.4432V39.4432H38.9073V38.4432H37.9073ZM33.163 41H32.163V42H33.163V41ZM33.163 37.7045L32.1644 37.6516L32.163 37.6781V37.7045H33.163ZM33.2198 36.6321L34.2184 36.685L34.2198 36.6586V36.6321H33.2198ZM33.2198 26.4545V25.4545H32.2198V26.4545H33.2198ZM36.1033 26.4545H37.1033V25.4545H36.1033V26.4545ZM36.1033 41V42H37.1033V41H36.1033ZM27.1815 38.4432V36.0213H25.1815V38.4432H27.1815ZM27.0257 36.5572L33.0982 26.9904L31.4096 25.9186L25.3372 35.4854L27.0257 36.5572ZM32.2539 27.4545H34.342V25.4545H32.2539V27.4545ZM33.342 26.4545V29.8068H35.342V26.4545H33.342ZM34.342 28.8068H33.1062V30.8068H34.342V28.8068ZM32.2608 29.2726L28.4327 35.3309L30.1234 36.3992L33.9516 30.341L32.2608 29.2726ZM28.2781 35.8651V35.9787H30.2781V35.8651H28.2781ZM29.2781 36.9787H37.9073V34.9787H29.2781V36.9787ZM36.9073 35.9787V38.4432H38.9073V35.9787H36.9073ZM37.9073 37.4432H26.1815V39.4432H37.9073V37.4432ZM34.163 41V37.7045H32.163V41H34.163ZM34.1616 37.7575L34.2184 36.685L32.2212 36.5792L32.1644 37.6516L34.1616 37.7575ZM34.2198 36.6321V26.4545H32.2198V36.6321H34.2198ZM33.2198 27.4545H36.1033V25.4545H33.2198V27.4545ZM35.1033 26.4545V41H37.1033V26.4545H35.1033ZM36.1033 40H33.163V42H36.1033V40Z" fill="#F9A2B3" fill-opacity="0.8"/>
</g>
<defs>
<filter id="filter0_b_2_93" x="22.1815" y="22.4545" width="19.7259" height="22.5455" filterUnits="userSpaceOnUse" color-interpolation-filters="sRGB">
<feFlood flood-opacity="0" result="BackgroundImageFix"/>
<feGaussianBlur in="BackgroundImage" stdDeviation="2"/>
<feComposite in2="SourceAlpha" operator="in" result="effect1_backgroundBlur_2_93"/>
<feBlend mode="normal" in="SourceGraphic" in2="effect1_backgroundBlur_2_93" result="shape"/>
</filter>
</defs>
</svg>
