<svg width="63" height="65" viewBox="0 0 63 65" fill="none" xmlns="http://www.w3.org/2000/svg">
<ellipse cx="31.5" cy="32.5" rx="31.5" ry="32.5" fill="#FEE0E0"/>
<path d="M62.5 32.5C62.5 50.188 48.6062 64.5 31.5 64.5C14.3938 64.5 0.5 50.188 0.5 32.5C0.5 14.812 14.3938 0.5 31.5 0.5C48.6062 0.5 62.5 14.812 62.5 32.5Z" stroke="#F9A2B3" stroke-opacity="0.8"/>
<g filter="url(#filter0_b_2_94)">
<path d="M33.0462 41.1989C32.0424 41.1989 31.1475 41.0142 30.3615 40.6449C29.5803 40.2756 28.96 39.7666 28.5007 39.1179C28.0414 38.4692 27.8023 37.7259 27.7834 36.8878H30.7663C30.7995 37.4512 31.0362 37.9081 31.4766 38.2585C31.9169 38.6089 32.4401 38.7841 33.0462 38.7841C33.5291 38.7841 33.9553 38.6776 34.3246 38.4645C34.6986 38.2467 34.9898 37.946 35.1982 37.5625C35.4112 37.1742 35.5178 36.7292 35.5178 36.2273C35.5178 35.7159 35.4089 35.2661 35.1911 34.8778C34.978 34.4896 34.6821 34.1866 34.3033 33.9688C33.9245 33.7509 33.4912 33.6397 33.0036 33.6349C32.5774 33.6349 32.1631 33.7225 31.7607 33.8977C31.3629 34.0729 31.0528 34.312 30.8303 34.6151L28.0959 34.125L28.7848 26.4545H37.6768V28.9688H31.3203L30.9439 32.6122H31.0291C31.2848 32.2524 31.6707 31.9541 32.1868 31.7173C32.7029 31.4806 33.2805 31.3622 33.9197 31.3622C34.7957 31.3622 35.5769 31.5682 36.2635 31.9801C36.95 32.392 37.4922 32.9579 37.8899 33.6776C38.2876 34.3925 38.4841 35.2164 38.4794 36.1491C38.4841 37.1293 38.2569 38.0005 37.7976 38.7628C37.343 39.5204 36.7062 40.117 35.8871 40.5526C35.0727 40.9834 34.1257 41.1989 33.0462 41.1989Z" fill="black" fill-opacity="0.25"/>
<path d="M30.3615 40.6449L29.9341 41.549L29.9362 41.55L30.3615 40.6449ZM28.5007 39.1179L29.3169 38.54L29.3169 38.54L28.5007 39.1179ZM27.7834 36.8878V35.8878H26.7605L26.7836 36.9104L27.7834 36.8878ZM30.7663 36.8878L31.7646 36.8291L31.7092 35.8878H30.7663V36.8878ZM31.4766 38.2585L32.0992 37.476L32.0992 37.476L31.4766 38.2585ZM34.3246 38.4645L34.8243 39.3307L34.8278 39.3287L34.3246 38.4645ZM35.1982 37.5625L34.3215 37.0814L34.3194 37.0852L35.1982 37.5625ZM35.1911 34.8778L34.3143 35.359L34.3189 35.3671L35.1911 34.8778ZM34.3033 33.9688L33.8048 34.8357L33.8048 34.8357L34.3033 33.9688ZM33.0036 33.6349L33.0133 32.6349H33.0036V33.6349ZM31.7607 33.8977L31.3615 32.9808L31.3575 32.9826L31.7607 33.8977ZM30.8303 34.6151L30.6538 35.5994L31.2673 35.7093L31.6363 35.207L30.8303 34.6151ZM28.0959 34.125L27.0999 34.0355L27.018 34.9477L27.9195 35.1093L28.0959 34.125ZM28.7848 26.4545V25.4545H27.8706L27.7888 26.3651L28.7848 26.4545ZM37.6768 26.4545H38.6768V25.4545H37.6768V26.4545ZM37.6768 28.9688V29.9688H38.6768V28.9688H37.6768ZM31.3203 28.9688V27.9688H30.4183L30.3256 28.866L31.3203 28.9688ZM30.9439 32.6122L29.9492 32.5094L29.8353 33.6122H30.9439V32.6122ZM31.0291 32.6122V33.6122H31.5453L31.8443 33.1914L31.0291 32.6122ZM32.1868 31.7173L32.6037 32.6263L32.6037 32.6263L32.1868 31.7173ZM36.2635 31.9801L36.778 31.1226L36.778 31.1226L36.2635 31.9801ZM37.8899 33.6776L37.0147 34.1612L37.016 34.1637L37.8899 33.6776ZM38.4794 36.1491L37.4794 36.1441L37.4794 36.154L38.4794 36.1491ZM37.7976 38.7628L36.941 38.2467L36.9401 38.2483L37.7976 38.7628ZM35.8871 40.5526L36.3547 41.4365L36.3566 41.4355L35.8871 40.5526ZM33.0462 40.1989C32.1665 40.1989 31.4205 40.0376 30.7868 39.7398L29.9362 41.55C30.8745 41.9908 31.9182 42.1989 33.0462 42.1989V40.1989ZM30.7889 39.7408C30.1492 39.4384 29.6682 39.0363 29.3169 38.54L27.6846 39.6957C28.2518 40.4969 29.0113 41.1127 29.9341 41.549L30.7889 39.7408ZM29.3169 38.54C28.9792 38.0632 28.7978 37.5155 28.7831 36.8652L26.7836 36.9104C26.8068 37.9362 27.1037 38.8753 27.6846 39.6957L29.3169 38.54ZM27.7834 37.8878H30.7663V35.8878H27.7834V37.8878ZM29.7681 36.9465C29.8178 37.7927 30.1905 38.5131 30.8539 39.041L32.0992 37.476C31.882 37.3032 31.7811 37.1098 31.7646 36.8291L29.7681 36.9465ZM30.8539 39.041C31.4853 39.5434 32.2326 39.7841 33.0462 39.7841V37.7841C32.6476 37.7841 32.3485 37.6744 32.0992 37.476L30.8539 39.041ZM33.0462 39.7841C33.6808 39.7841 34.2837 39.6425 34.8243 39.3307L33.8249 37.5983C33.6268 37.7126 33.3774 37.7841 33.0462 37.7841V39.7841ZM34.8278 39.3287C35.3614 39.0179 35.7819 38.5828 36.0769 38.0398L34.3194 37.0852C34.1977 37.3092 34.0358 37.4755 33.8214 37.6003L34.8278 39.3287ZM36.0748 38.0436C36.3791 37.4892 36.5178 36.8746 36.5178 36.2273H34.5178C34.5178 36.5837 34.4434 36.8593 34.3215 37.0814L36.0748 38.0436ZM36.5178 36.2273C36.5178 35.5703 36.3766 34.9473 36.0632 34.3886L34.3189 35.3671C34.4411 35.5849 34.5178 35.8615 34.5178 36.2273H36.5178ZM36.0677 34.3967C35.7676 33.8499 35.3419 33.4124 34.8017 33.1018L33.8048 34.8357C34.0222 34.9607 34.1883 35.1292 34.3144 35.3589L36.0677 34.3967ZM34.8017 33.1018C34.2574 32.7889 33.6522 32.6412 33.0133 32.635L32.9938 34.6349C33.3302 34.6382 33.5915 34.713 33.8048 34.8357L34.8017 33.1018ZM33.0036 32.6349C32.4359 32.6349 31.886 32.7525 31.3615 32.9808L32.1598 34.8146C32.4402 34.6926 32.7189 34.6349 33.0036 34.6349V32.6349ZM31.3575 32.9826C30.8248 33.2172 30.3657 33.5582 30.0243 34.0231L31.6363 35.207C31.7399 35.0658 31.901 34.9286 32.1638 34.8129L31.3575 32.9826ZM31.0067 33.6307L28.2723 33.1407L27.9195 35.1093L30.6538 35.5994L31.0067 33.6307ZM29.0919 34.2145L29.7808 26.544L27.7888 26.3651L27.0999 34.0355L29.0919 34.2145ZM28.7848 27.4545H37.6768V25.4545H28.7848V27.4545ZM36.6768 26.4545V28.9688H38.6768V26.4545H36.6768ZM37.6768 27.9688H31.3203V29.9688H37.6768V27.9688ZM30.3256 28.866L29.9492 32.5094L31.9386 32.715L32.315 29.0715L30.3256 28.866ZM30.9439 33.6122H31.0291V31.6122H30.9439V33.6122ZM31.8443 33.1914C31.9733 33.0098 32.2023 32.8104 32.6037 32.6263L31.7698 30.8084C31.139 31.0978 30.5963 31.4949 30.2139 32.033L31.8443 33.1914ZM32.6037 32.6263C32.9735 32.4567 33.4063 32.3622 33.9197 32.3622V30.3622C33.1548 30.3622 32.4323 30.5045 31.7698 30.8084L32.6037 32.6263ZM33.9197 32.3622C34.632 32.3622 35.2323 32.5276 35.749 32.8376L36.778 31.1226C35.9216 30.6088 34.9593 30.3622 33.9197 30.3622V32.3622ZM35.749 32.8376C36.2803 33.1564 36.6998 33.5914 37.0147 34.1612L38.7652 33.1939C38.2846 32.3243 37.6198 31.6277 36.778 31.1226L35.749 32.8376ZM37.016 34.1637C37.3191 34.7085 37.4834 35.3587 37.4794 36.1441L39.4794 36.1542C39.4849 35.074 39.2562 34.0766 38.7638 33.1914L37.016 34.1637ZM37.4794 36.154C37.4834 36.9698 37.2962 37.6572 36.941 38.2467L38.6541 39.2788C39.2175 38.3437 39.4849 37.2888 39.4794 36.1443L37.4794 36.154ZM36.9401 38.2483C36.5838 38.8421 36.0847 39.3149 35.4175 39.6696L36.3566 41.4355C37.3277 40.919 38.1023 40.1986 38.6551 39.2773L36.9401 38.2483ZM35.4194 39.6686C34.772 40.0112 33.9907 40.1989 33.0462 40.1989V42.1989C34.2607 42.1989 35.3734 41.9557 36.3547 41.4365L35.4194 39.6686Z" fill="#F9A2B3" fill-opacity="0.8"/>
</g>
<defs>
<filter id="filter0_b_2_94" x="23.7834" y="22.4545" width="18.7031" height="22.7443" filterUnits="userSpaceOnUse" color-interpolation-filters="sRGB">
<feFlood flood-opacity="0" result="BackgroundImageFix"/>
<feGaussianBlur in="BackgroundImage" stdDeviation="2"/>
<feComposite in2="SourceAlpha" operator="in" result="effect1_backgroundBlur_2_94"/>
<feBlend mode="normal" in="SourceGraphic" in2="effect1_backgroundBlur_2_94" result="shape"/>
</filter>
</defs>
</svg>
