<svg width="63" height="65" viewBox="0 0 63 65" fill="none" xmlns="http://www.w3.org/2000/svg">
<path d="M62.5 32.5C62.5 50.188 48.6062 64.5 31.5 64.5C14.3938 64.5 0.5 50.188 0.5 32.5C0.5 14.812 14.3938 0.5 31.5 0.5C48.6062 0.5 62.5 14.812 62.5 32.5Z" fill="#FEE0E0" stroke="#DF3397"/>
<g filter="url(#filter0_b_2_95)">
<path d="M33.1598 41.1989C32.4117 41.1941 31.6896 41.0687 30.9936 40.8224C30.3023 40.5762 29.6821 40.1761 29.1328 39.6222C28.5836 39.0682 28.148 38.3343 27.826 37.4205C27.5088 36.5066 27.3501 35.3845 27.3501 34.054C27.3549 32.8324 27.4946 31.741 27.7692 30.7798C28.0485 29.8139 28.4463 28.9948 28.9624 28.3224C29.4832 27.6501 30.1058 27.1387 30.8303 26.7884C31.5547 26.4332 32.3667 26.2557 33.2663 26.2557C34.237 26.2557 35.094 26.4451 35.8374 26.8239C36.5807 27.1979 37.1773 27.7069 37.6271 28.3509C38.0817 28.9948 38.3563 29.7169 38.451 30.517H35.4183C35.3 30.0104 35.0514 29.6127 34.6726 29.3239C34.2938 29.035 33.825 28.8906 33.2663 28.8906C32.3194 28.8906 31.5997 29.3026 31.1072 30.1264C30.6196 30.9503 30.371 32.0701 30.3615 33.4858H30.4609C30.6787 33.0549 30.9723 32.688 31.3416 32.3849C31.7157 32.0772 32.1394 31.8428 32.6129 31.6818C33.0911 31.5161 33.5954 31.4332 34.1257 31.4332C34.9875 31.4332 35.7545 31.6368 36.4268 32.044C37.0992 32.4465 37.6295 33.0005 38.0178 33.706C38.406 34.4115 38.6001 35.2187 38.6001 36.1278C38.6001 37.1127 38.3705 37.9886 37.9112 38.7557C37.4567 39.5227 36.8198 40.1241 36.0007 40.5597C35.1863 40.9905 34.2393 41.2036 33.1598 41.1989ZM33.1456 38.7841C33.6191 38.7841 34.0429 38.6705 34.4169 38.4432C34.791 38.2159 35.0845 37.9081 35.2976 37.5199C35.5107 37.1316 35.6172 36.696 35.6172 36.2131C35.6172 35.7301 35.5107 35.2969 35.2976 34.9134C35.0893 34.5298 34.8004 34.2244 34.4311 33.9972C34.0618 33.7699 33.6404 33.6562 33.1669 33.6562C32.8118 33.6562 32.4827 33.7225 32.1797 33.8551C31.8814 33.9877 31.6186 34.1723 31.3913 34.4091C31.1688 34.6458 30.9936 34.9205 30.8658 35.233C30.7379 35.5407 30.674 35.8698 30.674 36.2202C30.674 36.6889 30.7805 37.1174 30.9936 37.5057C31.2114 37.8939 31.505 38.2041 31.8743 38.4361C32.2483 38.6681 32.6721 38.7841 33.1456 38.7841Z" fill="black" fill-opacity="0.25"/>
<path d="M33.1598 41.1989L33.1535 42.1988L33.1554 42.1989L33.1598 41.1989ZM30.9936 40.8224L30.6581 41.7645L30.6601 41.7652L30.9936 40.8224ZM29.1328 39.6222L28.4227 40.3262L28.4227 40.3262L29.1328 39.6222ZM27.826 37.4205L26.8813 37.7484L26.8828 37.7528L27.826 37.4205ZM27.3501 34.054L26.3501 34.0501V34.054H27.3501ZM27.7692 30.7798L26.8085 30.502L26.8077 30.5051L27.7692 30.7798ZM28.9624 28.3224L28.1718 27.71L28.1691 27.7135L28.9624 28.3224ZM30.8303 26.7884L31.2657 27.6886L31.2704 27.6863L30.8303 26.7884ZM35.8374 26.8239L35.3833 27.7149L35.3879 27.7172L35.8374 26.8239ZM37.6271 28.3509L36.8073 28.9235L36.8102 28.9275L37.6271 28.3509ZM38.451 30.517V31.517H39.5763L39.4441 30.3995L38.451 30.517ZM35.4183 30.517L34.4446 30.7446L34.625 31.517H35.4183V30.517ZM31.1072 30.1264L30.2489 29.6134L30.2467 29.617L31.1072 30.1264ZM30.3615 33.4858L29.3615 33.4791L29.3548 34.4858H30.3615V33.4858ZM30.4609 33.4858V34.4858H31.0759L31.3534 33.9369L30.4609 33.4858ZM31.3416 32.3849L31.9759 33.158L31.977 33.1572L31.3416 32.3849ZM32.6129 31.6818L32.9348 32.6286L32.9404 32.6267L32.6129 31.6818ZM36.4268 32.044L35.9088 32.8994L35.9132 32.9021L36.4268 32.044ZM37.9112 38.7557L37.0533 38.242L37.0509 38.2459L37.9112 38.7557ZM36.0007 40.5597L36.4684 41.4436L36.4702 41.4426L36.0007 40.5597ZM34.4169 38.4432L34.9362 39.2978L34.9362 39.2978L34.4169 38.4432ZM35.2976 37.5199L36.1743 38.001L36.1743 38.001L35.2976 37.5199ZM35.2976 34.9134L34.4188 35.3907L34.4234 35.399L35.2976 34.9134ZM34.4311 33.9972L34.9552 33.1455L34.9552 33.1455L34.4311 33.9972ZM32.1797 33.8551L31.7789 32.9389L31.7735 32.9413L32.1797 33.8551ZM31.3913 34.4091L30.6699 33.7165L30.6627 33.7242L31.3913 34.4091ZM30.8658 35.233L31.7893 35.6166L31.7913 35.6116L30.8658 35.233ZM30.9936 37.5057L30.1169 37.9868L30.1215 37.9949L30.9936 37.5057ZM31.8743 38.4361L31.3423 39.2829L31.3472 39.2859L31.8743 38.4361ZM33.1661 40.1989C32.528 40.1948 31.9166 40.0882 31.3271 39.8797L30.6601 41.7652C31.4627 42.0491 32.2954 42.1934 33.1535 42.1988L33.1661 40.1989ZM31.3291 39.8804C30.7878 39.6876 30.2935 39.3725 29.8429 38.9181L28.4227 40.3262C29.0706 40.9797 29.8169 41.4649 30.6581 41.7645L31.3291 39.8804ZM29.8429 38.9181C29.42 38.4915 29.0535 37.8953 28.7692 37.0881L26.8828 37.7528C27.2424 38.7733 27.7471 39.6448 28.4227 40.3262L29.8429 38.9181ZM28.7707 37.0925C28.5009 36.3155 28.3501 35.3117 28.3501 34.054H26.3501C26.3501 35.4572 26.5166 36.6978 26.8813 37.7484L28.7707 37.0925ZM28.3501 34.0579C28.3546 32.9084 28.4861 31.9107 28.7307 31.0545L26.8077 30.5051C26.503 31.5713 26.3552 32.7564 26.3501 34.0501L28.3501 34.0579ZM28.7298 31.0577C28.9808 30.1897 29.3282 29.4882 29.7556 28.9313L28.1691 27.7135C27.5643 28.5014 27.1162 29.4381 26.8085 30.502L28.7298 31.0577ZM29.7529 28.9348C30.1847 28.3774 30.6881 27.9679 31.2657 27.6886L30.3948 25.8881C29.5235 26.3096 28.7817 26.9227 28.1718 27.71L29.7529 28.9348ZM31.2704 27.6863C31.8428 27.4057 32.5016 27.2557 33.2663 27.2557V25.2557C32.2319 25.2557 31.2666 25.4608 30.3901 25.8904L31.2704 27.6863ZM33.2663 27.2557C34.105 27.2557 34.8019 27.4186 35.3833 27.7149L36.2914 25.9329C35.3861 25.4716 34.369 25.2557 33.2663 25.2557V27.2557ZM35.3879 27.7172C35.9922 28.0212 36.4581 28.4236 36.8073 28.9235L38.4469 27.7782C37.8965 26.9902 37.1692 26.3746 36.2868 25.9306L35.3879 27.7172ZM36.8102 28.9275C37.1665 29.4323 37.3823 29.9959 37.4579 30.6346L39.4441 30.3995C39.3303 29.4378 38.9969 28.5572 38.4441 27.7742L36.8102 28.9275ZM38.451 29.517H35.4183V31.517H38.451V29.517ZM36.3921 30.2895C36.2261 29.5791 35.8598 28.9716 35.2789 28.5287L34.0662 30.1191C34.2429 30.2538 34.3738 30.4418 34.4446 30.7446L36.3921 30.2895ZM35.2789 28.5287C34.697 28.085 34.0048 27.8906 33.2663 27.8906V29.8906C33.6453 29.8906 33.8906 29.9851 34.0662 30.1191L35.2789 28.5287ZM33.2663 27.8906C31.9617 27.8906 30.9188 28.4925 30.2489 29.6134L31.9656 30.6395C32.2805 30.1126 32.6771 29.8906 33.2663 29.8906V27.8906ZM30.2467 29.617C29.6358 30.6491 29.3717 31.9654 29.3615 33.4791L31.3615 33.4925C31.3703 32.1748 31.6034 31.2514 31.9678 30.6358L30.2467 29.617ZM30.3615 34.4858H30.4609V32.4858H30.3615V34.4858ZM31.3534 33.9369C31.5092 33.6288 31.7153 33.3719 31.9759 33.158L30.7073 31.6119C30.2293 32.0041 29.8483 32.4811 29.5685 33.0347L31.3534 33.9369ZM31.977 33.1572C32.2549 32.9285 32.5717 32.752 32.9348 32.6286L32.291 30.735C31.7071 30.9336 31.1764 31.2259 30.7063 31.6127L31.977 33.1572ZM32.9404 32.6267C33.3083 32.4992 33.7015 32.4332 34.1257 32.4332V30.4332C33.4893 30.4332 32.874 30.533 32.2855 30.7369L32.9404 32.6267ZM34.1257 32.4332C34.823 32.4332 35.4075 32.5958 35.9088 32.8994L36.9449 31.1887C36.1015 30.6779 35.1519 30.4332 34.1257 30.4332V32.4332ZM35.9132 32.9021C36.4293 33.2109 36.8363 33.6333 37.1417 34.1881L38.8938 33.2238C38.4227 32.3676 37.7691 31.682 36.9405 31.186L35.9132 32.9021ZM37.1417 34.1881C37.4386 34.7277 37.6001 35.3653 37.6001 36.1278H39.6001C39.6001 35.0722 39.3734 34.0952 38.8938 33.2238L37.1417 34.1881ZM37.6001 36.1278C37.6001 36.9507 37.4103 37.6456 37.0533 38.242L38.7692 39.2694C39.3307 38.3316 39.6001 37.2747 39.6001 36.1278H37.6001ZM37.0509 38.2459C36.6938 38.8485 36.1952 39.3236 35.5312 39.6767L36.4702 41.4426C37.4445 40.9245 38.2195 40.197 38.7715 39.2655L37.0509 38.2459ZM35.5331 39.6757C34.8872 40.0175 34.1075 40.203 33.1642 40.1989L33.1554 42.1989C34.3712 42.2042 35.4855 41.9636 36.4684 41.4436L35.5331 39.6757ZM33.1456 39.7841C33.7867 39.7841 34.3928 39.6279 34.9362 39.2978L33.8976 37.5886C33.6929 37.713 33.4515 37.7841 33.1456 37.7841V39.7841ZM34.9362 39.2978C35.4619 38.9784 35.8779 38.541 36.1743 38.001L34.4209 37.0388C34.2911 37.2753 34.12 37.4534 33.8976 37.5886L34.9362 39.2978ZM36.1743 38.001C36.4754 37.4522 36.6172 36.8486 36.6172 36.2131H34.6172C34.6172 36.5434 34.5459 36.8111 34.4209 37.0388L36.1743 38.001ZM36.6172 36.2131C36.6172 35.5777 36.4755 34.9744 36.1717 34.4277L34.4234 35.399C34.5458 35.6194 34.6172 35.8825 34.6172 36.2131H36.6172ZM36.1763 34.436C35.8851 33.8999 35.4744 33.465 34.9552 33.1455L33.907 34.8488C34.1264 34.9838 34.2934 35.1597 34.4189 35.3907L36.1763 34.436ZM34.9552 33.1455C34.4139 32.8124 33.8078 32.6562 33.1669 32.6562V34.6562C33.4729 34.6562 33.7096 34.7274 33.907 34.8488L34.9552 33.1455ZM33.1669 32.6562C32.6841 32.6562 32.2174 32.7471 31.7789 32.939L32.5805 34.7713C32.748 34.698 32.9395 34.6562 33.1669 34.6562V32.6562ZM31.7735 32.9413C31.3562 33.1268 30.9865 33.3868 30.6699 33.7166L32.1127 35.1016C32.2507 34.9579 32.4066 34.8486 32.5858 34.7689L31.7735 32.9413ZM30.6627 33.7242C30.3531 34.0536 30.1126 34.433 29.9402 34.8543L31.7913 35.6116C31.8747 35.4079 31.9845 35.2381 32.12 35.094L30.6627 33.7242ZM29.9423 34.8493C29.7614 35.2849 29.674 35.745 29.674 36.2202H31.674C31.674 35.9946 31.7145 35.7965 31.7893 35.6166L29.9423 34.8493ZM29.674 36.2202C29.674 36.847 29.8182 37.4424 30.1169 37.9868L31.8703 37.0246C31.7429 36.7924 31.674 36.5309 31.674 36.2202H29.674ZM30.1215 37.9949C30.4193 38.5258 30.8285 38.9601 31.3423 39.2829L32.4062 37.5893C32.1814 37.4481 32.0036 37.2621 31.8658 37.0164L30.1215 37.9949ZM31.3472 39.2859C31.8916 39.6235 32.5005 39.7841 33.1456 39.7841V37.7841C32.8437 37.7841 32.6051 37.7126 32.4014 37.5863L31.3472 39.2859Z" fill="#DF3397"/>
</g>
<defs>
<filter id="filter0_b_2_95" x="23.3501" y="22.2557" width="19.25" height="22.9503" filterUnits="userSpaceOnUse" color-interpolation-filters="sRGB">
<feFlood flood-opacity="0" result="BackgroundImageFix"/>
<feGaussianBlur in="BackgroundImage" stdDeviation="2"/>
<feComposite in2="SourceAlpha" operator="in" result="effect1_backgroundBlur_2_95"/>
<feBlend mode="normal" in="SourceGraphic" in2="effect1_backgroundBlur_2_95" result="shape"/>
</filter>
</defs>
</svg>
