<svg width="63" height="66" viewBox="0 0 63 66" fill="none" xmlns="http://www.w3.org/2000/svg">
<path d="M62.5 33C62.5 50.9714 48.5992 65.5 31.5 65.5C14.4008 65.5 0.5 50.9714 0.5 33C0.5 15.0286 14.4008 0.5 31.5 0.5C48.5992 0.5 62.5 15.0286 62.5 33Z" fill="#FEE0E0" stroke="#DF3397"/>
<g filter="url(#filter0_b_2_97)">
<path d="M27.807 42L33.8368 30.0682V29.9688H26.8127V27.4545H37.0186V30.0043L30.9817 42H27.807Z" fill="black" fill-opacity="0.25"/>
<path d="M27.807 42L26.9145 41.549L26.1812 43H27.807V42ZM33.8368 30.0682L34.7293 30.5192L34.8368 30.3065V30.0682H33.8368ZM33.8368 29.9688H34.8368V28.9688H33.8368V29.9688ZM26.8127 29.9688H25.8127V30.9688H26.8127V29.9688ZM26.8127 27.4545V26.4545H25.8127V27.4545H26.8127ZM37.0186 27.4545H38.0186V26.4545H37.0186V27.4545ZM37.0186 30.0043L37.9119 30.4538L38.0186 30.2417V30.0043H37.0186ZM30.9817 42V43H31.5979L31.875 42.4495L30.9817 42ZM28.6995 42.451L34.7293 30.5192L32.9443 29.6171L26.9145 41.549L28.6995 42.451ZM34.8368 30.0682V29.9688H32.8368V30.0682H34.8368ZM33.8368 28.9688H26.8127V30.9688H33.8368V28.9688ZM27.8127 29.9688V27.4545H25.8127V29.9688H27.8127ZM26.8127 28.4545H37.0186V26.4545H26.8127V28.4545ZM36.0186 27.4545V30.0043H38.0186V27.4545H36.0186ZM36.1254 29.5547L30.0885 41.5505L31.875 42.4495L37.9119 30.4538L36.1254 29.5547ZM30.9817 41H27.807V43H30.9817V41Z" fill="#DF3397"/>
</g>
<defs>
<filter id="filter0_b_2_97" x="22.8127" y="23.4545" width="18.206" height="22.5455" filterUnits="userSpaceOnUse" color-interpolation-filters="sRGB">
<feFlood flood-opacity="0" result="BackgroundImageFix"/>
<feGaussianBlur in="BackgroundImage" stdDeviation="2"/>
<feComposite in2="SourceAlpha" operator="in" result="effect1_backgroundBlur_2_97"/>
<feBlend mode="normal" in="SourceGraphic" in2="effect1_backgroundBlur_2_97" result="shape"/>
</filter>
</defs>
</svg>
