<svg width="63" height="66" viewBox="0 0 63 66" fill="none" xmlns="http://www.w3.org/2000/svg">
<ellipse cx="31.5" cy="33" rx="31.5" ry="33" fill="#FEE0E0"/>
<path d="M62.5 33C62.5 50.9714 48.5992 65.5 31.5 65.5C14.4008 65.5 0.5 50.9714 0.5 33C0.5 15.0286 14.4008 0.5 31.5 0.5C48.5992 0.5 62.5 15.0286 62.5 33Z" stroke="#F9A2B3" stroke-opacity="0.8"/>
<g filter="url(#filter0_b_2_98)">
<path d="M32.9938 42.1989C31.9 42.1989 30.927 42.0213 30.0748 41.6662C29.2272 41.3063 28.562 40.8163 28.079 40.196C27.5961 39.5758 27.3546 38.8726 27.3546 38.0866C27.3546 37.4806 27.4919 36.9242 27.7665 36.4176C28.0459 35.9062 28.4247 35.4825 28.9029 35.1463C29.3811 34.8054 29.9161 34.5876 30.508 34.4929V34.3935C29.7315 34.2372 29.1017 33.8608 28.6188 33.2642C28.1358 32.6629 27.8944 31.9645 27.8944 31.169C27.8944 30.4162 28.1145 29.7462 28.5549 29.1591C28.9952 28.5672 29.5989 28.1032 30.3659 27.767C31.1377 27.4261 32.0137 27.2557 32.9938 27.2557C33.9739 27.2557 34.8475 27.4261 35.6145 27.767C36.3863 28.108 36.9924 28.5743 37.4327 29.1662C37.873 29.7533 38.0956 30.4209 38.1003 31.169C38.0956 31.9692 37.8494 32.6676 37.3617 33.2642C36.874 33.8608 36.249 34.2372 35.4867 34.3935V34.4929C36.0691 34.5876 36.597 34.8054 37.0705 35.1463C37.5487 35.4825 37.9275 35.9062 38.2069 36.4176C38.4909 36.9242 38.6354 37.4806 38.6401 38.0866C38.6354 38.8726 38.3915 39.5758 37.9086 40.196C37.4256 40.8163 36.758 41.3063 35.9057 41.6662C35.0582 42.0213 34.0875 42.1989 32.9938 42.1989ZM32.9938 39.9403C33.4815 39.9403 33.9076 39.8527 34.2722 39.6776C34.6368 39.4976 34.9209 39.2514 35.1245 38.9389C35.3328 38.6217 35.437 38.2571 35.437 37.8452C35.437 37.4238 35.3304 37.0521 35.1174 36.7301C34.9043 36.4034 34.6155 36.1477 34.2509 35.9631C33.8863 35.7737 33.4673 35.679 32.9938 35.679C32.525 35.679 32.106 35.7737 31.7367 35.9631C31.3674 36.1477 31.0762 36.4034 30.8631 36.7301C30.6548 37.0521 30.5506 37.4238 30.5506 37.8452C30.5506 38.2571 30.6524 38.6217 30.856 38.9389C31.0596 39.2514 31.3461 39.4976 31.7154 39.6776C32.0847 39.8527 32.5108 39.9403 32.9938 39.9403ZM32.9938 33.4418C33.401 33.4418 33.7632 33.3589 34.0804 33.1932C34.3977 33.0275 34.6462 32.7978 34.8262 32.5043C35.0061 32.2107 35.0961 31.8722 35.0961 31.4886C35.0961 31.1098 35.0061 30.7784 34.8262 30.4943C34.6462 30.2055 34.4 29.9806 34.0875 29.8196C33.775 29.6539 33.4105 29.571 32.9938 29.571C32.5819 29.571 32.2173 29.6539 31.9 29.8196C31.5828 29.9806 31.3342 30.2055 31.1543 30.4943C30.9791 30.7784 30.8915 31.1098 30.8915 31.4886C30.8915 31.8722 30.9815 32.2107 31.1614 32.5043C31.3413 32.7978 31.5899 33.0275 31.9071 33.1932C32.2244 33.3589 32.5866 33.4418 32.9938 33.4418Z" fill="black" fill-opacity="0.25"/>
<path d="M30.0748 41.6662L29.6839 42.5867L29.6901 42.5893L30.0748 41.6662ZM28.079 40.196L27.29 40.8104L28.079 40.196ZM27.7665 36.4176L26.8889 35.9382L26.8874 35.9411L27.7665 36.4176ZM28.9029 35.1463L29.478 35.9644L29.4834 35.9606L28.9029 35.1463ZM30.508 34.4929L30.666 35.4803L31.508 35.3456V34.4929H30.508ZM30.508 34.3935H31.508V33.5746L30.7053 33.4131L30.508 34.3935ZM28.6188 33.2642L27.8391 33.8904L27.8415 33.8934L28.6188 33.2642ZM28.5549 29.1591L29.3549 29.7591L29.3572 29.756L28.5549 29.1591ZM30.3659 27.767L30.7674 28.6829L30.77 28.6818L30.3659 27.767ZM35.6145 27.767L35.2084 28.6809L35.2105 28.6818L35.6145 27.767ZM37.4327 29.1662L36.6304 29.7631L36.6327 29.7662L37.4327 29.1662ZM38.1003 31.169L39.1004 31.175L39.1003 31.1627L38.1003 31.169ZM37.3617 33.2642L36.5875 32.6313L36.5875 32.6313L37.3617 33.2642ZM35.4867 34.3935L35.2859 33.4138L34.4867 33.5776V34.3935H35.4867ZM35.4867 34.4929H34.4867V35.3434L35.3262 35.4799L35.4867 34.4929ZM37.0705 35.1463L36.4861 35.9579L36.4954 35.9644L37.0705 35.1463ZM38.2069 36.4176L37.3292 36.8971L37.3346 36.9067L38.2069 36.4176ZM38.6401 38.0866L39.6402 38.0927L39.6401 38.0788L38.6401 38.0866ZM37.9086 40.196L37.1195 39.5817L37.1195 39.5817L37.9086 40.196ZM35.9057 41.6662L36.2922 42.5885L36.2947 42.5874L35.9057 41.6662ZM34.2722 39.6776L34.7053 40.5789L34.7147 40.5743L34.2722 39.6776ZM35.1245 38.9389L34.2886 38.39L34.2866 38.393L35.1245 38.9389ZM35.1174 36.7301L34.2797 37.2764L34.2834 37.282L35.1174 36.7301ZM34.2509 35.9631L33.7899 36.8505L33.799 36.8552L34.2509 35.9631ZM31.7367 35.9631L32.1839 36.8575L32.193 36.8529L31.7367 35.9631ZM30.8631 36.7301L30.0255 36.1838L30.0235 36.1869L30.8631 36.7301ZM30.856 38.9389L30.0144 39.4791L30.0181 39.4848L30.856 38.9389ZM31.7154 39.6776L31.2774 40.5766L31.2868 40.5811L31.7154 39.6776ZM34.0804 33.1932L33.6174 32.3068L33.6174 32.3068L34.0804 33.1932ZM34.8262 32.5043L33.9736 31.9817L33.9736 31.9817L34.8262 32.5043ZM34.8262 30.4943L33.9774 31.0231L33.9814 31.0294L34.8262 30.4943ZM34.0875 29.8196L33.619 30.7031L33.6296 30.7086L34.0875 29.8196ZM31.9 29.8196L32.3526 30.7114L32.3631 30.706L31.9 29.8196ZM31.1543 30.4943L30.3055 29.9656L30.3031 29.9694L31.1543 30.4943ZM31.1614 32.5043L30.3088 33.0268L30.3088 33.0268L31.1614 32.5043ZM31.9071 33.1932L32.3702 32.3068L32.3702 32.3068L31.9071 33.1932ZM32.9938 41.1989C32.0081 41.1989 31.1695 41.039 30.4594 40.7431L29.6901 42.5893C30.6846 43.0036 31.792 43.1989 32.9938 43.1989V41.1989ZM30.4656 40.7457C29.7477 40.4409 29.2298 40.0463 28.868 39.5817L27.29 40.8104C27.8941 41.5863 28.7068 42.1718 29.6839 42.5867L30.4656 40.7457ZM28.868 39.5817C28.5218 39.137 28.3546 38.65 28.3546 38.0866H26.3546C26.3546 39.0952 26.6703 40.0145 27.29 40.8104L28.868 39.5817ZM28.3546 38.0866C28.3546 37.6381 28.4545 37.2468 28.6457 36.8942L26.8874 35.9411C26.5293 36.6016 26.3546 37.3231 26.3546 38.0866H28.3546ZM28.6441 36.897C28.8497 36.5207 29.1248 36.2127 29.478 35.9644L28.3278 34.3282C27.7245 34.7523 27.2421 35.2918 26.8889 35.9382L28.6441 36.897ZM29.4834 35.9606C29.8333 35.7111 30.2232 35.5512 30.666 35.4803L30.35 33.5055C29.6091 33.624 28.9289 33.8997 28.3224 34.332L29.4834 35.9606ZM31.508 34.4929V34.3935H29.508V34.4929H31.508ZM30.7053 33.4131C30.1491 33.3012 29.7274 33.0444 29.396 32.635L27.8415 33.8934C28.476 34.6772 29.3138 35.1732 30.3107 35.3738L30.7053 33.4131ZM29.3985 32.638C29.0629 32.2202 28.8944 31.7445 28.8944 31.169H26.8944C26.8944 32.1845 27.2088 33.1056 27.8391 33.8904L29.3985 32.638ZM28.8944 31.169C28.8944 30.6266 29.0479 30.1684 29.3549 29.7591L27.7549 28.5591C27.1811 29.3241 26.8944 30.2058 26.8944 31.169H28.8944ZM29.3572 29.756C29.6805 29.3215 30.1375 28.959 30.7674 28.6829L29.9645 26.8511C29.0603 27.2474 28.3099 27.813 27.7526 28.5622L29.3572 29.756ZM30.77 28.6818C31.3956 28.4055 32.1305 28.2557 32.9938 28.2557V26.2557C31.8968 26.2557 30.8799 26.4468 29.9619 26.8523L30.77 28.6818ZM32.9938 28.2557C33.8572 28.2557 34.5888 28.4055 35.2084 28.6809L36.0207 26.8532C35.1061 26.4468 34.0906 26.2557 32.9938 26.2557V28.2557ZM35.2105 28.6818C35.8473 28.9631 36.3072 29.3287 36.6304 29.7631L38.235 28.5693C37.6775 27.82 36.9253 27.2528 36.0186 26.8523L35.2105 28.6818ZM36.6327 29.7662C36.9419 30.1784 37.0969 30.637 37.1003 31.1754L39.1003 31.1627C39.0942 30.2049 38.8042 29.3282 38.2327 28.5662L36.6327 29.7662ZM37.1003 31.1631C37.0969 31.7442 36.9245 32.219 36.5875 32.6313L38.1359 33.8971C38.7742 33.1162 39.0943 32.1943 39.1003 31.175L37.1003 31.1631ZM36.5875 32.6313C36.2469 33.0479 35.8253 33.3033 35.2859 33.4138L35.6875 35.3731C36.6727 35.1712 37.5011 34.6737 38.1359 33.8971L36.5875 32.6313ZM34.4867 34.3935V34.4929H36.4867V34.3935H34.4867ZM35.3262 35.4799C35.7574 35.5501 36.1399 35.7085 36.4862 35.9578L37.6548 34.3348C37.0541 33.9023 36.3807 33.6251 35.6472 33.5059L35.3262 35.4799ZM36.4954 35.9644C36.8486 36.2127 37.1237 36.5207 37.3293 36.897L39.0844 35.9382C38.7313 35.2918 38.2489 34.7523 37.6456 34.3282L36.4954 35.9644ZM37.3346 36.9067C37.5326 37.2598 37.6366 37.6494 37.6401 38.0945L39.6401 38.0788C39.6341 37.3117 39.4493 36.5887 39.0791 35.9285L37.3346 36.9067ZM37.6401 38.0806C37.6367 38.6461 37.467 39.1353 37.1195 39.5817L38.6976 40.8104C39.316 40.0162 39.634 39.0992 39.6401 38.0927L37.6401 38.0806ZM37.1195 39.5817C36.7587 40.0451 36.2396 40.4397 35.5167 40.7449L36.2947 42.5874C37.2764 42.1729 38.0925 41.5875 38.6976 40.8104L37.1195 39.5817ZM35.5193 40.7439C34.8151 41.0389 33.9796 41.1989 32.9938 41.1989V43.1989C34.1955 43.1989 35.3013 43.0037 36.2922 42.5885L35.5193 40.7439ZM32.9938 40.9403C33.601 40.9403 34.1806 40.831 34.7053 40.5789L33.8391 38.7762C33.6346 38.8745 33.3619 38.9403 32.9938 38.9403V40.9403ZM34.7147 40.5743C35.2252 40.3224 35.6521 39.961 35.9623 39.4848L34.2866 38.393C34.1896 38.5419 34.0483 38.6729 33.8296 38.7808L34.7147 40.5743ZM35.9603 39.4878C36.2849 38.9936 36.437 38.4348 36.437 37.8452H34.437C34.437 38.0794 34.3807 38.2498 34.2886 38.39L35.9603 39.4878ZM36.437 37.8452C36.437 37.2462 36.2826 36.6788 35.9513 36.1782L34.2834 37.282C34.3783 37.4253 34.437 37.6013 34.437 37.8452H36.437ZM35.955 36.1838C35.6413 35.7028 35.2163 35.3311 34.7027 35.071L33.799 36.8552C34.0147 36.9644 34.1673 37.104 34.2798 37.2764L35.955 36.1838ZM34.7119 35.0757C34.1846 34.8017 33.6032 34.679 32.9938 34.679V36.679C33.3314 36.679 33.588 36.7456 33.7899 36.8505L34.7119 35.0757ZM32.9938 34.679C32.3871 34.679 31.8083 34.8025 31.2804 35.0733L32.193 36.8529C32.4037 36.7448 32.663 36.679 32.9938 36.679V34.679ZM31.2895 35.0686C30.7711 35.3278 30.3412 35.6997 30.0255 36.1838L31.7007 37.2764C31.8111 37.1071 31.9636 36.9676 32.1839 36.8575L31.2895 35.0686ZM30.0235 36.1869C29.7002 36.6865 29.5506 37.2508 29.5506 37.8452H31.5506C31.5506 37.5967 31.6093 37.4176 31.7027 37.2734L30.0235 36.1869ZM29.5506 37.8452C29.5506 38.4301 29.6978 38.9858 30.0144 39.479L31.6976 38.3988C31.607 38.2576 31.5506 38.0841 31.5506 37.8452H29.5506ZM30.0181 39.4848C30.3304 39.9642 30.7623 40.3256 31.2774 40.5765L32.1533 38.7786C31.9298 38.6697 31.7888 38.5387 31.6939 38.393L30.0181 39.4848ZM31.2868 40.5811C31.8122 40.8303 32.3892 40.9403 32.9938 40.9403V38.9403C32.6324 38.9403 32.3572 38.8752 32.144 38.7741L31.2868 40.5811ZM32.9938 34.4418C33.5398 34.4418 34.0647 34.3296 34.5435 34.0795L33.6174 32.3068C33.4617 32.3882 33.2621 32.4418 32.9938 32.4418V34.4418ZM34.5435 34.0795C35.0144 33.8335 35.4005 33.4809 35.6788 33.0268L33.9736 31.9817C33.892 32.1147 33.7809 32.2214 33.6174 32.3068L34.5435 34.0795ZM35.6788 33.0268C35.9658 32.5585 36.0961 32.035 36.0961 31.4886H34.0961C34.0961 31.7093 34.0464 31.8629 33.9736 31.9817L35.6788 33.0268ZM36.0961 31.4886C36.0961 30.945 35.9647 30.423 35.671 29.9593L33.9814 31.0294C34.0475 31.1338 34.0961 31.2747 34.0961 31.4886H36.0961ZM35.675 29.9656C35.3964 29.5184 35.0128 29.1714 34.5455 28.9306L33.6296 30.7086C33.7872 30.7898 33.8961 30.8926 33.9774 31.0231L35.675 29.9656ZM34.556 28.9361C34.0756 28.6813 33.5447 28.571 32.9938 28.571V30.571C33.2762 30.571 33.4745 30.6264 33.619 30.7031L34.556 28.9361ZM32.9938 28.571C32.4451 28.571 31.9174 28.6823 31.437 28.9333L32.3631 30.706C32.5171 30.6255 32.7186 30.571 32.9938 30.571V28.571ZM31.4475 28.9279C30.9753 29.1675 30.5864 29.5147 30.3055 29.9656L32.0031 31.0231C32.082 30.8963 32.1903 30.7937 32.3526 30.7114L31.4475 28.9279ZM30.3031 29.9694C30.018 30.4318 29.8915 30.9501 29.8915 31.4886H31.8915C31.8915 31.2696 31.9402 31.125 32.0055 31.0192L30.3031 29.9694ZM29.8915 31.4886C29.8915 32.035 30.0218 32.5585 30.3088 33.0268L32.014 31.9817C31.9412 31.8629 31.8915 31.7093 31.8915 31.4886H29.8915ZM30.3088 33.0268C30.5871 33.4809 30.9731 33.8335 31.4441 34.0795L32.3702 32.3068C32.2067 32.2214 32.0955 32.1147 32.014 31.9817L30.3088 33.0268ZM31.4441 34.0795C31.9229 34.3296 32.4477 34.4418 32.9938 34.4418V32.4418C32.7254 32.4418 32.5259 32.3882 32.3702 32.3068L31.4441 34.0795Z" fill="#F9A2B3" fill-opacity="0.8"/>
</g>
<defs>
<filter id="filter0_b_2_98" x="23.3546" y="23.2557" width="19.2855" height="22.9432" filterUnits="userSpaceOnUse" color-interpolation-filters="sRGB">
<feFlood flood-opacity="0" result="BackgroundImageFix"/>
<feGaussianBlur in="BackgroundImage" stdDeviation="2"/>
<feComposite in2="SourceAlpha" operator="in" result="effect1_backgroundBlur_2_98"/>
<feBlend mode="normal" in="SourceGraphic" in2="effect1_backgroundBlur_2_98" result="shape"/>
</filter>
</defs>
</svg>
