<svg width="63" height="66" viewBox="0 0 63 66" fill="none" xmlns="http://www.w3.org/2000/svg">
<path d="M62.5 33C62.5 50.9714 48.5992 65.5 31.5 65.5C14.4008 65.5 0.5 50.9714 0.5 33C0.5 15.0286 14.4008 0.5 31.5 0.5C48.5992 0.5 62.5 15.0286 62.5 33Z" fill="#FEE0E0" stroke="#DF3397"/>
<g filter="url(#filter0_b_2_99)">
<path d="M32.8402 27.2557C33.5883 27.2557 34.308 27.3812 34.9993 27.6321C35.6953 27.883 36.3156 28.2831 36.8601 28.8324C37.4093 29.3816 37.8426 30.1108 38.1598 31.0199C38.4818 31.9242 38.6451 33.0346 38.6499 34.3509C38.6499 35.5866 38.5102 36.6899 38.2308 37.6605C37.9562 38.6264 37.5608 39.4479 37.0447 40.125C36.5286 40.8021 35.906 41.3182 35.1768 41.6733C34.4477 42.0237 33.6333 42.1989 32.7337 42.1989C31.763 42.1989 30.906 42.0118 30.1626 41.6378C29.4193 41.259 28.8203 40.7453 28.3658 40.0966C27.916 39.4432 27.6437 38.7093 27.549 37.8949H30.5817C30.7 38.4252 30.9486 38.8371 31.3274 39.1307C31.7062 39.4195 32.175 39.5639 32.7337 39.5639C33.6806 39.5639 34.4003 39.152 34.8928 38.3281C35.3852 37.4995 35.6338 36.3655 35.6385 34.9261H35.5391C35.3213 35.3523 35.0277 35.7192 34.6584 36.027C34.2891 36.33 33.8653 36.5644 33.3871 36.7301C32.9136 36.8958 32.4093 36.9787 31.8743 36.9787C31.0173 36.9787 30.2526 36.7775 29.5803 36.375C28.9079 35.9725 28.3776 35.4186 27.9893 34.7131C27.6011 34.0076 27.407 33.2027 27.407 32.2983C27.4022 31.3229 27.6271 30.4541 28.0817 29.6918C28.5362 28.9295 29.1707 28.3329 29.9851 27.902C30.8042 27.4664 31.7559 27.2509 32.8402 27.2557ZM32.8615 29.6705C32.3833 29.6705 31.9571 29.7841 31.5831 30.0114C31.2138 30.2386 30.9202 30.544 30.7024 30.9276C30.4893 31.3111 30.3852 31.7396 30.3899 32.2131C30.3899 32.6913 30.4941 33.1222 30.7024 33.5057C30.9155 33.8845 31.2043 34.1875 31.5689 34.4148C31.9382 34.6373 32.3596 34.7486 32.8331 34.7486C33.1882 34.7486 33.5173 34.6823 33.8203 34.5497C34.1233 34.4171 34.3861 34.2348 34.6087 34.0028C34.8359 33.7661 35.0135 33.4938 35.1413 33.1861C35.2692 32.8783 35.3331 32.5516 35.3331 32.206C35.3284 31.7467 35.2195 31.3253 35.0064 30.9418C34.7933 30.5582 34.4998 30.2505 34.1257 30.0185C33.7517 29.7865 33.3303 29.6705 32.8615 29.6705Z" fill="black" fill-opacity="0.25"/>
<path d="M32.8402 27.2557L32.8358 28.2557H32.8402V27.2557ZM34.9993 27.6321L34.6581 28.5721L34.6601 28.5728L34.9993 27.6321ZM36.8601 28.8324L36.1499 29.5364L36.153 29.5395L36.8601 28.8324ZM38.1598 31.0199L37.2156 31.3494L37.2177 31.3553L38.1598 31.0199ZM38.6499 34.3509H39.6499L39.6499 34.3473L38.6499 34.3509ZM38.2308 37.6605L37.2698 37.3839L37.2689 37.387L38.2308 37.6605ZM37.0447 40.125L37.84 40.7312L37.84 40.7312L37.0447 40.125ZM35.1768 41.6733L35.61 42.5746L35.6147 42.5723L35.1768 41.6733ZM30.1626 41.6378L29.7086 42.5288L29.7132 42.5311L30.1626 41.6378ZM28.3658 40.0966L27.542 40.6636L27.5468 40.6705L28.3658 40.0966ZM27.549 37.8949V36.8949H26.426L26.5557 38.0104L27.549 37.8949ZM30.5817 37.8949L31.5577 37.677L31.3831 36.8949H30.5817V37.8949ZM31.3274 39.1307L30.7148 39.9211L30.7211 39.9259L31.3274 39.1307ZM34.8928 38.3281L35.7511 38.8412L35.7524 38.839L34.8928 38.3281ZM35.6385 34.9261L36.6385 34.9294L36.6418 33.9261H35.6385V34.9261ZM35.5391 34.9261V33.9261H34.9271L34.6486 34.471L35.5391 34.9261ZM34.6584 36.027L35.2927 36.8001L35.2986 36.7952L34.6584 36.027ZM33.3871 36.7301L33.0596 35.7852L33.0567 35.7863L33.3871 36.7301ZM29.5803 36.375L29.0666 37.233L29.0666 37.233L29.5803 36.375ZM27.9893 34.7131L27.1133 35.1952L27.1133 35.1952L27.9893 34.7131ZM27.407 32.2983H28.407L28.4069 32.2934L27.407 32.2983ZM28.0817 29.6918L28.9406 30.2039L28.9406 30.2039L28.0817 29.6918ZM29.9851 27.902L30.4527 28.7859L30.4546 28.7849L29.9851 27.902ZM31.5831 30.0114L31.0638 29.1567L31.059 29.1597L31.5831 30.0114ZM30.7024 30.9276L29.8328 30.4337L29.8283 30.4419L30.7024 30.9276ZM30.3899 32.2131H31.39L31.3899 32.2031L30.3899 32.2131ZM30.7024 33.5057L29.8237 33.983L29.8272 33.9895L29.8308 33.9959L30.7024 33.5057ZM31.5689 34.4148L31.0399 35.2634L31.0463 35.2674L31.0528 35.2713L31.5689 34.4148ZM33.8203 34.5497L33.4195 33.6336L33.4195 33.6336L33.8203 34.5497ZM34.6087 34.0028L33.8873 33.3103L33.887 33.3106L34.6087 34.0028ZM35.1413 33.1861L36.0648 33.5697L36.0648 33.5697L35.1413 33.1861ZM35.3331 32.206L36.3332 32.206L36.333 32.1957L35.3331 32.206ZM35.0064 30.9418L35.8805 30.4561L35.8805 30.4561L35.0064 30.9418ZM34.1257 30.0185L34.6528 29.1687L34.6528 29.1687L34.1257 30.0185ZM32.8402 28.2557C33.474 28.2557 34.0781 28.3615 34.6581 28.5721L35.3405 26.6921C34.5379 26.4008 33.7026 26.2557 32.8402 26.2557V28.2557ZM34.6601 28.5728C35.2101 28.7711 35.7051 29.0877 36.1499 29.5364L37.5702 28.1283C36.926 27.4785 36.1805 26.995 35.3385 26.6914L34.6601 28.5728ZM36.153 29.5395C36.5734 29.9599 36.9364 30.5491 37.2156 31.3494L39.104 30.6904C38.7488 29.6725 38.2453 28.8033 37.5672 28.1253L36.153 29.5395ZM37.2177 31.3553C37.4906 32.1217 37.6454 33.1122 37.6499 34.3544L39.6499 34.3473C39.6449 32.9569 39.473 31.7268 39.1019 30.6845L37.2177 31.3553ZM37.6499 34.3509C37.6499 35.5131 37.5183 36.5206 37.2698 37.3839L39.1918 37.9371C39.5021 36.8591 39.6499 35.6602 39.6499 34.3509H37.6499ZM37.2689 37.387C37.0225 38.2538 36.6774 38.9574 36.2494 39.5188L37.84 40.7312C38.4443 39.9385 38.8899 38.9991 39.1927 37.934L37.2689 37.387ZM36.2494 39.5188C35.8232 40.078 35.3208 40.4909 34.739 40.7742L35.6147 42.5723C36.4913 42.1455 37.2341 41.5261 37.84 40.7312L36.2494 39.5188ZM34.7437 40.772C34.1642 41.0504 33.5003 41.1989 32.7337 41.1989V43.1989C33.7663 43.1989 34.7311 42.9969 35.61 42.5746L34.7437 40.772ZM32.7337 41.1989C31.8932 41.1989 31.1946 41.0376 30.6121 40.7445L29.7132 42.5311C30.6174 42.9861 31.6329 43.1989 32.7337 43.1989V41.1989ZM30.6167 40.7468C30.011 40.4382 29.5404 40.0302 29.1847 39.5227L27.5468 40.6705C28.1003 41.4603 28.8275 42.0798 29.7086 42.5288L30.6167 40.7468ZM29.1895 39.5296C28.8354 39.0152 28.6188 38.4373 28.5423 37.7794L26.5557 38.0104C26.6686 38.9812 26.9966 39.8712 27.5421 40.6636L29.1895 39.5296ZM27.549 38.8949H30.5817V36.8949H27.549V38.8949ZM29.6057 38.1127C29.7676 38.8382 30.1274 39.4658 30.7148 39.9211L31.94 38.3403C31.7698 38.2084 31.6325 38.0122 31.5577 37.677L29.6057 38.1127ZM30.7211 39.9259C31.303 40.3696 31.9952 40.5639 32.7337 40.5639V38.5639C32.3547 38.5639 32.1094 38.4694 31.9338 38.3355L30.7211 39.9259ZM32.7337 40.5639C34.0383 40.5639 35.0812 39.962 35.7511 38.8412L34.0344 37.8151C33.7195 38.342 33.3229 38.5639 32.7337 38.5639V40.5639ZM35.7524 38.839C36.3704 37.799 36.6334 36.4656 36.6385 34.9294L34.6385 34.9228C34.6341 36.2654 34.3999 37.2 34.0331 37.8172L35.7524 38.839ZM35.6385 33.9261H35.5391V35.9261H35.6385V33.9261ZM34.6486 34.471C34.4925 34.7764 34.2843 35.037 34.0182 35.2588L35.2986 36.7952C35.7711 36.4014 36.15 35.9281 36.4295 35.3812L34.6486 34.471ZM34.0241 35.2539C33.7514 35.4776 33.4329 35.6559 33.0596 35.7852L33.7145 37.675C34.2977 37.4729 34.8267 37.1824 35.2927 36.8001L34.0241 35.2539ZM33.0567 35.7863C32.6963 35.9124 32.3044 35.9787 31.8743 35.9787V37.9787C32.5143 37.9787 33.1309 37.8793 33.7174 37.674L33.0567 35.7863ZM31.8743 35.9787C31.1807 35.9787 30.5966 35.8179 30.0939 35.517L29.0666 37.233C29.9086 37.737 30.8539 37.9787 31.8743 37.9787V35.9787ZM30.0939 35.517C29.5778 35.2081 29.1708 34.7857 28.8654 34.2309L27.1133 35.1952C27.5844 36.0514 28.238 36.737 29.0666 37.233L30.0939 35.517ZM28.8654 34.2309C28.5681 33.6906 28.407 33.0552 28.407 32.2983H26.407C26.407 33.3501 26.6341 34.3246 27.1133 35.1952L28.8654 34.2309ZM28.4069 32.2934C28.403 31.4814 28.5883 30.7947 28.9406 30.2039L27.2228 29.1796C26.666 30.1134 26.4014 31.1644 26.407 32.3031L28.4069 32.2934ZM28.9406 30.2039C29.2976 29.6052 29.7939 29.1345 30.4527 28.7859L29.5174 27.0181C28.5475 27.5312 27.7749 28.2537 27.2228 29.1796L28.9406 30.2039ZM30.4546 28.7849C31.105 28.439 31.8888 28.2515 32.8358 28.2557L32.8446 26.2557C31.623 26.2504 30.5034 26.4937 29.5156 27.0191L30.4546 28.7849ZM32.8615 28.6705C32.2177 28.6705 31.6087 28.8257 31.0638 29.1567L32.1024 30.866C32.3056 30.7425 32.5489 30.6705 32.8615 30.6705V28.6705ZM31.059 29.1597C30.5437 29.4768 30.1324 29.9064 29.8329 30.4337L31.572 31.4214C31.7081 31.1817 31.8839 31.0005 32.1072 30.863L31.059 29.1597ZM29.8283 30.4419C29.5244 30.9889 29.3836 31.5904 29.39 32.2231L31.3899 32.2031C31.3867 31.8887 31.4543 31.6333 31.5766 31.4132L29.8283 30.4419ZM29.3899 32.2131C29.3899 32.8417 29.5283 33.4393 29.8237 33.983L31.5811 33.0283C31.4598 32.805 31.3899 32.5409 31.3899 32.2131H29.3899ZM29.8308 33.9959C30.1252 34.5193 30.5311 34.9462 31.0399 35.2634L32.0979 33.5662C31.8775 33.4288 31.7058 33.2497 31.574 33.0154L29.8308 33.9959ZM31.0528 35.2713C31.5929 35.5968 32.1961 35.7486 32.8331 35.7486V33.7486C32.5231 33.7486 32.2835 33.6778 32.085 33.5583L31.0528 35.2713ZM32.8331 35.7486C33.3159 35.7486 33.7826 35.6577 34.2211 35.4659L33.4195 33.6336C33.252 33.7069 33.0605 33.7486 32.8331 33.7486V35.7486ZM34.2211 35.4659C34.6413 35.2821 35.014 35.0249 35.3303 34.6951L33.887 33.3106C33.7583 33.4448 33.6054 33.5522 33.4195 33.6336L34.2211 35.4659ZM35.3301 34.6954C35.6446 34.3677 35.8901 33.9903 36.0648 33.5697L34.2178 32.8025C34.1369 32.9974 34.0272 33.1645 33.8873 33.3103L35.3301 34.6954ZM36.0648 33.5697C36.2451 33.1358 36.3331 32.6783 36.3331 32.206H34.3331C34.3331 32.4249 34.2933 32.6208 34.2178 32.8025L36.0648 33.5697ZM36.333 32.1957C36.3267 31.578 36.1783 30.9921 35.8805 30.4561L34.1322 31.4274C34.2606 31.6585 34.33 31.9154 34.3332 32.2163L36.333 32.1957ZM35.8805 30.4561C35.5844 29.9231 35.1712 29.4902 34.6528 29.1687L33.5986 30.8683C33.8283 31.0108 34.0022 31.1934 34.1322 31.4274L35.8805 30.4561ZM34.6528 29.1687C34.1101 28.832 33.5039 28.6705 32.8615 28.6705V30.6705C33.1566 30.6705 33.3932 30.7409 33.5986 30.8683L34.6528 29.1687Z" fill="#DF3397"/>
</g>
<defs>
<filter id="filter0_b_2_99" x="23.3999" y="23.2486" width="19.25" height="22.9503" filterUnits="userSpaceOnUse" color-interpolation-filters="sRGB">
<feFlood flood-opacity="0" result="BackgroundImageFix"/>
<feGaussianBlur in="BackgroundImage" stdDeviation="2"/>
<feComposite in2="SourceAlpha" operator="in" result="effect1_backgroundBlur_2_99"/>
<feBlend mode="normal" in="SourceGraphic" in2="effect1_backgroundBlur_2_99" result="shape"/>
</filter>
</defs>
</svg>
