<svg width="63" height="65" viewBox="0 0 63 65" fill="none" xmlns="http://www.w3.org/2000/svg">
<path d="M62.5 32.5C62.5 50.188 48.6062 64.5 31.5 64.5C14.3938 64.5 0.5 50.188 0.5 32.5C0.5 14.812 14.3938 0.5 31.5 0.5C48.6062 0.5 62.5 14.812 62.5 32.5Z" fill="#FBC6C2" stroke="#4B006B"/>
<g filter="url(#filter0_b_2_85)">
<path d="M37.5785 32.5469H34.4677C34.4109 32.1444 34.2949 31.7869 34.1197 31.4744C33.9445 31.1572 33.7196 30.8873 33.445 30.6648C33.1703 30.4422 32.8531 30.2718 32.4933 30.1534C32.1381 30.035 31.7522 29.9759 31.3356 29.9759C30.5827 29.9759 29.927 30.1629 29.3683 30.5369C28.8095 30.9062 28.3763 31.446 28.0685 32.1562C27.7608 32.8617 27.6069 33.7187 27.6069 34.7273C27.6069 35.7642 27.7608 36.6354 28.0685 37.3409C28.381 38.0464 28.8166 38.5791 29.3754 38.9389C29.9341 39.2988 30.5804 39.4787 31.3143 39.4787C31.7262 39.4787 32.1074 39.4242 32.4577 39.3153C32.8129 39.2064 33.1277 39.0478 33.4023 38.8395C33.677 38.6264 33.9042 38.3684 34.0842 38.0653C34.2688 37.7623 34.3967 37.4167 34.4677 37.0284L37.5785 37.0426C37.498 37.7102 37.2968 38.3542 36.9748 38.9744C36.6576 39.59 36.229 40.1416 35.6893 40.6293C35.1542 41.1122 34.515 41.4957 33.7717 41.7798C33.033 42.0592 32.1973 42.1989 31.2646 42.1989C29.9672 42.1989 28.8072 41.9053 27.7844 41.3182C26.7665 40.7311 25.9615 39.8812 25.3697 38.7685C24.7826 37.6558 24.489 36.3087 24.489 34.7273C24.489 33.1411 24.7873 31.7917 25.3839 30.679C25.9805 29.5663 26.7901 28.7187 27.8129 28.1364C28.8356 27.5492 29.9862 27.2557 31.2646 27.2557C32.1074 27.2557 32.8886 27.3741 33.6083 27.6108C34.3327 27.8475 34.9743 28.1932 35.533 28.6477C36.0917 29.0975 36.5463 29.6491 36.8967 30.3026C37.2518 30.956 37.479 31.7041 37.5785 32.5469Z" fill="#45006A"/>
</g>
<defs>
<filter id="filter0_b_2_85" x="20.489" y="23.2557" width="21.0895" height="22.9432" filterUnits="userSpaceOnUse" color-interpolation-filters="sRGB">
<feFlood flood-opacity="0" result="BackgroundImageFix"/>
<feGaussianBlur in="BackgroundImage" stdDeviation="2"/>
<feComposite in2="SourceAlpha" operator="in" result="effect1_backgroundBlur_2_85"/>
<feBlend mode="normal" in="SourceGraphic" in2="effect1_backgroundBlur_2_85" result="shape"/>
</filter>
</defs>
</svg>
