<svg width="63" height="65" viewBox="0 0 63 65" fill="none" xmlns="http://www.w3.org/2000/svg">
<path d="M62.5 32.5C62.5 50.188 48.6062 64.5 31.5 64.5C14.3938 64.5 0.5 50.188 0.5 32.5C0.5 14.812 14.3938 0.5 31.5 0.5C48.6062 0.5 62.5 14.812 62.5 32.5Z" fill="#FBC6C2" stroke="#4B006B"/>
<g filter="url(#filter0_b_2_88)">
<path d="M32.5469 42.2727V41.5057C32.5469 40.9233 32.67 40.3883 32.9162 39.9006C33.1671 39.4081 33.5294 39.0152 34.0028 38.7216C34.4811 38.4233 35.0634 38.2741 35.75 38.2741C36.446 38.2741 37.0308 38.4209 37.5043 38.7145C37.9825 39.008 38.3423 39.401 38.5838 39.8935C38.83 40.3812 38.9531 40.9186 38.9531 41.5057V42.2727C38.9531 42.8551 38.83 43.3925 38.5838 43.8849C38.3376 44.3726 37.9754 44.7633 37.4972 45.0568C37.0189 45.3551 36.4366 45.5043 35.75 45.5043C35.054 45.5043 34.4692 45.3551 33.9957 45.0568C33.5223 44.7633 33.1624 44.3726 32.9162 43.8849C32.67 43.3925 32.5469 42.8551 32.5469 42.2727ZM34.6136 41.5057V42.2727C34.6136 42.6089 34.6941 42.9261 34.8551 43.2244C35.0208 43.5227 35.3191 43.6719 35.75 43.6719C36.1809 43.6719 36.4744 43.5251 36.6307 43.2315C36.7917 42.938 36.8722 42.6184 36.8722 42.2727V41.5057C36.8722 41.16 36.7964 40.8381 36.6449 40.5398C36.4934 40.2415 36.1951 40.0923 35.75 40.0923C35.3239 40.0923 35.0279 40.2415 34.8622 40.5398C34.6965 40.8381 34.6136 41.16 34.6136 41.5057ZM25.0824 33.9489V33.1818C25.0824 32.5947 25.2079 32.0573 25.4588 31.5696C25.7098 31.0772 26.072 30.6842 26.5455 30.3906C27.0237 30.0971 27.6013 29.9503 28.2784 29.9503C28.9792 29.9503 29.5663 30.0971 30.0398 30.3906C30.5133 30.6842 30.8731 31.0772 31.1193 31.5696C31.3655 32.0573 31.4886 32.5947 31.4886 33.1818V33.9489C31.4886 34.536 31.3632 35.0734 31.1122 35.5611C30.866 36.0488 30.5038 36.4394 30.0256 36.733C29.5521 37.0218 28.9697 37.1662 28.2784 37.1662C27.5871 37.1662 27.0024 37.0194 26.5241 36.7259C26.0507 36.4276 25.6908 36.0369 25.4446 35.554C25.2031 35.0663 25.0824 34.5312 25.0824 33.9489ZM27.1634 33.1818V33.9489C27.1634 34.2945 27.2438 34.6141 27.4048 34.9077C27.5705 35.2012 27.8617 35.348 28.2784 35.348C28.714 35.348 29.0099 35.2012 29.1662 34.9077C29.3272 34.6141 29.4077 34.2945 29.4077 33.9489V33.1818C29.4077 32.8362 29.3319 32.5142 29.1804 32.2159C29.0289 31.9176 28.7282 31.7685 28.2784 31.7685C27.857 31.7685 27.5658 31.92 27.4048 32.223C27.2438 32.526 27.1634 32.8456 27.1634 33.1818ZM26.0199 45L36.0199 30.4545H37.8807L27.8807 45H26.0199Z" fill="#45006A"/>
</g>
<defs>
<filter id="filter0_b_2_88" x="21.0824" y="25.9503" width="21.8707" height="23.554" filterUnits="userSpaceOnUse" color-interpolation-filters="sRGB">
<feFlood flood-opacity="0" result="BackgroundImageFix"/>
<feGaussianBlur in="BackgroundImage" stdDeviation="2"/>
<feComposite in2="SourceAlpha" operator="in" result="effect1_backgroundBlur_2_88"/>
<feBlend mode="normal" in="SourceGraphic" in2="effect1_backgroundBlur_2_88" result="shape"/>
</filter>
</defs>
</svg>
